<svg width="25" height="25" viewBox="0 0 25 25" fill="none" xmlns="http://www.w3.org/2000/svg">
<path d="M22.8448 18.9975C22.4712 19.836 22.0289 20.6078 21.5165 21.3174C20.8181 22.2848 20.2462 22.9544 19.8055 23.3262C19.1223 23.9366 18.3903 24.2492 17.6064 24.2669C17.0437 24.2669 16.3651 24.1114 15.5751 23.7958C14.7825 23.4818 14.0542 23.3262 13.3882 23.3262C12.6898 23.3262 11.9407 23.4818 11.1395 23.7958C10.337 24.1114 9.69055 24.2758 9.19629 24.2921C8.44462 24.3232 7.69538 24.0018 6.94752 23.3262C6.47019 22.9218 5.87315 22.2285 5.15792 21.2463C4.39054 20.1974 3.75964 18.9812 3.26538 17.5945C2.73605 16.0968 2.4707 14.6465 2.4707 13.2424C2.4707 11.634 2.82847 10.2468 3.54507 9.08429C4.10826 8.15054 4.85749 7.41397 5.79522 6.87325C6.73295 6.33252 7.74616 6.05698 8.83731 6.03935C9.43435 6.03935 10.2173 6.21875 11.1902 6.57133C12.1605 6.9251 12.7834 7.1045 13.0565 7.1045C13.2607 7.1045 13.9528 6.89473 15.126 6.47652C16.2354 6.08868 17.1718 5.92809 17.9389 5.99135C20.0174 6.15431 21.5791 6.95028 22.6176 8.38431C20.7586 9.4785 19.839 11.011 19.8573 12.9771C19.8741 14.5084 20.446 15.7828 21.5699 16.7946C22.0793 17.2642 22.6481 17.6271 23.281 17.8849C23.1437 18.2716 22.9988 18.6419 22.8448 18.9975ZM18.0776 0.774323C18.0776 1.9746 17.6262 3.09529 16.7265 4.13259C15.6407 5.36574 14.3273 6.07831 12.9031 5.96587C12.885 5.82187 12.8745 5.67032 12.8745 5.51107C12.8745 4.35881 13.3908 3.12566 14.3078 2.11739C14.7656 1.60689 15.3479 1.18241 16.0539 0.843802C16.7585 0.510242 17.4249 0.325774 18.0517 0.294189C18.07 0.454644 18.0776 0.615113 18.0776 0.774308V0.774323Z" fill="#6A6763"/>
</svg>
