<svg width="1440" height="355" viewBox="0 0 1440 355" fill="none" xmlns="http://www.w3.org/2000/svg">
<path fill-rule="evenodd" clip-rule="evenodd" d="M754.652 322.645L755.356 257.678C755.666 255.682 755.219 253.859 754.082 252.379C752.843 250.281 751.535 248.354 750.123 246.29C749.572 245.464 748.986 244.639 748.47 243.847C746.37 240.407 743.787 237.139 741.102 234.455C740.757 234.111 740.379 233.664 740 233.182C741.343 234.249 742.685 235.212 743.994 236.141C744.82 236.76 745.681 237.414 746.507 238.067C746.769 238.266 747.028 238.465 747.285 238.663C747.874 239.115 748.456 239.563 749.055 239.994C750.088 240.923 751.535 240.992 752.395 240.132C753.256 239.237 753.187 237.792 752.257 236.76C751.603 235.866 750.88 234.696 750.192 233.526C749.331 232.15 748.401 230.808 747.472 229.501C746.198 227.746 745.027 226.061 744.063 224.272C743.374 223.033 742.376 221.21 741.825 219.214C741.894 219.145 741.963 219.111 741.963 219.111C741.963 219.111 741.994 219.122 742.046 219.137C742.088 219.149 742.142 219.165 742.203 219.18H742.238L742.41 219.352C745.061 222.551 747.127 225.373 748.883 228.228C749.882 229.845 750.949 231.428 751.982 232.941C752.244 233.335 752.509 233.728 752.775 234.122C753.484 235.175 754.198 236.234 754.874 237.311C755.15 238.205 756.011 238.893 757.009 238.893H757.732L758.249 238.377C759.006 237.586 759.006 236.76 759.006 236.382C759.006 235.35 758.765 234.455 758.524 233.698C758.421 233.354 758.317 232.976 758.249 232.597L757.181 229.295C755.77 224.925 754.461 220.831 753.256 216.428C753.049 215.808 752.912 215.155 752.877 214.707C752.912 214.501 752.946 214.432 752.946 214.432C752.981 214.398 753.084 214.363 753.359 214.295C753.945 214.226 754.633 214.673 754.874 215.43C755.081 215.98 755.253 216.565 755.425 217.116C755.632 217.804 755.838 218.457 756.079 219.042L756.251 219.532C757.885 224.197 759.573 229.014 761.003 233.767L761.042 233.875C761.346 234.723 761.743 235.831 762.931 236.623L763.345 236.829C763.827 237.001 764.859 237.345 765.755 236.691C766.34 236.278 766.65 235.59 766.65 234.696V232.873C766.374 228.813 765.651 224.856 764.894 221.141L764.846 220.879C764.381 218.326 763.938 215.894 764.171 213.366C764.171 213.262 764.205 213.022 764.343 212.781C764.584 213.194 764.825 213.606 764.963 214.019C765.903 216.212 766.673 218.719 767.427 221.176L767.649 221.898L768.096 223.412C770.059 229.983 771.78 236.623 773.226 243.194L773.364 243.606C774.225 245.327 775.705 245.361 776.601 244.914C778.116 244.295 779.459 243.813 781.387 243.262L782.489 242.884C784.899 242.058 787.206 241.301 789.581 240.889H789.65L789.581 240.992C789.547 241.061 789.409 241.129 789.34 241.198C789.286 241.242 789.235 241.282 789.187 241.32C789.081 241.404 788.987 241.482 788.893 241.577C787.998 242.471 787.102 243.159 786.242 243.813C781.217 247.07 777.196 251.33 773.256 255.505L773.089 255.682C771.298 257.781 770.265 260.086 769.99 262.528V262.769C769.99 262.846 770.122 316.955 770.191 322.645H773.637C773.574 317.373 773.46 263.58 773.433 262.735C773.64 261.049 774.431 259.398 775.671 257.953L775.746 257.873C779.679 253.705 783.414 249.745 788.204 246.634L788.392 246.492C789.336 245.777 790.343 245.015 791.441 243.951C791.491 243.906 791.548 243.86 791.608 243.81C791.877 243.588 792.227 243.299 792.508 242.85C794.23 240.992 793.369 239.34 793.059 238.859C792.026 237.345 790.511 237.345 789.375 237.345L789.099 237.379C786.656 237.781 784.435 238.516 782.111 239.285C781.848 239.372 781.584 239.459 781.318 239.547L780.319 239.891C778.839 240.304 777.599 240.717 776.36 241.198C774.948 234.937 773.295 228.641 771.436 222.379L770.988 220.866C770.884 220.533 770.78 220.198 770.676 219.862C769.917 217.421 769.142 214.928 768.234 212.781C767.924 211.852 767.407 211.026 766.857 210.235C766.478 209.616 765.514 208.515 763.31 209.237L763.069 209.34C761.554 210.097 760.624 211.611 760.624 213.194C760.349 216.118 760.865 219.008 761.382 221.795C761.461 222.21 761.543 222.628 761.625 223.048C761.83 224.09 762.036 225.144 762.208 226.198C761.48 223.987 760.708 221.796 759.945 219.627C759.734 219.029 759.524 218.433 759.316 217.838C759.109 217.288 758.937 216.703 758.765 216.152C758.593 215.499 758.386 214.811 758.145 214.26C757.388 211.955 755.046 210.476 752.705 210.889C750.777 211.267 749.744 212.299 749.365 214.226L749.331 214.57C749.331 215.671 749.71 216.944 749.882 217.494C750.915 221.244 752.016 224.856 753.222 228.572C752.998 228.211 752.765 227.85 752.533 227.488C752.3 227.127 752.068 226.766 751.844 226.405C749.985 223.377 747.816 220.453 745.061 217.116L744.889 216.944C744.648 216.6 744.063 215.912 743.064 215.774C742.203 215.499 741.102 215.43 739.793 216.29C737.865 217.563 738.072 219.18 738.313 219.902C738.76 221.691 739.587 223.652 740.93 225.957C741.851 227.707 742.991 229.346 744.107 230.95C744.242 231.144 744.377 231.338 744.51 231.531C744.818 232.009 745.16 232.488 745.502 232.966L745.509 232.976C743.925 231.84 742.444 230.774 740.998 229.535C740.138 228.71 739.208 228.297 738.037 228.297C736.694 228.297 735.937 228.882 735.558 229.363C735.214 229.811 734.835 230.602 735.076 231.772C735.145 232.528 735.524 233.113 735.799 233.492C735.822 233.526 735.849 233.561 735.876 233.595C735.929 233.664 735.983 233.733 736.006 233.801L736.178 234.077C736.935 235.109 737.727 236.141 738.554 236.967C741.067 239.478 743.443 242.506 745.474 245.774C746.06 246.634 746.645 247.46 747.196 248.285L747.224 248.326C748.591 250.341 749.89 252.256 751.087 254.272L751.224 254.478C751.81 255.235 752.016 256.164 751.844 257.265L751.106 322.645H754.652ZM775.223 241.714C775.189 241.714 775.155 241.749 775.155 241.749C775.189 241.749 775.223 241.714 775.223 241.714Z" fill="#3B3B3B"/>
<path fill-rule="evenodd" clip-rule="evenodd" d="M939.652 246.645L940.356 181.678C940.666 179.682 940.219 177.859 939.082 176.379C937.843 174.281 936.535 172.354 935.123 170.29C934.572 169.464 933.986 168.639 933.47 167.847C931.37 164.407 928.787 161.139 926.102 158.455C925.757 158.111 925.379 157.664 925 157.182C926.343 158.249 927.685 159.212 928.994 160.141C929.82 160.76 930.681 161.414 931.507 162.067C931.769 162.266 932.028 162.465 932.285 162.663C932.874 163.115 933.456 163.563 934.055 163.994C935.088 164.923 936.535 164.992 937.395 164.132C938.256 163.237 938.187 161.792 937.257 160.76C936.603 159.866 935.88 158.696 935.192 157.526C934.331 156.15 933.401 154.808 932.472 153.501C931.198 151.746 930.027 150.061 929.063 148.272C928.374 147.033 927.376 145.21 926.825 143.214C926.894 143.145 926.963 143.111 926.963 143.111C926.963 143.111 926.994 143.122 927.046 143.137C927.088 143.149 927.142 143.165 927.203 143.18H927.238L927.41 143.352C930.061 146.551 932.127 149.373 933.883 152.228C934.882 153.845 935.949 155.428 936.982 156.941C937.244 157.335 937.509 157.728 937.775 158.122C938.484 159.175 939.198 160.234 939.874 161.311C940.15 162.205 941.011 162.893 942.009 162.893H942.732L943.249 162.377C944.006 161.586 944.006 160.76 944.006 160.382C944.006 159.35 943.765 158.455 943.524 157.698C943.421 157.354 943.317 156.976 943.249 156.597L942.181 153.295C940.77 148.925 939.461 144.831 938.256 140.428C938.049 139.808 937.912 139.155 937.877 138.707C937.912 138.501 937.946 138.432 937.946 138.432C937.981 138.398 938.084 138.363 938.359 138.295C938.945 138.226 939.633 138.673 939.874 139.43C940.081 139.98 940.253 140.565 940.425 141.116C940.632 141.804 940.838 142.457 941.079 143.042L941.251 143.532C942.885 148.197 944.573 153.014 946.003 157.767L946.042 157.875C946.346 158.723 946.743 159.831 947.931 160.623L948.345 160.829C948.827 161.001 949.859 161.345 950.755 160.691C951.34 160.278 951.65 159.59 951.65 158.696V156.873C951.374 152.813 950.651 148.856 949.894 145.141L949.846 144.879C949.381 142.326 948.938 139.894 949.171 137.366C949.171 137.262 949.205 137.022 949.343 136.781C949.584 137.194 949.825 137.606 949.963 138.019C950.903 140.212 951.673 142.719 952.427 145.176L952.649 145.898L953.096 147.412C955.059 153.983 956.78 160.623 958.226 167.194L958.364 167.606C959.225 169.327 960.705 169.361 961.601 168.914C963.116 168.295 964.459 167.813 966.387 167.262L967.489 166.884C969.899 166.058 972.206 165.301 974.581 164.889H974.65L974.581 164.992C974.547 165.061 974.409 165.129 974.34 165.198C974.286 165.242 974.235 165.282 974.187 165.32C974.081 165.404 973.987 165.482 973.893 165.577C972.998 166.471 972.102 167.159 971.242 167.813C966.217 171.07 962.196 175.33 958.256 179.505L958.089 179.682C956.298 181.781 955.265 184.086 954.99 186.528V186.769C954.99 186.846 955.122 240.955 955.191 246.645H958.637C958.574 241.373 958.46 187.58 958.433 186.735C958.64 185.049 959.431 183.398 960.671 181.953L960.746 181.873C964.679 177.705 968.414 173.745 973.204 170.634L973.392 170.492C974.336 169.777 975.343 169.015 976.441 167.951C976.491 167.906 976.548 167.86 976.608 167.81C976.877 167.588 977.227 167.299 977.508 166.85C979.23 164.992 978.369 163.34 978.059 162.859C977.026 161.345 975.511 161.345 974.375 161.345L974.099 161.379C971.656 161.781 969.435 162.516 967.111 163.285C966.848 163.372 966.584 163.459 966.318 163.547L965.319 163.891C963.839 164.304 962.599 164.717 961.36 165.198C959.948 158.937 958.295 152.641 956.436 146.379L955.988 144.866C955.884 144.533 955.78 144.198 955.676 143.862C954.917 141.421 954.142 138.928 953.234 136.781C952.924 135.852 952.407 135.026 951.857 134.235C951.478 133.616 950.514 132.515 948.31 133.237L948.069 133.34C946.554 134.097 945.624 135.611 945.624 137.194C945.349 140.118 945.865 143.008 946.382 145.795C946.461 146.21 946.543 146.628 946.625 147.048C946.83 148.09 947.036 149.144 947.208 150.198C946.48 147.987 945.708 145.796 944.945 143.627C944.734 143.029 944.524 142.433 944.316 141.838C944.109 141.288 943.937 140.703 943.765 140.152C943.593 139.499 943.386 138.811 943.145 138.26C942.388 135.955 940.046 134.476 937.705 134.889C935.777 135.267 934.744 136.299 934.365 138.226L934.331 138.57C934.331 139.671 934.71 140.944 934.882 141.494C935.915 145.244 937.016 148.856 938.222 152.572C937.998 152.211 937.765 151.85 937.533 151.488C937.3 151.127 937.068 150.766 936.844 150.405C934.985 147.377 932.816 144.453 930.061 141.116L929.889 140.944C929.648 140.6 929.063 139.912 928.064 139.774C927.203 139.499 926.102 139.43 924.793 140.29C922.865 141.563 923.072 143.18 923.313 143.902C923.76 145.691 924.587 147.652 925.93 149.957C926.851 151.707 927.991 153.346 929.107 154.95C929.242 155.144 929.377 155.338 929.51 155.531C929.818 156.009 930.16 156.488 930.502 156.966L930.509 156.976C928.925 155.84 927.444 154.774 925.998 153.535C925.138 152.71 924.208 152.297 923.037 152.297C921.694 152.297 920.937 152.882 920.558 153.363C920.214 153.811 919.835 154.602 920.076 155.772C920.145 156.528 920.524 157.113 920.799 157.492C920.822 157.526 920.849 157.561 920.876 157.595C920.929 157.664 920.983 157.733 921.006 157.801L921.178 158.077C921.935 159.109 922.727 160.141 923.554 160.967C926.067 163.478 928.443 166.506 930.474 169.774C931.06 170.634 931.645 171.46 932.196 172.285L932.224 172.326C933.591 174.341 934.89 176.256 936.087 178.272L936.224 178.478C936.81 179.235 937.016 180.164 936.844 181.265L936.106 246.645H939.652ZM960.223 165.714C960.189 165.714 960.155 165.749 960.155 165.749C960.189 165.749 960.223 165.714 960.223 165.714Z" fill="#3B3B3B"/>
<path fill-rule="evenodd" clip-rule="evenodd" d="M1203.65 265.645L1204.36 200.678C1204.67 198.682 1204.22 196.859 1203.08 195.379C1201.84 193.281 1200.53 191.354 1199.12 189.29C1198.57 188.464 1197.99 187.639 1197.47 186.847C1195.37 183.407 1192.79 180.139 1190.1 177.455C1189.76 177.111 1189.38 176.664 1189 176.182C1190.34 177.249 1191.69 178.212 1192.99 179.141C1193.82 179.76 1194.68 180.414 1195.51 181.067C1195.77 181.266 1196.03 181.465 1196.29 181.663C1196.87 182.115 1197.46 182.563 1198.06 182.994C1199.09 183.923 1200.53 183.992 1201.4 183.132C1202.26 182.237 1202.19 180.792 1201.26 179.76C1200.6 178.866 1199.88 177.696 1199.19 176.526C1198.33 175.15 1197.4 173.808 1196.47 172.501C1195.2 170.746 1194.03 169.061 1193.06 167.272C1192.37 166.033 1191.38 164.21 1190.82 162.214C1190.89 162.145 1190.96 162.111 1190.96 162.111C1190.96 162.111 1190.99 162.122 1191.05 162.137C1191.09 162.149 1191.14 162.165 1191.2 162.18H1191.24L1191.41 162.352C1194.06 165.551 1196.13 168.373 1197.88 171.228C1198.88 172.845 1199.95 174.428 1200.98 175.941C1201.24 176.335 1201.51 176.728 1201.77 177.122C1202.48 178.175 1203.2 179.234 1203.87 180.311C1204.15 181.205 1205.01 181.893 1206.01 181.893H1206.73L1207.25 181.377C1208.01 180.586 1208.01 179.76 1208.01 179.382C1208.01 178.35 1207.76 177.455 1207.52 176.698C1207.42 176.354 1207.32 175.976 1207.25 175.597L1206.18 172.295C1204.77 167.925 1203.46 163.831 1202.26 159.428C1202.05 158.808 1201.91 158.155 1201.88 157.707C1201.91 157.501 1201.95 157.432 1201.95 157.432C1201.98 157.398 1202.08 157.363 1202.36 157.295C1202.94 157.226 1203.63 157.673 1203.87 158.43C1204.08 158.98 1204.25 159.565 1204.43 160.116C1204.63 160.804 1204.84 161.457 1205.08 162.042L1205.25 162.532C1206.89 167.197 1208.57 172.014 1210 176.767L1210.04 176.875C1210.35 177.723 1210.74 178.831 1211.93 179.623L1212.34 179.829C1212.83 180.001 1213.86 180.345 1214.75 179.691C1215.34 179.278 1215.65 178.59 1215.65 177.696V175.873C1215.37 171.813 1214.65 167.856 1213.89 164.141L1213.85 163.879C1213.38 161.326 1212.94 158.894 1213.17 156.366C1213.17 156.262 1213.21 156.022 1213.34 155.781C1213.58 156.194 1213.83 156.606 1213.96 157.019C1214.9 159.212 1215.67 161.719 1216.43 164.176L1216.65 164.898L1217.1 166.412C1219.06 172.983 1220.78 179.623 1222.23 186.194L1222.36 186.606C1223.22 188.327 1224.71 188.361 1225.6 187.914C1227.12 187.295 1228.46 186.813 1230.39 186.262L1231.49 185.884C1233.9 185.058 1236.21 184.301 1238.58 183.889H1238.65L1238.58 183.992C1238.55 184.061 1238.41 184.129 1238.34 184.198C1238.29 184.242 1238.24 184.282 1238.19 184.32C1238.08 184.404 1237.99 184.482 1237.89 184.577C1237 185.471 1236.1 186.159 1235.24 186.813C1230.22 190.07 1226.2 194.33 1222.26 198.505L1222.09 198.682C1220.3 200.781 1219.27 203.086 1218.99 205.528V205.769C1218.99 205.846 1219.12 259.955 1219.19 265.645H1222.64C1222.57 260.373 1222.46 206.58 1222.43 205.735C1222.64 204.049 1223.43 202.398 1224.67 200.953L1224.75 200.873C1228.68 196.705 1232.41 192.745 1237.2 189.634L1237.39 189.492C1238.34 188.777 1239.34 188.015 1240.44 186.951C1240.49 186.906 1240.55 186.86 1240.61 186.81C1240.88 186.588 1241.23 186.299 1241.51 185.85C1243.23 183.992 1242.37 182.34 1242.06 181.859C1241.03 180.345 1239.51 180.345 1238.37 180.345L1238.1 180.379C1235.66 180.781 1233.43 181.516 1231.11 182.285C1230.85 182.372 1230.58 182.459 1230.32 182.547L1229.32 182.891C1227.84 183.304 1226.6 183.717 1225.36 184.198C1223.95 177.937 1222.3 171.641 1220.44 165.379L1219.99 163.866C1219.88 163.533 1219.78 163.198 1219.68 162.862C1218.92 160.421 1218.14 157.928 1217.23 155.781C1216.92 154.852 1216.41 154.026 1215.86 153.235C1215.48 152.616 1214.51 151.515 1212.31 152.237L1212.07 152.34C1210.55 153.097 1209.62 154.611 1209.62 156.194C1209.35 159.118 1209.87 162.008 1210.38 164.795C1210.46 165.21 1210.54 165.628 1210.63 166.048C1210.83 167.09 1211.04 168.144 1211.21 169.198C1210.48 166.987 1209.71 164.796 1208.94 162.627C1208.73 162.029 1208.52 161.433 1208.32 160.838C1208.11 160.288 1207.94 159.703 1207.76 159.152C1207.59 158.499 1207.39 157.811 1207.15 157.26C1206.39 154.955 1204.05 153.476 1201.71 153.889C1199.78 154.267 1198.74 155.299 1198.37 157.226L1198.33 157.57C1198.33 158.671 1198.71 159.944 1198.88 160.494C1199.91 164.244 1201.02 167.856 1202.22 171.572C1202 171.211 1201.77 170.85 1201.53 170.488C1201.3 170.127 1201.07 169.766 1200.84 169.405C1198.98 166.377 1196.82 163.453 1194.06 160.116L1193.89 159.944C1193.65 159.6 1193.06 158.912 1192.06 158.774C1191.2 158.499 1190.1 158.43 1188.79 159.29C1186.87 160.563 1187.07 162.18 1187.31 162.902C1187.76 164.691 1188.59 166.652 1189.93 168.957C1190.85 170.707 1191.99 172.346 1193.11 173.95C1193.24 174.144 1193.38 174.338 1193.51 174.531C1193.82 175.009 1194.16 175.488 1194.5 175.966L1194.51 175.976C1192.92 174.84 1191.44 173.774 1190 172.535C1189.14 171.71 1188.21 171.297 1187.04 171.297C1185.69 171.297 1184.94 171.882 1184.56 172.363C1184.21 172.811 1183.84 173.602 1184.08 174.772C1184.14 175.528 1184.52 176.113 1184.8 176.492C1184.82 176.526 1184.85 176.561 1184.88 176.595C1184.93 176.664 1184.98 176.733 1185.01 176.801L1185.18 177.077C1185.94 178.109 1186.73 179.141 1187.55 179.967C1190.07 182.478 1192.44 185.506 1194.47 188.774C1195.06 189.634 1195.65 190.46 1196.2 191.285L1196.22 191.326C1197.59 193.341 1198.89 195.256 1200.09 197.272L1200.22 197.478C1200.81 198.235 1201.02 199.164 1200.84 200.265L1200.11 265.645H1203.65ZM1224.22 184.714C1224.19 184.714 1224.15 184.749 1224.15 184.749C1224.19 184.749 1224.22 184.714 1224.22 184.714Z" fill="#3B3B3B"/>
<path fill-rule="evenodd" clip-rule="evenodd" d="M459.652 246.645L460.356 181.678C460.666 179.682 460.219 177.859 459.082 176.379C457.843 174.281 456.535 172.354 455.123 170.29C454.572 169.464 453.986 168.639 453.47 167.847C451.37 164.407 448.787 161.139 446.102 158.455C445.757 158.111 445.379 157.664 445 157.182C446.343 158.249 447.685 159.212 448.994 160.141C449.82 160.76 450.681 161.414 451.507 162.067C451.769 162.266 452.028 162.465 452.285 162.663C452.874 163.115 453.456 163.563 454.055 163.994C455.088 164.923 456.535 164.992 457.395 164.132C458.256 163.237 458.187 161.792 457.257 160.76C456.603 159.866 455.88 158.696 455.192 157.526C454.331 156.15 453.401 154.808 452.472 153.501C451.198 151.746 450.027 150.061 449.063 148.272C448.374 147.033 447.376 145.21 446.825 143.214C446.894 143.145 446.963 143.111 446.963 143.111C446.963 143.111 446.994 143.122 447.046 143.137C447.088 143.149 447.142 143.165 447.203 143.18H447.238L447.41 143.352C450.061 146.551 452.127 149.373 453.883 152.228C454.882 153.845 455.949 155.428 456.982 156.941C457.244 157.335 457.509 157.728 457.775 158.122C458.484 159.175 459.198 160.234 459.874 161.311C460.15 162.205 461.011 162.893 462.009 162.893H462.732L463.249 162.377C464.006 161.586 464.006 160.76 464.006 160.382C464.006 159.35 463.765 158.455 463.524 157.698C463.421 157.354 463.317 156.976 463.249 156.597L462.181 153.295C460.77 148.925 459.461 144.831 458.256 140.428C458.049 139.808 457.912 139.155 457.877 138.707C457.912 138.501 457.946 138.432 457.946 138.432C457.981 138.398 458.084 138.363 458.359 138.295C458.945 138.226 459.633 138.673 459.874 139.43C460.081 139.98 460.253 140.565 460.425 141.116C460.632 141.804 460.838 142.457 461.079 143.042L461.251 143.532C462.885 148.197 464.573 153.014 466.003 157.767L466.042 157.875C466.346 158.723 466.743 159.831 467.931 160.623L468.345 160.829C468.827 161.001 469.859 161.345 470.755 160.691C471.34 160.278 471.65 159.59 471.65 158.696V156.873C471.374 152.813 470.651 148.856 469.894 145.141L469.846 144.879C469.381 142.326 468.938 139.894 469.171 137.366C469.171 137.262 469.205 137.022 469.343 136.781C469.584 137.194 469.825 137.606 469.963 138.019C470.903 140.212 471.673 142.719 472.427 145.176L472.649 145.898L473.096 147.412C475.059 153.983 476.78 160.623 478.226 167.194L478.364 167.606C479.225 169.327 480.705 169.361 481.601 168.914C483.116 168.295 484.459 167.813 486.387 167.262L487.489 166.884C489.899 166.058 492.206 165.301 494.581 164.889H494.65L494.581 164.992C494.547 165.061 494.409 165.129 494.34 165.198C494.286 165.242 494.235 165.282 494.187 165.32C494.081 165.404 493.987 165.482 493.893 165.577C492.998 166.471 492.102 167.159 491.242 167.813C486.217 171.07 482.196 175.33 478.256 179.505L478.089 179.682C476.298 181.781 475.265 184.086 474.99 186.528V186.769C474.99 186.846 475.122 240.955 475.191 246.645H478.637C478.574 241.373 478.46 187.58 478.433 186.735C478.64 185.049 479.431 183.398 480.671 181.953L480.746 181.873C484.679 177.705 488.414 173.745 493.204 170.634L493.392 170.492C494.336 169.777 495.343 169.015 496.441 167.951C496.491 167.906 496.548 167.86 496.608 167.81C496.877 167.588 497.227 167.299 497.508 166.85C499.23 164.992 498.369 163.34 498.059 162.859C497.026 161.345 495.511 161.345 494.375 161.345L494.099 161.379C491.656 161.781 489.435 162.516 487.111 163.285C486.848 163.372 486.584 163.459 486.318 163.547L485.319 163.891C483.839 164.304 482.599 164.717 481.36 165.198C479.948 158.937 478.295 152.641 476.436 146.379L475.988 144.866C475.884 144.533 475.78 144.198 475.676 143.862C474.917 141.421 474.142 138.928 473.234 136.781C472.924 135.852 472.407 135.026 471.857 134.235C471.478 133.616 470.514 132.515 468.31 133.237L468.069 133.34C466.554 134.097 465.624 135.611 465.624 137.194C465.349 140.118 465.865 143.008 466.382 145.795C466.461 146.21 466.543 146.628 466.625 147.048C466.83 148.09 467.036 149.144 467.208 150.198C466.48 147.987 465.708 145.796 464.945 143.627C464.734 143.029 464.524 142.433 464.316 141.838C464.109 141.288 463.937 140.703 463.765 140.152C463.593 139.499 463.386 138.811 463.145 138.26C462.388 135.955 460.046 134.476 457.705 134.889C455.777 135.267 454.744 136.299 454.365 138.226L454.331 138.57C454.331 139.671 454.71 140.944 454.882 141.494C455.915 145.244 457.016 148.856 458.222 152.572C457.998 152.211 457.765 151.85 457.533 151.488C457.3 151.127 457.068 150.766 456.844 150.405C454.985 147.377 452.816 144.453 450.061 141.116L449.889 140.944C449.648 140.6 449.063 139.912 448.064 139.774C447.203 139.499 446.102 139.43 444.793 140.29C442.865 141.563 443.072 143.18 443.313 143.902C443.76 145.691 444.587 147.652 445.93 149.957C446.851 151.707 447.991 153.346 449.107 154.95C449.242 155.144 449.377 155.338 449.51 155.531C449.818 156.009 450.16 156.488 450.502 156.966L450.509 156.976C448.925 155.84 447.444 154.774 445.998 153.535C445.138 152.71 444.208 152.297 443.037 152.297C441.694 152.297 440.937 152.882 440.558 153.363C440.214 153.811 439.835 154.602 440.076 155.772C440.145 156.528 440.524 157.113 440.799 157.492C440.822 157.526 440.849 157.561 440.876 157.595C440.929 157.664 440.983 157.733 441.006 157.801L441.178 158.077C441.935 159.109 442.727 160.141 443.554 160.967C446.067 163.478 448.443 166.506 450.474 169.774C451.06 170.634 451.645 171.46 452.196 172.285L452.224 172.326C453.591 174.341 454.89 176.256 456.087 178.272L456.224 178.478C456.81 179.235 457.016 180.164 456.844 181.265L456.106 246.645H459.652ZM480.223 165.714C480.189 165.714 480.155 165.749 480.155 165.749C480.189 165.749 480.223 165.714 480.223 165.714Z" fill="#3B3B3B"/>
<path fill-rule="evenodd" clip-rule="evenodd" d="M158.652 265.645L159.356 200.678C159.666 198.682 159.219 196.859 158.082 195.379C156.843 193.281 155.535 191.354 154.123 189.29C153.572 188.464 152.986 187.639 152.47 186.847C150.37 183.407 147.787 180.139 145.102 177.455C144.757 177.111 144.379 176.664 144 176.182C145.343 177.249 146.685 178.212 147.994 179.141C148.82 179.76 149.681 180.414 150.507 181.067C150.769 181.266 151.028 181.465 151.285 181.663C151.874 182.115 152.456 182.563 153.055 182.994C154.088 183.923 155.535 183.992 156.395 183.132C157.256 182.237 157.187 180.792 156.257 179.76C155.603 178.866 154.88 177.696 154.192 176.526C153.331 175.15 152.401 173.808 151.472 172.501C150.198 170.746 149.027 169.061 148.063 167.272C147.374 166.033 146.376 164.21 145.825 162.214C145.894 162.145 145.963 162.111 145.963 162.111C145.963 162.111 145.994 162.122 146.046 162.137C146.088 162.149 146.142 162.165 146.203 162.18H146.238L146.41 162.352C149.061 165.551 151.127 168.373 152.883 171.228C153.882 172.845 154.949 174.428 155.982 175.941C156.244 176.335 156.509 176.728 156.775 177.122C157.484 178.175 158.198 179.234 158.874 180.311C159.15 181.205 160.011 181.893 161.009 181.893H161.732L162.249 181.377C163.006 180.586 163.006 179.76 163.006 179.382C163.006 178.35 162.765 177.455 162.524 176.698C162.421 176.354 162.317 175.976 162.249 175.597L161.181 172.295C159.77 167.925 158.461 163.831 157.256 159.428C157.049 158.808 156.912 158.155 156.877 157.707C156.912 157.501 156.946 157.432 156.946 157.432C156.981 157.398 157.084 157.363 157.359 157.295C157.945 157.226 158.633 157.673 158.874 158.43C159.081 158.98 159.253 159.565 159.425 160.116C159.632 160.804 159.838 161.457 160.079 162.042L160.251 162.532C161.885 167.197 163.573 172.014 165.003 176.767L165.042 176.875C165.346 177.723 165.743 178.831 166.931 179.623L167.345 179.829C167.827 180.001 168.859 180.345 169.755 179.691C170.34 179.278 170.65 178.59 170.65 177.696V175.873C170.374 171.813 169.651 167.856 168.894 164.141L168.846 163.879C168.381 161.326 167.938 158.894 168.171 156.366C168.171 156.262 168.205 156.022 168.343 155.781C168.584 156.194 168.825 156.606 168.963 157.019C169.903 159.212 170.673 161.719 171.427 164.176L171.649 164.898L172.096 166.412C174.059 172.983 175.78 179.623 177.226 186.194L177.364 186.606C178.225 188.327 179.705 188.361 180.601 187.914C182.116 187.295 183.459 186.813 185.387 186.262L186.489 185.884C188.899 185.058 191.206 184.301 193.581 183.889H193.65L193.581 183.992C193.547 184.061 193.409 184.129 193.34 184.198C193.286 184.242 193.235 184.282 193.187 184.32C193.081 184.404 192.987 184.482 192.893 184.577C191.998 185.471 191.102 186.159 190.242 186.813C185.217 190.07 181.196 194.33 177.256 198.505L177.089 198.682C175.298 200.781 174.265 203.086 173.99 205.528V205.769C173.99 205.846 174.122 259.955 174.191 265.645H177.637C177.574 260.373 177.46 206.58 177.433 205.735C177.64 204.049 178.431 202.398 179.671 200.953L179.746 200.873C183.679 196.705 187.414 192.745 192.204 189.634L192.392 189.492C193.336 188.777 194.343 188.015 195.441 186.951C195.491 186.906 195.548 186.86 195.608 186.81C195.877 186.588 196.227 186.299 196.508 185.85C198.23 183.992 197.369 182.34 197.059 181.859C196.026 180.345 194.511 180.345 193.375 180.345L193.099 180.379C190.656 180.781 188.435 181.516 186.111 182.285C185.848 182.372 185.584 182.459 185.318 182.547L184.319 182.891C182.839 183.304 181.599 183.717 180.36 184.198C178.948 177.937 177.295 171.641 175.436 165.379L174.988 163.866C174.884 163.533 174.78 163.198 174.676 162.862C173.917 160.421 173.142 157.928 172.234 155.781C171.924 154.852 171.407 154.026 170.857 153.235C170.478 152.616 169.514 151.515 167.31 152.237L167.069 152.34C165.554 153.097 164.624 154.611 164.624 156.194C164.349 159.118 164.865 162.008 165.382 164.795C165.461 165.21 165.543 165.628 165.625 166.048C165.83 167.09 166.036 168.144 166.208 169.198C165.48 166.987 164.708 164.796 163.945 162.627C163.734 162.029 163.524 161.433 163.316 160.838C163.109 160.288 162.937 159.703 162.765 159.152C162.593 158.499 162.386 157.811 162.145 157.26C161.388 154.955 159.046 153.476 156.705 153.889C154.777 154.267 153.744 155.299 153.365 157.226L153.331 157.57C153.331 158.671 153.71 159.944 153.882 160.494C154.915 164.244 156.016 167.856 157.222 171.572C156.998 171.211 156.765 170.85 156.533 170.488C156.3 170.127 156.068 169.766 155.844 169.405C153.985 166.377 151.816 163.453 149.061 160.116L148.889 159.944C148.648 159.6 148.063 158.912 147.064 158.774C146.203 158.499 145.102 158.43 143.793 159.29C141.865 160.563 142.072 162.18 142.313 162.902C142.76 164.691 143.587 166.652 144.93 168.957C145.851 170.707 146.991 172.346 148.107 173.95C148.242 174.144 148.377 174.338 148.51 174.531C148.818 175.009 149.16 175.488 149.502 175.966L149.509 175.976C147.925 174.84 146.444 173.774 144.998 172.535C144.138 171.71 143.208 171.297 142.037 171.297C140.694 171.297 139.937 171.882 139.558 172.363C139.214 172.811 138.835 173.602 139.076 174.772C139.145 175.528 139.524 176.113 139.799 176.492C139.822 176.526 139.849 176.561 139.876 176.595C139.929 176.664 139.983 176.733 140.006 176.801L140.178 177.077C140.935 178.109 141.727 179.141 142.554 179.967C145.067 182.478 147.443 185.506 149.474 188.774C150.06 189.634 150.645 190.46 151.196 191.285L151.224 191.326C152.591 193.341 153.89 195.256 155.087 197.272L155.224 197.478C155.81 198.235 156.016 199.164 155.844 200.265L155.106 265.645H158.652ZM179.223 184.714C179.189 184.714 179.155 184.749 179.155 184.749C179.189 184.749 179.223 184.714 179.223 184.714Z" fill="#3B3B3B"/>
<path d="M1438.9 37.4033L1440 37.4628V355H1162.74L1162.49 352.209L1162.29 348.565L1162.22 344.908L1162.27 341.239L1162.44 337.563L1162.73 333.884L1163.14 330.204L1163.67 326.527L1164.31 322.857L1165.06 319.196L1165.92 315.548L1166.89 311.915L1167.96 308.301L1169.13 304.708L1170.39 301.139L1171.75 297.597L1173.2 294.084L1174.73 290.602L1176.35 287.153L1178.05 283.74L1179.82 280.364L1181.66 277.027L1183.57 273.731L1185.54 270.477L1187.57 267.266L1189.66 264.1L1191.8 260.979L1193.99 257.905L1196.22 254.877L1198.5 251.898L1200.82 248.968L1203.17 246.086L1205.56 243.253L1207.98 240.47L1210.42 237.736L1212.89 235.052L1215.38 232.418L1217.89 229.833L1220.41 227.297L1222.94 224.809L1225.48 222.369L1228.03 219.977L1230.58 217.631L1233.13 215.331L1235.67 213.076L1238.2 210.865L1240.73 208.696L1243.24 206.568L1245.74 204.481L1248.22 202.432L1250.68 200.42L1253.12 198.444L1255.53 196.501L1257.91 194.591L1267.13 187.236L1269.35 185.459L1271.53 183.704L1273.67 181.967L1275.77 180.248L1277.83 178.543L1279.85 176.851L1281.82 175.171L1283.75 173.499L1285.64 171.835L1287.48 170.176L1289.28 168.519L1291.03 166.865L1292.74 165.21L1294.41 163.552L1296.03 161.89L1297.61 160.223L1299.15 158.549L1300.65 156.865L1302.1 155.172L1303.52 153.466L1304.9 151.748L1306.24 150.015L1307.55 148.267L1308.82 146.502L1310.06 144.72L1311.27 142.919L1312.45 141.099L1313.6 139.26L1314.73 137.399L1315.83 135.519L1316.92 133.616L1317.98 131.693L1319.02 129.747L1320.05 127.78L1321.07 125.79L1322.08 123.78L1323.07 121.748L1324.06 119.695L1325.05 117.624L1326.04 115.533L1327.03 113.426L1329.02 109.165L1330.03 107.015L1331.06 104.854L1332.1 102.685L1333.16 100.51L1334.24 98.3318L1335.34 96.1521L1336.47 93.9737L1337.63 91.7994L1338.82 89.6321L1340.05 87.4745L1341.31 85.3297L1342.6 83.2006L1343.94 81.0901L1345.31 79.0014L1346.73 76.9374L1348.19 74.9012L1349.69 72.8958L1351.24 70.9241L1352.83 68.9892L1354.47 67.0937L1356.16 65.2406L1357.89 63.4326L1359.67 61.6722L1361.49 59.962L1363.36 58.3045L1365.28 56.7019L1367.24 55.1563L1369.24 53.6699L1371.29 52.2443L1373.38 50.8813L1375.51 49.5823L1377.68 48.3486L1379.89 47.1809L1382.13 46.0802L1384.41 45.0469L1386.72 44.0811L1389.06 43.183L1391.42 42.3523L1393.82 41.5885L1396.23 40.8908L1398.67 40.2583L1401.13 39.6898L1403.61 39.1839L1406.1 38.7388L1408.6 38.3529L1411.11 38.0238L1413.63 37.7496L1416.16 37.5276L1418.69 37.3552L1421.23 37.2296L1423.76 37.1481L1426.3 37.1074L1428.83 37.1045L1431.35 37.136L1433.88 37.1986L1436.39 37.2888L1438.9 37.4033Z" fill="#614F91"/>
<path d="M1142.81 248.534L1139.52 248.753L1136.32 248.818L1133.21 248.72L1130.18 248.454L1127.22 248.016L1124.32 247.403L1121.48 246.613L1118.68 245.647L1115.92 244.507L1113.19 243.196L1110.48 241.718L1107.78 240.081L1105.08 238.293L1102.37 236.361L1099.65 234.297L1096.9 232.114L1094.12 229.822L1091.3 227.438L1088.44 224.975L1082.56 219.877L1079.53 217.275L1076.44 214.661L1073.29 212.052L1070.07 209.466L1066.79 206.921L1063.44 204.433L1060.02 202.021L1056.54 199.7L1053 197.488L1049.41 195.398L1045.77 193.447L1042.07 191.647L1038.34 190.012L1034.58 188.552L1030.78 187.279L1026.97 186.201L1023.15 185.327L1019.32 184.664L1015.49 184.215L1011.67 183.987L1007.88 183.981L1004.11 184.198L1000.37 184.639L996.678 185.302L993.035 186.185L989.448 187.282L985.924 188.59L982.468 190.102L979.086 191.809L975.782 193.704L972.559 195.775L969.422 198.011L966.37 200.401L963.406 202.929L960.528 205.582L957.735 208.344L955.026 211.2L952.396 214.132L949.84 217.123L947.352 220.154L944.924 223.209L942.55 226.27L940.219 229.32L937.923 232.343L935.652 235.327L933.397 238.258L931.148 241.125L928.893 243.916L926.622 246.621L924.322 249.23L921.984 251.734L919.593 254.127L917.14 256.401L914.613 258.553L912 260.579L909.291 262.476L906.475 264.244L903.543 265.883L900.486 267.394L897.296 268.782L893.967 270.051L890.491 271.207L886.865 272.256L883.085 273.207L879.148 274.07L875.054 274.855L870.803 275.574L866.397 276.238L861.841 276.861L857.139 277.456L852.297 278.038L842.232 279.22L837.029 279.85L831.73 280.526L826.349 281.264L820.901 282.078L815.403 282.982L809.875 283.99L804.334 285.116L798.803 286.372L793.301 287.77L787.852 289.32L782.477 291.033L777.2 292.917L772.044 294.979L767.033 297.225L762.189 299.66L757.537 302.288L753.098 305.109L748.895 308.124L744.948 311.332L741.278 314.73L737.902 318.313L734.839 322.077L732.103 326.013L729.709 330.113L727.667 334.368L725.988 338.766L724.678 343.296L723.743 347.944L723.185 352.697L723.098 355H1398.36L1398.23 354.197L1397.43 349.556L1396.55 344.92L1395.58 340.296L1394.53 335.687L1393.37 331.098L1392.11 326.535L1390.74 322.002L1389.26 317.506L1387.64 313.052L1385.91 308.647L1384.04 304.297L1382.03 300.009L1379.88 295.789L1377.59 291.644L1375.16 287.581L1372.58 283.606L1369.85 279.727L1366.97 275.949L1363.95 272.278L1360.78 268.723L1357.46 265.287L1353.99 261.978L1350.38 258.801L1346.64 255.761L1342.75 252.864L1338.74 250.113L1334.59 247.514L1330.33 245.07L1325.94 242.784L1321.45 240.66L1316.84 238.699L1312.14 236.905L1307.35 235.278L1302.47 233.819L1297.51 232.528L1292.49 231.404L1287.4 230.448L1282.27 229.657L1277.08 229.028L1271.87 228.559L1266.62 228.246L1261.36 228.084L1256.09 228.069L1250.82 228.194L1245.56 228.453L1240.32 228.84L1235.1 229.346L1229.92 229.965L1224.77 230.687L1219.68 231.504L1214.64 232.407L1209.67 233.385L1204.76 234.426L1199.94 235.52L1195.19 236.654L1190.53 237.812L1185.97 238.983L1181.51 240.151L1172.89 242.421L1168.75 243.494L1164.71 244.505L1160.79 245.442L1156.98 246.289L1153.28 247.034L1149.68 247.664L1146.2 248.168L1142.81 248.534Z" fill="#F193B7"/>
<path d="M817.718 355L817.007 354.103L815.8 352.634L814.567 351.186L813.31 349.761L812.031 348.358L810.73 346.977L809.408 345.617L808.068 344.278L806.711 342.96L805.337 341.663L803.948 340.385L802.545 339.127L801.131 337.887L799.705 336.665L798.27 335.46L796.826 334.271L795.375 333.097L793.919 331.938L792.457 330.792L790.992 329.658L789.523 328.535L788.053 327.423L786.583 326.32L785.112 325.225L783.642 324.136L782.173 323.054L774.866 317.694L773.415 316.626L771.967 315.556L770.523 314.485L769.083 313.41L767.647 312.333L766.214 311.251L764.785 310.164L763.358 309.072L761.934 307.975L760.512 306.871L759.092 305.76L757.673 304.643L756.254 303.518L754.835 302.387L753.416 301.248L751.995 300.102L750.572 298.948L749.146 297.787L747.717 296.62L739.023 289.487L737.547 288.281L736.062 287.072L734.566 285.86L733.059 284.646L731.541 283.431L730.01 282.217L728.466 281.003L726.908 279.792L725.335 278.584L723.748 277.38L722.145 276.182L720.525 274.992L718.89 273.809L717.237 272.636L715.566 271.474L713.878 270.324L712.172 269.188L710.448 268.067L708.706 266.962L706.945 265.874L705.166 264.806L703.368 263.757L701.552 262.731L699.717 261.726L697.864 260.746L695.994 259.791L694.105 258.863L692.2 257.961L690.277 257.089L688.338 256.246L686.382 255.434L684.411 254.654L682.424 253.908L680.423 253.195L678.407 252.518L676.379 251.877L674.337 251.273L672.283 250.708L670.218 250.182L668.142 249.696L666.056 249.25L663.962 248.845L661.859 248.48L659.749 248.156L657.632 247.873L655.51 247.63L653.383 247.428L651.252 247.266L649.117 247.142L646.98 247.058L644.84 247.01L642.7 247L640.558 247.025L638.416 247.085L636.275 247.179L634.133 247.304L631.993 247.46L629.854 247.646L627.716 247.859L625.58 248.099L623.445 248.364L621.311 248.652L619.179 248.962L617.048 249.291L614.918 249.64L612.789 250.005L610.659 250.386L608.53 250.78L606.4 251.187L604.269 251.605L602.136 252.032L600.001 252.468L597.862 252.911L595.72 253.36L593.573 253.814L553.286 262.262L550.919 262.755L548.536 263.255L546.138 263.764L543.725 264.284L541.297 264.814L538.855 265.358L536.399 265.917L533.93 266.491L531.448 267.083L528.956 267.695L526.453 268.328L523.94 268.984L521.419 269.663L518.891 270.369L516.357 271.102L513.819 271.865L511.277 272.657L508.734 273.482L506.191 274.341L503.65 275.235L501.113 276.165L498.581 277.133L496.056 278.14L493.54 279.188L491.036 280.277L488.545 281.408L486.07 282.584L483.612 283.804L481.173 285.069L478.757 286.381L476.365 287.739L473.999 289.145L471.661 290.599L469.355 292.102L467.081 293.653L464.842 295.253L462.641 296.901L460.479 298.599L458.359 300.346L456.282 302.14L454.252 303.984L452.269 305.875L450.336 307.813L448.454 309.798L446.626 311.829L444.853 313.905L443.136 316.025L441.477 318.187L439.877 320.392L438.337 322.637L436.858 324.921L435.442 327.242L434.087 329.599L432.796 331.991L431.569 334.415L430.404 336.871L429.304 339.355L428.266 341.867L427.291 344.404L426.379 346.964L425.528 349.546L424.738 352.148L424.008 354.767L423.949 355H817.718Z" fill="#89C8A5"/>
<path d="M163.825 355H567.32L566.387 354.171L564.234 352.42L561.975 350.719L559.629 349.071L557.217 347.473L554.757 345.925L552.268 344.425L549.765 342.971L547.264 341.559L544.781 340.188L542.329 338.853L537.563 336.276L535.27 335.027L533.048 333.798L530.905 332.586L528.848 331.385L526.88 330.192L525.008 329.003L523.234 327.813L521.562 326.618L519.994 325.414L518.531 324.197L517.175 322.963L515.926 321.708L514.786 320.428L513.753 319.119L512.827 317.778L512.007 316.402L511.293 314.986L510.684 313.527L510.177 312.022L509.771 310.468L509.464 308.861L509.254 307.199L509.137 305.48L509.111 303.7L509.174 301.857L509.32 299.949L509.546 297.975L509.848 295.933L510.221 293.823L510.659 291.642L511.156 289.393L511.706 287.074L512.302 284.688L512.935 282.236L513.597 279.721L514.279 277.147L514.971 274.517L515.662 271.839L516.34 269.117L516.994 266.36L517.611 263.577L518.177 260.778L518.679 257.973L519.103 255.174L519.436 252.394L519.663 249.648L519.772 246.948L519.75 244.311L519.585 241.752L519.267 239.284L518.786 236.924L518.135 234.685L517.308 232.58L516.302 230.622L515.114 228.821L513.746 227.185L512.2 225.723L510.482 224.437L508.599 223.332L506.56 222.407L504.375 221.661L502.058 221.089L499.62 220.687L497.078 220.445L494.445 220.355L491.736 220.406L488.968 220.586L486.154 220.882L483.31 221.281L480.448 221.77L477.582 222.334L474.724 222.961L471.884 223.636L469.073 224.346L466.298 225.079L463.568 225.822L460.888 226.565L458.265 227.298L455.703 228.009L453.204 228.69L450.772 229.332L448.408 229.928L446.113 230.471L443.888 230.954L441.733 231.372L439.646 231.719L437.627 231.99L435.674 232.182L433.786 232.289L431.959 232.31L430.192 232.241L428.482 232.078L426.826 231.82L425.221 231.464L423.663 231.009L422.15 230.452L420.679 229.793L419.245 229.03L417.844 228.162L416.474 227.189L415.131 226.111L413.81 224.927L412.507 223.637L411.219 222.244L409.942 220.747L408.672 219.149L407.403 217.452L406.133 215.659L404.856 213.774L403.569 211.8L402.268 209.745L400.947 207.613L399.604 205.413L396.832 200.839L395.396 198.486L393.921 196.104L392.406 193.708L390.846 191.309L389.239 188.925L387.585 186.572L385.88 184.267L384.124 182.029L382.318 179.876L380.462 177.828L378.558 175.904L376.606 174.122L374.612 172.502L372.578 171.061L370.509 169.815L368.41 168.778L366.287 167.963L364.146 167.379L361.994 167.034L359.838 166.932L357.686 167.074L355.543 167.46L353.418 168.084L351.316 168.94L349.244 170.018L347.207 171.304L345.21 172.786L343.258 174.446L341.353 176.268L339.498 178.232L337.695 180.321L335.945 182.514L334.248 184.792L332.603 187.137L331.01 189.529L329.466 191.953L327.969 194.39L326.517 196.826L325.105 199.246L323.732 201.637L321.081 206.287L319.797 208.526L318.534 210.696L317.288 212.789L316.054 214.8L314.829 216.723L313.608 218.554L312.386 220.289L311.16 221.926L309.925 223.461L308.676 224.894L307.411 226.223L306.124 227.448L304.812 228.567L303.471 229.582L302.097 230.492L300.686 231.298L299.236 232.001L297.741 232.603L296.2 233.104L294.608 233.508L292.963 233.814L291.262 234.027L289.501 234.147L287.678 234.179L285.791 234.125L283.838 233.989L281.817 233.775L279.726 233.487L277.564 233.129L275.331 232.707L273.027 232.227L270.652 231.695L268.208 231.119L265.695 230.504L263.118 229.861L260.48 229.198L257.784 228.525L255.038 227.851L252.247 227.189L249.419 226.55L246.563 225.947L243.689 225.391L240.809 224.896L237.934 224.477L235.078 224.145L232.255 223.915L229.479 223.799L226.766 223.81L224.131 223.959L221.59 224.257L219.157 224.712L216.848 225.333L214.675 226.125L212.652 227.091L210.79 228.233L209.096 229.552L207.58 231.044L206.246 232.704L205.096 234.525L204.132 236.5L203.351 238.616L202.75 240.864L202.323 243.229L202.062 245.698L201.958 248.256L201.999 250.888L202.173 253.58L202.469 256.318L202.871 259.086L203.366 261.872L203.94 264.664L204.578 267.448L205.268 270.216L205.994 272.957L206.745 275.662L207.508 278.325L208.272 280.939L209.025 283.498L209.757 285.999L210.459 288.438L211.122 290.812L211.738 293.119L212.3 295.36L212.802 297.532L213.236 299.637L213.598 301.674L213.883 303.646L214.086 305.553L214.204 307.397L214.233 309.181L214.169 310.906L214.009 312.576L213.752 314.193L213.395 315.76L212.936 317.281L212.373 318.757L211.704 320.194L210.93 321.593L210.047 322.96L209.057 324.296L207.958 325.607L206.751 326.895L205.435 328.165L204.013 329.42L202.485 330.664L200.852 331.902L199.117 333.138L197.284 334.375L195.356 335.618L193.337 336.87L191.233 338.136L189.05 339.421L186.796 340.727L182.108 343.422L179.695 344.818L177.252 346.251L174.792 347.724L172.329 349.24L169.88 350.8L167.46 352.408L165.089 354.065L163.825 355Z" fill="#287F42"/>
<path d="M0 355H346.071L343.325 350.828L339.734 346.036L335.8 341.365L331.545 336.822L326.992 332.414L322.166 328.146L317.091 324.021L311.795 320.041L306.304 316.209L300.643 312.524L294.838 308.985L288.914 305.59L282.895 302.338L276.802 299.225L270.655 296.247L264.471 293.402L258.265 290.686L252.054 288.093L245.852 285.62L239.674 283.261L233.535 281.008L227.449 278.857L221.43 276.798L215.492 274.825L209.648 272.928L203.913 271.098L192.816 267.599L187.48 265.909L182.3 264.244L177.287 262.592L172.453 260.94L167.805 259.276L163.353 257.589L159.105 255.864L155.065 254.089L151.241 252.251L147.637 250.338L144.257 248.336L141.102 246.234L138.174 244.019L135.473 241.68L132.998 239.205L130.747 236.585L128.715 233.808L126.897 230.867L125.288 227.753L123.881 224.46L122.665 220.979L121.633 217.308L120.773 213.442L120.073 209.377L119.52 205.115L119.101 200.653L118.8 195.994L118.603 191.141L118.493 186.098L118.453 180.871L118.467 175.468L118.517 169.897L118.652 158.297L118.701 152.292L118.714 146.17L118.674 139.947L118.562 133.639L118.363 127.266L118.059 120.845L117.635 114.398L117.077 107.945L116.369 101.507L115.501 95.1069L114.459 88.7666L113.234 82.5085L111.816 76.355L110.197 70.3282L108.37 64.45L106.332 58.7415L104.079 53.223L101.608 47.9141L98.9188 42.8331L96.0135 37.9968L92.8942 33.421L89.5653 29.1192L86.0321 25.1035L82.3017 21.3838L78.3824 17.968L74.2835 14.8618L70.0154 12.0688L65.5896 9.59014L61.0179 7.42511L56.3132 5.57054L51.4884 4.02149L46.557 2.77084L41.5326 1.80977L36.4286 1.12782L31.2581 0.713311L26.034 0.553467L20.7685 0.634824L15.4733 0.943803L10.159 1.46708L4.83552 2.19197L0 3.023V355Z" fill="#EB5C2C"/>
</svg>
