<svg width="27" height="27" viewBox="0 0 27 27" fill="none" xmlns="http://www.w3.org/2000/svg">
<path fill-rule="evenodd" clip-rule="evenodd" d="M2.15039 13.6471V2.47443C2.15039 1.86794 2.68419 1.29412 3.2592 1.29412C3.77147 1.29412 4.02245 1.44567 4.27765 1.57607L24.9575 12.7759C25.4018 13.016 25.6227 13.3319 25.621 13.6471C25.6227 13.963 25.4018 14.2781 24.9575 14.5183L4.27765 25.7191C4.02245 25.8492 3.77147 26 3.2592 26C2.68419 26 2.15039 25.427 2.15039 24.8207V13.6471Z" fill="#6A6763" stroke="#FFFAF1"/>
<path fill-rule="evenodd" clip-rule="evenodd" d="M15.5844 13.7202L3.06396 1.31632C3.12754 1.30169 3.19286 1.2941 3.25911 1.2941C3.77137 1.2941 4.02235 1.44566 4.27756 1.57605L19.5133 9.82703L15.5844 13.7202Z" fill="#6A6763" stroke="#FFFAF1"/>
<path fill-rule="evenodd" clip-rule="evenodd" d="M19.4187 17.5188L15.5845 13.7202L19.5133 9.82702L24.9574 12.7759C25.4018 13.016 25.6227 13.3319 25.6209 13.647C25.6227 13.963 25.4018 14.2781 24.9574 14.5182L19.4187 17.5188Z" fill="#6A6763" stroke="#FFFAF1"/>
<path fill-rule="evenodd" clip-rule="evenodd" d="M3.19189 25.9974L3.20302 25.9864L15.5843 13.7202L19.4185 17.5188L4.27742 25.7191C4.02222 25.8492 3.77123 26 3.25897 26C3.23661 26 3.21425 25.9992 3.19189 25.9974Z" fill="#6A6763"/>
<path d="M3.19189 25.9974L3.20302 25.9864L15.5843 13.7202L19.4185 17.5188L4.27742 25.7191C4.02222 25.8492 3.77123 26 3.25897 26C3.23661 26 3.21425 25.9992 3.19189 25.9974" stroke="#FFFAF1"/>
</svg>
