<svg width="346" height="1327" viewBox="0 0 346 1327" fill="none" xmlns="http://www.w3.org/2000/svg">
<path opacity="0.2" fill-rule="evenodd" clip-rule="evenodd" d="M346 686.058V686.058L345.519 694.521L344.426 702.957L342.732 711.344L340.451 719.661L337.602 727.889L334.205 736.009L330.284 744.003L325.865 751.854L320.976 759.549L315.648 767.074L309.913 774.419L303.806 781.574L297.364 788.533L290.625 795.29L283.629 801.843L276.414 808.192L269.021 814.338L261.492 820.286L253.868 826.041L246.189 831.613L238.495 837.011L230.823 842.247L223.209 847.335L215.683 852.289L208.276 857.124L201.014 861.856L193.921 866.502L187.021 871.079L180.332 875.606L173.872 880.101L167.655 884.583L161.694 889.069L155.996 893.577L150.57 898.125L145.417 902.73L140.539 907.408L135.934 912.173L131.596 917.039L127.52 922.017L123.695 927.12L120.11 932.355L116.75 937.731L113.6 943.252L110.643 948.922L107.86 954.743L105.229 960.716L102.731 966.837L100.343 973.103L98.0419 979.508L95.8057 986.046L93.6115 992.707L91.4361 999.48L89.2576 1006.35L87.0541 1013.32L84.8049 1020.35L82.49 1027.45L80.0908 1034.59L77.5898 1041.75L74.9713 1048.93L72.2208 1056.11L69.3254 1063.26L66.2743 1070.38L63.0579 1077.44L59.6685 1084.44L56.1004 1091.36L52.3491 1098.18L48.4119 1104.9L44.2876 1111.51L39.9766 1117.98L35.4802 1124.33L30.8014 1130.53L25.9437 1136.59L20.912 1142.5L15.7118 1148.25L10.3491 1153.85L4.83038 1159.29L-0.837402 1164.57L-6.64709 1169.7L-12.5916 1174.67L-18.6638 1179.5L-24.8566 1184.17L-31.1633 1188.7L-37.5773 1193.08L-44.0923 1197.33L-50.7025 1201.44L-57.4022 1205.41L-64.1862 1209.26L-71.0494 1212.99L-77.9872 1216.6L-84.995 1220.09L-92.0687 1223.47L-99.2047 1226.74L-106.399 1229.92L-113.647 1233L-120.945 1236.01L-128.289 1238.94L-135.677 1241.82L-143.106 1244.65L-150.575 1247.44L-158.082 1250.2L-165.628 1252.95L-173.213 1255.69L-180.839 1258.43L-188.506 1261.19L-196.218 1263.95L-203.977 1266.74L-211.786 1269.57L-219.649 1272.42L-227.571 1275.32L-235.554 1278.25L-243.605 1281.22L-251.727 1284.22L-259.926 1287.25L-268.204 1290.29L-276.567 1293.33L-285.016 1296.37L-293.555 1299.39L-302.184 1302.36L-310.903 1305.27L-319.713 1308.09L-328.611 1310.81L-337.593 1313.41L-346.655 1315.85L-355.791 1318.11L-364.994 1320.17L-374.255 1322.01L-383.564 1323.6L-392.91 1324.91L-402.281 1325.93L-411.663 1326.63L-421.042 1326.99L-430.404 1327L-439.732 1326.64L-449.009 1325.89L-458.22 1324.74L-467.346 1323.18L-476.371 1321.2L-485.278 1318.8L-494.049 1315.96L-502.667 1312.7L-511.117 1309.01L-519.383 1304.89L-527.449 1300.35L-535.301 1295.39L-542.925 1290.02L-550.31 1284.25L-557.443 1278.1L-564.314 1271.58L-570.912 1264.7L-577.231 1257.47L-583.262 1249.92L-589 1242.07L-594.438 1233.92L-599.572 1225.5L-604.4 1216.82L-608.92 1207.91L-613.129 1198.79L-617.029 1189.47L-620.618 1179.98L-623.9 1170.33L-626.877 1160.54L-629.553 1150.63L-631.933 1140.63L-634.023 1130.55L-635.831 1120.41L-637.368 1110.23L-638.644 1100.04L-639.671 1089.85L-640.46 1079.68L-641.022 1069.55L-641.368 1059.47L-641.507 1049.46L-641.452 1039.52L-641.212 1029.67L-640.799 1019.91L-640.225 1010.27L-639.504 1000.74L-638.651 991.35L-637.677 982.093L-636.596 972.982L-635.42 964.021L-634.162 955.217L-632.831 946.572L-631.439 938.089L-629.997 929.771L-628.514 921.619L-627.001 913.633L-625.468 905.815L-623.924 898.163L-622.378 890.678L-620.841 883.358L-619.323 876.202L-617.833 869.208L-616.38 862.374L-614.976 855.699L-613.631 849.179L-612.354 842.811L-611.156 836.592L-610.048 830.519L-609.041 824.587L-608.144 818.792L-607.369 813.13L-606.727 807.594L-606.227 802.18L-605.88 796.88L-605.696 791.688L-605.684 786.598L-605.854 781.601L-606.215 776.689L-606.773 771.853L-607.537 767.085L-608.514 762.375L-609.708 757.712L-611.126 753.088L-612.77 748.49L-614.645 743.908L-616.751 739.331L-619.091 734.748L-621.664 730.147L-624.469 725.516L-627.503 720.845L-630.765 716.121L-634.249 711.334L-637.952 706.472L-641.865 701.523L-645.984 696.479L-650.301 691.327L-654.806 686.058L-659.492 680.663L-664.348 675.131L-669.363 669.455L-674.528 663.626L-679.83 657.636L-685.257 651.477L-690.797 645.144L-696.434 638.63L-702.156 631.93L-707.945 625.039L-713.786 617.955L-719.659 610.673L-725.545 603.194L-731.42 595.516L-737.263 587.641L-743.048 579.572L-748.75 571.313L-754.34 562.87L-759.788 554.25L-765.064 545.465L-770.136 536.527L-774.97 527.448L-779.532 518.246L-783.787 508.94L-787.702 499.549L-791.24 490.098L-794.371 480.61L-797.062 471.111L-799.285 461.628L-801.014 452.19L-802.222 442.825L-802.89 433.564L-803 424.437L-802.537 415.473L-801.491 406.701L-799.855 398.15L-797.627 389.848L-794.808 381.819L-791.405 374.089L-787.427 366.679L-782.887 359.609L-777.803 352.897L-772.196 346.557L-766.09 340.601L-759.511 335.036L-752.491 329.87L-745.061 325.104L-737.255 320.736L-729.111 316.763L-720.666 313.176L-711.959 309.965L-703.029 307.114L-693.917 304.608L-684.661 302.425L-675.302 300.543L-665.878 298.935L-656.427 297.575L-646.984 296.432L-637.585 295.475L-628.261 294.67L-619.043 293.983L-609.96 293.379L-601.035 292.822L-592.292 292.277L-583.749 291.707L-575.424 291.077L-567.33 290.353L-559.477 289.501L-551.873 288.489L-544.521 287.287L-537.422 285.866L-530.576 284.199L-523.976 282.264L-517.617 280.038L-511.487 277.503L-505.576 274.643L-499.868 271.446L-494.347 267.902L-488.996 264.005L-483.796 259.752L-478.724 255.144L-473.761 250.184L-468.882 244.879L-464.066 239.24L-459.288 233.281L-454.525 227.02L-449.753 220.477L-444.949 213.678L-440.09 206.649L-435.154 199.425L-430.119 192.037L-424.968 184.521L-419.682 176.911L-414.249 169.238L-408.656 161.532L-402.895 153.821L-396.957 146.13L-390.837 138.481L-384.531 130.897L-378.038 123.393L-371.357 115.984L-364.486 108.684L-357.429 101.506L-350.185 94.4631L-342.756 87.5683L-335.146 80.8352L-327.356 74.2774L-319.391 67.9083L-311.256 61.7414L-302.954 55.79L-294.492 50.0676L-285.875 44.5874L-277.11 39.3626L-268.204 34.4063L-259.167 29.7316L-250.004 25.3511L-240.727 21.2777L-231.345 17.5238L-221.868 14.1015L-212.307 11.0229L-202.674 8.29942L-192.98 5.94222L-183.238 3.96191L-173.462 2.36855L-163.665 1.17149L-153.862 0.379379L-144.066 0L-134.292 0.0402204L-124.556 0.505897L-114.872 1.40179L-105.257 2.7315L-95.7256 4.49738L-86.2933 6.70047L-76.9753 9.34046L-67.787 12.4157L-58.743 15.9229L-49.858 19.8577L-41.1456 24.214L-32.6194 28.9844L-24.2922 34.1601L-16.1761 39.7309L-8.28223 45.6855L-0.620911 52.0112L6.7981 58.6943L13.9663 65.7201L20.876 73.073L27.5206 80.7366L33.8942 88.694L39.9921 96.9276L45.8104 105.42L51.3463 114.152L56.5974 123.107L61.5625 132.266L66.2411 141.611L70.6332 151.125L74.7395 160.791L78.5613 170.591L82.1005 180.509L85.3593 190.529L88.3406 200.635L91.0475 210.814L93.4843 221.048L95.655 231.325L97.5652 241.63L99.2211 251.948L100.63 262.265L101.8 272.565L102.741 282.833L103.466 293.053L103.992 303.204L104.339 313.265L104.528 323.215L104.587 333.031L104.544 342.689L104.433 352.165L104.289 361.436L104.151 370.478L104.059 379.269L104.053 387.792L104.174 396.03L104.461 403.97L104.952 411.605L105.684 418.928L106.692 425.936L108.008 432.632L109.663 439.019L111.682 445.107L114.089 450.905L116.903 456.43L120.14 461.697L123.81 466.727L127.92 471.543L132.472 476.167L137.465 480.628L142.892 484.951L148.74 489.165L154.994 493.301L161.633 497.387L168.634 501.454L175.967 505.53L183.6 509.645L191.498 513.826L199.622 518.1L207.931 522.491L216.38 527.023L224.923 531.716L233.512 536.59L242.1 541.661L250.637 546.942L259.072 552.444L267.357 558.176L275.443 564.142L283.281 570.346L290.826 576.788L298.033 583.463L304.859 590.367L311.266 597.491L317.216 604.825L322.676 612.356L327.615 620.069L332.007 627.947L335.829 635.973L339.062 644.127L341.691 652.387L343.704 660.733L345.095 669.142L345.86 677.591L346 686.058" fill="#89C8A5"/>
</svg>
