<svg width="193" height="1125" viewBox="0 0 193 1125" fill="none" xmlns="http://www.w3.org/2000/svg">
<path opacity="0.2" fill-rule="evenodd" clip-rule="evenodd" d="M207.19 91.2686L213.538 85.6516L220.299 80.4885L227.447 75.7866L234.96 71.5502L242.809 67.7803L250.966 64.4756L259.403 61.632L268.09 59.2422L276.997 57.2963L286.092 55.7818L295.346 54.683L304.727 53.9819L314.204 53.6571L323.747 53.6848L333.327 54.0394L342.915 54.6931L352.485 55.6154L362.009 56.7744L371.464 58.1362L380.827 59.6663L390.077 61.3294L399.197 63.0908L408.172 64.9161L416.988 66.7724L425.637 68.6284L434.11 70.4537L442.403 72.2191L450.512 73.8964L458.436 75.4591L466.176 76.8817L473.736 78.1412L481.119 79.2163L488.331 80.0879L495.382 80.7392L502.28 81.1561L509.037 81.3268L515.663 81.2424L522.172 80.8965L528.577 80.2857L534.894 79.4094L541.136 78.2693L547.319 76.8704L553.457 75.2198L559.566 73.3275L565.659 71.2057L571.752 68.8687L577.858 66.3332L583.989 63.6173L590.158 60.7412L596.375 57.7262L602.65 54.5948L608.992 51.3706L615.407 48.0776L621.903 44.7404L628.483 41.3836L635.151 38.0318L641.91 34.709L648.761 31.4389L655.702 28.2442L662.733 25.1465L669.851 22.1662L677.053 19.3222L684.335 16.6322L691.691 14.1119L699.115 11.7751L706.603 9.63411L714.147 7.6992L721.74 5.97871L729.375 4.47919L737.046 3.20538L744.746 2.16008L752.467 1.34483L760.205 0.759037L767.951 0.401334L775.702 0.268591L783.451 0.356943L791.194 0.661366L798.926 1.17631L806.644 1.89538L814.344 2.81213L822.023 3.91946L829.678 5.21051L837.308 6.67826L844.909 8.31573L852.482 10.1162L860.024 12.0731L867.534 14.18L875.012 16.4304L882.458 18.8178L889.872 21.3359L897.253 23.9787L904.603 26.7404L911.923 29.6131L919.217 32.5881L926.489 35.6557L933.743 38.8055L940.986 42.0277L948.225 45.3125L955.466 48.6507L962.715 52.0349L969.98 55.458L977.267 58.9142L984.583 62.3989L991.935 65.9071L999.331 69.4349L1006.78 72.9789L1014.28 76.5374L1021.84 80.1096L1029.48 83.6967L1037.18 87.3015L1044.96 90.9285L1052.81 94.5839L1060.73 98.2755L1068.72 102.013L1076.77 105.806L1084.87 109.667L1093.02 113.609L1101.21 117.645L1109.42 121.789L1117.62 126.055L1125.82 130.457L1133.99 135.01L1142.1 139.727L1150.14 144.621L1158.08 149.705L1165.91 154.988L1173.59 160.482L1181.1 166.194L1188.42 172.132L1195.53 178.301L1202.39 184.706L1208.99 191.347L1215.29 198.227L1221.29 205.343L1226.96 212.693L1232.28 220.272L1237.23 228.074L1241.79 236.091L1245.96 244.313L1249.71 252.731L1253.04 261.331L1255.93 270.102L1258.38 279.028L1260.39 288.096L1261.95 297.29L1263.05 306.593L1263.71 315.989L1263.91 325.461L1263.67 334.992L1262.99 344.565L1261.87 354.164L1260.33 363.771L1258.38 373.37L1256.01 382.945L1253.25 392.481L1250.11 401.963L1246.59 411.375L1242.72 420.705L1238.5 429.939L1233.96 439.065L1229.11 448.071L1223.96 456.945L1218.53 465.679L1212.84 474.261L1206.91 482.684L1200.77 490.94L1194.43 499.022L1187.92 506.925L1181.25 514.643L1174.45 522.175L1167.54 529.517L1160.53 536.668L1153.43 543.626L1146.26 550.392L1139.05 556.966L1131.79 563.349L1124.52 569.543L1117.25 575.551L1109.99 581.377L1102.76 587.024L1095.57 592.498L1088.43 597.803L1081.36 602.945L1074.35 607.929L1067.43 612.762L1060.6 617.449L1053.86 621.996L1047.23 626.412L1040.71 630.703L1034.3 634.876L1028.02 638.938L1021.87 642.898L1015.86 646.764L1009.98 650.544L1004.25 654.247L998.675 657.882L993.254 661.459L987.995 664.987L982.902 668.476L977.98 671.937L973.234 675.38L968.667 678.817L964.284 682.258L960.087 685.715L956.079 689.2L952.263 692.725L948.64 696.301L945.211 699.94L941.977 703.654L938.936 707.455L936.088 711.355L933.431 715.365L930.961 719.496L928.675 723.758L926.567 728.163L924.633 732.721L922.866 737.439L921.259 742.327L919.803 747.394L918.49 752.646L917.309 758.09L916.251 763.732L915.305 769.577L914.458 775.629L913.7 781.892L913.018 788.369L912.399 795.061L911.829 801.97L911.297 809.097L910.788 816.439L910.288 823.998L909.785 831.77L909.264 839.752L908.712 847.942L908.115 856.335L907.458 864.925L906.729 873.705L905.912 882.668L904.993 891.803L903.957 901.101L902.789 910.546L901.474 920.125L899.996 929.818L898.339 939.608L896.488 949.472L894.428 959.386L892.143 969.323L889.619 979.255L886.842 989.15L883.799 998.975L880.477 1008.69L876.864 1018.27L872.951 1027.66L868.731 1036.83L864.197 1045.73L859.347 1054.33L854.178 1062.58L848.693 1070.46L842.894 1077.91L836.788 1084.9L830.383 1091.41L823.691 1097.39L816.726 1102.82L809.502 1107.68L802.037 1111.94L794.351 1115.6L786.466 1118.62L778.403 1121.01L770.186 1122.77L761.84 1123.88L753.39 1124.37L744.861 1124.22L736.278 1123.47L727.666 1122.12L719.05 1120.2L710.453 1117.73L701.898 1114.75L693.405 1111.28L684.994 1107.35L676.683 1103.02L668.487 1098.31L660.42 1093.28L652.494 1087.96L644.717 1082.4L637.097 1076.64L629.637 1070.74L622.339 1064.74L615.203 1058.69L608.225 1052.62L601.401 1046.6L594.722 1040.65L588.179 1034.83L581.759 1029.16L575.451 1023.69L569.238 1018.46L563.104 1013.48L557.031 1008.79L551.001 1004.42L544.994 1000.38L538.99 996.688L532.969 993.364L526.911 990.415L520.795 987.848L514.602 985.663L508.313 983.861L501.91 982.436L495.375 981.38L488.693 980.681L481.85 980.324L474.833 980.291L467.631 980.562L460.235 981.112L452.64 981.914L444.84 982.94L436.834 984.158L428.623 985.534L420.211 987.032L411.605 988.614L402.815 990.24L393.85 991.873L384.725 993.478L375.451 995.022L366.041 996.476L356.508 997.814L346.866 999.012L337.126 1000.05L327.3 1000.91L317.4 1001.59L307.434 1002.06L297.413 1002.32L287.347 1002.36L277.245 1002.17L267.118 1001.75L256.979 1001.09L246.837 1000.18L236.707 999.004L226.599 997.569L216.528 995.864L206.506 993.883L196.548 991.623L186.666 989.077L176.877 986.243L167.194 983.116L157.632 979.694L148.208 975.974L138.936 971.954L129.834 967.634L120.916 963.012L112.199 958.088L103.7 952.864L95.4351 947.341L87.4207 941.52L79.6729 935.406L72.2079 929.002L65.0413 922.313L58.1885 915.344L51.6642 908.102L45.4826 900.595L39.6571 892.83L34.2002 884.818L29.1237 876.569L24.4379 868.093L20.1525 859.403L16.2755 850.512L12.8139 841.432L9.77337 832.178L7.15793 822.764L4.97039 813.207L3.21206 803.521L1.88274 793.723L0.980695 783.829L0.50305 773.855L0.445338 763.818L0.801938 753.734L1.56583 743.62L2.72912 733.491L4.2827 723.364L6.21664 713.253L8.52023 703.174L11.1821 693.14L14.1904 683.165L17.5328 673.263L21.1966 663.446L25.1692 653.724L29.4376 644.111L33.9888 634.614L38.8099 625.245L43.8879 616.012L49.2098 606.924L54.7622 597.988L60.5319 589.21L66.5047 580.598L72.666 572.158L79.0001 563.894L85.4909 555.811L92.1203 547.913L98.8666 540.203L105.705 532.682L112.606 525.353L119.538 518.213L126.467 511.26L133.356 504.49L140.163 497.897L146.848 491.472L153.366 485.204L159.674 479.08L165.73 473.083L171.495 467.197L176.932 461.403L182.008 455.679L186.693 450.003L190.96 444.353L194.788 438.704L198.159 433.032L201.06 427.312L203.483 421.52L205.425 415.632L206.887 409.625L207.875 403.477L208.4 397.168L208.479 390.679L208.131 383.993L207.381 377.096L206.256 369.976L204.79 362.623L203.017 355.031L200.976 347.196L198.708 339.119L196.255 330.801L193.663 322.248L190.978 313.47L188.247 304.479L185.517 295.288L182.835 285.917L180.248 276.385L177.802 266.717L175.542 256.937L173.51 247.073L171.748 237.154L170.292 227.211L169.179 217.277L168.441 207.384L168.107 197.566L168.203 187.858L168.751 178.292L169.77 168.903L171.274 159.724L173.273 150.785L175.776 142.119L178.784 133.755L182.298 125.718L186.313 118.036L190.822 110.73L195.815 103.822L201.276 97.3297L207.19 91.2686Z" fill="#89C8A5"/>
</svg>
