<svg width="493" height="1029" viewBox="0 0 493 1029" fill="none" xmlns="http://www.w3.org/2000/svg">
<path fill-rule="evenodd" clip-rule="evenodd" d="M764.785 90.4228L769.352 90.0071L774.082 89.4654L778.975 88.8124L784.029 88.0631L789.24 87.233L794.607 86.3374L800.124 85.3917L805.787 84.4115L811.59 83.4118L817.526 82.4076L823.589 81.4137L829.77 80.4443L836.063 79.5133L842.458 78.6343L848.947 77.8203L855.519 77.084L862.164 76.4375L868.873 75.8928L875.633 75.4609L882.434 75.1531L889.262 74.98L896.104 74.9523L902.944 75.0821L909.765 75.382L916.546 75.8648L923.267 76.5437L929.904 77.431L936.436 78.5385L942.837 79.8773L949.083 81.457L955.15 83.2861L961.015 85.3714L966.653 87.7181L972.041 90.3299L977.159 93.2081L981.985 96.3528L986.501 99.7618L990.69 103.431L994.536 107.356L998.024 111.528L1001.14 115.939L1003.89 120.579L1006.24 125.436L1008.21 130.498L1009.78 135.75L1010.96 141.178L1011.74 146.766L1012.13 152.499L1012.13 158.359L1011.75 164.33L1011.01 170.395L1009.9 176.536L1008.45 182.735L1006.66 188.977L1004.56 195.243L1002.16 201.518L999.48 207.786L996.541 214.031L993.365 220.24L989.973 226.398L986.389 232.493L982.636 238.513L978.739 244.448L974.723 250.287L970.614 256.023L966.435 261.647L962.213 267.154L957.972 272.538L953.737 277.796L949.533 282.926L945.382 287.925L941.309 292.794L937.336 297.533L933.483 302.144L929.771 306.631L926.219 310.996L922.845 315.246L919.666 319.386L916.696 323.422L913.949 327.363L911.439 331.215L909.175 334.988L907.166 338.691L905.421 342.333L903.944 345.925L902.741 349.476L901.814 352.996L901.164 356.497L900.791 359.989L900.693 363.481L900.866 366.985L901.305 370.51L902.005 374.066L902.958 377.663L904.155 381.309L905.587 385.013L907.243 388.783L909.112 392.626L911.18 396.55L913.436 400.561L915.866 404.664L918.455 408.865L921.189 413.167L924.055 417.576L927.038 422.094L930.123 426.724L933.295 431.468L936.542 436.327L939.848 441.303L943.2 446.396L946.584 451.606L949.988 456.933L953.398 462.376L956.802 467.933L960.188 473.603L963.547 479.384L966.865 485.273L970.131 491.268L973.332 497.363L976.453 503.555L979.477 509.834L982.389 516.195L985.168 522.627L987.797 529.121L990.256 535.663L992.525 542.242L994.585 548.842L996.415 555.449L997.996 562.046L999.31 568.617L1000.34 575.143L1001.07 581.606L1001.48 587.987L1001.56 594.268L1001.3 600.43L1000.69 606.452L999.725 612.318L998.391 618.009L996.687 623.507L994.614 628.797L992.171 633.862L989.362 638.688L986.192 643.264L982.67 647.577L978.805 651.618L974.61 655.38L970.098 658.856L965.287 662.044L960.194 664.941L954.838 667.549L949.24 669.869L943.422 671.906L937.408 673.668L931.222 675.164L924.887 676.404L918.429 677.403L911.874 678.174L905.245 678.735L898.568 679.104L891.867 679.3L885.165 679.346L878.486 679.263L871.851 679.074L865.281 678.804L858.794 678.476L852.408 678.116L846.14 677.748L840.002 677.397L834.008 677.086L828.167 676.84L822.49 676.68L816.98 676.63L811.645 676.708L806.485 676.934L801.502 677.325L796.694 677.897L792.058 678.663L787.589 679.634L783.281 680.82L779.126 682.227L775.115 683.86L771.237 685.721L767.48 687.811L763.832 690.125L760.28 692.659L756.809 695.405L753.406 698.355L750.056 701.495L746.744 704.812L743.456 708.291L740.178 711.913L736.896 715.66L733.597 719.512L730.269 723.449L726.901 727.448L723.483 731.488L720.005 735.547L716.459 739.605L712.839 743.639L709.139 747.631L705.356 751.562L701.486 755.415L697.528 759.176L693.482 762.831L689.348 766.37L685.126 769.78L680.82 773.051L676.429 776.172L671.959 779.134L667.41 781.927L662.787 784.543L658.095 786.977L653.338 789.226L648.522 791.288L643.651 793.163L638.731 794.852L633.768 796.358L628.768 797.686L623.734 798.84L618.672 799.828L613.588 800.657L608.485 801.336L603.367 801.873L598.239 802.278L593.102 802.563L587.96 802.736L582.815 802.809L577.669 802.793L572.522 802.698L567.376 802.536L562.23 802.315L557.084 802.048L551.937 801.743L546.79 801.41L541.639 801.059L536.483 800.697L531.32 800.331L526.147 799.97L520.963 799.619L515.764 799.283L510.547 798.966L505.31 798.671L500.049 798.401L494.763 798.158L489.449 797.939L484.104 797.746L478.726 797.575L473.314 797.422L467.867 797.285L462.385 797.155L456.866 797.028L451.313 796.894L445.726 796.745L440.108 796.571L434.461 796.36L428.79 796.102L423.099 795.783L417.394 795.391L411.681 794.91L405.968 794.328L400.264 793.628L394.579 792.797L388.921 791.819L383.304 790.679L377.738 789.362L372.237 787.854L366.815 786.139L361.485 784.206L356.263 782.041L351.163 779.633L346.202 776.97L341.395 774.043L336.756 770.845L332.303 767.369L328.05 763.609L324.012 759.563L320.202 755.23L316.635 750.609L313.322 745.704L310.273 740.519L307.5 735.062L305.009 729.34L302.807 723.366L300.898 717.151L299.285 710.711L297.968 704.062L296.945 697.222L296.213 690.211L295.765 683.05L295.593 675.762L295.687 668.369L296.033 660.895L296.617 653.365L297.422 645.802L298.432 638.23L299.625 630.673L300.981 623.156L302.475 615.701L304.083 608.333L305.779 601.071L307.539 593.935L309.336 586.943L311.142 580.114L312.927 573.464L314.663 567.01L316.318 560.765L317.862 554.743L319.266 548.953L320.5 543.403L321.537 538.1L322.351 533.048L322.916 528.247L323.21 523.696L323.213 519.392L322.907 515.33L322.276 511.501L321.307 507.897L319.991 504.506L318.318 501.314L316.285 498.308L313.891 495.472L311.135 492.789L308.023 490.241L304.561 487.809L300.758 485.475L296.627 483.219L292.183 481.021L287.442 478.862L282.424 476.723L277.151 474.584L271.645 472.428L265.933 470.236L260.042 467.993L253.999 465.681L247.833 463.286L241.576 460.795L235.259 458.196L228.913 455.477L222.57 452.63L216.262 449.645L210.023 446.518L203.882 443.242L197.871 439.815L192.022 436.234L186.362 432.501L180.922 428.614L175.726 424.579L170.802 420.397L166.173 416.076L161.86 411.621L157.885 407.04L154.265 402.343L151.015 397.538L148.151 392.636L145.683 387.65L143.619 382.59L141.967 377.469L140.731 372.3L139.912 367.096L139.509 361.869L139.52 356.633L139.939 351.401L140.757 346.185L141.966 340.997L143.553 335.848L145.504 330.751L147.804 325.714L150.435 320.748L153.377 315.861L156.612 311.06L160.117 306.352L163.87 301.744L167.849 297.239L172.028 292.84L176.386 288.551L180.899 284.372L185.542 280.305L190.294 276.349L195.133 272.502L200.037 268.762L204.988 265.127L209.965 261.593L214.953 258.156L219.937 254.814L224.902 251.56L229.838 248.392L234.735 245.304L239.584 242.292L244.376 239.351L249.103 236.477L253.757 233.663L258.331 230.904L262.816 228.194L267.209 225.527L271.508 222.898L275.71 220.304L279.816 217.741L283.829 215.205L287.751 212.694L291.587 210.205L295.34 207.737L299.015 205.289L302.618 202.86L306.154 200.45L309.629 198.058L313.046 195.685L316.413 193.33L319.733 190.994L323.01 188.676L326.248 186.378L329.451 184.099L332.621 181.839L335.761 179.597L338.87 177.372L341.952 175.164L345.006 172.972L348.032 170.792L351.029 168.624L353.997 166.464L356.934 164.309L359.838 162.156L362.707 160L365.539 157.837L368.331 155.663L371.08 153.471L373.785 151.256L376.441 149.012L379.047 146.733L381.601 144.413L384.099 142.043L386.541 139.619L388.924 137.132L391.248 134.576L393.512 131.945L395.717 129.232L397.861 126.431L399.947 123.535L401.976 120.54L403.949 117.441L405.871 114.233L407.745 110.912L409.573 107.476L411.362 103.923L413.116 100.251L414.842 96.4596L416.544 92.5495L418.23 88.522L419.908 84.3794L421.583 80.1252L423.265 75.7635L424.96 71.2997L426.677 66.7398L428.424 62.0908L430.209 57.3608L432.039 52.5583L433.923 47.6926L435.867 42.7737L437.88 37.8122L439.967 32.8189L442.136 27.8051L444.391 22.7822L446.739 17.7616L449.183 12.7548L451.728 7.77282L454.377 2.82684L457.132 -2.07254L459.996 -6.91493L462.971 -11.6905L466.057 -16.3898L469.254 -21.0043L472.562 -25.5257L475.979 -29.9468L479.506 -34.2608L483.14 -38.4617L486.878 -42.5439L490.719 -46.5025L494.66 -50.3326L498.697 -54.0298L502.828 -57.5882L507.05 -60.9999L511.362 -64.2546L515.76 -67.34L520.243 -70.2422L524.807 -72.9451L529.448 -75.4321L534.164 -77.6858L538.949 -79.6886L543.797 -81.4233L548.703 -82.8734L553.659 -84.0235L558.657 -84.8596L563.688 -85.3691L568.744 -85.5417L573.813 -85.3687L578.887 -84.844L583.954 -83.9634L589.003 -82.7254L594.024 -81.1306L599.005 -79.1824L603.936 -76.8862L608.807 -74.2504L613.606 -71.285L618.326 -68.0029L622.956 -64.4183L627.49 -60.5479L631.919 -56.4097L636.238 -52.0235L640.44 -47.4103L644.522 -42.5925L648.481 -37.5932L652.315 -32.4366L656.021 -27.1475L659.602 -21.751L663.058 -16.2725L666.391 -10.7375L669.605 -5.17131L672.706 0.40121L675.697 5.95525L678.587 11.467L681.383 16.9133L684.093 22.2719L686.726 27.5216L689.293 32.6423L691.804 37.6154L694.269 42.4232L696.701 47.0498L699.112 51.4808L701.513 55.7031L703.916 59.7054L706.335 63.478L708.781 67.0127L711.267 70.3032L713.805 73.3446L716.406 76.1338L719.081 78.6692L721.843 80.9507L724.701 82.9801L727.665 84.7601L730.744 86.2953L733.946 87.5914L737.28 88.6554L740.753 89.4955L744.371 90.1211L748.138 90.5424L752.06 90.7709L756.14 90.8184L760.381 90.6979L764.785 90.4228Z" fill="#EB5C2C"/>
</svg>
