<svg width="136" height="497" viewBox="0 0 136 497" fill="none" xmlns="http://www.w3.org/2000/svg">
<path fill-rule="evenodd" clip-rule="evenodd" d="M338.023 351.415L337.46 353.144L336.918 354.952L336.391 356.836L335.874 358.795L335.362 360.823L334.849 362.919L334.331 365.077L333.803 367.293L333.26 369.563L332.697 371.883L332.112 374.247L331.498 376.651L330.854 379.089L330.174 381.557L329.456 384.048L328.697 386.557L327.893 389.08L327.043 391.609L326.144 394.14L325.192 396.665L324.188 399.18L323.128 401.677L322.012 404.149L320.836 406.587L319.6 408.982L318.302 411.325L316.941 413.604L315.516 415.811L314.028 417.933L312.476 419.962L310.861 421.887L309.184 423.697L307.448 425.385L305.654 426.939L303.805 428.354L301.905 429.621L299.957 430.733L297.965 431.685L295.934 432.473L293.868 433.092L291.773 433.539L289.654 433.813L287.516 433.912L285.364 433.837L283.205 433.589L281.044 433.168L278.886 432.579L276.736 431.825L274.601 430.91L272.484 429.839L270.391 428.618L268.327 427.255L266.296 425.756L264.301 424.13L262.346 422.384L260.436 420.529L258.571 418.573L256.755 416.526L254.99 414.398L253.276 412.199L251.616 409.94L250.009 407.632L248.456 405.284L246.957 402.908L245.51 400.514L244.114 398.113L242.768 395.713L241.469 393.326L240.215 390.962L239.004 388.628L237.831 386.334L236.694 384.089L235.589 381.9L234.511 379.776L233.457 377.722L232.422 375.745L231.401 373.852L230.39 372.046L229.384 370.333L228.377 368.716L227.366 367.199L226.346 365.785L225.311 364.474L224.256 363.269L223.179 362.169L222.073 361.176L220.935 360.288L219.762 359.503L218.548 358.822L217.291 358.24L215.987 357.755L214.634 357.364L213.229 357.063L211.77 356.848L210.254 356.714L208.681 356.657L207.048 356.67L205.356 356.75L203.603 356.891L201.789 357.085L199.914 357.329L197.979 357.616L195.984 357.939L193.93 358.294L191.817 358.674L189.648 359.074L187.424 359.489L185.146 359.912L182.816 360.338L180.437 360.763L178.009 361.182L175.536 361.589L173.02 361.98L170.464 362.352L167.868 362.699L165.237 363.019L162.573 363.307L159.878 363.56L157.157 363.773L154.413 363.942L151.652 364.062L148.88 364.128L146.102 364.135L143.325 364.078L140.557 363.951L137.805 363.749L135.079 363.468L132.385 363.101L129.735 362.646L127.135 362.098L124.597 361.452L122.128 360.707L119.739 359.86L117.438 358.908L115.233 357.851L113.134 356.687L111.149 355.417L109.284 354.041L107.547 352.56L105.944 350.978L104.481 349.296L103.161 347.518L101.99 345.648L100.969 343.69L100.101 341.65L99.3866 339.534L98.8253 337.347L98.4161 335.095L98.1569 332.787L98.0443 330.428L98.0743 328.025L98.2414 325.587L98.5397 323.121L98.962 320.633L99.5004 318.131L100.146 315.622L100.89 313.113L101.722 310.611L102.632 308.12L103.608 305.648L104.639 303.199L105.713 300.779L106.819 298.391L107.945 296.04L109.079 293.727L110.208 291.457L111.322 289.231L112.41 287.05L113.46 284.914L114.463 282.825L115.409 280.781L116.289 278.782L117.094 276.826L117.819 274.911L118.455 273.034L118.999 271.193L119.444 269.384L119.789 267.604L120.031 265.849L120.168 264.116L120.2 262.399L120.128 260.695L119.954 259L119.681 257.309L119.314 255.618L118.856 253.924L118.313 252.223L117.693 250.512L117.002 248.787L116.249 247.045L115.441 245.284L114.589 243.503L113.702 241.699L112.788 239.871L111.857 238.018L110.92 236.141L109.985 234.239L109.061 232.313L108.157 230.364L107.281 228.392L106.44 226.399L105.641 224.386L104.89 222.356L104.191 220.311L103.548 218.251L102.966 216.18L102.447 214.1L101.996 212.012L101.616 209.92L101.31 207.826L101.08 205.733L100.926 203.643L100.85 201.558L100.852 199.481L100.931 197.414L101.085 195.357L101.312 193.314L101.61 191.284L101.976 189.27L102.408 187.271L102.9 185.289L103.451 183.324L104.056 181.375L104.71 179.443L105.409 177.528L106.15 175.627L106.928 173.741L107.738 171.869L108.577 170.008L109.441 168.159L110.326 166.318L111.228 164.485L112.144 162.658L113.07 160.835L114.003 159.013L114.941 157.191L115.881 155.367L116.822 153.539L117.76 151.705L118.696 149.864L119.627 148.012L120.553 146.15L121.473 144.276L122.389 142.388L123.299 140.486L124.205 138.569L125.108 136.636L126.01 134.689L126.912 132.726L127.816 130.748L128.725 128.758L129.642 126.756L130.57 124.743L131.512 122.724L132.471 120.699L133.452 118.673L134.458 116.65L135.493 114.633L136.561 112.626L137.666 110.636L138.813 108.667L140.005 106.726L141.246 104.818L142.539 102.949L143.889 101.127L145.299 99.3591L146.771 97.6516L148.309 96.0121L149.914 94.4479L151.589 92.9666L153.334 91.5753L155.152 90.2813L157.043 89.0915L159.005 88.0125L161.04 87.0508L163.146 86.212L165.32 85.5016L167.561 84.9243L169.866 84.4841L172.232 84.1841L174.654 84.0269L177.128 84.0139L179.649 84.1456L182.211 84.4218L184.81 84.8409L187.438 85.4006L190.09 86.0975L192.759 86.9268L195.438 87.8833L198.12 88.9601L200.799 90.15L203.468 91.4446L206.12 92.8346L208.75 94.3105L211.35 95.862L213.917 97.4783L216.444 99.1476L218.926 100.857L221.359 102.595L223.74 104.349L226.065 106.105L228.331 107.853L230.537 109.579L232.68 111.269L234.76 112.91L236.777 114.49L238.73 115.994L240.62 117.41L242.448 118.728L244.218 119.935L245.932 121.021L247.593 121.977L249.205 122.796L250.772 123.47L252.3 123.994L253.794 124.362L255.258 124.573L256.7 124.623L258.124 124.513L259.537 124.242L260.945 123.813L262.353 123.229L263.768 122.494L265.195 121.612L266.64 120.592L268.108 119.44L269.603 118.164L271.131 116.774L272.695 115.28L274.299 113.694L275.945 112.025L277.637 110.286L279.375 108.491L281.162 106.65L282.999 104.779L284.884 102.888L286.819 100.993L288.802 99.1061L290.831 97.2404L292.904 95.409L295.019 93.6246L297.173 91.8995L299.361 90.2455L301.58 88.6741L303.825 87.1959L306.092 85.8212L308.374 84.5594L310.668 83.419L312.966 82.408L315.263 81.5334L317.554 80.8012L319.831 80.2167L322.09 79.7841L324.323 79.5068L326.526 79.3871L328.692 79.4264L330.816 79.6252L332.892 79.9829L334.917 80.4981L336.884 81.1686L338.79 81.9911L340.63 82.9617L342.403 84.0755L344.104 85.327L345.732 86.7101L347.284 88.2179L348.759 89.8432L350.157 91.5781L351.478 93.4143L352.721 95.3433L353.888 97.3563L354.981 99.4442L356 101.598L356.949 103.809L357.83 106.067L358.647 108.364L359.403 110.692L360.102 113.042L360.747 115.406L361.342 117.778L361.893 120.149L362.402 122.515L362.874 124.87L363.313 127.208L363.722 129.526L364.105 131.82L364.464 134.086L364.803 136.324L365.126 138.529L365.434 140.701L365.731 142.837L366.022 144.934L366.308 146.992L366.592 149.01L366.878 150.987L367.166 152.923L367.458 154.82L367.755 156.679L368.056 158.5L368.364 160.287L368.676 162.04L368.993 163.762L369.315 165.454L369.64 167.119L369.968 168.759L370.299 170.375L370.63 171.97L370.962 173.545L371.294 175.101L371.625 176.64L371.955 178.164L372.283 179.672L372.609 181.166L372.933 182.647L373.256 184.115L373.577 185.57L373.898 187.013L374.219 188.445L374.542 189.864L374.868 191.27L375.199 192.665L375.536 194.047L375.881 195.417L376.237 196.774L376.605 198.119L376.989 199.45L377.391 200.769L377.814 202.075L378.261 203.368L378.733 204.649L379.235 205.917L379.768 207.174L380.336 208.421L380.941 209.657L381.585 210.884L382.27 212.103L382.999 213.316L383.773 214.523L384.593 215.727L385.462 216.929L386.379 218.13L387.344 219.334L388.359 220.541L389.423 221.754L390.534 222.976L391.693 224.207L392.897 225.451L394.144 226.71L395.432 227.986L396.758 229.28L398.119 230.596L399.512 231.934L400.933 233.297L402.377 234.687L403.84 236.105L405.319 237.552L406.807 239.029L408.3 240.538L409.793 242.08L411.28 243.653L412.758 245.26L414.22 246.901L415.662 248.574L417.079 250.28L418.467 252.018L419.821 253.788L421.137 255.589L422.412 257.419L423.642 259.278L424.823 261.164L425.954 263.076L427.03 265.013L428.05 266.972L429.013 268.953L429.915 270.953L430.757 272.971L431.537 275.006L432.252 277.055L432.903 279.116L433.486 281.188L433.997 283.268L434.434 285.352L434.79 287.439L435.062 289.525L435.242 291.605L435.326 293.675L435.308 295.731L435.182 297.769L434.943 299.783L434.587 301.768L434.11 303.72L433.509 305.633L432.782 307.502L431.926 309.322L430.942 311.088L429.829 312.796L428.588 314.443L427.222 316.022L425.734 317.533L424.126 318.97L422.404 320.333L420.574 321.618L418.64 322.824L416.61 323.951L414.491 324.997L412.291 325.964L410.018 326.851L407.68 327.661L405.287 328.395L402.846 329.056L400.368 329.647L397.862 330.17L395.336 330.631L392.8 331.034L390.262 331.383L387.731 331.683L385.216 331.942L382.725 332.163L380.265 332.355L377.844 332.522L375.468 332.671L373.144 332.81L370.877 332.944L368.672 333.082L366.535 333.228L364.469 333.391L362.478 333.576L360.564 333.791L358.73 334.041L356.978 334.332L355.308 334.671L353.72 335.062L352.215 335.511L350.792 336.023L349.45 336.601L348.187 337.251L347.001 337.975L345.889 338.776L344.849 339.658L343.876 340.622L342.967 341.67L342.118 342.804L341.324 344.025L340.582 345.331L339.885 346.725L339.23 348.204L338.611 349.768L338.023 351.415Z" fill="#EB5C2C"/>
</svg>
