<svg width="170" height="353" viewBox="0 0 170 353" fill="none" xmlns="http://www.w3.org/2000/svg">
<path fill-rule="evenodd" clip-rule="evenodd" d="M260.584 186.361L260.998 187.271L262.371 188.325L264.617 189.542L267.667 190.936L271.455 192.521L275.915 194.309L280.964 196.307L286.503 198.511L292.406 200.913L298.518 203.49L304.656 206.207L310.608 209.014L316.148 211.85L321.044 214.641L325.076 217.306L328.052 219.765L329.828 221.94L330.32 223.768L329.511 225.202L327.452 226.216L324.257 226.807L320.089 226.995L315.145 226.818L309.635 226.328L303.772 225.588L297.755 224.662L291.758 223.617L285.929 222.513L280.384 221.406L275.211 220.344L270.474 219.368L266.212 218.51L262.449 217.8L259.195 217.258L256.451 216.904L254.212 216.754L252.47 216.822L251.215 217.12L250.437 217.664L250.128 218.465L250.28 219.539L250.886 220.901L251.941 222.565L253.436 224.547L255.364 226.86L257.71 229.516L260.456 232.521L263.571 235.874L267.015 239.565L270.73 243.57L274.64 247.849L278.648 252.343L282.636 256.97L286.467 261.627L289.987 266.187L293.034 270.509L295.447 274.441L297.079 277.83L297.808 280.535L297.554 282.441L296.281 283.465L294.011 283.573L290.815 282.776L286.814 281.136L282.162 278.753L277.036 275.762L271.622 272.318L266.098 268.582L260.629 264.712L255.352 260.858L250.384 257.148L245.81 253.696L241.695 250.596L238.084 247.925L235.008 245.751L232.49 244.138L230.552 243.148L229.219 242.855L228.525 243.348L228.449 244.65L228.914 246.709L229.853 249.481L231.209 252.93L232.926 257.021L234.947 261.706L237.206 266.926L239.629 272.598L242.128 278.614L244.604 284.833L246.948 291.087L249.043 297.183L250.773 302.908L252.033 308.048L252.731 312.395L252.803 315.772L252.216 318.045L250.971 319.136L249.107 319.028L246.69 317.769L243.814 315.461L240.586 312.253L237.119 308.321L233.523 303.859L229.901 299.056L226.337 294.094L222.903 289.133L219.651 284.308L216.616 279.73L213.822 275.483L211.279 271.63L208.987 268.217L206.941 265.272L205.129 262.814L203.539 260.853L202.155 259.396L200.961 258.445L199.94 258.003L199.076 258.073L198.354 258.66L197.758 259.767L197.274 261.402L196.885 263.571L196.575 266.278L196.33 269.525L196.13 273.307L195.956 277.611L195.788 282.408L195.603 287.652L195.375 293.276L195.079 299.184L194.689 305.252L194.179 311.325L193.528 317.22L192.718 322.73L191.737 327.635L190.585 331.716L189.269 334.771L187.808 336.634L186.232 337.189L184.576 336.388L182.883 334.251L181.193 330.872L179.549 326.404L177.985 321.048L176.527 315.037L175.193 308.613L173.99 302.012L172.917 295.452L171.967 289.123L171.123 283.183L170.367 277.759L169.677 272.951L169.028 268.837L168.393 265.481L167.743 262.944L167.047 261.287L166.269 260.59L165.37 260.923L164.328 262.223L163.125 264.403L161.746 267.391L160.176 271.123L158.404 275.532L156.424 280.538L154.235 286.043L151.848 291.923L149.284 298.025L146.577 304.168L143.775 310.143L140.939 315.725L138.142 320.681L135.464 324.79L132.986 327.856L130.786 329.733L128.928 330.328L127.462 329.622L126.414 327.659L125.79 324.549L125.571 320.451L125.721 315.56L126.188 310.087L126.91 304.245L127.824 298.233L128.862 292.228L129.963 286.38L131.072 280.809L132.139 275.604L133.124 270.829L133.992 266.528L134.715 262.725L135.27 259.43L135.64 256.646L135.807 254.367L135.757 252.585L135.477 251.291L134.954 250.476L134.174 250.13L133.122 250.246L131.784 250.816L130.145 251.835L128.189 253.296L125.902 255.189L123.274 257.503L120.298 260.218L116.972 263.306L113.307 266.726L109.326 270.422L105.067 274.319L100.588 278.324L95.9679 282.319L91.3099 286.168L86.7371 289.719L82.3905 292.81L78.4221 295.279L74.9847 296.978L72.2204 297.784L70.2481 297.609L69.1516 296.418L68.9707 294.225L69.6968 291.099L71.2735 287.156L73.6015 282.549L76.5491 277.454L79.9632 272.056L83.6821 266.534L87.5462 261.054L91.4069 255.758L95.1321 250.761L98.6081 246.152L101.74 241.998L104.447 238.346L106.663 235.226L108.323 232.663L109.365 230.678L109.717 229.296L109.289 228.55L108.049 228.428L106.049 228.852L103.333 229.756L99.936 231.08L95.8955 232.771L91.2557 234.77L86.0758 237.013L80.4363 239.427L74.4441 241.923L68.2358 244.406L61.9776 246.764L55.862 248.883L50.0993 250.647L44.906 251.948L40.4891 252.694L37.0292 252.817L34.6647 252.283L33.4786 251.09L33.4919 249.272L34.6626 246.896L36.8916 244.053L40.0343 240.848L43.9148 237.396L48.3421 233.806L53.1238 230.182L58.0789 226.611L63.0453 223.164L67.8853 219.895L72.4867 216.843L76.7624 214.029L80.6479 211.465L84.0974 209.153L87.0803 207.087L89.5776 205.257L91.578 203.65L93.0755 202.25L94.0667 201.041L94.5489 200.007L94.5196 199.131L93.9746 198.399L92.9089 197.793L91.3164 197.3L89.1907 196.904L86.5267 196.589L83.3226 196.339L79.5827 196.136L75.3201 195.961L70.5615 195.794L65.351 195.61L59.7549 195.387L53.8657 195.098L47.8053 194.716L41.7264 194.217L35.8102 193.578L30.262 192.78L25.3009 191.814L21.1468 190.675L18.0037 189.371L16.0414 187.921L15.3793 186.353L16.0724 184.702L18.1048 183.01L21.39 181.318L25.7783 179.669L31.0711 178.097L37.0386 176.63L43.4384 175.285L50.0329 174.071L56.6029 172.989L62.9561 172.029L68.9319 171.177L74.4007 170.415L79.2607 169.72L83.4324 169.069L86.8502 168.434L89.455 167.786L91.1841 167.095L91.9612 166.325L91.7095 165.436L90.4828 164.406L88.3707 163.216L85.4448 161.852L81.7696 160.298L77.4121 158.542L72.4506 156.578L66.9817 154.406L61.127 152.035L55.0366 149.484L48.89 146.786L42.8936 143.989L37.2723 141.153L32.2584 138.35L28.0753 135.659L24.9197 133.163L22.9447 130.937L22.2452 129.05L22.8489 127.552L24.7149 126.47L27.7387 125.812L31.7643 125.562L36.5994 125.684L42.0334 126.128L47.8535 126.833L53.8586 127.733L59.8694 128.764L65.7342 129.862L71.3312 130.972L76.5677 132.044L81.3776 133.037L85.7172 133.915L89.5605 134.651L92.8958 135.221L95.7208 135.605L98.0396 135.789L99.8603 135.757L101.192 135.496L102.045 134.993L102.428 134.233L102.349 133.203L101.815 131.889L100.832 130.274L99.4061 128.344L97.5467 126.084L95.2659 123.483L92.5822 120.534L89.5231 117.236L86.128 113.598L82.4518 109.64L78.5672 105.401L74.5676 100.937L70.5675 96.3243L66.7016 91.6649L63.1214 87.0801L59.988 82.7098L57.4635 78.7054L55.6983 75.2201L54.8183 72.3973L54.9126 70.3582L56.0227 69.1898L58.1377 68.9356L61.1929 69.591L65.0758 71.103L69.6359 73.3758L74.6985 76.2795L80.0789 79.6625L85.5964 83.3632L91.0847 87.2215L96.4 91.0878L101.424 94.8283L106.066 98.328L110.258 101.49L113.951 104.234L117.114 106.491L119.722 108.198L121.754 109.292L123.185 109.702L123.983 109.339L124.152 108.162L123.768 106.221L122.901 103.56L121.608 100.216L119.944 96.2248L117.968 91.6306L115.741 86.4907L113.339 80.8839L110.846 74.9149L108.359 68.7177L105.987 62.4565L103.844 56.3216L102.048 50.5225L100.707 45.2758L99.9143 40.7897L99.7395 37.2477L100.221 34.7919L101.363 33.5103L103.132 33.4288L105.466 34.5102L108.276 36.6599L111.456 39.736L114.893 43.5649L118.475 47.956L122.099 52.7166L125.677 57.6644L129.136 62.6355L132.42 67.4902L135.491 72.1143L138.324 76.4189L140.908 80.3376L143.24 83.8232L145.324 86.8443L147.172 89.3809L148.797 91.4213L150.213 92.9591L151.436 93.9907L152.483 94.5136L153.371 94.525L154.114 94.0213L154.729 92.9972L155.231 91.4467L155.634 89.3635L155.955 86.7424L156.209 83.5811L156.415 79.8832L156.592 75.6613L156.759 70.9405L156.94 65.7635L157.16 60.1948L157.443 54.3245L157.816 48.2722L158.305 42.188L158.933 36.2513L159.717 30.6655L160.67 25.6492L161.795 21.4228L163.086 18.1921L164.525 16.1305L166.085 15.3618L167.731 15.9467L169.422 17.8748L171.114 21.0652L172.768 25.3726L174.347 30.6018L175.824 36.5247L177.178 42.8993L178.402 49.4871L179.495 56.0668L180.465 62.444L181.324 68.4554L182.092 73.9689L182.791 78.8809L183.445 83.1101L184.081 86.5904L184.726 89.2622L185.412 91.0637L186.174 91.92L187.052 91.7502L188.071 90.5975L189.247 88.553L190.597 85.6893L192.136 82.0711L193.875 77.765L195.822 72.848L197.977 67.4151L200.334 61.5856L202.871 55.5073L205.559 49.3576L208.35 43.3407L211.185 37.6807L213.993 32.6097L216.696 28.3523L219.211 25.1084L221.46 23.035L223.376 22.2319L224.907 22.7324L226.022 24.501L226.714 27.438L226.995 31.3907L226.901 36.1692L226.48 41.5637L225.794 47.361L224.907 53.3587L223.884 59.3753L222.789 65.257L221.678 70.8794L220.601 76.1478L219.601 80.9939L218.712 85.3723L217.965 89.256L217.381 92.6322L216.981 95.4979L216.78 97.8569L216.795 99.717L217.037 101.088L217.521 101.978L218.259 102.399L219.267 102.356L220.558 101.858L222.148 100.91L224.053 99.5192L226.286 97.6938L228.859 95.4458L231.78 92.7931L235.05 89.7624L238.662 86.3921L242.595 82.7355L246.813 78.8641L251.262 74.8694L255.866 70.8643L260.525 66.9821L265.121 63.373L269.513 60.1978L273.552 57.6188L277.084 55.7879L279.964 54.8336L282.07 54.848L283.309 55.877L283.637 57.9137L283.053 60.8978L281.606 64.7201L279.389 69.2328L276.531 74.2624L273.18 79.6247L269.499 85.138L265.648 90.6347L261.777 95.9688L258.022 101.02L254.5 105.696L251.307 109.925L248.527 113.66L246.229 116.867L244.477 119.52L243.331 121.598L242.865 123.079L243.162 123.928L244.276 124.144L246.158 123.802L248.763 122.971L252.054 121.709L255.994 120.073L260.542 118.119L265.641 115.91L271.214 113.519L277.158 111.029L283.342 108.537L289.605 106.152L295.757 103.987L301.59 102.159L306.889 100.777L311.442 99.9378L315.065 99.7119L317.611 100.141L318.988 101.23L319.164 102.952L318.173 105.244L316.104 108.02L313.095 111.175L309.32 114.595L304.967 118.17L300.229 121.795L295.29 125.38L290.315 128.851L285.447 132.151L280.801 135.24L276.469 138.093L272.518 140.697L268.996 143.049L265.937 145.153L263.362 147.02L261.282 148.661L259.704 150.093L258.632 151.331L258.069 152.392L258.016 153.292L258.479 154.047L259.461 154.671L260.969 155.181L263.01 155.592L265.588 155.918L268.706 156.178L272.361 156.387L276.542 156.565L281.224 156.732L286.366 156.911L291.906 157.126L297.756 157.404L303.799 157.769L309.886 158.247L315.841 158.863L321.463 159.634L326.532 160.574L330.829 161.685L334.146 162.964L336.306 164.392L337.18 165.944L336.704 167.584L334.881 169.273L331.786 170.967L327.562 172.625L322.398 174.212L316.522 175.697L310.175 177.062L303.596 178.297L297.008 179.4L290.609 180.379L284.564 181.247L279.007 182.022L274.044 182.725L269.758 183.382L266.216 184.018L263.478 184.662L261.605 185.343L260.67 186.098L260.584 186.361Z" fill="#F193B7"/>
</svg>
