<svg width="459" height="666" viewBox="0 0 459 666" fill="none" xmlns="http://www.w3.org/2000/svg">
<path fill-rule="evenodd" clip-rule="evenodd" d="M491.687 352.126L492.467 353.84L495.054 355.828L499.287 358.12L505.034 360.747L512.173 363.735L520.576 367.105L530.091 370.868L540.529 375.022L551.653 379.549L563.17 384.405L574.735 389.524L585.951 394.815L596.391 400.158L605.617 405.417L613.214 410.439L618.823 415.072L622.171 419.172L623.098 422.616L621.573 425.318L617.693 427.229L611.673 428.343L603.818 428.697L594.5 428.363L584.118 427.441L573.071 426.046L561.732 424.301L550.431 422.331L539.446 420.251L528.997 418.165L519.25 416.164L510.323 414.324L502.292 412.708L495.201 411.369L489.069 410.349L483.899 409.682L479.68 409.399L476.397 409.527L474.032 410.089L472.566 411.113L471.984 412.624L472.27 414.647L473.413 417.213L475.399 420.349L478.217 424.083L481.849 428.443L486.271 433.447L491.445 439.109L497.316 445.428L503.805 452.383L510.806 459.931L518.173 467.995L525.725 476.463L533.241 485.182L540.46 493.957L547.093 502.55L552.835 510.695L557.382 518.104L560.457 524.491L561.832 529.588L561.352 533.179L558.955 535.109L554.677 535.312L548.655 533.811L541.114 530.72L532.347 526.23L522.689 520.594L512.486 514.104L502.078 507.063L491.771 499.772L481.828 492.508L472.465 485.518L463.846 479.013L456.092 473.17L449.287 468.137L443.491 464.041L438.747 461L435.095 459.135L432.583 458.583L431.275 459.512L431.132 461.966L432.008 465.846L433.777 471.069L436.332 477.57L439.568 485.277L443.376 494.106L447.634 503.943L452.2 514.632L456.909 525.967L461.575 537.686L465.991 549.472L469.938 560.959L473.199 571.748L475.573 581.432L476.889 589.624L477.024 595.988L475.917 600.271L473.572 602.327L470.059 602.123L465.505 599.75L460.085 595.402L454.002 589.356L447.469 581.948L440.694 573.538L433.867 564.489L427.152 555.139L420.681 545.79L414.552 536.698L408.834 528.07L403.569 520.067L398.776 512.807L394.457 506.375L390.601 500.825L387.188 496.193L384.191 492.499L381.583 489.752L379.333 487.961L377.409 487.129L375.782 487.261L374.421 488.366L373.298 490.453L372.385 493.534L371.652 497.62L371.069 502.721L370.606 508.84L370.23 515.968L369.903 524.077L369.586 533.117L369.236 542.999L368.807 553.596L368.249 564.729L367.514 576.164L366.554 587.609L365.327 598.717L363.799 609.1L361.952 618.343L359.78 626.033L357.3 631.79L354.548 635.3L351.578 636.346L348.458 634.836L345.266 630.81L342.084 624.442L338.985 616.022L336.037 605.93L333.29 594.603L330.775 582.497L328.509 570.059L326.488 557.697L324.696 545.771L323.107 534.578L321.683 524.357L320.382 515.296L319.159 507.543L317.962 501.22L316.738 496.439L315.427 493.317L313.96 492.003L312.266 492.631L310.302 495.081L308.035 499.188L305.436 504.819L302.478 511.852L299.139 520.16L295.407 529.594L291.283 539.967L286.786 551.047L281.954 562.546L276.853 574.122L271.572 585.382L266.228 595.9L260.957 605.239L255.911 612.981L251.241 618.76L247.095 622.295L243.594 623.418L240.831 622.087L238.857 618.388L237.681 612.527L237.268 604.805L237.551 595.589L238.43 585.276L239.793 574.267L241.514 562.937L243.47 551.622L245.546 540.602L247.635 530.103L249.646 520.295L251.501 511.298L253.136 503.194L254.499 496.026L255.546 489.818L256.242 484.57L256.557 480.276L256.463 476.919L255.936 474.481L254.95 472.945L253.48 472.293L251.498 472.51L248.977 473.585L245.887 475.505L242.202 478.258L237.893 481.826L232.941 486.186L227.331 491.302L221.065 497.121L214.159 503.565L206.657 510.53L198.631 517.875L190.19 525.421L181.485 532.949L172.707 540.202L164.09 546.894L155.9 552.718L148.422 557.372L141.944 560.574L136.735 562.091L133.018 561.762L130.952 559.517L130.611 555.385L131.98 549.494L134.951 542.064L139.338 533.383L144.892 523.781L151.326 513.609L158.333 503.205L165.615 492.878L172.89 482.898L179.91 473.481L186.46 464.797L192.361 456.97L197.463 450.086L201.638 444.208L204.767 439.378L206.73 435.637L207.393 433.032L206.587 431.627L204.251 431.397L200.482 432.197L195.363 433.899L188.962 436.395L181.348 439.581L172.605 443.348L162.844 447.576L152.217 452.123L140.925 456.828L129.226 461.505L117.434 465.949L105.909 469.942L95.0501 473.267L85.2639 475.718L76.9407 477.123L70.4209 477.356L65.9651 476.349L63.7301 474.101L63.7552 470.676L65.9612 466.199L70.1615 460.841L76.0836 454.802L83.3961 448.296L91.7388 441.532L100.75 434.703L110.087 427.973L119.446 421.478L128.566 415.318L137.237 409.566L145.294 404.263L152.616 399.432L159.116 395.075L164.737 391.182L169.443 387.734L173.212 384.706L176.034 382.067L177.902 379.789L178.811 377.841L178.755 376.191L177.729 374.81L175.72 373.669L172.719 372.74L168.714 371.994L163.694 371.4L157.656 370.929L150.608 370.547L142.576 370.217L133.609 369.902L123.79 369.556L113.245 369.135L102.147 368.59L90.7273 367.871L79.2722 366.93L68.1238 365.726L57.6688 364.223L48.3201 362.401L40.4921 360.255L34.5692 357.799L30.8716 355.067L29.6238 352.111L30.9299 349L34.7598 345.811L40.9504 342.624L49.2197 339.517L59.1934 336.554L70.4385 333.789L82.4982 331.255L94.925 328.968L107.305 326.927L119.277 325.118L130.538 323.514L140.843 322.078L150.002 320.769L157.863 319.541L164.303 318.344L169.212 317.124L172.47 315.822L173.934 314.37L173.46 312.696L171.149 310.754L167.169 308.513L161.655 305.941L154.729 303.013L146.518 299.705L137.169 296.004L126.863 291.911L115.831 287.442L104.354 282.635L92.7713 277.552L81.4716 272.281L70.879 266.937L61.4308 261.655L53.5481 256.585L47.6017 251.88L43.8801 247.687L42.5619 244.131L43.6996 241.306L47.2158 239.268L52.9139 238.029L60.4996 237.557L69.6109 237.787L79.8508 238.624L90.8181 239.952L102.134 241.649L113.461 243.591L124.512 245.661L135.059 247.752L144.927 249.773L153.991 251.643L162.168 253.298L169.411 254.684L175.696 255.758L181.019 256.483L185.389 256.829L188.819 256.769L191.329 256.277L192.937 255.328L193.659 253.897L193.51 251.957L192.503 249.479L190.65 246.436L187.964 242.799L184.46 238.541L180.162 233.64L175.105 228.083L169.34 221.868L162.943 215.012L156.015 207.554L148.695 199.566L141.158 191.153L133.62 182.462L126.335 173.681L119.589 165.042L113.684 156.807L108.927 149.261L105.601 142.693L103.943 137.374L104.12 133.531L106.212 131.329L110.198 130.85L115.955 132.085L123.272 134.935L131.865 139.218L141.405 144.689L151.544 151.064L161.941 158.038L172.283 165.308L182.299 172.594L191.767 179.643L200.514 186.237L208.412 192.196L215.373 197.367L221.332 201.62L226.247 204.837L230.076 206.898L232.773 207.67L234.276 206.987L234.594 204.769L233.871 201.11L232.237 196.096L229.8 189.794L226.666 182.274L222.941 173.617L218.746 163.931L214.219 153.366L209.52 142.118L204.834 130.44L200.364 118.641L196.327 107.081L192.942 96.153L190.415 86.266L188.921 77.8125L188.592 71.1379L189.499 66.5102L191.65 64.0951L194.985 63.9415L199.384 65.9795L204.678 70.0302L210.67 75.8269L217.146 83.0421L223.896 91.3165L230.726 100.287L237.469 109.611L243.986 118.979L250.175 128.127L255.962 136.84L261.3 144.952L266.169 152.336L270.563 158.905L274.492 164.598L277.974 169.378L281.035 173.222L283.703 176.12L286.009 178.064L287.982 179.05L289.655 179.071L291.056 178.122L292.214 176.192L293.159 173.27L293.919 169.345L294.524 164.406L295.004 158.448L295.392 151.48L295.724 143.524L296.04 134.628L296.381 124.873L296.795 114.379L297.328 103.317L298.032 91.9124L298.953 80.4475L300.135 69.2603L301.613 58.7345L303.409 49.2817L305.53 41.3175L307.962 35.2296L310.674 31.3448L313.614 29.8963L316.715 30.9983L319.901 34.6318L323.09 40.6436L326.207 48.7605L329.182 58.6144L331.965 69.7755L334.518 81.7878L336.824 94.2017L338.883 106.601L340.71 118.618L342.329 129.945L343.777 140.335L345.094 149.591L346.326 157.561L347.524 164.119L348.74 169.154L350.033 172.549L351.47 174.162L353.124 173.842L355.043 171.67L357.26 167.817L359.804 162.421L362.703 155.603L365.98 147.489L369.649 138.223L373.711 127.985L378.151 117L382.933 105.546L387.997 93.9577L393.256 82.6195L398.599 71.9538L403.891 62.398L408.984 54.3755L413.723 48.2627L417.962 44.3555L421.572 42.8421L424.458 43.7854L426.559 47.1181L427.861 52.6525L428.392 60.1009L428.214 69.1056L427.422 79.271L426.129 90.1954L424.456 101.497L422.529 112.835L420.466 123.918L418.372 134.513L416.343 144.441L414.458 153.573L412.784 161.824L411.375 169.142L410.275 175.504L409.521 180.904L409.143 185.35L409.17 188.855L409.627 191.438L410.538 193.116L411.93 193.908L413.828 193.828L416.262 192.889L419.258 191.103L422.847 188.482L427.055 185.042L431.904 180.806L437.408 175.807L443.571 170.096L450.377 163.745L457.788 156.855L465.737 149.56L474.12 142.032L482.795 134.485L491.576 127.169L500.236 120.368L508.513 114.385L516.124 109.525L522.78 106.075L528.207 104.277L532.174 104.304L534.51 106.243L535.127 110.081L534.026 115.704L531.3 122.907L527.123 131.41L521.736 140.888L515.422 150.993L508.486 161.382L501.228 171.74L493.935 181.792L486.859 191.311L480.221 200.121L474.206 208.091L468.967 215.13L464.637 221.171L461.334 226.171L459.176 230.088L458.296 232.878L458.857 234.478L460.956 234.885L464.503 234.24L469.411 232.674L475.612 230.297L483.038 227.214L491.608 223.532L501.216 219.369L511.717 214.862L522.919 210.171L534.572 205.476L546.373 200.98L557.966 196.901L568.959 193.456L578.943 190.853L587.523 189.271L594.35 188.845L599.148 189.653L601.743 191.706L602.075 194.951L600.207 199.27L596.308 204.501L590.639 210.446L583.524 216.892L575.321 223.628L566.393 230.458L557.086 237.214L547.712 243.754L538.538 249.973L529.784 255.794L521.62 261.17L514.174 266.077L507.539 270.509L501.775 274.474L496.921 277.992L493.002 281.085L490.028 283.784L488.008 286.117L486.947 288.116L486.848 289.812L487.719 291.233L489.571 292.41L492.413 293.371L496.258 294.145L501.116 294.76L506.991 295.249L513.879 295.643L521.757 295.978L530.58 296.294L540.271 296.631L550.71 297.037L561.734 297.559L573.12 298.247L584.592 299.149L595.814 300.309L606.406 301.763L615.959 303.533L624.056 305.628L630.306 308.036L634.376 310.728L636.024 313.652L635.127 316.743L631.691 319.925L625.86 323.118L617.899 326.243L608.169 329.232L597.096 332.032L585.135 334.604L572.738 336.931L560.325 339.01L548.266 340.854L536.874 342.489L526.402 343.949L517.05 345.275L508.974 346.513L502.3 347.712L497.14 348.924L493.61 350.209L491.848 351.632L491.687 352.126Z" fill="#F193B7"/>
</svg>
