<svg width="540" height="156" viewBox="0 0 540 156" fill="none" xmlns="http://www.w3.org/2000/svg">
<path d="M549 259.641H487.486C467.235 259.641 454.848 245.642 452.622 220.23C451.522 207.698 450.848 192.531 450.14 176.477C447.956 127.145 444.962 59.6084 425.759 59.6084H403.691V54.4901H425.759C449.85 54.4901 452.596 116.396 455.249 176.263C455.957 192.267 456.631 207.383 457.723 219.769C459.114 235.619 465.401 254.514 487.486 254.514H549V259.641Z" fill="#C4C4C4"/>
<path opacity="0.2" d="M419.899 54.4729L418.807 59.5912H403.691V54.4729H419.899Z" fill="black"/>
<path d="M362.096 26.3989H353.173V88.7486H362.096V26.3989Z" fill="#C4C4C4"/>
<path d="M353.182 31.0055H319.256V83.5024H353.182V31.0055Z" fill="#C4C4C4"/>
<path opacity="0.2" d="M353.173 31.0139V83.5108H344.745L340.966 31.0139H353.173Z" fill="black"/>
<path d="M293.221 40.4315H319.247V48.2796H293.221C292.329 48.2796 291.474 47.9255 290.844 47.2952C290.214 46.6649 289.86 45.81 289.86 44.9186V43.8011C289.859 43.359 289.945 42.921 290.113 42.5122C290.282 42.1035 290.529 41.732 290.841 41.419C291.153 41.1059 291.524 40.8576 291.933 40.6882C292.341 40.5187 292.779 40.4315 293.221 40.4315Z" fill="#DBDBDB"/>
<path d="M319.247 40.4315H310.111V48.2711H319.247V40.4315Z" fill="#A6A6A6"/>
<path d="M293.221 66.2366H319.247V74.0847H293.221C292.329 74.0847 291.474 73.7305 290.844 73.1002C290.214 72.4699 289.86 71.615 289.86 70.7236V69.6061C289.859 69.164 289.945 68.7261 290.113 68.3173C290.282 67.9085 290.529 67.537 290.841 67.224C291.153 66.911 291.524 66.6627 291.933 66.4932C292.341 66.3238 292.779 66.2366 293.221 66.2366Z" fill="#DBDBDB"/>
<path d="M319.247 66.2366H310.111V74.0761H319.247V66.2366Z" fill="#A6A6A6"/>
<path d="M414.823 52.2465H388.319V62.7134H414.823V52.2465Z" fill="#C4C4C4"/>
<path d="M414.823 52.2549H388.319V62.7218H414.823V52.2549Z" fill="#C4C4C4"/>
<path opacity="0.2" d="M397.626 52.2549L396.756 62.7218H388.319V52.2549H397.626Z" fill="black"/>
<path d="M362.096 32.9846H383.073C384.464 32.9846 385.799 33.5374 386.782 34.5212C387.766 35.5051 388.319 36.8395 388.319 38.2309V76.2856C388.319 77.677 387.766 79.0114 386.782 79.9953C385.799 80.9791 384.464 81.5319 383.073 81.5319H362.096V32.9846Z" fill="#C4C4C4"/>
<path opacity="0.2" d="M373.254 32.9846L369.475 81.5319H362.105V32.9846H373.254Z" fill="black"/>
<g opacity="0.2">
<path opacity="0.2" d="M371.301 42.7946H369.629V71.7131H371.301V42.7946Z" fill="black"/>
<path opacity="0.2" d="M376.043 42.7946H374.371V71.7131H376.043V42.7946Z" fill="black"/>
<path opacity="0.2" d="M380.786 42.7946H379.114V71.7131H380.786V42.7946Z" fill="black"/>
</g>
<path d="M194.056 56.4858C196.231 56.4261 206.186 55.283 208.89 54.3447C211.594 53.4063 219.127 50.1476 218.649 48.0065C218.171 45.8653 215.851 46.6416 215.851 46.6416C215.851 46.6416 218.828 44.7563 218.12 42.6493C217.412 40.5422 213.855 41.873 213.855 41.873C213.855 41.873 216.772 39.7148 215.911 37.6589C215.049 35.6031 211.731 37.5395 211.731 37.5395C211.731 37.5395 214.495 35.6884 213.079 34.2894C211.373 32.5833 206.664 36.6011 203.61 37.4115C202.91 37.5992 189.261 40.1498 189.261 40.1498L194.056 56.4858Z" fill="#AD6359"/>
<path d="M212.081 37.3776C208.609 40.2951 206.587 40.9775 202.168 41.5832C202.153 41.5884 202.14 41.5982 202.131 41.6112C202.122 41.6242 202.117 41.6398 202.117 41.6557C202.117 41.6716 202.122 41.6872 202.131 41.7002C202.14 41.7132 202.153 41.723 202.168 41.7282C206.545 41.5235 209.206 41.0372 212.226 37.5397C212.354 37.3691 212.217 37.2411 212.081 37.3776Z" fill="#263238"/>
<path d="M214.154 41.6342C210.289 44.3981 208.105 45.1062 203.55 46.1042C203.49 46.1042 203.507 46.2322 203.55 46.2237C208.122 45.6351 210.767 45.0891 214.273 41.8646C214.418 41.7025 214.333 41.5063 214.154 41.6342Z" fill="#263238"/>
<path d="M215.613 46.6844C211.68 49.0474 209.317 49.9772 204.745 50.3611C204.722 50.3611 204.7 50.3701 204.684 50.386C204.668 50.402 204.659 50.4237 204.659 50.4464C204.659 50.469 204.668 50.4907 204.684 50.5067C204.7 50.5227 204.722 50.5317 204.745 50.5317C208.731 50.7718 212.653 49.4361 215.664 46.8124C215.894 46.6332 215.86 46.5394 215.613 46.6844Z" fill="#263238"/>
<path d="M186.105 38.3585C188.403 36.8736 190.806 35.5593 193.296 34.4259C195.702 33.5728 205.853 33.5728 205.964 35.7737C206.117 38.6058 200.257 39.7404 197.314 39.9281C197.314 39.9281 197.681 46.471 193.646 48.2027C189.611 49.9344 186.105 38.3585 186.105 38.3585Z" fill="#AD6359"/>
<path d="M205.76 36.5672C204.054 39.2457 200.155 39.2372 197.314 39.6296C197.271 39.6318 197.23 39.6448 197.193 39.6673C197.156 39.6899 197.126 39.7214 197.105 39.7588C197.084 39.7962 197.072 39.8384 197.071 39.8814C197.071 39.9244 197.081 39.9669 197.101 40.005C197.101 42.7603 196.248 46.6332 193.817 48.2625C193.74 48.3137 193.817 48.4246 193.877 48.3819C196.7 46.9829 197.843 43.2636 197.681 40.2182C200.599 39.8685 204.506 39.7064 205.785 36.5757C205.794 36.5586 205.768 36.5501 205.76 36.5672Z" fill="#263238"/>
<path d="M173.694 34.3748C173.133 36.0212 172.669 37.6989 172.303 39.3993C171.885 41.1054 171.45 42.8115 171.1 44.5176C170.341 47.8637 169.771 51.25 169.394 54.6604C169.394 54.6808 169.402 54.7003 169.417 54.7147C169.431 54.7291 169.451 54.7372 169.471 54.7372C169.491 54.7372 169.511 54.7291 169.525 54.7147C169.54 54.7003 169.548 54.6808 169.548 54.6604C170.469 51.3165 171.152 47.8957 171.851 44.5006C172.201 42.7945 172.516 41.1395 172.866 39.4676C173.216 37.7956 173.634 36.0554 173.822 34.4004C173.825 34.3835 173.822 34.3658 173.812 34.3514C173.802 34.337 173.787 34.327 173.77 34.3237C173.753 34.3203 173.736 34.3237 173.721 34.3333C173.707 34.3429 173.697 34.3579 173.694 34.3748Z" fill="#263238"/>
<path d="M54.8375 259.641H-7.5V254.522H54.8375C76.9146 254.522 83.2101 235.627 84.6006 219.777C85.6925 207.365 86.3578 192.249 87.0659 176.272C89.7189 116.404 92.4657 54.4983 116.556 54.4983H138.633V59.6166H116.539C97.3452 59.6166 94.3595 127.17 92.1671 176.485C91.4506 192.548 90.7767 207.715 89.6848 220.247C87.4668 245.642 75.089 259.641 54.8375 259.641Z" fill="#C4C4C4"/>
<path opacity="0.2" d="M138.633 54.4728V59.5911H121.026L119.934 54.4728H138.633Z" fill="black"/>
<path d="M215.219 90.0962H224.62V24.4282H215.219V90.0962Z" fill="#C4C4C4"/>
<path d="M215.22 27.5417H179.494V86.3H215.22V27.5417Z" fill="#C4C4C4"/>
<path opacity="0.2" d="M215.22 27.5417V86.3H206.348L202.365 27.5417H215.22Z" fill="black"/>
<path d="M125.376 62.2611H151.881V51.7941H125.376V62.2611Z" fill="#C4C4C4"/>
<path d="M151.881 51.8027H125.376V62.2697H151.881V51.8027Z" fill="#C4C4C4"/>
<path opacity="0.2" d="M142.574 62.2612L143.444 51.8027H151.881V62.2612H142.574Z" fill="black"/>
<path d="M179.494 82.8198H157.127C155.735 82.8198 154.401 82.2671 153.417 81.2832C152.433 80.2994 151.88 78.965 151.88 77.5736V36.9341C151.88 35.5427 152.433 34.2083 153.417 33.2244C154.401 32.2405 155.735 31.6878 157.127 31.6878H179.494V82.8198Z" fill="#C4C4C4"/>
<path opacity="0.2" d="M167.879 82.8298L171.863 31.7063H179.634V82.8298H167.879Z" fill="black"/>
<g opacity="0.2">
<path opacity="0.2" d="M169.795 72.4807H171.561V42.0267H169.795V72.4807Z" fill="black"/>
<path opacity="0.2" d="M164.804 72.4807H166.57V42.0267H164.804V72.4807Z" fill="black"/>
<path opacity="0.2" d="M159.805 72.4807H161.571V42.0267H159.805V72.4807Z" fill="black"/>
</g>
<path d="M268.979 13.4411C268.866 13.4411 268.758 13.3961 268.678 13.3162C268.598 13.2362 268.553 13.1277 268.553 13.0146V1.0121C268.553 0.898976 268.598 0.790493 268.678 0.710504C268.758 0.630515 268.866 0.585571 268.979 0.585571C269.092 0.585571 269.201 0.630515 269.281 0.710504C269.361 0.790493 269.406 0.898976 269.406 1.0121V13.0146C269.406 13.1277 269.361 13.2362 269.281 13.3162C269.201 13.3961 269.092 13.4411 268.979 13.4411Z" fill="#263238"/>
<path d="M240.624 19.1906C240.549 19.1908 240.474 19.1712 240.408 19.1338C240.342 19.0964 240.287 19.0425 240.249 18.9774L234.277 8.57863C234.242 8.53036 234.218 8.47528 234.205 8.41691C234.193 8.35855 234.193 8.29822 234.205 8.23982C234.217 8.18142 234.242 8.12625 234.277 8.07788C234.312 8.02952 234.356 7.98903 234.408 7.95903C234.46 7.92903 234.517 7.9102 234.576 7.90375C234.636 7.89729 234.696 7.90336 234.753 7.92156C234.809 7.93975 234.862 7.96968 234.906 8.00939C234.951 8.04911 234.987 8.09772 235.011 8.1521L240.982 18.5508C241.011 18.5988 241.03 18.652 241.038 18.7074C241.046 18.7628 241.043 18.8193 241.028 18.8733C241.014 18.9274 240.989 18.9781 240.955 19.0224C240.921 19.0666 240.878 19.1035 240.829 19.1309C240.767 19.1689 240.697 19.1896 240.624 19.1906Z" fill="#263238"/>
<path d="M297.743 19.327C297.668 19.3275 297.594 19.3068 297.53 19.2672C297.481 19.2399 297.438 19.203 297.404 19.1587C297.37 19.1145 297.345 19.0638 297.33 19.0097C297.316 18.9556 297.313 18.8992 297.321 18.8438C297.329 18.7884 297.348 18.7351 297.376 18.6872L303.348 8.28845C303.41 8.20306 303.501 8.14373 303.605 8.12196C303.708 8.10019 303.816 8.11752 303.907 8.17059C303.998 8.22366 304.067 8.30871 304.099 8.40927C304.131 8.50984 304.125 8.61876 304.081 8.71498L298.11 19.1137C298.072 19.1771 298.018 19.2298 297.954 19.267C297.89 19.3043 297.817 19.3249 297.743 19.327Z" fill="#263238"/>
<path d="M231.404 104.769C231.329 104.77 231.255 104.749 231.191 104.709C231.143 104.679 231.102 104.638 231.071 104.591C231.039 104.544 231.017 104.491 231.007 104.435C230.997 104.379 230.998 104.321 231.01 104.266C231.023 104.21 231.047 104.158 231.08 104.112L237.052 93.7221C237.08 93.6733 237.117 93.6306 237.161 93.5963C237.206 93.562 237.257 93.5368 237.311 93.5221C237.365 93.5075 237.422 93.5037 237.478 93.5109C237.533 93.5181 237.587 93.5362 237.636 93.5642C237.685 93.5923 237.727 93.6296 237.762 93.6741C237.796 93.7186 237.821 93.7695 237.836 93.8237C237.85 93.878 237.854 93.9346 237.847 93.9903C237.84 94.0461 237.822 94.0999 237.794 94.1486L231.822 104.539C231.784 104.614 231.723 104.677 231.649 104.718C231.574 104.759 231.489 104.777 231.404 104.769Z" fill="#263238"/>
<path d="M267.381 112.259C267.268 112.259 267.16 112.214 267.08 112.134C267 112.054 266.955 111.945 266.955 111.832V99.8468C266.955 99.7337 267 99.6252 267.08 99.5452C267.16 99.4652 267.268 99.4203 267.381 99.4203C267.494 99.4225 267.601 99.4681 267.681 99.5476C267.76 99.6272 267.806 99.7344 267.808 99.8468V111.849C267.803 111.959 267.757 112.064 267.677 112.14C267.598 112.216 267.492 112.259 267.381 112.259Z" fill="#263238"/>
<path d="M303.712 104.905C303.637 104.905 303.564 104.885 303.5 104.848C303.435 104.81 303.382 104.757 303.345 104.692L297.373 94.302C297.345 94.2533 297.327 94.1995 297.32 94.1438C297.313 94.0881 297.317 94.0314 297.331 93.9772C297.346 93.9229 297.371 93.8721 297.405 93.8275C297.44 93.783 297.483 93.7457 297.531 93.7177C297.58 93.6897 297.634 93.6715 297.689 93.6643C297.745 93.6571 297.802 93.6609 297.856 93.6756C297.91 93.6902 297.961 93.7154 298.006 93.7497C298.05 93.784 298.088 93.8268 298.116 93.8755L304.087 104.266C304.116 104.314 304.135 104.367 304.143 104.422C304.151 104.478 304.147 104.534 304.133 104.588C304.119 104.642 304.094 104.693 304.059 104.737C304.025 104.781 303.982 104.818 303.933 104.846C303.867 104.887 303.79 104.908 303.712 104.905Z" fill="#263238"/>
</svg>
