<svg width="60" height="80" viewBox="0 0 60 80" fill="none" xmlns="http://www.w3.org/2000/svg">
<path d="M28.3125 25.0384L12 14.9423H44.625L28.3125 25.0384Z" fill="#89C8A5"/>
<path fill-rule="evenodd" clip-rule="evenodd" d="M10.5002 16.3727C10.4999 16.3545 10.4999 16.3363 10.5002 16.3181V15.3978C10.5002 13.587 11.9191 12 13.8127 12H42.8128C44.7064 12 46.1252 13.587 46.1252 15.3978V16.3261C46.1254 16.3341 46.1254 16.342 46.1254 16.3499C46.1254 16.3548 46.1253 16.3598 46.1252 16.3647V28.0254C45.6349 27.9578 45.1342 27.9229 44.6253 27.9229C44.1164 27.9229 43.6156 27.9578 43.1252 28.0255V19.0874L28.3127 28.5654L13.5002 19.0875V38.1711C13.5002 38.4565 13.7044 38.5688 13.8127 38.5688H33.7527C33.7511 38.645 33.7503 38.7213 33.7503 38.7978V40.1248C33.7503 40.6144 33.7827 41.0964 33.8453 41.5688H13.8127C11.9191 41.5688 10.5002 39.9819 10.5002 38.1711V16.3727ZM13.8127 15C13.7044 15 13.5002 15.1124 13.5002 15.3978V15.5259L28.3127 25.0038L43.1252 15.5258V15.3978C43.1252 15.1124 42.9211 15 42.8128 15H13.8127Z" fill="#287F42"/>
<path d="M44.6783 30.8077C40.1466 30.8077 36.4688 34.6586 36.4688 39.4035C36.4688 44.1484 40.1466 47.9993 44.6783 47.9993H48.7831V46.2801H44.6783C41.1154 46.2801 38.1107 43.1341 38.1107 39.4035C38.1107 35.6729 41.1154 32.5268 44.6783 32.5268C48.2413 32.5268 51.246 35.6729 51.246 39.4035V40.6327C51.246 41.3117 50.6631 41.9822 50.0145 41.9822C49.366 41.9822 48.7831 41.3117 48.7831 40.6327V39.4035C48.7831 37.031 46.9441 35.1056 44.6783 35.1056C42.4125 35.1056 40.5735 37.031 40.5735 39.4035C40.5735 41.7759 42.4125 43.7014 44.6783 43.7014C45.8112 43.7014 46.8456 43.22 47.5845 42.4378C48.1181 43.2028 49.0376 43.7014 50.0145 43.7014C51.6318 43.7014 52.8879 42.326 52.8879 40.6327V39.4035C52.8879 34.6586 49.21 30.8077 44.6783 30.8077ZM44.6783 41.9822C43.3155 41.9822 42.2154 40.8304 42.2154 39.4035C42.2154 37.9766 43.3155 36.8247 44.6783 36.8247C46.0411 36.8247 47.1412 37.9766 47.1412 39.4035C47.1412 40.8304 46.0411 41.9822 44.6783 41.9822Z" fill="#F193B7"/>
<path d="M19.2812 72.3994H14.9678V75.9268H19.9785V77H13.6553V67.0469H19.9102V68.127H14.9678V71.3262H19.2812V72.3994ZM22.6035 69.6035L22.6377 70.4238C23.18 69.7858 23.9115 69.4668 24.832 69.4668C25.8665 69.4668 26.5706 69.8633 26.9443 70.6562C27.1904 70.3008 27.5094 70.0137 27.9014 69.7949C28.2979 69.5762 28.765 69.4668 29.3027 69.4668C30.9251 69.4668 31.75 70.3258 31.7773 72.0439V77H30.5127V72.1191C30.5127 71.5905 30.3919 71.1963 30.1504 70.9365C29.9089 70.6722 29.5033 70.54 28.9336 70.54C28.4642 70.54 28.0745 70.6813 27.7646 70.9639C27.4548 71.2419 27.2747 71.6178 27.2246 72.0918V77H25.9531V72.1533C25.9531 71.0778 25.4268 70.54 24.374 70.54C23.5446 70.54 22.9772 70.8932 22.6719 71.5996V77H21.4072V69.6035H22.6035ZM38.2578 77C38.1849 76.8542 38.1257 76.5944 38.0801 76.2207C37.4922 76.8314 36.7904 77.1367 35.9746 77.1367C35.2454 77.1367 34.6462 76.9316 34.1768 76.5215C33.7119 76.1068 33.4795 75.5827 33.4795 74.9492C33.4795 74.179 33.7712 73.582 34.3545 73.1582C34.9424 72.7298 35.7673 72.5156 36.8291 72.5156H38.0596V71.9346C38.0596 71.4925 37.9274 71.1416 37.6631 70.8818C37.3988 70.6175 37.0091 70.4854 36.4941 70.4854C36.043 70.4854 35.6647 70.5993 35.3594 70.8271C35.054 71.055 34.9014 71.3307 34.9014 71.6543H33.6299C33.6299 71.2852 33.7598 70.9297 34.0195 70.5879C34.2839 70.2415 34.6393 69.9681 35.0859 69.7676C35.5371 69.5671 36.0316 69.4668 36.5693 69.4668C37.4215 69.4668 38.0892 69.681 38.5723 70.1094C39.0553 70.5332 39.306 71.1188 39.3242 71.8662V75.2705C39.3242 75.9495 39.4108 76.4896 39.584 76.8906V77H38.2578ZM36.1592 76.0361C36.5557 76.0361 36.9316 75.9336 37.2871 75.7285C37.6426 75.5234 37.9001 75.2568 38.0596 74.9287V73.4111H37.0684C35.5189 73.4111 34.7441 73.8646 34.7441 74.7715C34.7441 75.168 34.8763 75.4779 35.1406 75.7012C35.4049 75.9245 35.7445 76.0361 36.1592 76.0361ZM42.6807 77H41.416V69.6035H42.6807V77ZM41.3135 67.6416C41.3135 67.4365 41.375 67.2633 41.498 67.1221C41.6257 66.9808 41.8125 66.9102 42.0586 66.9102C42.3047 66.9102 42.4915 66.9808 42.6191 67.1221C42.7467 67.2633 42.8105 67.4365 42.8105 67.6416C42.8105 67.8467 42.7467 68.0176 42.6191 68.1543C42.4915 68.291 42.3047 68.3594 42.0586 68.3594C41.8125 68.3594 41.6257 68.291 41.498 68.1543C41.375 68.0176 41.3135 67.8467 41.3135 67.6416ZM46.085 77H44.8203V66.5H46.085V77Z" fill="#999999"/>
</svg>
