<svg width="61" height="80" viewBox="0 0 61 80" fill="none" xmlns="http://www.w3.org/2000/svg">
<path fill-rule="evenodd" clip-rule="evenodd" d="M47 12H14C13.6022 12 13.2206 12.158 12.9393 12.4393C12.658 12.7206 12.5 13.1022 12.5 13.5V46.5C12.5 46.8978 12.658 47.2794 12.9393 47.5607C13.2206 47.842 13.6022 48 14 48H31.625V34.5H27.125V28.875H31.625V24.375C31.625 19.725 34.5695 17.4375 38.717 17.4375C40.703 17.4375 42.4115 17.586 42.908 17.6505V22.5105L40.0325 22.512C37.7765 22.512 37.25 23.5845 37.25 25.1565V28.875H42.875L41.75 34.5H37.25L37.34 48H47C47.3978 48 47.7794 47.842 48.0607 47.5607C48.342 47.2794 48.5 46.8978 48.5 46.5V13.5C48.5 13.1022 48.342 12.7206 48.0607 12.4393C47.7794 12.158 47.3978 12 47 12" fill="#395185"/>
<path d="M6.64453 72.6045H2.46777V77H1.15527V67.0469H7.32129V68.127H2.46777V71.5312H6.64453V72.6045ZM13.0293 77C12.9564 76.8542 12.8971 76.5944 12.8516 76.2207C12.2637 76.8314 11.5618 77.1367 10.7461 77.1367C10.0169 77.1367 9.41764 76.9316 8.94824 76.5215C8.4834 76.1068 8.25098 75.5827 8.25098 74.9492C8.25098 74.179 8.54264 73.582 9.12598 73.1582C9.71387 72.7298 10.5387 72.5156 11.6006 72.5156H12.8311V71.9346C12.8311 71.4925 12.6989 71.1416 12.4346 70.8818C12.1702 70.6175 11.7806 70.4854 11.2656 70.4854C10.8145 70.4854 10.4362 70.5993 10.1309 70.8271C9.82552 71.055 9.67285 71.3307 9.67285 71.6543H8.40137C8.40137 71.2852 8.53125 70.9297 8.79102 70.5879C9.05534 70.2415 9.41081 69.9681 9.85742 69.7676C10.3086 69.5671 10.8031 69.4668 11.3408 69.4668C12.193 69.4668 12.8607 69.681 13.3438 70.1094C13.8268 70.5332 14.0775 71.1188 14.0957 71.8662V75.2705C14.0957 75.9495 14.1823 76.4896 14.3555 76.8906V77H13.0293ZM10.9307 76.0361C11.3271 76.0361 11.7031 75.9336 12.0586 75.7285C12.4141 75.5234 12.6715 75.2568 12.8311 74.9287V73.4111H11.8398C10.2904 73.4111 9.51562 73.8646 9.51562 74.7715C9.51562 75.168 9.64779 75.4779 9.91211 75.7012C10.1764 75.9245 10.516 76.0361 10.9307 76.0361ZM19.0449 76.1045C19.4961 76.1045 19.8903 75.9678 20.2275 75.6943C20.5648 75.4209 20.7516 75.0791 20.7881 74.6689H21.9844C21.9616 75.0928 21.8158 75.4961 21.5469 75.8789C21.278 76.2617 20.918 76.5671 20.4668 76.7949C20.0202 77.0228 19.5462 77.1367 19.0449 77.1367C18.0378 77.1367 17.2357 76.8018 16.6387 76.1318C16.0462 75.4574 15.75 74.5368 15.75 73.3701V73.1582C15.75 72.4382 15.8822 71.7979 16.1465 71.2373C16.4108 70.6768 16.7891 70.2415 17.2812 69.9316C17.778 69.6217 18.3636 69.4668 19.0381 69.4668C19.8675 69.4668 20.5557 69.7152 21.1025 70.2119C21.654 70.7087 21.9479 71.3535 21.9844 72.1465H20.7881C20.7516 71.668 20.5693 71.276 20.2412 70.9707C19.9176 70.6608 19.5166 70.5059 19.0381 70.5059C18.3955 70.5059 17.8965 70.7383 17.541 71.2031C17.1901 71.6634 17.0146 72.3311 17.0146 73.2061V73.4453C17.0146 74.2975 17.1901 74.9538 17.541 75.4141C17.8919 75.8743 18.3932 76.1045 19.0449 76.1045ZM26.4756 77.1367C25.473 77.1367 24.6572 76.8086 24.0283 76.1523C23.3994 75.4915 23.085 74.6097 23.085 73.5068V73.2744C23.085 72.5407 23.224 71.8867 23.502 71.3125C23.7845 70.7337 24.1764 70.2826 24.6777 69.959C25.1836 69.6309 25.7305 69.4668 26.3184 69.4668C27.2799 69.4668 28.0273 69.7835 28.5605 70.417C29.0938 71.0505 29.3604 71.9574 29.3604 73.1377V73.6641H24.3496C24.3678 74.3932 24.5798 74.9834 24.9854 75.4346C25.3955 75.8812 25.915 76.1045 26.5439 76.1045C26.9906 76.1045 27.3688 76.0133 27.6787 75.8311C27.9886 75.6488 28.2598 75.4072 28.4922 75.1064L29.2646 75.708C28.6449 76.6605 27.7152 77.1367 26.4756 77.1367ZM26.3184 70.5059C25.8079 70.5059 25.3796 70.6927 25.0332 71.0664C24.6868 71.4355 24.4727 71.9551 24.3906 72.625H28.0957V72.5293C28.0592 71.8867 27.8861 71.39 27.5762 71.0391C27.2663 70.6836 26.847 70.5059 26.3184 70.5059ZM37.0918 73.3838C37.0918 74.514 36.832 75.4232 36.3125 76.1113C35.793 76.7949 35.0957 77.1367 34.2207 77.1367C33.2865 77.1367 32.5641 76.8063 32.0537 76.1455L31.9922 77H30.8301V66.5H32.0947V70.417C32.6051 69.7835 33.3092 69.4668 34.207 69.4668C35.1048 69.4668 35.8089 69.8063 36.3193 70.4854C36.8343 71.1644 37.0918 72.0941 37.0918 73.2744V73.3838ZM35.8271 73.2402C35.8271 72.3789 35.6608 71.7135 35.3281 71.2441C34.9954 70.7747 34.5169 70.54 33.8926 70.54C33.0586 70.54 32.4593 70.9274 32.0947 71.7021V74.9014C32.4821 75.6761 33.0859 76.0635 33.9062 76.0635C34.5124 76.0635 34.984 75.8288 35.3213 75.3594C35.6585 74.89 35.8271 74.1836 35.8271 73.2402ZM38.3564 73.2334C38.3564 72.5088 38.4977 71.8571 38.7803 71.2783C39.0674 70.6995 39.4639 70.2529 39.9697 69.9385C40.4801 69.624 41.0612 69.4668 41.7129 69.4668C42.7201 69.4668 43.5335 69.8154 44.1533 70.5127C44.7777 71.21 45.0898 72.1374 45.0898 73.2949V73.3838C45.0898 74.1038 44.9508 74.751 44.6729 75.3252C44.3994 75.8949 44.0052 76.3392 43.4902 76.6582C42.9798 76.9772 42.3919 77.1367 41.7266 77.1367C40.724 77.1367 39.9105 76.7881 39.2861 76.0908C38.6663 75.3936 38.3564 74.4707 38.3564 73.3223V73.2334ZM39.6279 73.3838C39.6279 74.2041 39.8171 74.8626 40.1953 75.3594C40.5781 75.8561 41.0885 76.1045 41.7266 76.1045C42.3691 76.1045 42.8796 75.8538 43.2578 75.3525C43.6361 74.8467 43.8252 74.1403 43.8252 73.2334C43.8252 72.4222 43.6315 71.766 43.2441 71.2646C42.8613 70.7588 42.3509 70.5059 41.7129 70.5059C41.0885 70.5059 40.585 70.7542 40.2021 71.251C39.8193 71.7477 39.6279 72.4587 39.6279 73.3838ZM46.3408 73.2334C46.3408 72.5088 46.4821 71.8571 46.7646 71.2783C47.0518 70.6995 47.4482 70.2529 47.9541 69.9385C48.4645 69.624 49.0456 69.4668 49.6973 69.4668C50.7044 69.4668 51.5179 69.8154 52.1377 70.5127C52.762 71.21 53.0742 72.1374 53.0742 73.2949V73.3838C53.0742 74.1038 52.9352 74.751 52.6572 75.3252C52.3838 75.8949 51.9896 76.3392 51.4746 76.6582C50.9642 76.9772 50.3763 77.1367 49.7109 77.1367C48.7083 77.1367 47.8949 76.7881 47.2705 76.0908C46.6507 75.3936 46.3408 74.4707 46.3408 73.3223V73.2334ZM47.6123 73.3838C47.6123 74.2041 47.8014 74.8626 48.1797 75.3594C48.5625 75.8561 49.0729 76.1045 49.7109 76.1045C50.3535 76.1045 50.8639 75.8538 51.2422 75.3525C51.6204 74.8467 51.8096 74.1403 51.8096 73.2334C51.8096 72.4222 51.6159 71.766 51.2285 71.2646C50.8457 70.7588 50.3353 70.5059 49.6973 70.5059C49.0729 70.5059 48.5693 70.7542 48.1865 71.251C47.8037 71.7477 47.6123 72.4587 47.6123 73.3838ZM56.7246 73.5752L55.9316 74.4023V77H54.667V66.5H55.9316V72.8506L56.6084 72.0371L58.9121 69.6035H60.4502L57.5723 72.6934L60.7852 77H59.3018L56.7246 73.5752Z" fill="#999999"/>
</svg>
