<svg width="60" height="80" viewBox="0 0 60 80" fill="none" xmlns="http://www.w3.org/2000/svg">
<path d="M19.8994 26.6475C20.6012 24.5242 21.9556 22.6767 23.7695 21.3687C25.5834 20.0607 27.764 19.3589 30.0004 19.3635C32.5354 19.3635 34.8273 20.2635 36.6273 21.7365L41.8653 16.5C38.6733 13.7175 34.5828 12 30.0004 12C22.9054 12 16.7974 16.047 13.8604 21.975L19.8994 26.6475Z" fill="#EA4335"/>
<path d="M36.06 39.0195C34.425 40.074 32.349 40.6365 30 40.6365C27.7726 40.6411 25.6002 39.9449 23.7903 38.6465C21.9805 37.3481 20.6249 35.5134 19.9155 33.402L13.8555 38.0025C15.3423 41.0119 17.6434 43.5441 20.4972 45.3113C23.351 47.0785 26.6433 48.01 30 48C34.3995 48 38.6025 46.4355 41.751 43.5L36.0615 39.0195H36.06Z" fill="#34A853"/>
<path d="M41.751 43.5C45.0435 40.428 47.181 35.856 47.181 30C47.181 28.935 47.0175 27.7905 46.773 26.727H30V33.6825H39.654C39.1785 36.021 37.899 37.8315 36.0615 39.0195L41.751 43.5Z" fill="#4A90E2"/>
<path d="M19.9157 33.402C19.5487 32.3054 19.3623 31.1564 19.3637 30C19.3637 28.827 19.5512 27.7005 19.8992 26.6475L13.8602 21.975C12.6247 24.4691 11.9879 27.2168 12.0002 30C12.0002 32.88 12.6677 35.595 13.8557 38.0025L19.9157 33.402Z" fill="#FBBC05"/>
<path d="M16.0039 75.6943C15.6667 76.1774 15.195 76.5397 14.5889 76.7812C13.9873 77.0182 13.2855 77.1367 12.4834 77.1367C11.6722 77.1367 10.9521 76.9476 10.3232 76.5693C9.69434 76.1865 9.20671 75.6442 8.86035 74.9424C8.51855 74.2406 8.3431 73.4271 8.33398 72.502V71.6338C8.33398 70.1344 8.68262 68.9723 9.37988 68.1475C10.0817 67.3226 11.0661 66.9102 12.333 66.9102C13.3721 66.9102 14.2083 67.1768 14.8418 67.71C15.4753 68.2386 15.8626 68.9906 16.0039 69.9658H14.6914C14.4453 68.6488 13.6615 67.9902 12.3398 67.9902C11.4603 67.9902 10.7926 68.3001 10.3369 68.9199C9.88574 69.5352 9.65788 70.4284 9.65332 71.5996V72.4131C9.65332 73.5296 9.90853 74.4183 10.4189 75.0791C10.9294 75.7354 11.6198 76.0635 12.4902 76.0635C12.9824 76.0635 13.4131 76.0088 13.7822 75.8994C14.1514 75.79 14.4567 75.6055 14.6982 75.3457V73.1104H12.3945V72.0439H16.0039V75.6943ZM17.665 73.2334C17.665 72.5088 17.8063 71.8571 18.0889 71.2783C18.376 70.6995 18.7725 70.2529 19.2783 69.9385C19.7887 69.624 20.3698 69.4668 21.0215 69.4668C22.0286 69.4668 22.8421 69.8154 23.4619 70.5127C24.0863 71.21 24.3984 72.1374 24.3984 73.2949V73.3838C24.3984 74.1038 24.2594 74.751 23.9814 75.3252C23.708 75.8949 23.3138 76.3392 22.7988 76.6582C22.2884 76.9772 21.7005 77.1367 21.0352 77.1367C20.0326 77.1367 19.2191 76.7881 18.5947 76.0908C17.9749 75.3936 17.665 74.4707 17.665 73.3223V73.2334ZM18.9365 73.3838C18.9365 74.2041 19.1257 74.8626 19.5039 75.3594C19.8867 75.8561 20.3971 76.1045 21.0352 76.1045C21.6777 76.1045 22.1882 75.8538 22.5664 75.3525C22.9447 74.8467 23.1338 74.1403 23.1338 73.2334C23.1338 72.4222 22.9401 71.766 22.5527 71.2646C22.1699 70.7588 21.6595 70.5059 21.0215 70.5059C20.3971 70.5059 19.8936 70.7542 19.5107 71.251C19.1279 71.7477 18.9365 72.4587 18.9365 73.3838ZM25.6494 73.2334C25.6494 72.5088 25.7907 71.8571 26.0732 71.2783C26.3604 70.6995 26.7568 70.2529 27.2627 69.9385C27.7731 69.624 28.3542 69.4668 29.0059 69.4668C30.013 69.4668 30.8265 69.8154 31.4463 70.5127C32.0706 71.21 32.3828 72.1374 32.3828 73.2949V73.3838C32.3828 74.1038 32.2438 74.751 31.9658 75.3252C31.6924 75.8949 31.2982 76.3392 30.7832 76.6582C30.2728 76.9772 29.6849 77.1367 29.0195 77.1367C28.0169 77.1367 27.2035 76.7881 26.5791 76.0908C25.9593 75.3936 25.6494 74.4707 25.6494 73.3223V73.2334ZM26.9209 73.3838C26.9209 74.2041 27.11 74.8626 27.4883 75.3594C27.8711 75.8561 28.3815 76.1045 29.0195 76.1045C29.6621 76.1045 30.1725 75.8538 30.5508 75.3525C30.929 74.8467 31.1182 74.1403 31.1182 73.2334C31.1182 72.4222 30.9245 71.766 30.5371 71.2646C30.1543 70.7588 29.6439 70.5059 29.0059 70.5059C28.3815 70.5059 27.8779 70.7542 27.4951 71.251C27.1123 71.7477 26.9209 72.4587 26.9209 73.3838ZM33.668 73.2402C33.668 72.0872 33.9346 71.1712 34.4678 70.4922C35.001 69.8086 35.7074 69.4668 36.5869 69.4668C37.4893 69.4668 38.1934 69.7858 38.6992 70.4238L38.7607 69.6035H39.916V76.8223C39.916 77.7793 39.6312 78.5335 39.0615 79.085C38.4964 79.6364 37.7354 79.9121 36.7783 79.9121C36.2451 79.9121 35.7233 79.7982 35.2129 79.5703C34.7025 79.3424 34.3128 79.0303 34.0439 78.6338L34.7002 77.875C35.2425 78.5449 35.9056 78.8799 36.6895 78.8799C37.3047 78.8799 37.7832 78.7067 38.125 78.3604C38.4714 78.014 38.6445 77.5264 38.6445 76.8975V76.2617C38.1387 76.8451 37.4482 77.1367 36.5732 77.1367C35.7074 77.1367 35.0055 76.7881 34.4678 76.0908C33.9346 75.3936 33.668 74.4434 33.668 73.2402ZM34.9395 73.3838C34.9395 74.2178 35.1104 74.874 35.4521 75.3525C35.7939 75.8265 36.2725 76.0635 36.8877 76.0635C37.6852 76.0635 38.2708 75.7012 38.6445 74.9766V71.5996C38.2572 70.8932 37.6761 70.54 36.9014 70.54C36.2861 70.54 35.8053 70.7793 35.459 71.2578C35.1126 71.7363 34.9395 72.445 34.9395 73.3838ZM43.2041 77H41.9395V66.5H43.2041V77ZM48.3037 77.1367C47.3011 77.1367 46.4854 76.8086 45.8564 76.1523C45.2275 75.4915 44.9131 74.6097 44.9131 73.5068V73.2744C44.9131 72.5407 45.0521 71.8867 45.3301 71.3125C45.6126 70.7337 46.0046 70.2826 46.5059 69.959C47.0117 69.6309 47.5586 69.4668 48.1465 69.4668C49.1081 69.4668 49.8555 69.7835 50.3887 70.417C50.9219 71.0505 51.1885 71.9574 51.1885 73.1377V73.6641H46.1777C46.196 74.3932 46.4079 74.9834 46.8135 75.4346C47.2236 75.8812 47.7432 76.1045 48.3721 76.1045C48.8187 76.1045 49.1969 76.0133 49.5068 75.8311C49.8167 75.6488 50.0879 75.4072 50.3203 75.1064L51.0928 75.708C50.473 76.6605 49.5433 77.1367 48.3037 77.1367ZM48.1465 70.5059C47.6361 70.5059 47.2077 70.6927 46.8613 71.0664C46.515 71.4355 46.3008 71.9551 46.2188 72.625H49.9238V72.5293C49.8874 71.8867 49.7142 71.39 49.4043 71.0391C49.0944 70.6836 48.6751 70.5059 48.1465 70.5059Z" fill="#999999"/>
</svg>
