<svg width="28" height="30" viewBox="0 0 28 30" fill="none" xmlns="http://www.w3.org/2000/svg">
<path fill-rule="evenodd" clip-rule="evenodd" d="M27.1157 12.081L27.0931 12.2124L27.0717 12.3432L27.0514 12.4735L27.0324 12.6035L27.0147 12.7332L26.9984 12.8627L26.9835 12.9923L26.9703 13.122L26.9587 13.2519L26.9488 13.3823L26.9408 13.5132L26.9348 13.6449L26.9307 13.7775L26.9288 13.9111L26.929 14.046L26.9314 14.1822L26.9361 14.3201L26.9431 14.4598L26.9524 14.6015L26.964 14.7453L26.978 14.8916L26.9942 15.0403L27.0127 15.1918L27.0334 15.3462L27.0562 15.5038L27.0809 15.6645L27.1076 15.8287L27.136 15.9965L27.1659 16.168L27.1972 16.3433L27.2298 16.5225L27.2633 16.7058L27.2975 16.8931L27.3323 17.0847L27.3672 17.2804L27.4021 17.4804L27.4366 17.6846L27.4705 17.893L27.5033 18.1055L27.5349 18.3221L27.5648 18.5427L27.5928 18.7673L27.6185 18.9955L27.6415 19.2274L27.6616 19.4627L27.6785 19.7013L27.6917 19.9429L27.701 20.1873L27.706 20.4342L27.7065 20.6834L27.7022 20.9346L27.6928 21.1874L27.678 21.4417L27.6576 21.6969L27.6314 21.9529L27.5991 22.2092L27.5605 22.4655L27.5155 22.7214L27.464 22.9766L27.4056 23.2306L27.3405 23.4832L27.2684 23.7338L27.1892 23.9822L27.103 24.228L27.0097 24.4707L26.9093 24.7101L26.8018 24.9458L26.6872 25.1774L26.5657 25.4046L26.4372 25.6271L26.3018 25.8446L26.1598 26.0567L26.0112 26.2633L25.8562 26.4641L25.6949 26.6588L25.5276 26.8472L25.3544 27.0293L25.1756 27.2048L24.9914 27.3736L24.8021 27.5358L24.6079 27.6912L24.409 27.8398L24.2058 27.9816L23.9984 28.1167L23.7873 28.2451L23.5725 28.3668L23.3544 28.4821L23.1331 28.591L22.9091 28.6936L22.6824 28.7902L22.4533 28.8808L22.2221 28.9657L21.9888 29.045L21.7538 29.119L21.5171 29.1879L21.279 29.2519L21.0396 29.3112L20.799 29.3661L20.5573 29.4167L20.3147 29.4632L20.0712 29.506L19.8269 29.5451L19.5819 29.5807L19.3363 29.6131L19.09 29.6424L18.8431 29.6687L18.5956 29.6922L18.3476 29.7129L18.0991 29.731L17.85 29.7464L17.6003 29.7594L17.3501 29.7698L17.0994 29.7778L16.8481 29.7834L16.5963 29.7865L16.3439 29.7872L16.0909 29.7856L15.8374 29.7815L15.5832 29.775L15.3285 29.7661L15.0731 29.7547L14.8172 29.7408L14.5606 29.7243L14.3035 29.7052L14.0458 29.6835L13.7874 29.659L13.5286 29.6317L13.2692 29.6016L13.0093 29.5685L12.7489 29.5323L12.488 29.493L12.2268 29.4505L11.9652 29.4046L11.7033 29.3554L11.4411 29.3026L11.1788 29.2462L10.9164 29.1861L10.654 29.1222L10.3916 29.0543L10.1295 28.9824L9.86753 28.9064L9.60598 28.8261L9.34493 28.7415L9.08448 28.6524L8.82478 28.5588L8.56594 28.4606L8.30812 28.3577L8.05145 28.25L7.79606 28.1374L7.54211 28.02L7.28973 27.8975L7.03908 27.7701L6.79029 27.6377L6.54353 27.5003L6.29893 27.3577L6.05666 27.2101L5.81687 27.0574L5.57971 26.8996L5.34535 26.7367L5.11393 26.5688L4.88562 26.3958L4.66059 26.2178L4.43899 26.0347L4.22099 25.8467L4.00675 25.6538L3.79645 25.456L3.59025 25.2533L3.38832 25.0458L3.19082 24.8336L2.99793 24.6168L2.80982 24.3953L2.62664 24.1694L2.44856 23.9391L2.27575 23.7044L2.10836 23.4656L1.94654 23.2226L1.79044 22.9757L1.6402 22.7249L1.49596 22.4704L1.35784 22.2124L1.22594 21.9509L1.10038 21.6862L0.981259 21.4184L0.868664 21.1477L0.762683 20.8743L0.663396 20.5983L0.570874 20.3199L0.485181 20.0393L0.406373 19.7567L0.334497 19.4723L0.269588 19.1863L0.211676 18.8988L0.160776 18.6102L0.116895 18.3205L0.0800294 18.03L0.0501639 17.7389L0.0272719 17.4474L0.0113155 17.1556L0.00224518 16.8639L0 16.5724L0.00450738 16.2812L0.0156833 15.9906L0.0334326 15.7008L0.0576488 15.412L0.088215 15.1243L0.125004 14.8379L0.167877 14.5531L0.21669 14.2698L0.271284 13.9884L0.331497 13.709L0.397158 13.4317L0.468086 13.1566L0.544099 12.8839L0.625006 12.6136L0.710613 12.346L0.800722 12.081L0.895133 11.8188L0.993655 11.5595L1.09611 11.303L1.20232 11.0496L1.31214 10.7992L1.42542 10.5519L1.54204 10.3077L1.66186 10.0666L1.78478 9.82882L1.91069 9.59424L2.0395 9.36293L2.17112 9.13493L2.30548 8.91026L2.44249 8.68895L2.58211 8.47103L2.72425 8.25653L2.86887 8.04547L3.0159 7.8379L3.16531 7.63382L3.31704 7.43328L3.47103 7.23631L3.62725 7.04292L3.78564 6.85317L3.94615 6.66706L4.10873 6.48463L4.27332 6.30592L4.43987 6.13093L4.6083 5.9597L4.77856 5.79225L4.95057 5.62858L5.12424 5.46872L5.29948 5.31266L5.47621 5.1604L5.6543 5.01194L5.83366 4.86724L6.01416 4.7263L6.19566 4.58905L6.37803 4.45546L6.56115 4.32546L6.74488 4.19901L6.92913 4.07605L7.11377 3.95651L7.29872 3.84034L7.48387 3.72748L7.66915 3.61788L7.85447 3.51147L8.03978 3.4082L8.22501 3.30802L8.41009 3.21087L8.59499 3.11671L8.77966 3.02549L8.96405 2.93717L9.14815 2.8517L9.33191 2.76905L9.51532 2.68918L9.69835 2.61207L9.88099 2.53769L10.0632 2.46601L10.245 2.39701L10.4264 2.33066L10.6073 2.26696L10.7878 2.20587L10.9678 2.1474L11.1473 2.09151L11.3263 2.03819L11.5049 1.98743L11.6829 1.9392L11.8604 1.8935L12.0373 1.85029L12.2136 1.80954L12.3894 1.77124L12.5646 1.73534L12.7391 1.70182L12.913 1.67061L13.0861 1.64165L13.2585 1.61485L13.4302 1.59011L13.601 1.5673L13.7709 1.54629L13.9399 1.52692L14.1079 1.50902L14.2749 1.49241L14.4408 1.47691L14.6057 1.4623L14.7695 1.44837L14.9321 1.43491L15.0937 1.42169L15.2541 1.40849L15.4135 1.39509L15.5718 1.38126L15.7292 1.36678L15.8856 1.35145L16.0411 1.33505L16.1958 1.3174L16.3499 1.29831L16.5033 1.27763L16.6563 1.25519L16.8089 1.23089L16.9613 1.20461L17.1136 1.17627L17.266 1.1458L17.4186 1.1132L17.5716 1.07843L17.7251 1.04155L17.8793 1.00259L18.0344 0.961658L18.1904 0.918859L18.3476 0.874349L18.5061 0.828311L18.666 0.780955L18.8273 0.732511L18.9903 0.683227L19.1551 0.63337L19.3215 0.58322L19.4899 0.533074L19.6601 0.483239L19.8322 0.434035L20.0062 0.38579L20.1821 0.338839L20.3599 0.293525L20.5396 0.25019L20.721 0.209181L20.904 0.170844L21.0887 0.135521L21.2748 0.103551L21.4622 0.0752648L21.6508 0.0509859L21.8404 0.0310268L22.0308 0.0156879L22.2218 0.00525551L22.4132 0L22.6048 0.000174423L22.7963 0.00601291L22.9876 0.0177293L23.1783 0.0355159L23.3682 0.0595425L23.5571 0.0899549L23.7446 0.126875L23.9305 0.170399L24.1146 0.220597L24.2966 0.277515L24.4763 0.341172L24.6533 0.411559L24.8276 0.488644L24.9987 0.572368L25.1665 0.662657L25.3308 0.759425L25.4914 0.862574L25.648 0.971993L25.8004 1.08756L25.9485 1.20913L26.0921 1.33656L26.2309 1.46968L26.3649 1.6083L26.4939 1.75224L26.6177 1.90128L26.7362 2.05519L26.8494 2.21375L26.9571 2.37671L27.0593 2.5438L27.1559 2.71476L27.2469 2.88933L27.3323 3.0672L27.4121 3.24811L27.4863 3.43175L27.5551 3.61784L27.6183 3.80609L27.6762 3.99619L27.7288 4.18787L27.7763 4.38084L27.8187 4.57482L27.8562 4.76955L27.8889 4.96476L27.9171 5.1602L27.9409 5.35565L27.9603 5.55087L27.9758 5.74566L27.9873 5.93981L27.995 6.13317L27.9992 6.32555L28 6.51682L27.9975 6.70685L27.992 6.89551L27.9835 7.08268L27.9722 7.26827L27.9584 7.45217L27.9421 7.63431L27.9236 7.81459L27.9031 7.99296L27.8806 8.16936L27.8564 8.34373L27.8306 8.51605L27.8035 8.68628L27.7752 8.85441L27.7458 9.02042L27.7154 9.18431L27.6844 9.34609L27.6527 9.50578L27.6206 9.6634L27.5882 9.81898L27.5556 9.97257L27.5229 10.1242L27.4903 10.2739L27.4579 10.4218L27.4258 10.5679L27.3941 10.7124L27.3628 10.8551L27.3321 10.9964L27.3021 11.1361L27.2728 11.2745L27.2443 11.4116L27.2166 11.5475L27.1899 11.6823L27.1641 11.816L27.1394 11.9489L27.1157 12.081Z" fill="#287F42"/>
<g clip-path="url(#clip0)">
<path d="M17.8722 13.1063L18.6169 11.468L20.2552 10.7233L18.6169 9.97863L17.8722 8.34033L17.1276 9.97863L15.4893 10.7233L17.1276 11.468L17.8722 13.1063Z" fill="white"/>
<path d="M17.8722 16.6807L17.1276 18.319L15.4893 19.0636L17.1276 19.8083L17.8722 21.4466L18.6169 19.8083L20.2552 19.0636L18.6169 18.319L17.8722 16.6807Z" fill="white"/>
<path d="M13.4042 13.4043L11.9149 10.1277L10.4255 13.4043L7.14893 14.8936L10.4255 16.383L11.9149 19.6596L13.4042 16.383L16.6808 14.8936L13.4042 13.4043ZM12.5047 15.4834L11.9149 16.7822L11.3251 15.4834L10.0264 14.8936L11.3251 14.3039L11.9149 13.0051L12.5047 14.3039L13.8034 14.8936L12.5047 15.4834Z" fill="white"/>
</g>
<defs>
<clipPath id="clip0">
<rect width="14.2979" height="14.2979" fill="white" transform="translate(6.55322 7.74463)"/>
</clipPath>
</defs>
</svg>
