<svg width="28" height="32" viewBox="0 0 28 32" fill="none" xmlns="http://www.w3.org/2000/svg">
<path fill-rule="evenodd" clip-rule="evenodd" d="M27.6009 16.8475L27.5782 16.9675L27.5554 17.087L27.5325 17.206L27.5095 17.3245L27.4865 17.4427L27.4634 17.5604L27.4404 17.6778L27.4174 17.7949L27.3944 17.9117L27.3715 18.0282L27.3486 18.1446L27.3258 18.2607L27.303 18.3767L27.2803 18.4926L27.2577 18.6084L27.2351 18.7242L27.2126 18.84L27.1901 18.9557L27.1676 19.0715L27.1451 19.1874L27.1226 19.3034L27.1001 19.4196L27.0775 19.5359L27.0549 19.6524L27.0321 19.7691L27.0092 19.886L26.9861 20.0032L26.9629 20.1207L26.9394 20.2385L26.9157 20.3566L26.8916 20.475L26.8673 20.5938L26.8425 20.7129L26.8174 20.8324L26.7918 20.9523L26.7658 21.0726L26.7392 21.1933L26.712 21.3143L26.6843 21.4358L26.656 21.5577L26.627 21.68L26.5972 21.8027L26.5667 21.9259L26.5355 22.0494L26.5034 22.1734L26.4704 22.2977L26.4366 22.4224L26.4018 22.5476L26.3661 22.6731L26.3293 22.799L26.2915 22.9252L26.2527 23.0518L26.2127 23.1788L26.1716 23.3061L26.1293 23.4337L26.0858 23.5616L26.0411 23.6897L25.9951 23.8182L25.9478 23.9468L25.8992 24.0758L25.8493 24.2049L25.7979 24.3342L25.7452 24.4637L25.691 24.5934L25.6353 24.7232L25.5782 24.8531L25.5195 24.983L25.4593 25.1131L25.3975 25.2431L25.3342 25.3732L25.2692 25.5032L25.2026 25.6332L25.1344 25.7631L25.0645 25.8929L24.9929 26.0225L24.9195 26.152L24.8444 26.2812L24.7676 26.4102L24.689 26.5389L24.6086 26.6673L24.5264 26.7954L24.4424 26.923L24.3565 27.0502L24.2688 27.1769L24.1792 27.3031L24.0877 27.4288L23.9943 27.5538L23.899 27.6781L23.8018 27.8018L23.7027 27.9247L23.6016 28.0468L23.4986 28.1681L23.3936 28.2884L23.2867 28.4078L23.1778 28.5262L23.067 28.6436L22.9542 28.7598L22.8395 28.8748L22.7228 28.9887L22.6041 29.1012L22.4835 29.2124L22.361 29.3223L22.2365 29.4307L22.1101 29.5375L21.9818 29.6428L21.8517 29.7465L21.7196 29.8486L21.5856 29.9488L21.4498 30.0473L21.3122 30.144L21.1728 30.2387L21.0316 30.3315L20.8887 30.4223L20.744 30.511L20.5976 30.5976L20.4496 30.682L20.2999 30.7641L20.1486 30.844L19.9958 30.9216L19.8414 30.9968L19.6855 31.0696L19.5282 31.1399L19.3695 31.2077L19.2094 31.2729L19.048 31.3356L18.8853 31.3956L18.7213 31.453L18.5562 31.5076L18.39 31.5595L18.2227 31.6086L18.0543 31.6549L17.885 31.6984L17.7147 31.7391L17.5435 31.7768L17.3716 31.8117L17.1988 31.8437L17.0254 31.8727L16.8513 31.8987L16.6765 31.9218L16.5013 31.942L16.3255 31.9591L16.1493 31.9733L15.9727 31.9844L15.7958 31.9926L15.6186 31.9978L15.4411 32L15.2636 31.9992L15.0858 31.9955L14.9081 31.9888L14.7303 31.9791L14.5525 31.9666L14.3749 31.9511L14.1974 31.9327L14.02 31.9115L13.8429 31.8875L13.666 31.8606L13.4895 31.831L13.3133 31.7987L13.1375 31.7637L12.9621 31.726L12.7871 31.6856L12.6127 31.6427L12.4387 31.5972L12.2654 31.5493L12.0926 31.4988L11.9204 31.446L11.7488 31.3908L11.5778 31.3332L11.4075 31.2734L11.2379 31.2113L11.069 31.1471L10.9008 31.0806L10.7333 31.0121L10.5666 30.9416L10.4006 30.869L10.2353 30.7944L10.0707 30.718L9.9069 30.6396L9.74384 30.5594L9.58154 30.4773L9.42001 30.3935L9.25923 30.3079L9.09923 30.2205L8.94001 30.1315L8.78156 30.0407L8.62391 29.9482L8.46706 29.8541L8.31102 29.7583L8.15579 29.6608L8.00139 29.5617L7.84783 29.461L7.69513 29.3586L7.54329 29.2546L7.39234 29.149L7.24228 29.0418L7.09315 28.9329L6.94495 28.8224L6.79772 28.7103L6.65145 28.5965L6.5062 28.4811L6.36196 28.3641L6.21877 28.2455L6.07666 28.1252L5.93565 28.0033L5.79577 27.8797L5.65704 27.7545L5.5195 27.6276L5.38316 27.4991L5.24807 27.3689L5.11425 27.2371L4.98173 27.1037L4.85055 26.9686L4.72072 26.8319L4.59228 26.6935L4.46526 26.5535L4.33969 26.4119L4.2156 26.2687L4.09301 26.1239L3.97195 25.9775L3.85244 25.8295L3.73451 25.68L3.61819 25.5289L3.50349 25.3763L3.39044 25.2221L3.27905 25.0665L3.16933 24.9094L3.06132 24.7508L2.95501 24.5908L2.85042 24.4294L2.74755 24.2666L2.64641 24.1024L2.54702 23.9369L2.44935 23.7701L2.35344 23.602L2.25926 23.4326L2.16684 23.2619L2.07617 23.0901L1.98726 22.917L1.9001 22.7427L1.81472 22.5673L1.73111 22.3907L1.64927 22.213L1.56922 22.0342L1.49097 21.8543L1.41451 21.6733L1.33987 21.4913L1.26704 21.3082L1.19604 21.1241L1.12689 20.9389L1.05959 20.7528L0.994153 20.5657L0.9306 20.3777L0.868943 20.1887L0.809199 19.9987L0.751384 19.8079L0.695517 19.6162L0.641616 19.4235L0.5897 19.23L0.539791 19.0357L0.491909 18.8405L0.446076 18.6446L0.402314 18.4478L0.360648 18.2502L0.3211 18.0519L0.283695 17.8529L0.248458 17.6532L0.215415 17.4527L0.184594 17.2516L0.156026 17.0499L0.12974 16.8475L0.10577 16.6446L0.0841497 16.4411L0.0649126 16.237L0.0480943 16.0325L0.0337306 15.8275L0.0218576 15.622L0.0125118 15.4161L0.00572957 15.2099L0.00154701 15.0033L0 14.7965L0.00112382 14.5894L0.00495303 14.382L0.0115213 14.1745L0.0208611 13.9669L0.0330038 13.7592L0.0479794 13.5515L0.0658163 13.3438L0.0865411 13.1362L0.110179 12.9287L0.136752 12.7213L0.166282 12.5142L0.198788 12.3074L0.234286 12.1009L0.272791 11.8947L0.314314 11.6891L0.358865 11.4839L0.406452 11.2792L0.457078 11.0752L0.510747 10.8719L0.567459 10.6692L0.62721 10.4673L0.689996 10.2663L0.75581 10.0661L0.824642 9.86692L0.89648 9.66869L0.971311 9.47151L1.04912 9.27541L1.12989 9.08047L1.21359 8.88672L1.30022 8.69422L1.38973 8.50301L1.48212 8.31315L1.57735 8.12469L1.6754 7.93766L1.77624 7.75211L1.87984 7.5681L1.98617 7.38566L2.09519 7.20484L2.20688 7.02567L2.32121 6.84821L2.43814 6.6725L2.55763 6.49857L2.67967 6.32646L2.8042 6.15622L2.93119 5.98788L3.06061 5.82147L3.1924 5.65703L3.32653 5.49459L3.46296 5.33418L3.60163 5.17582L3.74251 5.01955L3.88554 4.86538L4.03068 4.71334L4.17789 4.56344L4.32711 4.41571L4.47829 4.27017L4.63139 4.12683L4.78636 3.98571L4.94315 3.84681L5.10172 3.71015L5.26201 3.57575L5.42397 3.4436L5.58757 3.31373L5.75275 3.18613L5.91947 3.06082L6.08768 2.9378L6.25734 2.81707L6.4284 2.69865L6.60083 2.58253L6.77458 2.46872L6.94961 2.35723L7.12588 2.24806L7.30335 2.14121L7.48198 2.03669L7.66174 1.9345L7.84259 1.83466L8.0245 1.73716L8.20743 1.64201L8.39136 1.54924L8.57624 1.45884L8.76206 1.37085L8.9488 1.28527L9.13641 1.20213L9.32488 1.12145L9.51418 1.04327L9.70429 0.967595L9.89517 0.894469L10.0868 0.823923L10.2792 0.755988L10.4723 0.6907L10.666 0.628096L10.8604 0.568214L11.0555 0.511092L11.2511 0.45677L11.4473 0.40529L11.644 0.356691L11.8412 0.311015L12.0388 0.268303L12.2369 0.228597L12.4353 0.191935L12.6341 0.158359L12.8332 0.127906L13.0326 0.100614L13.2321 0.0765195L13.4318 0.0556565L13.6317 0.0380576L13.8315 0.023753L14.0314 0.0127708L14.2312 0.00513658L14.4309 0.000873016L14.6305 0L14.8298 0.00253433L15.0288 0.00848958L15.2275 0.017876L15.4257 0.0307001L15.6235 0.0469653L15.8208 0.0666707L16.0174 0.0898122L16.2134 0.116381L16.4086 0.146366L16.6031 0.179751L16.7966 0.216516L16.9893 0.256637L17.181 0.300086L17.3716 0.346833L17.5611 0.396842L17.7494 0.450075L17.9365 0.506489L18.1223 0.56604L18.3067 0.628677L18.4898 0.69435L18.6713 0.763003L18.8514 0.834578L19.0299 0.909013L19.2068 0.986244L19.3821 1.0662L19.5557 1.14882L19.7275 1.23402L19.8976 1.32172L20.0659 1.41186L20.2324 1.50435L20.397 1.59911L20.5597 1.69605L20.7206 1.7951L20.8795 1.89617L21.0365 1.99916L21.1915 2.10401L21.3446 2.21061L21.4957 2.31889L21.6449 2.42876L21.7921 2.54013L21.9373 2.65291L22.0806 2.76704L22.2219 2.88241L22.3614 2.99896L22.4988 3.11661L22.6344 3.23527L22.7681 3.35487L22.9 3.47534L23.03 3.59661L23.1582 3.71862L23.2846 3.84129L23.4092 3.96456L23.532 4.08838L23.6532 4.2127L23.7727 4.33745L23.8905 4.46259L24.0068 4.58808L24.1214 4.71388L24.2344 4.83997L24.3459 4.96631L24.4559 5.09289L24.5644 5.21968L24.6714 5.34668L24.7769 5.47387L24.881 5.60125L24.9836 5.72882L25.0849 5.85659L25.1846 5.98455L25.283 6.11271L25.3799 6.24109L25.4754 6.3697L25.5695 6.49854L25.6622 6.62764L25.7534 6.75702L25.8431 6.88668L25.9314 7.01665L26.0182 7.14695L26.1035 7.27759L26.1872 7.40859L26.2694 7.53997L26.35 7.67175L26.429 7.80394L26.5064 7.93656L26.5821 8.06962L26.6561 8.20313L26.7283 8.3371L26.7988 8.47154L26.8675 8.60645L26.9344 8.74184L26.9995 8.8777L27.0626 9.01404L27.1238 9.15086L27.1831 9.28814L27.2404 9.42587L27.2956 9.56405L27.3489 9.70265L27.4001 9.84167L27.4492 9.98108L27.4962 10.1209L27.541 10.261L27.5838 10.4014L27.6244 10.5421L27.6629 10.6831L27.6992 10.8243L27.7333 10.9657L27.7653 11.1073L27.7952 11.2489L27.8229 11.3906L27.8485 11.5324L27.872 11.6741L27.8933 11.8158L27.9127 11.9574L27.93 12.0989L27.9453 12.2402L27.9586 12.3812L27.97 12.522L27.9795 12.6625L27.9871 12.8027L27.9929 12.9424L27.997 13.0818L27.9993 13.2207L28 13.3591L27.9991 13.497L27.9966 13.6343L27.9926 13.7711L27.9872 13.9072L27.9804 14.0428L27.9722 14.1777L27.9628 14.3119L27.9522 14.4454L27.9405 14.5782L27.9277 14.7103L27.9138 14.8417L27.899 14.9724L27.8833 15.1023L27.8668 15.2315L27.8495 15.36L27.8315 15.4877L27.8128 15.6147L27.7935 15.741L27.7737 15.8666L27.7533 15.9915L27.7325 16.1157L27.7114 16.2392L27.6898 16.3621L27.668 16.4843L27.6458 16.606L27.6235 16.727L27.6009 16.8475Z" fill="#F193B7"/>
<path d="M9.57352 12.4756H8.4668V20.3077C8.4668 20.9231 8.96482 21.4266 9.57352 21.4266H17.3206V20.3077H9.57352V12.4756ZM18.4273 10.2378H11.787C11.1783 10.2378 10.6802 10.7413 10.6802 11.3567V18.07C10.6802 18.6853 11.1783 19.1888 11.787 19.1888H18.4273C19.036 19.1888 19.534 18.6853 19.534 18.07V11.3567C19.534 10.7413 19.036 10.2378 18.4273 10.2378ZM18.4273 18.07H11.787V11.3567H18.4273V18.07ZM12.8937 14.1539H17.3206V15.2728H12.8937V14.1539ZM12.8937 15.8322H15.1071V16.9511H12.8937V15.8322ZM12.8937 12.4756H17.3206V13.5944H12.8937V12.4756Z" fill="white"/>
</svg>
