<svg width="28" height="28" viewBox="0 0 28 28" fill="none" xmlns="http://www.w3.org/2000/svg">
<path fill-rule="evenodd" clip-rule="evenodd" d="M27.4312 16.7633L27.4734 16.9004L27.5148 17.0385L27.5552 17.1777L27.5945 17.3179L27.6327 17.4591L27.6695 17.6013L27.7049 17.7445L27.7389 17.8887L27.7712 18.0339L27.8017 18.1799L27.8305 18.3269L27.8573 18.4748L27.8821 18.6235L27.9048 18.773L27.9253 18.9232L27.9435 19.0741L27.9593 19.2257L27.9726 19.3778L27.9835 19.5305L27.9917 19.6836L27.9972 19.8372L28 19.991L28 20.1452L27.9971 20.2995L27.9914 20.454L27.9827 20.6085L27.971 20.763L27.9563 20.9174L27.9385 21.0716L27.9176 21.2256L27.8935 21.3792L27.8664 21.5324L27.836 21.6852L27.8025 21.8373L27.7657 21.9888L27.7258 22.1396L27.6826 22.2895L27.6362 22.4386L27.5865 22.5866L27.5336 22.7336L27.4774 22.8793L27.418 23.0239L27.3554 23.167L27.2895 23.3088L27.2203 23.449L27.1479 23.5875L27.0723 23.7244L26.9934 23.8594L26.9114 23.9925L26.8262 24.1236L26.7378 24.2526L26.6464 24.3795L26.5519 24.5042L26.4545 24.6265L26.3541 24.7464L26.2508 24.864L26.1448 24.979L26.036 25.0914L25.9246 25.2012L25.8106 25.3084L25.6942 25.4129L25.5754 25.5147L25.4542 25.6137L25.3309 25.71L25.2056 25.8034L25.0782 25.8941L24.9489 25.982L24.8179 26.067L24.6852 26.1493L24.5509 26.2289L24.4152 26.3056L24.2782 26.3797L24.1399 26.451L24.0005 26.5197L23.8601 26.5859L23.7188 26.6494L23.5767 26.7105L23.4339 26.7691L23.2905 26.8254L23.1466 26.8793L23.0023 26.931L22.8576 26.9806L22.7128 27.0281L22.5678 27.0737L22.4227 27.1173L22.2776 27.1591L22.1327 27.1993L21.9878 27.2378L21.8432 27.2748L21.6989 27.3104L21.5549 27.3447L21.4112 27.3777L21.2679 27.4095L21.125 27.4402L20.9825 27.4699L20.8404 27.4986L20.6988 27.5263L20.5576 27.5532L20.4169 27.5791L20.2766 27.6043L20.1367 27.6286L19.9972 27.6522L19.8581 27.675L19.7195 27.697L19.5811 27.7184L19.4432 27.739L19.3055 27.7588L19.1682 27.778L19.0312 27.7964L18.8944 27.8141L18.7579 27.831L18.6217 27.8472L18.4857 27.8627L18.3499 27.8773L18.2142 27.8912L18.0788 27.9043L17.9435 27.9165L17.8084 27.928L17.6734 27.9386L17.5385 27.9484L17.4037 27.9573L17.2691 27.9654L17.1345 27.9726L17.0001 27.979L16.8657 27.9845L16.7314 27.9891L16.5971 27.993L16.463 27.9959L16.3288 27.9981L16.1947 27.9994L16.0607 28L15.9267 27.9998L15.7927 27.9989L15.6586 27.9973L15.5246 27.995L15.3906 27.9921L15.2565 27.9886L15.1223 27.9845L14.988 27.9798L14.8537 27.9746L14.7192 27.9689L14.5846 27.9628L14.4498 27.9561L14.3148 27.949L14.1795 27.9414L14.0441 27.9334L13.9083 27.9249L13.7723 27.916L13.6359 27.9066L13.4992 27.8968L13.3622 27.8865L13.2247 27.8757L13.0868 27.8645L12.9485 27.8527L12.8098 27.8404L12.6705 27.8275L12.5308 27.8141L12.3906 27.8L12.2499 27.7853L12.1086 27.7699L11.9668 27.7537L11.8245 27.7368L11.6816 27.7191L11.5381 27.7006L11.3941 27.6812L11.2495 27.6608L11.1044 27.6394L10.9587 27.6171L10.8124 27.5936L10.6657 27.569L10.5184 27.5433L10.3705 27.5163L10.2222 27.4881L10.0734 27.4585L9.92408 27.4276L9.77432 27.3954L9.62413 27.3616L9.47351 27.3264L9.3225 27.2897L9.17113 27.2513L9.01941 27.2114L8.86739 27.1698L8.71509 27.1264L8.56255 27.0814L8.4098 27.0345L8.25689 26.9857L8.10384 26.9351L7.95071 26.8826L7.79753 26.8281L7.64433 26.7716L7.49118 26.7132L7.33809 26.6526L7.18512 26.59L7.03231 26.5253L6.87969 26.4584L6.72731 26.3895L6.57522 26.3183L6.42344 26.245L6.27202 26.1695L6.121 26.0918L5.97041 26.0119L5.82031 25.9298L5.67072 25.8454L5.52168 25.7589L5.37324 25.67L5.22544 25.579L5.0783 25.4857L4.93189 25.3901L4.78623 25.2923L4.64137 25.1922L4.49736 25.0899L4.35425 24.9853L4.21209 24.8785L4.07093 24.7693L3.93083 24.6579L3.79185 24.5442L3.65407 24.4282L3.51754 24.3099L3.38234 24.1894L3.24857 24.0664L3.1163 23.9412L2.98564 23.8137L2.85667 23.6838L2.72949 23.5515L2.60421 23.417L2.4809 23.2801L2.35968 23.1409L2.24062 22.9994L2.12382 22.8556L2.00938 22.7095L1.89738 22.5613L1.78791 22.4108L1.68106 22.2582L1.57691 22.1034L1.47554 21.9465L1.37704 21.7876L1.28147 21.6267L1.18892 21.4638L1.09945 21.299L1.01314 21.1324L0.930052 20.964L0.850245 20.7939L0.77378 20.6221L0.700713 20.4487L0.631094 20.2738L0.564972 20.0975L0.50239 19.9198L0.443386 19.7407L0.387997 19.5605L0.336252 19.379L0.288177 19.1966L0.243793 19.0131L0.203116 18.8287L0.166159 18.6435L0.132926 18.4575L0.103421 18.2708L0.0776378 18.0836L0.0555689 17.8959L0.0371999 17.7077L0.0225116 17.5192L0.0114796 17.3304L0.00407434 17.1415L0.000261047 16.9524L0 16.7633L0.00324529 16.5743L0.00994206 16.3853L0.020026 16.1965L0.0334238 16.0079L0.0500536 15.8197L0.0698254 15.6318L0.0926419 15.4443L0.118399 15.2572L0.146985 15.0707L0.178285 14.8846L0.212178 14.6992L0.248538 14.5143L0.287236 14.3299L0.328141 14.1462L0.371119 13.9632L0.416035 13.7807L0.462754 13.5988L0.511141 13.4175L0.561063 13.2367L0.612386 13.0565L0.664982 12.8768L0.718725 12.6976L0.773494 12.5188L0.82917 12.3403L0.885643 12.1622L0.942809 11.9844L1.00057 11.8067L1.05883 11.6292L1.11751 11.4517L1.17655 11.2743L1.23586 11.0968L1.29541 10.9191L1.35513 10.7413L1.41501 10.5631L1.47502 10.3847L1.53514 10.2058L1.59538 10.0265L1.65575 9.84665L1.71627 9.66622L1.77697 9.48517L1.83791 9.30347L1.89914 9.12107L1.96073 8.93794L2.02276 8.75408L2.08533 8.56948L2.14854 8.38414L2.21251 8.19808L2.27734 8.0113L2.34315 7.82385L2.41009 7.63576L2.47827 7.44709L2.54782 7.25787L2.61889 7.0682L2.69161 6.87813L2.76611 6.68775L2.84254 6.49716L2.92103 6.30647L3.00173 6.11577L3.08476 5.9252L3.17027 5.73488L3.25837 5.54495L3.3492 5.35555L3.44288 5.16684L3.53952 4.97896L3.63925 4.7921L3.74215 4.60641L3.84833 4.42207L3.95788 4.23926L4.07089 4.05816L4.18742 3.87897L4.30754 3.70186L4.43131 3.52703L4.55878 3.35467L4.68998 3.18497L4.82493 3.01812L4.96366 2.85431L5.10617 2.69373L5.25246 2.53655L5.40251 2.38297L5.55629 2.23316L5.71377 2.08728L5.87491 1.94551L6.03964 1.80799L6.2079 1.67489L6.37962 1.54634L6.5547 1.42247L6.73305 1.30341L6.91458 1.18928L7.09915 1.08018L7.28667 0.976195L7.47699 0.877411L7.66999 0.783894L7.86553 0.6957L8.06345 0.61287L8.2636 0.535431L8.46584 0.463398L8.67 0.396774L8.87591 0.335545L9.08342 0.279687L9.29236 0.22916L9.50256 0.183914L9.71386 0.143884L9.9261 0.108995L10.1391 0.0791584L10.3527 0.0542752L10.5668 0.0342361L10.7812 0.0189217L10.9958 0.0082035L11.2103 0.00194443L11.4248 0L11.6389 0.002219L11.8527 0.00844446L12.0661 0.0185146L12.2788 0.0322638L12.4908 0.0495237L12.702 0.0701242L12.9123 0.0938945L13.1217 0.120664L13.3301 0.150265L13.5373 0.18253L13.7434 0.217296L13.9483 0.254407L14.152 0.29371L14.3544 0.335059L14.5555 0.378319L14.7554 0.423361L14.9539 0.470066L15.1511 0.518326L15.3469 0.568046L15.5415 0.619142L15.7347 0.671544L15.9267 0.725195L16.1173 0.780053L16.3067 0.836089L16.4948 0.893284L16.6816 0.951625L16.8672 1.0111L17.0515 1.07172L17.2346 1.13348L17.4165 1.1964L17.5972 1.2605L17.7766 1.32579L17.9549 1.3923L18.1319 1.46008L18.3078 1.52915L18.4824 1.59956L18.6557 1.67135L18.8279 1.74457L18.9987 1.81927L19.1683 1.89551L19.3366 1.97333L19.5035 2.05279L19.6691 2.13395L19.8332 2.21687L19.9959 2.30159L20.1572 2.38818L20.3169 2.47667L20.475 2.56713L20.6315 2.65961L20.7863 2.75413L20.9394 2.85076L21.0907 2.94952L21.2401 3.05044L21.3876 3.15356L21.5331 3.25889L21.6766 3.36645L21.8179 3.47626L21.9572 3.58832L22.0941 3.70262L22.2288 3.81917L22.3612 3.93794L22.4911 4.05892L22.6186 4.18208L22.7436 4.30738L22.866 4.43479L22.9858 4.56425L23.103 4.69572L23.2175 4.82913L23.3292 4.96443L23.4382 5.10156L23.5445 5.24043L23.6479 5.38099L23.7486 5.52316L23.8464 5.66685L23.9413 5.81199L24.0334 5.9585L24.1227 6.10627L24.2091 6.25523L24.2927 6.40529L24.3734 6.55633L24.4514 6.70828L24.5265 6.86103L24.599 7.01448L24.6687 7.16853L24.7358 7.32307L24.8003 7.47802L24.8622 7.63326L24.9217 7.7887L24.9787 7.94423L25.0334 8.09976L25.0858 8.25519L25.136 8.41043L25.1841 8.56539L25.2303 8.71997L25.2745 8.8741L25.3169 9.02768L25.3576 9.18065L25.3966 9.33294L25.4342 9.48446L25.4704 9.63517L25.5053 9.785L25.539 9.93389L25.5717 10.0818L25.6035 10.2287L25.6344 10.3746L25.6645 10.5194L25.6941 10.663L25.7231 10.8056L25.7517 10.947L25.78 11.0874L25.8081 11.2266L25.8361 11.3646L25.864 11.5016L25.8919 11.6375L25.92 11.7724L25.9482 11.9062L25.9768 12.039L26.0056 12.1709L26.0349 12.3018L26.0646 12.4318L26.0948 12.5611L26.1257 12.6895L26.1571 12.8172L26.1892 12.9443L26.222 13.0707L26.2556 13.1966L26.2899 13.3219L26.3249 13.4469L26.3608 13.5715L26.3975 13.6958L26.4349 13.8199L26.4732 13.9438L26.5122 14.0677L26.552 14.1915L26.5925 14.3154L26.6337 14.4394L26.6756 14.5636L26.7182 14.6881L26.7613 14.813L26.805 14.9382L26.8491 15.0639L26.8936 15.1901L26.9385 15.3169L26.9837 15.4443L27.029 15.5724L27.0745 15.7012L27.1199 15.8309L27.1654 15.9613L27.2106 16.0927L27.2556 16.2249L27.3003 16.358L27.3445 16.4921L27.3882 16.6272L27.4312 16.7633Z" fill="#C4C4C4"/>
<path d="M18.2857 10.6401H16V9.52015C16 8.89855 15.4914 8.40015 14.8571 8.40015H12.5714C11.9371 8.40015 11.4286 8.89855 11.4286 9.52015V10.6401H9.14286C8.50857 10.6401 8.00571 11.1385 8.00571 11.7601L8 17.9201C8 18.5417 8.50857 19.0401 9.14286 19.0401H18.2857C18.92 19.0401 19.4286 18.5417 19.4286 17.9201V11.7601C19.4286 11.1385 18.92 10.6401 18.2857 10.6401ZM14.8571 10.6401H12.5714V9.52015H14.8571V10.6401Z" fill="white"/>
</svg>
