<svg width="40" height="50" viewBox="0 0 50 57" fill="none" xmlns="http://www.w3.org/2000/svg">
<g clip-path="url(#clip0)">
<mask id="mask0" mask-type="alpha" maskUnits="userSpaceOnUse" x="1" y="0" width="48" height="57">
<path d="M2.24494 1.62897L3.54917 0.912231H31.4597L39.0243 3.06246L43.7847 6.25522L47.3061 11.2724L48.6756 17.7883L47.8278 25.1512L45.2193 30.2987L41.2414 33.6218L35.0463 36.3584L28.3296 36.8145H24.3517L24.8081 28.8001L31.9162 22.2842L31.4597 21.8281L27.4166 22.8055H25.7863L22.8518 12.6408L21.4823 11.1421L20.765 11.7937L21.4823 19.6127L18.287 12.2498L17.3088 11.7937L16.4611 12.2498L17.3088 14.6607L18.287 20.0688L15.0916 15.3774L12.8092 13.553L12.4832 14.6607L16.135 21.4371L12.0919 18.7656V19.6127L17.3088 27.8227V54.0164L16.2654 56.0363H3.87523L2.37536 55.515L1.4624 54.0164V5.27785L2.24494 1.62897Z" fill="black"/>
</mask>
<g mask="url(#mask0)">
<path fill-rule="evenodd" clip-rule="evenodd" d="M63.3481 10.8685L63.2438 11.2724L63.1394 11.6764L63.0351 12.0804L62.9308 12.4844L62.8264 12.8884L62.7221 13.2924L62.6177 13.6963L62.5134 14.1003L62.4091 14.5043L62.3047 14.9083L62.2004 15.3123L62.0961 15.7162L61.9917 16.1202L61.8874 16.5242L61.783 16.9282L61.6787 17.3322L61.5744 17.7362L61.47 18.1401L61.3657 18.5441L61.2613 18.9481L61.157 19.3521L61.0527 19.7561L60.9483 20.1601L60.7527 20.564L60.5571 20.968L60.3614 21.372L60.1658 21.776L59.9702 22.18L59.7745 22.5839L59.5789 22.9879L59.3833 23.3919L59.1876 23.7959L58.992 24.1999L58.7963 24.6039L58.6007 25.0078L58.4051 25.4118L58.2094 25.8158L58.0138 26.2198L57.8182 26.6238L57.6225 26.9235L57.3226 27.2232L57.0226 27.523L56.7226 27.8227L56.227 28.5264L55.927 28.8261L55.6271 29.1259L55.3271 29.4256L55.0271 29.7253L54.7271 30.025L54.4272 30.3248L54.1272 30.6245L53.8272 30.9242L53.5273 31.224L53.2273 31.5237L52.9273 31.8234L52.6273 32.1231L52.3274 32.3186L52.0274 32.5141L51.7274 32.7096L51.4274 32.905L51.0231 33.1005L50.6188 33.296L50.2145 33.4915L49.8102 33.687L49.4059 33.8824L49.0016 34.0779L48.5973 34.2734L48.1929 34.4689L47.7886 34.6643L47.3843 34.8598L46.98 35.0553L46.5757 35.2508L46.1714 35.4462L45.7671 35.6417L45.3628 35.8372L44.9585 36.0327L44.5541 36.2281L44.1498 36.4236L43.7455 36.6191L43.4456 36.8146L43.1456 37.01L42.8456 37.2055L42.5456 37.401L42.2457 37.5965L41.9457 37.7919L41.6457 37.9874L41.3457 38.1829L41.0458 38.3784L40.7458 38.5738L40.4458 38.7693L40.1459 38.9648L39.8459 39.1603L39.5459 39.3557L39.2459 39.5512L38.946 39.7467L38.646 39.9422L38.346 40.1376L38.046 40.3331L37.7461 40.5286L37.4461 40.7241L37.1461 40.9195L36.8461 41.115L36.5462 41.3105L36.2462 41.6102L35.9462 41.91L35.6463 42.2097L35.3463 42.5094L35.0463 42.8091L34.7463 43.1089L34.4464 43.4086L34.1464 43.7083L33.8464 44.0081L33.5464 44.3078L33.2465 44.6075L32.9465 44.9072L32.6465 45.207L32.3465 45.5067L32.0466 45.8064L31.7466 46.1062L31.4466 46.4059L31.1467 46.7056L30.8467 47.0053L30.5467 47.3051L30.2467 47.6048L29.9468 47.9045L29.6468 48.2043L29.3468 48.504L29.0468 48.8037L28.7469 49.1034L28.4469 49.4032L28.0426 49.7029L27.6383 50.0026L27.234 50.3024L26.8297 50.6021L26.4253 50.9018L26.021 51.2015L25.6167 51.5013L25.2124 51.801L24.8081 52.1007L24.4038 52.2962L23.9995 52.4917L23.5952 52.6872L23.1909 52.8826L22.7865 53.0781L22.3822 53.2736L21.9779 53.4691L21.5736 53.6645L21.1693 53.86L20.765 53.9643L20.3607 54.0685L19.8651 54.1728L19.3695 54.277L19.1347 54.3422L18.6391 54.4464L18.1435 54.5507L18.3391 54.251H17.8435H17.3479H16.8523H16.3567H15.8611H15.3655H14.8699L14.3742 54.1467L13.8786 54.0425L13.383 53.9382L12.9787 53.8339L12.5744 53.7297L12.1701 53.6254L11.7658 53.5212L11.3615 53.3257L10.9572 53.1302L10.5529 52.9348L10.1485 52.7393L9.74423 52.5438L9.33992 52.3483L8.93561 52.1529L8.5313 51.8531L8.12698 51.5534L7.72267 51.2537L7.31836 50.9539L6.91405 50.6542L6.50974 50.3545L6.20977 50.0548L5.90979 49.755L5.60982 49.4553L5.30985 49.0513L5.00987 48.6473L4.7099 48.2434L4.40993 47.8394L4.10995 47.4354L3.80998 47.0314L3.51001 46.6274L3.21003 46.2234L2.91006 45.8195L2.71443 45.4155L2.51879 45.0115L2.32316 44.6075L2.12752 44.2035L1.93189 43.7995L1.73626 43.3956L1.54062 42.9916L1.34499 42.5876L1.14935 42.1836L0.953717 41.6884L0.758082 41.1932L0.562447 40.698L0.458109 40.2028L0.35377 39.7076L0.249431 39.2124L0.145092 38.7172L0.0407552 38.222L-0.0635837 37.7268L-0.167923 37.2316L-0.272261 36.8276L-0.3766 36.4236L-0.480937 36.0196L-0.585276 35.6156L-0.689615 35.2117L-0.793954 34.8077L-0.898293 34.4037L-1.00263 33.9997L-1.10697 33.5957V33.1917V32.7878V32.3838V31.9798V31.5758V31.1718V30.7679V30.3639V30.1032V29.7123V29.3083V29.0086L-1.21131 28.7088L-1.31565 28.4091L-1.41998 28.1094L-1.52432 27.8097L-1.62866 27.5099L-1.733 27.2102L-1.83734 26.9105L-1.94168 26.6107L-2.04601 26.311L-2.15035 26.0113L-2.25469 25.7116L-2.35903 25.4118L-2.46337 25.2164L-2.51554 25.0209L-2.71117 24.8254L-2.90681 24.6299L-3.10244 24.4344L-3.29808 24.239L-3.49371 24.0435L-3.68935 23.848L-3.88498 23.6525L-4.18495 23.4571L-4.48493 23.2616L-4.7849 23.0661L-5.08487 22.8706L-5.38485 22.6752L-5.68482 22.4797L-5.98479 22.2842L-6.28476 22.0887L-6.58474 21.8933L-6.98905 21.6978L-7.39336 21.5023L-7.79767 21.3068L-8.20198 21.1114L-8.60629 20.9159L-9.01061 20.7204L-9.41492 20.5249L-9.81923 20.3295L-10.2235 20.134L-10.6279 19.9385L-11.0322 19.743L-11.4365 19.4433L-11.8408 19.1436L-12.2451 18.8439L-12.6494 18.5441L-13.0537 18.2444L-13.458 17.9447L-13.8623 17.6449L-14.2667 17.3452L-14.671 17.0455L-15.0753 16.7458L-15.4796 16.446L-15.8839 16.1463L-16.2882 15.8466L-16.5882 15.4426L-16.8882 15.0386L-17.1881 14.6346L-17.4881 14.2306L-17.7881 13.8267L-18.0881 13.4227L-18.388 13.0187L-18.688 12.6147L-18.8836 12.2107L-19.0793 11.8067L-19.2749 11.4028L-19.4705 10.9988L-19.6662 10.5948L-19.8618 10.1908L-20.0574 9.78683L-20.1618 9.38284L-20.2661 8.97886L-20.3705 8.57488L-20.4748 8.1709L-20.5791 7.76692L-20.6835 7.36293V6.95895V6.55497V6.15098V5.747V5.34302V4.93904V4.53505L-20.5791 4.13107L-20.4748 3.72709L-20.3705 3.32311L-20.2661 2.91912L-20.1618 2.51514L-20.0574 2.11116L-19.9531 1.70718L-19.8488 1.30319L-19.7444 0.899212L-19.5488 0.49523L-19.3532 0.0912469L-19.1575 -0.312735L-18.9619 -0.716718L-18.7663 -1.1207L-18.5706 -1.52468L-18.375 -1.92867L-18.1793 -2.33265L-17.9837 -2.73663L-17.7881 -3.14061L-17.5924 -3.54459L-17.2925 -3.94858L-16.9925 -4.35256L-16.6925 -4.75654L-16.3926 -5.05627L-16.0926 -5.356L-15.7926 -5.65573L-15.4926 -5.95546L-15.1927 -6.25519L-14.8927 -6.55492L-14.5927 -6.85464L-14.2927 -7.15437L-13.9928 -7.4541L-13.6928 -7.75383L-13.2885 -8.05356L-12.8842 -8.35329L-12.4799 -8.65302L-12.0755 -8.84849L-11.6712 -9.04397L-11.2669 -9.23944L-10.8626 -9.43492L-10.4583 -9.6304L-10.054 -9.82587L-9.64968 -10.0213L-9.24537 -10.2168L-8.84106 -10.4123L-8.43675 -10.6078L-8.03243 -10.8032L-7.62812 -10.9987L-7.21077 -11.0769L-6.80646 -11.1812L-6.40215 -11.2854L-5.99783 -11.3897L-5.59352 -11.4939L-5.18921 -11.5982L-4.7849 -11.7024L-4.38059 -11.8067L-3.97628 -11.9109L-3.57196 -12.0152L-3.16765 -12.1194L-2.76334 -12.2237L-2.35903 -12.328L-1.95472 -12.4322L-1.55041 -12.5365L-1.1461 -12.6407H-0.741783H-0.337473H0.0668394H0.47115H0.875462H1.27977H1.68408H2.0884H2.49271H2.89702H3.30133H3.70564H4.10995H4.51426H4.91858H5.32289H5.7272H5.96196H6.26194H6.56191H6.86188H7.16185H7.46183H7.7618H8.06177H8.36175H8.66172H8.96169H9.26167H9.56164H9.86161H10.1616H10.4616H10.7615H11.0485H11.3484H11.6484H11.9484H12.2484H12.5483H12.8483H13.1483H13.4482H13.7482H14.0482H14.3482H14.6481H14.9481H15.2481H15.5481H15.848H16.148H16.448H16.7479H17.0479H17.3479H17.6479H17.9478H18.2478H18.5478H18.8478H19.1477H19.4477H19.7477H20.0477H20.3476H20.6476H20.9476H21.2475H21.5475H21.8475H22.1475H22.4474H22.7474H23.0474H23.3474H23.6473H23.9473H24.2473H24.5472H24.8472H25.1472H25.4472H25.7471H26.0471H26.3471H26.6471H26.947H27.247H27.547H27.847H28.1469H28.4469H28.7469H29.0468H29.3468H29.6468H29.9468H30.2467H30.5467H30.8467H31.1467H31.4466H31.7466H32.0466H32.3465H32.6465H32.9465H33.2465H33.5464H33.8464H34.1464H34.5507H34.955H35.3593H35.7636H36.1679H36.5723H36.9766H37.3809H37.7852H38.1895H38.5938H38.9981H39.4024H39.8067H40.2111H40.6154H41.0197H41.424H41.8283H42.2326H42.6369H43.0412H43.4456H43.9412H44.4368H44.9324H45.428H45.9236H46.4192L46.9148 -12.5365L47.4104 -12.4322L47.906 -12.328L48.4016 -12.2237L48.8972 -12.1194L49.3928 -12.0152L49.8884 -11.9109L50.3841 -11.8067L50.8797 -11.7024L51.3753 -11.5982L51.8709 -11.4939L52.3665 -11.3897L52.8621 -11.1942L53.3577 -10.9987L53.8533 -10.8032L54.3489 -10.6078L54.7532 -10.4123L55.1575 -10.2168L55.5619 -10.0213L55.9662 -9.82587L56.3705 -9.6304L56.7748 -9.43492L57.1791 -9.23944L57.5834 -8.93972L57.9877 -8.63999L58.392 -8.34026L58.7963 -8.04053L59.2007 -7.7408L59.605 -7.44107L60.0093 -7.14134L60.4136 -6.84161L60.7136 -6.54188L61.0135 -6.24216L61.3135 -5.94243L61.6135 -5.53844L61.9135 -5.13446L62.0439 -4.69138L62.3439 -4.2874L62.6438 -3.88342L62.9438 -3.47944L63.1394 -3.07545L63.3351 -2.67147L63.5307 -2.26749L63.7263 -1.86351L63.922 -1.45952L64.1176 -1.05554L64.3132 -0.651559L64.5089 -0.247577L64.6132 0.156405L64.7176 0.560389L64.8219 0.964371L64.9262 1.45957L65.0306 1.95478L65.1349 2.44998L65.2392 2.94519L65.3436 3.44039L65.4479 3.9356V4.4308V4.92601V5.42121V5.91641V6.41162V6.90682V7.40203V7.89723V8.39243V8.88764V9.38284V9.87805L65.3436 10.3733L65.2392 10.8685L65.1349 11.3637L65.0436 11.8589L64.9393 12.3541L64.8349 12.7581L64.7306 13.162L64.6263 13.566L63.3481 10.8685Z" fill="#EB5C2C"/>
<path fill-rule="evenodd" clip-rule="evenodd" d="M30.7164 25.2164V25.3206V25.4249V25.5291V25.6334V25.7376V25.8419V25.9461V26.1416V26.3371V26.5326V26.728V26.9235V27.119V27.3145V27.5099V27.7054V27.9009V28.0964L30.8207 28.2918H31.3163L31.4207 28.4873L31.525 28.6828L31.6294 28.8783L31.7337 29.0737L31.838 29.2692L31.9424 29.4647L32.0467 29.6602L32.151 29.8556L32.2554 30.0511L32.3597 30.2466L32.4641 30.4421L32.5684 30.6375L32.6727 30.833L32.7771 31.0285L32.8814 31.224L32.9858 31.4194L33.0901 31.6149L33.1944 31.8104L33.2988 32.0059L33.4031 32.2013L33.5074 32.3968L33.6118 32.5923L33.7161 32.7878L33.8205 32.9833L33.9248 33.1787L34.0291 33.3742L34.1335 33.5697L34.2378 33.8694L34.3422 34.1691L34.4465 34.4689L34.5508 34.7686L34.6552 35.0683V35.368V35.6678V35.9675V36.2672V36.567V36.8667V37.1664V37.4662V37.7659V38.0656V38.3653V38.6651V38.9648V39.2645V39.5643V39.864V40.1637L34.5508 40.4634L34.4465 40.6589L34.3422 40.8544L34.2378 41.0499L34.1335 41.2453L34.0291 41.4408L33.9248 41.6363L33.8205 41.8318L33.7161 42.0272L33.6118 42.2227L33.5074 42.4182L33.4031 42.6137L33.2075 42.8091L33.0118 43.0046L32.8162 43.2001L32.6206 43.3956L32.4249 43.4998L32.2293 43.6041L32.0337 43.7083L31.838 43.8126L31.6424 43.9168L31.4468 44.0211L31.2511 44.1253L31.0555 44.2296L30.8599 44.3339L30.6642 44.4381L30.4686 44.5424H30.1686H29.8686H29.5687H29.2687H28.9687H28.6687H28.3688H28.0688H27.6123H27.3123H27.0124L26.7124 44.4381L26.4124 44.3339L26.1125 44.2296L25.8125 44.1253L25.5125 44.0211L25.2125 43.9168L24.9126 43.8126L24.6126 43.7083L24.3126 43.6041L24.0126 43.4998L23.7127 43.3956L23.4127 43.2913L23.2171 43.1871L23.0214 43.0828L22.8258 42.9786L22.6302 42.8743L22.4345 42.7701L22.2389 42.6658L22.0433 42.5615L21.8476 42.4573L21.652 42.353L21.4564 42.2488L21.2607 42.1445L21.0651 42.0403L20.8694 41.936L20.6738 41.8318L20.4782 41.7275L20.2825 41.6233L20.0869 41.519L19.8913 41.4148L19.6956 41.3105L19.5 41.2063L19.3044 41.102L19.1087 40.9977L18.9131 40.8935L18.7175 40.7892L18.5218 40.685L18.3262 40.5807L18.1306 40.4765L17.9349 40.3722L17.7393 40.268L17.5437 40.1637H17.348H17.1524H16.9568H16.8524H16.7481H16.6437H16.5394H16.4351H16.3307H16.1351H16.0307H15.9264H15.8221H15.6264H15.4308H15.2352L15.0395 40.268L14.8439 40.3722L14.3483 39.9682L14.1527 40.0725L13.957 40.1767L13.7614 40.281L13.5658 40.3853L13.3701 40.4895L13.1745 40.5938L12.9789 40.698L12.7832 40.8023L12.5876 40.9065L12.3919 41.0108L12.1963 41.115L12.0007 41.2193L11.805 41.3235L11.6094 41.4278L11.4138 41.532L11.2181 41.6363L11.0225 41.7405L10.8269 41.8448L10.6312 41.9491L10.4356 42.0533L10.24 42.1576L10.0443 42.2618L9.8487 42.3661L9.65306 42.4703L9.45743 42.5746L9.26179 42.6788L9.06616 42.7831L8.76618 42.8873L8.46621 43.0828L8.16624 43.1871L7.86627 43.2913L7.56629 43.3956L7.26632 43.4998L6.96635 43.6041L6.66637 43.7083L6.3664 43.8126L6.06643 43.9168L5.76645 44.0211L5.46648 44.1253H5.16651H4.86653H4.56656H4.26659H3.96661H3.66664H3.36667H3.0667H2.76672H2.37545H2.07548H1.8668L1.67117 44.0211L1.47553 43.9168L1.26686 43.969L1.07122 43.8647L0.875587 43.7605L0.679952 43.6562L0.484318 43.552L0.288683 43.4477L0.0930483 43.3434L-0.102586 43.2392L-0.298221 43.0437L-0.493856 42.8482L-0.68949 42.6528L-0.885125 42.4573L-0.989463 42.2618L-1.0938 42.0663L-1.19814 41.8709L-1.30248 41.6754L-1.40682 41.4799L-1.51116 41.2844L-1.61549 41.089L-1.71983 40.8935L-1.82417 40.698L-1.92851 40.5025L-2.03285 40.3071L-2.13719 40.0073V39.7076V39.4079V39.1081V38.8084V38.5087V38.1829V37.8832V37.5834V37.2837V36.984V36.6842V36.3845V36.0848V35.7851V35.4853V35.1856V34.8859L-2.03285 34.5861L-1.92851 34.2864L-1.82417 33.9867L-1.71983 33.687L-1.61549 33.3872L-1.51116 33.1918L-1.40682 32.9963L-1.30248 32.8008L-1.19814 32.6053L-1.0938 32.4099L-0.989463 32.2144L-0.885125 32.0189L-0.780786 31.8234L-0.676448 31.628L-0.57211 31.4325L-0.467771 31.237L-0.363433 31.0415L-0.259094 30.8461L-0.154756 30.6506L-0.0504172 30.4551L0.0539212 30.2596L0.15826 30.0642L0.262598 29.8687L0.366937 29.6732L0.471275 29.4777L0.575614 29.2822L0.679952 29.0868L0.784291 28.8913L0.888629 28.6958L0.875587 28.4091L0.979925 28.2137L1.08426 28.0182L1.1886 27.8227L1.29294 27.6272V27.4317V27.2363V27.0408V26.8453V26.6498V26.4544V26.2589V26.0634V25.8679V25.6725V25.477V25.3727V25.2685V25.1642V25.0209V24.9166V24.8124V24.7081V24.6039V24.4996V24.3954V24.2911V24.1869V24.0826V23.9784V23.7829V23.5874V23.3919V23.1964V23.001V22.8055V22.61V22.4145V22.2191V22.0236V21.8281L1.17556 21.6326L1.07122 21.4372L0.966883 21.2417L0.862545 21.0462L0.758206 20.8507L0.653868 20.6553L0.549529 20.4598L0.44519 20.2643L0.340852 20.0688L0.236514 19.8734L0.132175 19.6779L0.0278367 19.4824L-0.0765019 19.2869L-0.18084 19.0915L-0.285179 18.896L-0.389517 18.7005L-0.493856 18.505L-0.598194 18.3096L-0.702533 18.1141L-0.806871 17.9186L-0.91121 17.7231L-1.01555 17.5277L-1.11989 17.3322L-1.22423 17.1367L-1.32856 16.9412L-1.4329 16.7458L-1.53724 16.5503L-1.64158 16.3548L-1.74592 16.1593L-1.85026 15.8596L-1.95459 15.5599L-2.05893 15.2602L-2.16327 14.9604L-2.26761 14.6607L-2.37195 14.361V14.0612V13.7615V13.4618V13.162V12.8623V12.5626V12.2629V11.8589V11.5591V11.2594V10.9597V10.66V10.3602V10.0605V9.76078V9.46105L-2.26761 9.16132L-2.16327 8.96584L-2.05893 8.77037L-1.95459 8.57489L-1.85026 8.37942L-1.74592 8.18394L-1.64158 7.98847L-1.53724 7.79299L-1.4329 7.59752L-1.32856 7.40204L-1.22423 7.20656L-1.11989 7.01109L-0.819913 6.77652L-0.624279 6.58104L-0.428644 6.38557L-0.233009 6.19009L-0.0373748 6.08584L0.15826 5.98159L0.353894 5.87733L0.549529 5.77308L0.745164 5.66883L0.940798 5.56457L1.17556 5.47335L1.37119 5.3691L1.56683 5.26484L1.76246 5.16059L1.97114 5.0824H2.27111H2.57109H2.87106H3.17103H3.47101H3.77098H4.07095H4.37093H4.6709H4.97087H5.27085L5.57082 5.18665L5.87079 5.29091L6.17076 5.39516L6.47074 5.49941L6.77071 5.60367L7.07068 5.70792L7.37066 5.81217L7.67063 5.91643L7.9706 6.02068L8.27058 6.12493L8.57055 6.22919L8.87052 6.33344L9.1705 6.4377L9.36613 6.54195L9.56177 6.6462L9.7574 6.75046L9.95303 6.85471L10.1487 6.95896L10.3443 7.06322L10.5399 7.16747L10.7356 7.27172L10.9312 7.37598L11.1268 7.48023L11.3225 7.58448L11.5181 7.68874L11.7137 7.79299L11.9094 7.89724L12.105 8.0015L12.3007 8.10575L12.4963 8.21C13.3049 8.61399 14.0874 9.16132 14.9874 9.34376C15.4308 9.43498 15.8873 9.43498 16.3438 9.43498C16.5916 9.43498 16.8394 9.43498 17.0872 9.36983C17.2828 9.3177 17.4654 9.22648 17.648 9.13525C18.4566 8.73127 19.2652 8.32729 20.0869 7.91028L20.2825 7.80602L20.4782 7.70177L20.6738 7.59752L20.8694 7.49326L21.0651 7.38901L21.2607 7.28475L21.4564 7.1805L21.652 7.07625L21.8476 6.97199L22.1346 6.77652L22.3302 6.67227L22.5258 6.56801L22.7215 6.46376L22.9171 6.3595L23.1127 6.25525L23.4127 6.151L23.7127 6.04674L24.0126 5.94249L24.3126 5.83824L24.6126 5.73398L24.9126 5.62973L25.2125 5.52548L25.5256 5.47335L25.8255 5.3691L26.1255 5.26484L26.4255 5.16059L26.7254 5.05634H27.0254H27.3254H27.6254H27.9253H28.2253H28.5253H28.8253H29.1252H29.4252H29.7252H30.0251H30.2208L30.4164 5.16059L30.6121 5.26484L30.8077 5.3691L31.0033 5.47335L31.199 5.5776L31.3946 5.68186L31.5902 5.78611L31.7859 5.89036L31.9815 5.99462L32.1771 6.09887L32.3728 6.29435L32.5684 6.48982L32.764 6.6853L32.9597 6.88077L33.1553 7.07625L33.2596 7.27172L33.364 7.4672L33.4683 7.66267L33.5727 7.85815L33.677 8.05362L33.7813 8.2491L33.8857 8.44458L33.99 8.64005L34.0944 8.83553L34.1987 9.031L34.303 9.33073V9.63046V9.93019V10.2299V10.5296V10.8294V11.1291V11.4288V11.7286V12.0283V12.328V12.6277V12.9275V13.2272V13.5269V13.8267V14.1264V14.4261L34.1987 14.7259L34.0944 15.0256L33.99 15.3253L33.8857 15.625L33.7813 15.9248L33.677 16.1202L33.5727 16.3157L33.4683 16.5112L33.364 16.7067L33.2596 16.9021L33.1553 17.0976L33.051 17.2931L32.9466 17.4886L32.8423 17.684L32.738 17.8795L32.6336 18.075L32.5293 18.2705L32.4249 18.4659L32.3206 18.6614L32.2163 18.8569L32.1119 19.0524L32.0076 19.2478L31.9032 19.4433L31.7989 19.6388L31.6946 19.8343L31.5902 20.0297L31.4859 20.2252L31.3815 20.4207L31.2772 20.6162L31.1729 20.8116L31.0685 21.0071L30.9642 21.2026L30.8599 21.3981L30.7555 21.5936V21.789V21.9845V22.18V22.3755V22.5709V22.7664V22.9619V23.1574V23.3528V23.5483V23.7438V23.848V23.9523V24.0565V24.1608V24.265V24.3693L30.7164 25.2164Z" fill="#F193B7"/>
<path fill-rule="evenodd" clip-rule="evenodd" d="M66.3349 35.5896L66.4392 35.8893L66.5436 36.189L66.6479 36.4888L66.7522 36.7885L66.8566 37.0882L67.0522 37.3879L67.2478 37.6877L67.4435 37.9874L67.6391 38.2871L67.8347 38.5869L68.0304 38.8866L68.226 39.1863L68.4217 39.486L68.6173 39.7858L68.8129 40.0855L69.0086 40.4895L69.2042 40.8935L69.3998 41.2975L69.5955 41.7014L69.7911 42.1054L70.1954 42.3009L70.391 42.7049L70.5867 43.1089L70.7823 43.5128L70.9779 43.9168L71.0823 44.3208L71.1866 44.7248L71.291 45.1288L71.3953 45.5328L71.4996 45.9367V46.3407V46.7447V47.1487V47.5527L71.3953 47.9566L71.291 48.3606L71.1866 48.7646L71.0823 49.0643L70.8866 49.3641L70.691 49.6638L70.4954 49.9635L70.2997 50.2633L69.9998 50.563L69.6998 50.7585L69.3998 50.9539L69.0998 51.1494L68.7999 51.3449L68.3956 51.5404L67.9913 51.7358L67.5869 51.8401L67.1826 51.9443L66.7783 52.0486L66.374 52.1529L65.9697 52.2571L65.5654 52.3614L65.1611 52.4656H64.7568H64.3525H63.9481H63.5438H63.1395H62.7352H62.3309H62.044H61.6527H61.2484H60.8441H60.4398H60.1398H59.8398H59.5398H59.2399L58.9399 52.5699L58.6399 52.6741L58.3399 52.7784L58.04 52.8826L57.74 52.9869L57.44 53.0911L57.2444 53.1954L57.0488 53.2996L56.8531 53.4039L56.6575 53.5994L56.4619 53.7948L56.2662 53.9903L56.0706 54.1858L55.8749 54.3813L55.6793 54.5767L55.4837 54.7722L55.288 54.9677L55.0924 55.2674L54.8968 55.5672L54.7011 55.8669L54.5055 56.1666L54.3099 56.4663L54.1142 56.7661L53.9186 57.0658L53.723 57.3655L53.5273 57.6653L53.3317 57.965L53.1361 58.2647L52.9404 58.5644L52.6405 58.8642L52.3405 59.1639L52.0405 59.4636L51.7405 59.7634L51.4406 60.0631L51.1406 60.3628L50.8406 60.6625L50.5406 60.858L50.2407 61.0535L49.9407 61.249L49.6407 61.4444L49.3408 61.6399L49.0408 61.8354L48.7408 62.0309L48.4408 62.2263L48.1409 62.4218L47.8409 62.5261L47.4366 62.6303L47.0323 62.7346L46.6279 62.8388L46.2236 62.9431L45.8193 63.0473L45.415 63.1516L45.0107 63.2559H44.6064H44.2021H43.7847H43.3804H42.9761H42.5718H42.1675H41.7632L41.3589 63.1516L40.9545 63.0473L40.5502 62.9431L40.1459 62.8388L39.7416 62.7346L39.3373 62.6303L39.0373 62.5261L38.7373 62.4218L38.4374 62.3176L38.1374 62.2133L37.8374 62.1091L37.5375 62.0048L37.2375 61.9006L36.9375 61.7051L36.6375 61.5096L36.3376 61.3141L36.0376 61.1187L35.7376 60.9232L35.4376 60.7277L35.1377 60.5322L34.8377 60.3368L34.5377 60.1413L34.2378 59.9458L33.9378 59.7503L33.6378 59.5549L33.3378 59.4506L33.0379 59.3463L32.7379 59.2421L32.4379 59.1378L32.1379 59.0336L31.838 58.9293L31.4337 58.8251L31.0293 58.7208L30.625 58.6166L30.2207 58.5123L29.8164 58.4081L29.4121 58.3038L29.0078 58.1996L28.6035 58.0953L28.1992 57.991L27.7948 57.8868L27.3905 57.7825L26.9862 57.6783L26.1906 57.2743L25.7863 57.0788L25.382 56.8834L24.9777 56.6879L24.5734 56.4924L24.1691 56.2969L23.7648 56.1015L23.3605 55.906L22.9562 55.7105L22.5518 55.515L22.1475 55.3196L21.7432 55.1241L21.3389 54.9286L20.9346 54.7331L20.8303 54.3422L20.5303 54.0424L20.2303 53.7427L19.9303 53.443L19.6304 53.1433L19.3304 52.8435L19.0304 52.5438L18.7304 52.2441L18.4305 51.9443L18.1305 51.6446L17.8305 51.3449L17.6349 50.9409L17.4393 50.5369L17.2436 50.1329L17.048 49.729L16.8524 49.325L16.6567 48.921L16.4611 48.517L16.3567 48.113L16.2524 47.709L16.1481 47.3051L16.0437 46.9011L15.9394 46.4971L15.8351 46.0931L15.7307 45.6891V45.2851V44.9594V44.5684V44.1644V43.7604V43.3565V42.9525V42.5485L15.8351 42.1445L15.9394 41.7405L16.0437 41.3365L16.1481 40.9326L16.2524 40.5286L16.3567 40.1246L16.4611 39.7206L16.5654 39.3166L16.6698 38.9127L16.7741 38.5087L16.9697 38.1047L17.1654 37.7007L17.361 37.2967L17.5566 36.8927L17.7523 36.4888L17.9479 36.0848L18.1435 35.6808L18.3392 35.2768L18.5348 34.8728L18.7304 34.4688L18.9261 34.1691L19.1217 33.8694L19.3173 33.5697L19.6173 33.2699L19.9173 32.9702L20.2173 32.6705L20.5172 32.3707L20.8172 32.071L21.1172 31.7713L21.4172 31.4716L21.7171 31.1718L22.0171 30.8721L22.3171 30.5724L22.6171 30.2726L22.917 29.9729L23.217 29.7774L23.517 29.582L23.8169 29.3865L24.1169 29.191L24.4169 28.9955L24.7169 28.8001L25.0168 28.6046L25.3168 28.4091L25.6168 28.2136L25.9168 28.0182L26.2167 27.8227L26.5167 27.6272L26.8167 27.4317L27.0123 27.2363L27.2079 27.0408L27.4036 26.8453L27.5992 26.6498L27.7948 26.4544L27.9905 26.2589L28.1861 26.0634L28.3818 25.8679L28.5774 25.6725L28.6817 25.477L28.7861 25.2815L28.8904 25.086L28.9947 24.7863L29.0991 24.4866L29.2034 24.1868L29.3078 23.8871L29.4121 23.5874V23.3267V23.027V22.7273V22.4276V22.0236V21.6326V21.2286V20.8247V20.4207V20.0167V19.6127V19.2087V18.8047V18.4008V17.9968V17.5928L29.5164 17.1888L29.6208 16.7848L29.7251 16.3809L29.8295 15.9769L29.9338 15.5729L30.0381 15.1689L30.1425 14.7649L30.3381 14.3609L30.5337 13.957L30.7294 13.6572L30.925 13.3575L31.1206 13.0578L31.3163 12.758L31.6162 12.4583L31.9162 12.2628L32.2162 12.0674L32.5162 11.8719L32.8161 11.6764L33.1161 11.5722L33.5204 11.4679L33.9247 11.3637L34.329 11.2594H34.7334H35.1377H35.542H35.9463L36.3506 11.3637L36.7549 11.4679L37.1592 11.5722L37.5635 11.6764L37.9679 11.7807L38.3722 11.9761L38.7765 12.1716L39.1808 12.3671L39.5851 12.5626L39.9894 12.758L40.3937 12.9535L40.798 13.149L41.2023 13.3445L41.6067 13.5399L42.011 13.7354L42.3109 13.9309L42.6109 14.1264L42.9109 14.3218L43.2109 14.5173L43.5108 14.7128L43.8108 14.9083L44.1108 15.0125L44.4108 15.1168L44.7107 15.221L45.0107 15.3253L45.3107 15.4295H45.6106H45.9106H46.2106H46.5106H46.8105L47.1105 15.3253L47.4105 15.221L47.7105 15.1168L48.0104 15.0125L48.3104 14.9083L48.6104 14.7128L48.9104 14.5173L49.2103 14.3218L49.5103 14.1264L49.8103 13.9309L50.1102 13.7354L50.4102 13.4357L50.8145 13.136L51.2188 12.8362L51.6232 12.5365L52.0275 12.2368L52.4318 11.937L52.8361 11.6373L53.2404 11.3376L53.6447 11.0379L54.049 10.7381L54.4533 10.5427L54.8576 10.3472L55.3533 10.1517L55.8489 9.95623L56.3445 9.76075L56.8401 9.56528L57.3357 9.3698L57.8313 9.26555L58.3269 9.1613L58.8225 9.05704L59.3181 8.95279H59.8137H60.3093H60.7136H61.118H61.5223L61.9266 9.05704L62.3309 9.1613L62.7352 9.26555L63.1395 9.3698L63.5438 9.56528L63.9481 9.76075L64.3525 9.95623L64.6524 10.1517L64.9524 10.3472L65.2524 10.6469L65.5523 10.9466L65.8523 11.2464L66.1523 11.5461L66.4523 11.8458L66.7522 12.1456L66.9479 12.4453L67.1435 12.8493L67.3391 13.2532L67.5348 13.6572L67.7304 14.0612L67.926 14.4652L68.1217 14.8692L68.3173 15.2732L68.5129 15.6771L68.7086 16.0811L68.8129 16.4851L68.9173 16.8891L69.0216 17.2931L69.1259 17.6971L69.2303 18.101L69.3346 18.505L69.439 18.909L69.5433 19.313L69.6476 19.717L69.752 20.1209L69.8563 20.5249V20.9289V21.3329V21.7369V22.1409V22.5448V22.9488V23.3528V23.7568V24.1608L69.752 24.5648L69.6476 24.9687L69.5433 25.3727L69.439 25.7767L69.3346 26.1807L69.2303 26.5847L69.1259 26.9887L69.0216 27.3926L68.9173 27.7966L68.8129 28.2006L68.7086 28.6046L68.6042 29.0086L68.4999 29.4125L68.3956 29.8165L68.2912 30.1163L68.1869 30.416L68.0825 30.7157L67.9782 31.0154L67.8739 31.3152L67.7695 31.6149L67.6652 31.9146L67.5609 32.2144L67.4565 32.5141L67.3522 32.8138L67.2478 33.1135L67.1435 33.4133L67.0392 33.713L66.9348 34.0127V34.3125V34.6122V34.9119V35.2117V35.5114V35.8111V36.1108L66.3349 35.4071V35.5896Z" fill="#89C8A5"/>
<path fill-rule="evenodd" clip-rule="evenodd" d="M11.8441 33.7912C11.7919 36.5148 11.7006 39.056 10.7094 41.6363C9.74428 44.1384 8.21833 46.4059 6.39241 48.3606C2.28408 52.7784 -3.40237 55.7236 -9.38878 56.4924C-15.3752 57.2613 -21.6355 55.8278 -26.6698 52.4917C-30.7651 49.7811 -34.0387 45.8064 -35.7212 41.1932C-37.4819 36.3454 -37.4297 30.9764 -36.3212 25.9461C-35.3691 21.6196 -33.5823 17.3452 -30.426 14.2437C-26.3568 10.256 -20.5269 8.65308 -14.8796 7.84511C-9.87135 7.1414 -4.62834 6.97199 0.106016 8.71824C4.21434 10.2429 7.77489 13.1881 10.0834 16.9152C12.9788 21.5545 14.7656 28.761 11.8441 33.7912Z" fill="#66529D"/>
<path fill-rule="evenodd" clip-rule="evenodd" d="M39.0895 55.6323L39.2851 56.0363L39.4808 56.4403L39.6764 56.8443L39.872 57.2482L40.0677 57.6522L40.172 58.0562L40.2763 58.4602L40.3807 58.9554L40.485 59.4506L40.5893 59.9458L40.6937 60.441L40.798 60.9362L40.9024 61.4314L41.0067 61.9266V62.4218V62.917V63.4122V63.9074V64.4026V64.8978V65.393L40.9024 65.8882L40.798 66.3834L40.6937 66.8787L40.5893 67.3739L40.485 67.8691L40.3807 68.3643L40.2763 68.7683L40.0807 69.1722L39.8851 69.5762L39.6894 69.9802L39.4938 70.3842L39.2982 70.7882L39.1025 71.1921L38.9069 71.5961L38.6069 72.0001L38.3069 72.4041L38.007 72.8081L37.707 73.2121L37.407 73.616L37.107 73.9158L36.8071 74.2155L36.5071 74.5152L36.1028 74.815L35.6985 75.1147L35.2942 75.4144L34.8899 75.7141L34.4855 76.0139L34.0812 76.3136L33.6769 76.5091L33.2726 76.7045L32.8683 76.9L32.464 77.0955L32.0597 77.291L31.6554 77.4865L31.1598 77.6819L30.6642 77.7862L30.1685 77.8904L29.6729 77.9947L29.1773 78.0989L28.6817 78.2032L28.1861 78.3075L27.6905 78.4117L27.1949 78.516H26.6993H26.2037H25.7081H25.2125H24.7169H24.2212H23.7256H23.23H22.7344H22.2388L21.8345 78.4117L21.4302 78.3075L21.0259 78.2032L20.6216 78.0989L20.2173 77.9947L19.813 77.8904L19.4086 77.7862L19.0043 77.6819L18.6 77.5777L18.1957 77.4734L17.7914 77.3692L17.3871 77.2649L16.9828 77.1607L16.5785 77.0564L16.1741 76.9522L15.7698 76.8479L15.3655 76.7437L14.9612 76.6394L14.6612 76.5351L14.3613 76.4309L14.0613 76.3266L13.7613 76.2224L13.4613 76.1181L13.1614 76.0139L12.8614 75.9096L12.5614 75.8054L12.2615 75.7011V75.1017L11.9615 74.9974L11.6615 74.8931L11.3615 74.7889L11.0616 74.6846L10.7616 74.5804L10.4616 74.4761L10.266 74.0722L9.96601 73.9679L9.66604 73.8636L9.36606 73.7594L9.06609 73.6551L8.76612 73.5509L8.57048 73.4466L8.37485 73.3424L8.17921 73.2381L7.98358 73.1339L7.78794 73.0296L7.59231 72.9254L7.39667 72.8211L7.20104 72.7169L7.0054 72.6126L6.80977 72.5084L6.61414 72.4041L6.4185 72.2998L6.22287 72.1956L6.02723 72.0913L5.8316 71.9871L5.63596 71.8828L5.44033 71.7786L5.24469 71.6743L5.04906 71.5701H4.85342H4.65779H4.35782H4.05784H3.75787H3.4579H3.15792H2.85795H2.57102H2.27105H1.97107H1.6711H1.37113H1.07115H0.771181H0.471209H0.171235H-0.128737H-0.428711H-0.728684L-1.02866 71.4658L-1.32863 71.3616L-1.6286 71.2573L-1.92858 71.1531L-2.22855 71.0488L-2.52852 70.9445L-2.8285 70.8403L-3.12847 70.736L-3.42844 70.6318L-3.72842 70.5275L-4.02839 70.4233L-4.32836 70.319L-4.62833 70.2148L-4.92831 70.1105L-5.22828 70.0063L-5.52825 69.902L-5.82823 69.7978L-6.1282 69.6935L-6.42817 69.5892L-6.72815 69.485L-7.02812 69.3807L-7.32809 69.1853L-7.62806 68.9898L-7.92804 68.7943L-8.22801 68.5988L-8.52798 68.4034L-8.82796 68.2079L-9.12793 68.0124L-9.4279 67.8169L-9.72788 67.6215L-10.0278 67.426L-10.3278 67.2305L-10.6278 67.035L-10.9278 66.8396L-11.2277 66.6441L-11.5277 66.3444L-11.8277 66.0446L-12.1277 65.7449L-12.4276 65.4452L-12.7276 65.1454L-13.0276 64.8457L-13.3276 64.546L-13.6275 64.2463L-13.8232 63.9465L-14.0188 63.6468L-14.2144 63.3471L-14.4101 63.0473L-14.6057 62.7476L-14.8013 62.3436L-14.997 61.9396L-15.1926 61.5357L-15.2969 61.1317L-15.4013 60.7277L-15.5056 60.3237L-15.61 59.9197L-15.7143 59.5158L-15.8186 59.1118L-15.923 58.7078V58.3038V57.8998V57.4958V57.0919V56.6879V56.2839V55.8799L-15.8186 55.4759L-15.7143 55.0719L-15.61 54.668L-15.5056 54.264L-15.4013 53.86L-15.2969 53.456L-15.1926 53.052L-15.0883 52.648L-14.8926 52.2441L-14.697 51.8401L-14.5014 51.4361L-14.3057 51.0321L-14.1101 50.7324L-13.9145 50.4327L-13.7188 50.1329L-13.5232 49.8332L-13.3276 49.5335L-13.1319 49.2337L-12.8319 48.934L-12.532 48.6343L-12.232 48.3346L-11.932 48.0348L-11.6321 47.7351L-11.3321 47.4354L-11.0321 47.1356L-10.7321 46.8359L-10.4322 46.6404L-10.1322 46.445L-9.83222 46.2495L-9.53224 46.054L-9.23227 45.8585L-8.9323 45.6631L-8.63232 45.4676L-8.22801 45.2721L-7.8237 45.0766L-7.41939 44.8812L-7.01508 44.6857L-6.61077 44.5814L-6.20645 44.4772L-5.80214 44.3729L-5.39783 44.2687L-4.99352 44.1644L-4.58921 44.0602L-4.1849 43.9559L-3.78058 43.8517L-3.48061 43.7474L-3.18064 43.6431L-2.88067 43.5389L-2.58069 43.4346L-2.28072 43.3304L-1.98075 43.2261L-1.68077 43.1219L-1.3808 43.0176L-1.08083 42.9134L-0.780853 42.8091L-0.48088 42.7049L-0.180907 42.6006L0.119066 42.4964L0.419039 42.3921L0.719013 42.2879L1.01899 42.1836L1.31896 42.0793L1.61893 41.9751L1.81457 41.8708L2.0102 41.7666L2.20584 41.6623L2.40147 41.5581L2.5971 41.4538L2.79274 41.3496L2.98837 41.2453L3.18401 41.1411L3.37964 41.0368L3.57528 40.9326L3.77091 40.8283L3.96655 40.7241L4.16218 40.6198L4.35782 40.5155L4.55345 40.4113L4.74909 40.307L4.94472 40.2028L5.14035 40.0073L5.33599 39.8118L5.53162 39.6164L5.72726 39.4209L5.92289 39.2254C5.92289 39.2254 6.10549 39.043 6.11853 39.0299C7.72273 37.427 9.17043 36.1499 11.5572 35.9675C16.2524 35.6156 19.9303 39.0039 24.1821 40.3201L24.4821 40.4243L24.7821 40.5286L25.082 40.6328L25.382 40.7371L25.682 40.8413L25.982 40.9456L26.2819 41.0498L26.5819 41.1541L26.8819 41.2584L27.1819 41.3626L27.4818 41.4669L27.7818 41.5711L28.0818 41.6754L28.3817 41.8708L28.6817 42.0663L28.9817 42.2618L29.2817 42.4573L28.2774 43.7474L28.5774 43.9429L28.8774 44.1384L29.1773 44.3338L29.4773 44.5293L29.7773 44.7248L30.0772 44.9203L30.3772 45.1157L30.6772 45.3112L30.9772 45.5067L31.2771 45.7022L31.5771 45.8976L31.8771 46.0931L32.1771 46.2886L32.477 46.5883L32.777 46.888L33.077 47.1878L33.377 47.4875L33.6769 47.7872L33.9769 48.087L34.2769 48.3867L34.5768 48.6864L34.8768 48.9861L35.1768 49.2859L35.4768 49.5856L35.7767 49.8853L36.0767 50.1851L36.3767 50.4848L36.6767 50.7845L36.9766 51.1885L37.2766 51.5925L37.4722 51.9965L37.6679 52.4004L37.8635 52.8044L38.0591 53.2084L38.2548 53.6124L38.4504 54.0164L38.646 54.4204L38.8417 54.8243L39.0895 55.6323Z" fill="#287F42"/>
</g>
<path d="M15.3003 56.6748H3.75786C3.01444 56.6748 2.38841 56.4272 1.89281 55.919C1.3972 55.4238 1.13635 54.7983 1.13635 54.0555V2.71059C1.13635 1.94172 1.41024 1.22498 1.89281 0.755838C2.38841 0.247602 3.01444 0 3.75786 0H26.3732C33.4421 0 39.0634 1.64199 43.0804 4.88688C47.1366 8.06662 49.1973 12.8492 49.1973 19.0784C49.1973 25.3727 47.0974 30.1162 42.9761 33.1917C38.9721 36.2411 33.3509 37.7919 26.2819 37.7919H23.843V37.1273C23.843 34.2864 23.7517 30.7678 23.7517 30.7287V30.6766V30.6375C23.8561 29.7123 24.2473 28.8391 24.9255 28.0442C26.4384 26.4413 27.9774 24.7993 29.9077 23.5483C30.2337 23.3007 30.5728 23.04 30.9119 22.7012C30.9641 22.6491 31.0163 22.61 31.0815 22.5579C31.1076 22.5318 31.1597 22.5057 31.1728 22.4797L31.1989 22.4406C31.1858 22.4406 31.1728 22.4406 31.1728 22.4406C30.2729 22.597 29.399 22.8836 28.4861 23.1964L28.0687 23.3398C27.3383 23.5483 26.8297 23.7307 26.2558 23.9653C25.9167 24.1347 25.3559 24.1217 25.0299 23.4701L24.9777 23.3137C24.4299 20.8246 23.7778 18.3095 23.0344 15.8205L22.8648 15.2471C22.5518 14.2306 22.2388 13.175 21.8475 12.2628C21.7954 12.1064 21.7041 11.9501 21.6128 11.7937C21.5606 11.8849 21.5476 11.9761 21.5476 12.0152C21.4563 13.0056 21.6389 13.9569 21.8215 14.9604C22.1084 16.3678 22.3823 17.8664 22.4866 19.4042V20.0949C22.4866 20.4337 22.3692 20.6943 22.1475 20.8507C21.8084 21.0983 21.4171 20.968 21.2345 20.9028L21.078 20.8246C20.6085 20.5119 20.4651 20.0688 20.3477 19.743C19.7869 17.8795 19.1217 15.9899 18.4826 14.1654C18.3913 13.9439 18.3131 13.6963 18.2348 13.4357C18.1696 13.2272 18.1044 13.0056 18.0261 12.7971C17.9348 12.5104 17.674 12.341 17.4523 12.3671C17.3479 12.3931 17.3088 12.4062 17.2958 12.4192C17.2958 12.4192 17.2827 12.4453 17.2697 12.5235C17.2827 12.6929 17.3349 12.9405 17.4132 13.175C17.8696 14.8431 18.3652 16.3939 18.9 18.0489L19.3043 19.2999C19.3304 19.4433 19.3695 19.5866 19.4086 19.7169C19.4999 20.0036 19.5912 20.3425 19.5912 20.7334C19.5912 20.8768 19.5912 21.1895 19.3043 21.4893L19.1087 21.6847H18.8348C18.4565 21.6847 18.1305 21.4241 18.0261 21.0853C17.674 20.5249 17.2958 19.9776 16.9306 19.4303C16.5393 18.8569 16.135 18.2574 15.7568 17.6449C15.0916 16.5633 14.3091 15.4947 13.3048 14.2827C13.3048 14.2827 13.2787 14.2567 13.2396 14.2176H13.2266C13.1744 14.2045 13.1353 14.1915 13.1353 14.1915C13.1353 14.1915 13.1092 14.2045 13.0831 14.2306C13.2918 14.9864 13.67 15.6771 13.9309 16.1463C14.296 16.8239 14.7395 17.4625 15.222 18.1271C15.5742 18.6223 15.9263 19.1305 16.2524 19.6518C16.5132 20.0949 16.7871 20.5379 17.0349 20.8768C17.3871 21.2677 17.4132 21.8151 17.0871 22.1539C16.761 22.4797 16.2133 22.4536 15.822 22.1017C15.4959 21.8672 15.1829 21.6196 14.8569 21.372C14.5438 21.1244 14.2178 20.8768 13.9048 20.6422C13.4092 20.2903 12.9005 19.9255 12.3919 19.5215C12.5353 19.7039 12.6788 19.8733 12.8092 20.0036C13.8265 21.0201 14.8047 22.2581 15.6003 23.5613C15.7959 23.861 16.0176 24.1738 16.2263 24.4865C16.761 25.2684 17.2566 25.9982 17.7262 26.7932C18.1566 27.3535 18.3261 28.0442 18.2087 28.8L17.9348 54.0555C17.9348 54.7852 17.687 55.4108 17.1784 55.919C16.6697 56.4142 16.0437 56.6748 15.3003 56.6748ZM3.75786 1.32923C3.37963 1.32923 3.07966 1.44652 2.83185 1.69412C2.61013 1.91566 2.46667 2.30661 2.46667 2.71059V54.0555C2.46667 54.4334 2.58405 54.7331 2.83185 54.9807C3.07966 55.2283 3.37963 55.3456 3.75786 55.3456H15.3003C15.6785 55.3456 15.9785 55.2283 16.2263 54.9807C16.4741 54.7331 16.5915 54.4334 16.5915 54.0555L16.8784 28.6437C16.9436 28.2266 16.8654 27.8748 16.6437 27.5881L16.5915 27.5099C16.135 26.741 15.6394 26.0113 15.1177 25.2424C14.909 24.9296 14.6873 24.6169 14.4656 24.2911C13.6961 23.0531 12.7962 21.9063 11.8441 20.955C11.5311 20.6422 11.2311 20.2512 10.9442 19.8603L10.879 19.756C10.8659 19.7169 10.8268 19.6779 10.8007 19.6388C10.6964 19.4954 10.5529 19.2739 10.5268 18.9872C10.4355 18.5441 10.579 18.2444 10.7094 18.075C10.8529 17.8925 11.1398 17.671 11.6485 17.671C12.0919 17.671 12.444 17.8274 12.7701 18.1401C13.3179 18.6093 13.8787 19.0132 14.4786 19.4433C14.3482 19.2608 14.2178 19.0784 14.1004 18.896C13.6309 18.2183 13.1353 17.5276 12.744 16.7848C12.2354 15.9117 11.9223 15.1689 11.7528 14.4912C11.6615 14.2176 11.5832 13.6051 12.3136 13.1229C12.8092 12.7971 13.2266 12.8232 13.5526 12.9274C13.9309 12.9796 14.1526 13.2402 14.2439 13.3705L14.3091 13.4357C15.3525 14.6997 16.1741 15.8074 16.8784 16.9542C17.048 17.2279 17.2306 17.5016 17.4001 17.7752C16.9436 16.3678 16.5263 14.9995 16.135 13.579C16.0698 13.3705 15.9263 12.8883 15.9263 12.4713L15.9394 12.341C16.0828 11.6112 16.4741 11.2203 17.2045 11.0769C18.0914 10.9206 18.9782 11.4809 19.2652 12.354C19.3565 12.5626 19.4347 12.8232 19.4999 13.0708C19.5651 13.2793 19.6303 13.5008 19.7086 13.7093C20.0738 14.7519 20.452 15.8074 20.8042 16.876C20.7129 16.3157 20.5955 15.7553 20.4911 15.208C20.2955 14.1524 20.0999 13.0578 20.2042 11.9501C20.2042 11.3506 20.5563 10.7772 21.1302 10.4905L21.2215 10.4514C22.0562 10.1778 22.4214 10.5948 22.5649 10.8293C22.7735 11.1291 22.9692 11.4418 23.0866 11.7937C23.4778 12.7189 23.8039 13.8136 24.1299 14.8561L24.2995 15.4295C25.0038 17.8013 25.6298 20.1861 26.1645 22.5579C26.6341 22.3754 27.1036 22.219 27.6644 22.0627L28.0426 21.9323C29.0338 21.6065 29.9598 21.2808 30.9902 21.1113L31.0945 21.0983C31.5249 21.0983 32.0988 21.0983 32.4901 21.6717C32.6074 21.8541 32.9335 22.4797 32.2814 23.1834C32.151 23.3919 31.9814 23.5092 31.8771 23.6004C31.4336 24.0304 31.0293 24.3302 30.6511 24.6169C28.8252 25.8027 27.4036 27.3144 25.9037 28.9043C25.4342 29.4516 25.1342 30.0771 25.0559 30.7157C25.069 31.1197 25.1342 33.9085 25.1472 36.4366H26.2558C33.0248 36.4366 38.3721 34.9771 42.1414 32.1101C45.9236 29.2952 47.8409 24.9036 47.8409 19.0654C47.8409 13.2663 45.9497 8.83549 42.2327 5.91639C38.4504 2.86697 33.1161 1.3162 26.3602 1.3162H3.75786V1.32923ZM25.7341 22.7533C25.7211 22.7533 25.7081 22.7664 25.7081 22.7664C25.7211 22.7664 25.7341 22.7533 25.7341 22.7533Z" fill="#3B3B3B"/>
</g>
<defs>
<clipPath id="clip0">
<rect width="50" height="56.8182" fill="white"/>
</clipPath>
</defs>
</svg>
