<svg width="57" height="64" viewBox="0 0 57 64" fill="none" xmlns="http://www.w3.org/2000/svg">
<mask id="mask0" mask-type="alpha" maskUnits="userSpaceOnUse" x="1" y="1" width="54" height="63">
<path d="M2.52575 1.83487L3.99281 1.02753H35.3879L43.8969 3.44954L49.2517 7.04587L53.2127 12.6973L54.7532 20.0367L53.7996 28.3303L50.8654 34.1284L46.3909 37.8716L39.4224 40.9541L31.867 41.4679H27.3925L27.9059 32.4404L35.9014 25.1009L35.3879 24.5872L30.84 25.6881H29.0062L25.7053 14.2385L24.1649 12.5505L23.358 13.2844L24.1649 22.0917L20.5706 13.7982L19.4703 13.2844L18.5167 13.7982L19.4703 16.5138L20.5706 22.6055L16.9763 17.3211L14.4089 15.2661L14.0422 16.5138L18.15 24.1468L13.6021 21.1376V22.0917L19.4703 31.3394V60.844L18.2967 63.1193H4.35957L2.67245 62.5321L1.64551 60.844V5.94496L2.52575 1.83487Z" fill="black"/>
</mask>
<g mask="url(#mask0)">
<path fill-rule="evenodd" clip-rule="evenodd" d="M71.2572 12.2422L71.1398 12.6973L71.0225 13.1523L70.9051 13.6073L70.7877 14.0624L70.6704 14.5174L70.553 14.9725L70.4356 15.4275L70.3183 15.8826L70.2009 16.3376L70.0835 16.7927L69.9662 17.2477L69.8488 17.7028L69.7314 18.1578L69.6141 18.6129L69.4967 19.0679L69.3793 19.5229L69.262 19.978L69.1446 20.433L69.0272 20.8881L68.9099 21.3431L68.7925 21.7982L68.6752 22.2532L68.5578 22.7083L68.3377 23.1633L68.1177 23.6184L67.8976 24.0734L67.6776 24.5285L67.4575 24.9835L67.2374 25.4385L67.0174 25.8936L66.7973 26.3486L66.5773 26.8037L66.3572 27.2587L66.1371 27.7138L65.9171 28.1688L65.697 28.6239L65.477 29.0789L65.2569 29.534L65.0368 29.989L64.8168 30.3266L64.4794 30.6642L64.1419 31.0018L63.8045 31.3395L63.247 32.1321L62.9096 32.4697L62.5722 32.8074L62.2347 33.145L61.8973 33.4826L61.5599 33.8202L61.2225 34.1578L60.8851 34.4954L60.5476 34.833L60.2102 35.1707L59.8728 35.5083L59.5354 35.8459L59.1979 36.1835L58.8605 36.4037L58.5231 36.6239L58.1857 36.844L57.8482 37.0642L57.3934 37.2844L56.9387 37.5046L56.4839 37.7248L56.0291 37.945L55.5743 38.1651L55.1195 38.3853L54.6647 38.6055L54.2099 38.8257L53.7551 39.0459L53.3003 39.2661L52.8456 39.4862L52.3908 39.7064L51.936 39.9266L51.4812 40.1468L51.0264 40.367L50.5716 40.5872L50.1168 40.8074L49.662 41.0275L49.2072 41.2477L48.8698 41.4679L48.5324 41.6881L48.195 41.9083L47.8575 42.1284L47.5201 42.3486L47.1827 42.5688L46.8453 42.789L46.5078 43.0092L46.1704 43.2294L45.833 43.4496L45.4956 43.6697L45.1582 43.8899L44.8207 44.1101L44.4833 44.3303L44.1459 44.5505L43.8085 44.7707L43.471 44.9908L43.1336 45.211L42.7962 45.4312L42.4588 45.6514L42.1213 45.8716L41.7839 46.0918L41.4465 46.3119L41.1091 46.5321L40.7716 46.8697L40.4342 47.2074L40.0968 47.545L39.7594 47.8826L39.4219 48.2202L39.0845 48.5578L38.7471 48.8954L38.4097 49.233L38.0722 49.5707L37.7348 49.9083L37.3974 50.2459L37.06 50.5835L36.7225 50.9211L36.3851 51.2587L36.0477 51.5963L35.7103 51.934L35.3728 52.2716L35.0354 52.6092L34.698 52.9468L34.3606 53.2844L34.0231 53.622L33.6857 53.9596L33.3483 54.2973L33.0109 54.6349L32.6735 54.9725L32.336 55.3101L31.9986 55.6477L31.5438 55.9853L31.089 56.3229L30.6342 56.6606L30.1794 56.9982L29.7247 57.3358L29.2699 57.6734L28.8151 58.011L28.3603 58.3486L27.9055 58.6862L27.4507 58.9064L26.9959 59.1266L26.5411 59.3468L26.0863 59.567L25.6316 59.7872L25.1768 60.0073L24.722 60.2275L24.2672 60.4477L23.8124 60.6679L23.3576 60.7853L22.9028 60.9028L22.3453 61.0202L21.7879 61.1376L21.5238 61.211L20.9663 61.3285L20.4088 61.4459L20.6289 61.1083H20.0714H19.5139H18.9564H18.3989H17.8415H17.284H16.7265L16.169 60.9908L15.6115 60.8734L15.054 60.756L14.5992 60.6385L14.1445 60.5211L13.6897 60.4037L13.2349 60.2863L12.7801 60.0661L12.3253 59.8459L11.8705 59.6257L11.4157 59.4055L10.9609 59.1853L10.5061 58.9651L10.0514 58.745L9.59657 58.4073L9.14178 58.0697L8.68699 57.7321L8.2322 57.3945L7.77741 57.0569L7.32262 56.7193L6.9852 56.3817L6.64777 56.044L6.31035 55.7064L5.97292 55.2514L5.6355 54.7963L5.29807 54.3413L4.96065 53.8863L4.62323 53.4312L4.2858 52.9762L3.94838 52.5211L3.61095 52.0661L3.27353 51.611L3.05347 51.156L2.83341 50.7009L2.61335 50.2459L2.39329 49.7908L2.17323 49.3358L1.95317 48.8807L1.73311 48.4257L1.51306 47.9706L1.293 47.5156L1.07294 46.9578L0.852877 46.4L0.632818 45.8422L0.515451 45.2844L0.398087 44.7266L0.280722 44.1688L0.163357 43.611L0.0459938 43.0532L-0.071373 42.4954L-0.188738 41.9376L-0.306103 41.4826L-0.42347 41.0275L-0.540833 40.5725L-0.658197 40.1174L-0.775562 39.6624L-0.892929 39.2074L-1.01029 38.7523L-1.12766 38.2973L-1.24502 37.8422V37.3872V36.9321V36.4771V36.022V35.567V35.1119V34.6569V34.2018V33.9083V33.4679V33.0129V32.6752L-1.36239 32.3376L-1.47975 32L-1.59712 31.6624L-1.71448 31.3248L-1.83185 30.9872L-1.94921 30.6495L-2.06658 30.3119L-2.18394 29.9743L-2.30131 29.6367L-2.41867 29.2991L-2.53604 28.9615L-2.6534 28.6239L-2.77077 28.4037L-2.82945 28.1835L-3.04951 27.9633L-3.26957 27.7431L-3.48963 27.5229L-3.70969 27.3028L-3.92975 27.0826L-4.14981 26.8624L-4.36987 26.6422L-4.70729 26.422L-5.04471 26.2018L-5.38214 25.9817L-5.71956 25.7615L-6.05699 25.5413L-6.39441 25.3211L-6.73183 25.1009L-7.06926 24.8807L-7.40668 24.6606L-7.86147 24.4404L-8.31626 24.2202L-8.77105 24L-9.22584 23.7798L-9.68063 23.5596L-10.1354 23.3395L-10.5902 23.1193L-11.045 22.8991L-11.4998 22.6789L-11.9546 22.4587L-12.4094 22.2385L-12.8642 21.9009L-13.3189 21.5633L-13.7737 21.2257L-14.2285 20.8881L-14.6833 20.5505L-15.1381 20.2129L-15.5929 19.8752L-16.0477 19.5376L-16.5025 19.2L-16.9573 18.8624L-17.412 18.5248L-17.8668 18.1872L-18.3216 17.8496L-18.659 17.3945L-18.9965 16.9395L-19.3339 16.4844L-19.6713 16.0294L-20.0087 15.5743L-20.3462 15.1193L-20.6836 14.6642L-21.021 14.2092L-21.2411 13.7541L-21.4611 13.2991L-21.6812 12.844L-21.9013 12.389L-22.1213 11.934L-22.3414 11.4789L-22.5614 11.0239L-22.6788 10.5688L-22.7962 10.1138L-22.9135 9.65872L-23.0309 9.20368L-23.1483 8.74863L-23.2656 8.29359V7.83854V7.3835V6.92845V6.4734V6.01836V5.56331V5.10826L-23.1483 4.65322L-23.0309 4.19817L-22.9135 3.74313L-22.7962 3.28808L-22.6788 2.83304L-22.5614 2.37799L-22.4441 1.92294L-22.3267 1.4679L-22.2093 1.01285L-21.9893 0.557806L-21.7692 0.102759L-21.5492 -0.352286L-21.3291 -0.807332L-21.109 -1.26238L-20.889 -1.71742L-20.6689 -2.17247L-20.4489 -2.62752L-20.2288 -3.08256L-20.0087 -3.53761L-19.7887 -3.99265L-19.4513 -4.4477L-19.1138 -4.90275L-18.7764 -5.35779L-18.439 -5.69541L-18.1016 -6.03302L-17.7641 -6.37064L-17.4267 -6.70825L-17.0893 -7.04586L-16.7519 -7.38348L-16.4144 -7.72109L-16.077 -8.05871L-15.7396 -8.39632L-15.4022 -8.73394L-14.9474 -9.07155L-14.4926 -9.40917L-14.0378 -9.74678L-13.583 -9.96697L-13.1282 -10.1871L-12.6734 -10.4073L-12.2186 -10.6275L-11.7639 -10.8477L-11.3091 -11.0679L-10.8543 -11.2881L-10.3995 -11.5083L-9.9447 -11.7284L-9.48991 -11.9486L-9.03512 -12.1688L-8.58033 -12.389L-8.11087 -12.4771L-7.65608 -12.5945L-7.2013 -12.7119L-6.74651 -12.8294L-6.29172 -12.9468L-5.83693 -13.0642L-5.38214 -13.1816L-4.92735 -13.2991L-4.47256 -13.4165L-4.01777 -13.5339L-3.56298 -13.6514L-3.10819 -13.7688L-2.6534 -13.8862L-2.19861 -14.0037L-1.74382 -14.1211L-1.28903 -14.2385H-0.834244H-0.379456H0.0753345H0.530121H0.984911H1.4397H1.89449H2.34928H2.80407H3.25886H3.71365H4.16844H4.62323H5.07801H5.5328H5.98759H6.44238H6.70645H7.04388H7.3813H7.71873H8.05615H8.39358H8.731H9.06842H9.40585H9.74327H10.0807H10.4181H10.7555H11.093H11.4304H11.7678H12.1052H12.428H12.7654H13.1028H13.4403H13.7777H14.1151H14.4525H14.79H15.1274H15.4648H15.8022H16.1397H16.4771H16.8145H17.1519H17.4894H17.8268H18.1642H18.5016H18.8391H19.1765H19.5139H19.8513H20.1888H20.5262H20.8636H21.201H21.5385H21.8759H22.2133H22.5507H22.8881H23.2256H23.563H23.9004H24.2378H24.5753H24.9127H25.2501H25.5875H25.925H26.2624H26.5998H26.9372H27.2747H27.6121H27.9495H28.2869H28.6244H28.9618H29.2992H29.6366H29.9741H30.3115H30.6489H30.9863H31.3238H31.6612H31.9986H32.336H32.6735H33.0109H33.3483H33.6857H34.0231H34.3606H34.698H35.0354H35.3728H35.7103H36.0477H36.3851H36.7225H37.06H37.3974H37.7348H38.0722H38.4097H38.8645H39.3192H39.774H40.2288H40.6836H41.1384H41.5932H42.048H42.5028H42.9576H43.4123H43.8671H44.3219H44.7767H45.2315H45.6863H46.1411H46.5959H47.0507H47.5055H47.9602H48.415H48.8698H49.4273H49.9848H50.5423H51.0998H51.6572H52.2147L52.7722 -14.1211L53.3297 -14.0037L53.8872 -13.8862L54.4447 -13.7688L55.0021 -13.6514L55.5596 -13.5339L56.1171 -13.4165L56.6746 -13.2991L57.2321 -13.1816L57.7896 -13.0642L58.347 -12.9468L58.9045 -12.8294L59.462 -12.6092L60.0195 -12.389L60.577 -12.1688L61.1345 -11.9486L61.5892 -11.7284L62.044 -11.5083L62.4988 -11.2881L62.9536 -11.0679L63.4084 -10.8477L63.8632 -10.6275L64.318 -10.4073L64.7728 -10.0697L65.2276 -9.7321L65.6824 -9.39449L66.1371 -9.05687L66.5919 -8.71926L67.0467 -8.38164L67.5015 -8.04403L67.9563 -7.70641L68.2937 -7.3688L68.6311 -7.03119L68.9686 -6.69357L69.306 -6.23853L69.6434 -5.78348L69.7901 -5.2844L70.1275 -4.82935L70.465 -4.3743L70.8024 -3.91926L71.0225 -3.46421L71.2425 -3.00917L71.4626 -2.55412L71.6826 -2.09908L71.9027 -1.64403L72.1228 -1.18898L72.3428 -0.733937L72.5629 -0.278892L72.6802 0.176154L72.7976 0.631201L72.915 1.08625L73.0323 1.64404L73.1497 2.20184L73.2671 2.75964L73.3844 3.31744L73.5018 3.87524L73.6192 4.43303V4.99083V5.54863V6.10643V6.66423V7.22203V7.77983V8.33762V8.89542V9.45322V10.011V10.5688V11.1266L73.5018 11.6844L73.3844 12.2422L73.2671 12.8L73.1644 13.3578L73.047 13.9156L72.9296 14.3706L72.8123 14.8257L72.6949 15.2807L71.2572 12.2422Z" fill="#EB5C2C"/>
<path fill-rule="evenodd" clip-rule="evenodd" d="M34.5514 28.4037V28.5211V28.6386V28.756V28.8734V28.9908V29.1083V29.2257V29.4459V29.6661V29.8863V30.1064V30.3266V30.5468V30.767V30.9872V31.2074V31.4275V31.6477L34.6688 31.8679H35.2262L35.3436 32.0881L35.461 32.3083L35.5784 32.5285L35.6957 32.7486L35.8131 32.9688L35.9304 33.189L36.0478 33.4092L36.1652 33.6294L36.2825 33.8496L36.3999 34.0697L36.5173 34.2899L36.6346 34.5101L36.752 34.7303L36.8694 34.9505L36.9867 35.1707L37.1041 35.3908L37.2215 35.611L37.3388 35.8312L37.4562 36.0514L37.5736 36.2716L37.6909 36.4918L37.8083 36.7119L37.9256 36.9321L38.043 37.1523L38.1604 37.3725L38.2777 37.5927L38.3951 37.8129L38.5125 38.1505L38.6298 38.4881L38.7472 38.8257L38.8646 39.1633L38.9819 39.5009V39.8385V40.1762V40.5138V40.8514V41.189V41.5266V41.8642V42.2019V42.5395V42.8771V43.2147V43.5523V43.8899V44.2275V44.5652V44.9028V45.2404L38.8646 45.578L38.7472 45.7982L38.6298 46.0184L38.5125 46.2385L38.3951 46.4587L38.2777 46.6789L38.1604 46.8991L38.043 47.1193L37.9256 47.3395L37.8083 47.5597L37.6909 47.7798L37.5736 48L37.3535 48.2202L37.1334 48.4404L36.9134 48.6606L36.6933 48.8808L36.4733 48.9982L36.2532 49.1156L36.0331 49.233L35.8131 49.3505L35.593 49.4679L35.373 49.5853L35.1529 49.7028L34.9328 49.8202L34.7128 49.9376L34.4927 50.0551L34.2727 50.1725H33.9352H33.5978H33.2604H32.923H32.5855H32.2481H31.9107H31.5733H31.0598H30.7224H30.3849L30.0475 50.0551L29.7101 49.9376L29.3727 49.8202L29.0352 49.7028L28.6978 49.5853L28.3604 49.4679L28.023 49.3505L27.6856 49.233L27.3481 49.1156L27.0107 48.9982L26.6733 48.8808L26.3359 48.7633L26.1158 48.6459L25.8957 48.5285L25.6757 48.411L25.4556 48.2936L25.2356 48.1762L25.0155 48.0587L24.7954 47.9413L24.5754 47.8239L24.3553 47.7064L24.1353 47.589L23.9152 47.4716L23.6951 47.3541L23.4751 47.2367L23.255 47.1193L23.035 47.0019L22.8149 46.8844L22.5948 46.767L22.3748 46.6496L22.1547 46.5321L21.9347 46.4147L21.7146 46.2973L21.4945 46.1798L21.2745 46.0624L21.0544 45.945L20.8344 45.8275L20.6143 45.7101L20.3943 45.5927L20.1742 45.4752L19.9541 45.3578L19.7341 45.2404H19.514H19.294H19.0739H18.9565H18.8392H18.7218H18.6044H18.4871H18.3697H18.1496H18.0323H17.9149H17.7976H17.5775H17.3574H17.1374L16.9173 45.3578L16.6973 45.4752L16.1398 45.0202L15.9197 45.1376L15.6997 45.2551L15.4796 45.3725L15.2595 45.4899L15.0395 45.6074L14.8194 45.7248L14.5994 45.8422L14.3793 45.9597L14.1592 46.0771L13.9392 46.1945L13.7191 46.3119L13.4991 46.4294L13.279 46.5468L13.0589 46.6642L12.8389 46.7817L12.6188 46.8991L12.3988 47.0165L12.1787 47.134L11.9586 47.2514L11.7386 47.3688L11.5185 47.4863L11.2985 47.6037L11.0784 47.7211L10.8583 47.8385L10.6383 47.956L10.4182 48.0734L10.1982 48.1908L9.86074 48.3083L9.52332 48.5285L9.1859 48.6459L8.84847 48.7633L8.51105 48.8808L8.17362 48.9982L7.8362 49.1156L7.49877 49.233L7.16135 49.3505L6.82392 49.4679L6.4865 49.5853L6.14908 49.7028H5.81165H5.47423H5.1368H4.79938H4.46195H4.12453H3.78711H3.44968H3.11226H2.67214H2.33471H2.09998L1.87992 49.5853L1.65987 49.4679L1.42514 49.5266L1.20508 49.4092L0.985017 49.2918L0.764957 49.1743L0.544898 49.0569L0.324838 48.9395L0.104779 48.822L-0.11528 48.7046L-0.33534 48.4844L-0.555399 48.2642L-0.775458 48.0441L-0.995518 47.8239L-1.11288 47.6037L-1.23025 47.3835L-1.34761 47.1633L-1.46498 46.9431L-1.58234 46.7229L-1.69971 46.5028L-1.81707 46.2826L-1.93444 46.0624L-2.0518 45.8422L-2.16917 45.622L-2.28653 45.4019L-2.4039 45.0642V44.7266V44.389V44.0514V43.7138V43.3762V43.0092V42.6716V42.334V41.9963V41.6587V41.3211V40.9835V40.6459V40.3083V39.9707V39.633V39.2954L-2.28653 38.9578L-2.16917 38.6202L-2.0518 38.2826L-1.93444 37.945L-1.81707 37.6074L-1.69971 37.3872L-1.58234 37.167L-1.46498 36.9468L-1.34761 36.7266L-1.23025 36.5064L-1.11288 36.2863L-0.995518 36.0661L-0.878153 35.8459L-0.760788 35.6257L-0.643423 35.4055L-0.526058 35.1853L-0.408693 34.9652L-0.291327 34.745L-0.173963 34.5248L-0.0565977 34.3046L0.0607672 34.0844L0.178132 33.8642L0.295497 33.6441L0.412862 33.4239L0.530227 33.2037L0.647592 32.9835L0.764957 32.7633L0.882322 32.5431L0.999687 32.323L0.985017 32L1.10238 31.7798L1.21975 31.5597L1.33711 31.3395L1.45448 31.1193V30.8991V30.6789V30.4587V30.2386V30.0184V29.7982V29.578V29.3578V29.1376V28.9174V28.6973V28.5798V28.4624V28.345V28.1835V28.0661V27.9486V27.8312V27.7138V27.5963V27.4789V27.3615V27.2441V27.1266V27.0092V26.789V26.5688V26.3486V26.1285V25.9083V25.6881V25.4679V25.2477V25.0275V24.8074V24.5872L1.32244 24.367L1.20508 24.1468L1.08771 23.9266L0.970346 23.7064L0.852981 23.4863L0.735616 23.2661L0.618251 23.0459L0.500886 22.8257L0.383521 22.6055L0.266156 22.3853L0.148791 22.1652L0.031426 21.945L-0.0859392 21.7248L-0.203304 21.5046L-0.320669 21.2844L-0.438034 21.0642L-0.555399 20.8441L-0.672764 20.6239L-0.790129 20.4037L-0.907494 20.1835L-1.02486 19.9633L-1.14222 19.7431L-1.25959 19.523L-1.37695 19.3028L-1.49432 19.0826L-1.61168 18.8624L-1.72905 18.6422L-1.84641 18.422L-1.96378 18.2019L-2.08114 17.8642L-2.19851 17.5266L-2.31587 17.189L-2.43324 16.8514L-2.5506 16.5138L-2.66797 16.1762V15.8386V15.5009V15.1633V14.8257V14.4881V14.1505V13.8129V13.3578V13.0202V12.6826V12.345V12.0074V11.6697V11.3321V10.9945V10.6569L-2.5506 10.3193L-2.43324 10.0991L-2.31587 9.87892L-2.19851 9.65874L-2.08114 9.43855L-1.96378 9.21837L-1.84641 8.99819L-1.72905 8.778L-1.61168 8.55782L-1.49432 8.33764L-1.37695 8.11745L-1.25959 7.89727L-0.922165 7.63305L-0.702105 7.41287L-0.482046 7.19268L-0.261986 6.9725L-0.0419271 6.85507L0.178132 6.73764L0.398192 6.6202L0.618251 6.50277L0.83831 6.38534L1.05837 6.26791L1.32244 6.16516L1.5425 6.04773L1.76256 5.9303L1.98262 5.81287L2.21735 5.72479H2.55477H2.8922H3.22962H3.56705H3.90447H4.24189H4.57932H4.91674H5.25417H5.59159H5.92902L6.26644 5.84222L6.60386 5.95965L6.94129 6.07709L7.27872 6.19452L7.61614 6.31195L7.95356 6.42938L8.29099 6.54681L8.62841 6.66424L8.96584 6.78167L9.30326 6.8991L9.64069 7.01654L9.97811 7.13397L10.3155 7.2514L10.5356 7.36883L10.7557 7.48626L10.9757 7.60369L11.1958 7.72112L11.4158 7.83855L11.6359 7.95598L11.8559 8.07342L12.076 8.19085L12.2961 8.30828L12.5161 8.42571L12.7362 8.54314L12.9562 8.66057L13.1763 8.778L13.3964 8.89543L13.6164 9.01287L13.8365 9.1303L14.0565 9.24773C14.9661 9.70277 15.8464 10.3193 16.8586 10.5248C17.3574 10.6275 17.8709 10.6275 18.3844 10.6275C18.6631 10.6275 18.9419 10.6275 19.2206 10.5541C19.4407 10.4954 19.646 10.3927 19.8514 10.2899C20.761 9.83488 21.6706 9.37984 22.5948 8.91011L22.8149 8.79268L23.035 8.67525L23.255 8.55782L23.4751 8.44039L23.6951 8.32296L23.9152 8.20553L24.1353 8.08809L24.3553 7.97066L24.5754 7.85323L24.8981 7.63305L25.1182 7.51562L25.3383 7.39819L25.5583 7.28076L25.7784 7.16332L25.9984 7.04589L26.3359 6.92846L26.6733 6.81103L27.0107 6.6936L27.3481 6.57617L27.6856 6.45874L28.023 6.34131L28.3604 6.22388L28.7125 6.16516L29.0499 6.04773L29.3873 5.9303L29.7248 5.81287L30.0622 5.69543H30.3996H30.737H31.0745H31.4119H31.7493H32.0867H32.4242H32.7616H33.099H33.4364H33.7739H33.9939L34.214 5.81287L34.434 5.9303L34.6541 6.04773L34.8742 6.16516L35.0942 6.28259L35.3143 6.40002L35.5343 6.51745L35.7544 6.63488L35.9745 6.75232L36.1945 6.86975L36.4146 7.08993L36.6346 7.31011L36.8547 7.5303L37.0747 7.75048L37.2948 7.97066L37.4122 8.19085L37.5295 8.41103L37.6469 8.63121L37.7643 8.8514L37.8816 9.07158L37.999 9.29176L38.1164 9.51195L38.2337 9.73213L38.3511 9.95232L38.4685 10.1725L38.5858 10.5101V10.8477V11.1853V11.523V11.8606V12.1982V12.5358V12.8734V13.211V13.5486V13.8863V14.2239V14.5615V14.8991V15.2367V15.5743V15.9119V16.2496L38.4685 16.5872L38.3511 16.9248L38.2337 17.2624L38.1164 17.6L37.999 17.9376L37.8816 18.1578L37.7643 18.378L37.6469 18.5982L37.5295 18.8184L37.4122 19.0386L37.2948 19.2587L37.1774 19.4789L37.0601 19.6991L36.9427 19.9193L36.8254 20.1395L36.708 20.3597L36.5906 20.5798L36.4733 20.8L36.3559 21.0202L36.2385 21.2404L36.1212 21.4606L36.0038 21.6808L35.8864 21.9009L35.7691 22.1211L35.6517 22.3413L35.5343 22.5615L35.417 22.7817L35.2996 23.0019L35.1822 23.222L35.0649 23.4422L34.9475 23.6624L34.8301 23.8826L34.7128 24.1028L34.5954 24.323V24.5431V24.7633V24.9835V25.2037V25.4239V25.6441V25.8642V26.0844V26.3046V26.5248V26.745V26.8624V26.9798V27.0973V27.2147V27.3321V27.4496L34.5514 28.4037Z" fill="#F193B7"/>
<path fill-rule="evenodd" clip-rule="evenodd" d="M74.6173 40.0881L74.7347 40.4257L74.8521 40.7633L74.9694 41.1009L75.0868 41.4385L75.2042 41.7762L75.4242 42.1138L75.6443 42.4514L75.8643 42.789L76.0844 43.1266L76.3045 43.4642L76.5245 43.8018L76.7446 44.1395L76.9646 44.4771L77.1847 44.8147L77.4048 45.1523L77.6248 45.6073L77.8449 46.0624L78.0649 46.5174L78.285 46.9725L78.5051 47.4275L78.9598 47.6477L79.1799 48.1028L79.4 48.5578L79.62 49.0129L79.8401 49.4679L79.9574 49.9229L80.0748 50.378L80.1922 50.833L80.3095 51.2881L80.4269 51.7431V52.1982V52.6532V53.1083V53.5633L80.3095 54.0184L80.1922 54.4734L80.0748 54.9284L79.9574 55.2661L79.7374 55.6037L79.5173 55.9413L79.2973 56.2789L79.0772 56.6165L78.7398 56.9541L78.4024 57.1743L78.0649 57.3945L77.7275 57.6147L77.3901 57.8349L76.9353 58.055L76.4805 58.2752L76.0257 58.3927L75.5709 58.5101L75.1161 58.6275L74.6613 58.745L74.2066 58.8624L73.7518 58.9798L73.297 59.0973H72.8422H72.3874H71.9326H71.4778H71.023H70.5682H70.1135H69.7907H69.3506H68.8958H68.441H67.9862H67.6488H67.3114H66.9739H66.6365L66.2991 59.2147L65.9617 59.3321L65.6242 59.4495L65.2868 59.567L64.9494 59.6844L64.612 59.8018L64.3919 59.9193L64.1719 60.0367L63.9518 60.1541L63.7317 60.3743L63.5117 60.5945L63.2916 60.8147L63.0716 61.0349L62.8515 61.255L62.6314 61.4752L62.4114 61.6954L62.1913 61.9156L61.9713 62.2532L61.7512 62.5908L61.5311 62.9284L61.3111 63.2661L61.091 63.6037L60.871 63.9413L60.6509 64.2789L60.4308 64.6165L60.2108 64.9541L59.9907 65.2917L59.7707 65.6294L59.5506 65.967L59.2132 66.3046L58.8758 66.6422L58.5383 66.9798L58.2009 67.3174L57.8635 67.6551L57.5261 67.9927L57.1886 68.3303L56.8512 68.5505L56.5138 68.7706L56.1764 68.9908L55.8389 69.211L55.5015 69.4312L55.1641 69.6514L54.8267 69.8716L54.4892 70.0917L54.1518 70.3119L53.8144 70.4294L53.3596 70.5468L52.9048 70.6642L52.45 70.7817L51.9952 70.8991L51.5404 71.0165L51.0857 71.134L50.6309 71.2514H50.1761H49.7213H49.2518H48.797H48.3422H47.8875H47.4327H46.9779L46.5231 71.134L46.0683 71.0165L45.6135 70.8991L45.1587 70.7817L44.7039 70.6642L44.2491 70.5468L43.9117 70.4294L43.5743 70.3119L43.2369 70.1945L42.8994 70.0771L42.562 69.9596L42.2246 69.8422L41.8872 69.7248L41.5497 69.5046L41.2123 69.2844L40.8749 69.0642L40.5375 68.844L40.2 68.6239L39.8626 68.4037L39.5252 68.1835L39.1878 67.9633L38.8504 67.7431L38.5129 67.5229L38.1755 67.3028L37.8381 67.0826L37.5007 66.9651L37.1632 66.8477L36.8258 66.7303L36.4884 66.6128L36.151 66.4954L35.8135 66.378L35.3587 66.2606L34.904 66.1431L34.4492 66.0257L33.9944 65.9083L33.5396 65.7908L33.0848 65.6734L32.63 65.556L32.1752 65.4385L31.7204 65.3211L31.2656 65.2037L30.8109 65.0862L30.3561 64.9688L29.4612 64.5138L29.0064 64.2936L28.5516 64.0734L28.0968 63.8532L27.642 63.633L27.1872 63.4128L26.7324 63.1927L26.2776 62.9725L25.8228 62.7523L25.368 62.5321L24.9133 62.3119L24.4585 62.0917L24.0037 61.8716L23.5489 61.6514L23.4315 61.211L23.0941 60.8734L22.7567 60.5358L22.4193 60.1982L22.0818 59.8606L21.7444 59.5229L21.407 59.1853L21.0696 58.8477L20.7321 58.5101L20.3947 58.1725L20.0573 57.8349L19.8372 57.3798L19.6172 56.9248L19.3971 56.4697L19.177 56.0147L18.957 55.5596L18.7369 55.1046L18.5169 54.6495L18.3995 54.1945L18.2821 53.7395L18.1648 53.2844L18.0474 52.8294L17.93 52.3743L17.8127 51.9193L17.6953 51.4642V51.0092V50.6422V50.2018V49.7468V49.2917V48.8367V48.3817V47.9266L17.8127 47.4716L17.93 47.0165L18.0474 46.5615L18.1648 46.1064L18.2821 45.6514L18.3995 45.1963L18.5169 44.7413L18.6342 44.2862L18.7516 43.8312L18.869 43.3762L19.089 42.9211L19.3091 42.4661L19.5291 42.011L19.7492 41.556L19.9693 41.1009L20.1893 40.6459L20.4094 40.1908L20.6294 39.7358L20.8495 39.2807L21.0696 38.8257L21.2896 38.4881L21.5097 38.1505L21.7297 37.8129L22.0672 37.4752L22.4046 37.1376L22.742 36.8L23.0794 36.4624L23.4169 36.1248L23.7543 35.7872L24.0917 35.4495L24.4291 35.1119L24.7666 34.7743L25.104 34.4367L25.4414 34.0991L25.7788 33.7615L26.1163 33.5413L26.4537 33.3211L26.7911 33.1009L27.1285 32.8807L27.4659 32.6606L27.8034 32.4404L28.1408 32.2202L28.4782 32L28.8156 31.7798L29.1531 31.5596L29.4905 31.3395L29.8279 31.1193L30.1653 30.8991L30.3854 30.6789L30.6055 30.4587L30.8255 30.2385L31.0456 30.0184L31.2656 29.7982L31.4857 29.578L31.7058 29.3578L31.9258 29.1376L32.1459 28.9174L32.2632 28.6973L32.3806 28.4771L32.498 28.2569L32.6153 27.9193L32.7327 27.5817L32.8501 27.244L32.9674 26.9064L33.0848 26.5688V26.2752V25.9376V25.6V25.2624V24.8073V24.367V23.9119V23.4569V23.0018V22.5468V22.0918V21.6367V21.1817V20.7266V20.2716V19.8165L33.2022 19.3615L33.3195 18.9064L33.4369 18.4514L33.5543 17.9963L33.6716 17.5413L33.789 17.0862L33.9064 16.6312L34.1264 16.1762L34.3465 15.7211L34.5665 15.3835L34.7866 15.0459L35.0066 14.7083L35.2267 14.3707L35.5641 14.033L35.9016 13.8129L36.239 13.5927L36.5764 13.3725L36.9138 13.1523L37.2513 13.0349L37.706 12.9174L38.1608 12.8L38.6156 12.6826H39.0704H39.5252H39.98H40.4348L40.8896 12.8L41.3444 12.9174L41.7992 13.0349L42.2539 13.1523L42.7087 13.2697L43.1635 13.4899L43.6183 13.7101L44.0731 13.9303L44.5279 14.1505L44.9827 14.3707L45.4375 14.5908L45.8923 14.811L46.347 15.0312L46.8018 15.2514L47.2566 15.4716L47.594 15.6918L47.9315 15.9119L48.2689 16.1321L48.6063 16.3523L48.9437 16.5725L49.2812 16.7927L49.6186 16.9101L49.956 17.0275L50.2934 17.145L50.6309 17.2624L50.9683 17.3798H51.3057H51.6431H51.9806H52.318H52.6554L52.9928 17.2624L53.3303 17.145L53.6677 17.0275L54.0051 16.9101L54.3425 16.7927L54.68 16.5725L55.0174 16.3523L55.3548 16.1321L55.6922 15.9119L56.0297 15.6918L56.3671 15.4716L56.7045 15.134L57.1593 14.7963L57.6141 14.4587L58.0689 14.1211L58.5237 13.7835L58.9784 13.4459L59.4332 13.1083L59.888 12.7707L60.3428 12.433L60.7976 12.0954L61.2524 11.8752L61.7072 11.6551L62.2647 11.4349L62.8222 11.2147L63.3796 10.9945L63.9371 10.7743L64.4946 10.5541L65.0521 10.4367L65.6096 10.3193L66.1671 10.2018L66.7245 10.0844H67.282H67.8395H68.2943H68.7491H69.2039L69.6587 10.2018L70.1135 10.3193L70.5682 10.4367L71.023 10.5541L71.4778 10.7743L71.9326 10.9945L72.3874 11.2147L72.7248 11.4349L73.0622 11.6551L73.3997 11.9927L73.7371 12.3303L74.0745 12.6679L74.4119 13.0055L74.7494 13.3431L75.0868 13.6807L75.3069 14.0184L75.5269 14.4734L75.747 14.9284L75.967 15.3835L76.1871 15.8385L76.4071 16.2936L76.6272 16.7486L76.8473 17.2037L77.0673 17.6587L77.2874 18.1138L77.4048 18.5688L77.5221 19.0239L77.6395 19.4789L77.7568 19.934L77.8742 20.389L77.9916 20.844L78.1089 21.2991L78.2263 21.7541L78.3437 22.2092L78.461 22.6642L78.5784 23.1193V23.5743V24.0294V24.4844V24.9395V25.3945V25.8496V26.3046V26.7596V27.2147L78.461 27.6697L78.3437 28.1248L78.2263 28.5798L78.1089 29.0349L77.9916 29.4899L77.8742 29.945L77.7568 30.4L77.6395 30.8551L77.5221 31.3101L77.4048 31.7651L77.2874 32.2202L77.17 32.6752L77.0527 33.1303L76.9353 33.5853L76.8179 33.9229L76.7006 34.2606L76.5832 34.5982L76.4658 34.9358L76.3485 35.2734L76.2311 35.611L76.1137 35.9486L75.9964 36.2862L75.879 36.6239L75.7616 36.9615L75.6443 37.2991L75.5269 37.6367L75.4095 37.9743L75.2922 38.3119V38.6495V38.9872V39.3248V39.6624V40V40.3376V40.6752L74.6173 39.8826V40.0881Z" fill="#89C8A5"/>
<path fill-rule="evenodd" clip-rule="evenodd" d="M13.3234 38.0624C13.2647 41.1303 13.162 43.9927 12.047 46.8991C10.9614 49.7174 9.24494 52.2716 7.19105 54.4734C2.56981 59.4496 -3.82658 62.767 -10.5604 63.633C-17.2942 64.4991 -24.3361 62.8844 -29.999 59.1266C-34.6055 56.0734 -38.2879 51.5963 -40.1804 46.4C-42.1609 40.9395 -42.1022 34.8918 -40.8552 29.2257C-39.7843 24.3523 -37.7744 19.5376 -34.2241 16.0441C-29.6469 11.5523 -23.0891 9.74681 -16.7367 8.83672C-11.1032 8.04405 -5.20562 7.85323 0.119812 9.8202C4.74106 11.5376 8.74614 14.8551 11.3428 19.0532C14.5997 24.2789 16.6096 32.3963 13.3234 38.0624Z" fill="#66529D"/>
<path fill-rule="evenodd" clip-rule="evenodd" d="M43.9705 62.6642L44.1906 63.1193L44.4106 63.5743L44.6307 64.0294L44.8508 64.4844L45.0708 64.9394L45.1882 65.3945L45.3056 65.8495L45.4229 66.4073L45.5403 66.9651L45.6576 67.5229L45.775 68.0807L45.8924 68.6385L46.0097 69.1963L46.1271 69.7541V70.3119V70.8697V71.4275V71.9853V72.5431V73.1009V73.6587L46.0097 74.2165L45.8924 74.7743L45.775 75.3321L45.6576 75.8899L45.5403 76.4477L45.4229 77.0055L45.3056 77.4606L45.0855 77.9156L44.8654 78.3706L44.6454 78.8257L44.4253 79.2807L44.2053 79.7358L43.9852 80.1908L43.7651 80.6459L43.4277 81.1009L43.0903 81.556L42.7529 82.011L42.4154 82.4661L42.078 82.9211L41.7406 83.2587L41.4032 83.5963L41.0657 83.9339L40.611 84.2716L40.1562 84.6092L39.7014 84.9468L39.2466 85.2844L38.7918 85.622L38.337 85.9596L37.8822 86.1798L37.4274 86.4L36.9726 86.6202L36.5178 86.8404L36.0631 87.0605L35.6083 87.2807L35.0508 87.5009L34.4933 87.6184L33.9358 87.7358L33.3783 87.8532L32.8209 87.9706L32.2634 88.0881L31.7059 88.2055L31.1484 88.3229L30.5909 88.4404H30.0334H29.4759H28.9185H28.361H27.8035H27.246H26.6885H26.1311H25.5736H25.0161L24.5613 88.3229L24.1065 88.2055L23.6517 88.0881L23.1969 87.9706L22.7421 87.8532L22.2873 87.7358L21.8326 87.6184L21.3778 87.5009L20.923 87.3835L20.4682 87.2661L20.0134 87.1486L19.5586 87.0312L19.1038 86.9138L18.649 86.7963L18.1942 86.6789L17.7395 86.5615L17.2847 86.444L16.8299 86.3266L16.4925 86.2092L16.155 86.0917L15.8176 85.9743L15.4802 85.8569L15.1428 85.7394L14.8053 85.622L14.4679 85.5046L14.1305 85.3872L13.7931 85.2697V84.5945L13.4556 84.4771L13.1182 84.3596L12.7808 84.2422L12.4434 84.1248L12.1059 84.0073L11.7685 83.8899L11.5485 83.4349L11.211 83.3174L10.8736 83.2L10.5362 83.0826L10.1988 82.9651L9.86133 82.8477L9.64127 82.7303L9.42121 82.6128L9.20115 82.4954L8.98109 82.378L8.76103 82.2606L8.54097 82.1431L8.32092 82.0257L8.10085 81.9083L7.8808 81.7908L7.66074 81.6734L7.44068 81.556L7.22062 81.4385L7.00056 81.3211L6.7805 81.2037L6.56044 81.0862L6.34038 80.9688L6.12032 80.8514L5.90026 80.7339L5.6802 80.6165H5.46014H5.24008H4.90266H4.56524H4.22781H3.89039H3.55296H3.21554H2.89278H2.55536H2.21794H1.88051H1.54309H1.20566H0.868238H0.530815H0.19339H-0.144033H-0.481459H-0.818884L-1.15631 80.4991L-1.49373 80.3816L-1.83116 80.2642L-2.16858 80.1468L-2.506 80.0294L-2.84343 79.9119L-3.18085 79.7945L-3.51828 79.6771L-3.8557 79.5596L-4.19313 79.4422L-4.53055 79.3248L-4.86797 79.2073L-5.2054 79.0899L-5.54282 78.9725L-5.88025 78.855L-6.21767 78.7376L-6.5551 78.6202L-6.89252 78.5028L-7.22994 78.3853L-7.56737 78.2679L-7.90479 78.1505L-8.24222 77.9303L-8.57964 77.7101L-8.91707 77.4899L-9.25449 77.2697L-9.59191 77.0495L-9.92934 76.8294L-10.2668 76.6092L-10.6042 76.389L-10.9416 76.1688L-11.279 75.9486L-11.6165 75.7284L-11.9539 75.5083L-12.2913 75.2881L-12.6287 75.0679L-12.9662 74.7303L-13.3036 74.3927L-13.641 74.055L-13.9784 73.7174L-14.3159 73.3798L-14.6533 73.0422L-14.9907 72.7046L-15.3281 72.367L-15.5482 72.0294L-15.7682 71.6917L-15.9883 71.3541L-16.2084 71.0165L-16.4284 70.6789L-16.6485 70.2239L-16.8685 69.7688L-17.0886 69.3138L-17.206 68.8587L-17.3233 68.4037L-17.4407 67.9486L-17.5581 67.4936L-17.6754 67.0385L-17.7928 66.5835L-17.9102 66.1284V65.6734V65.2183V64.7633V64.3083V63.8532V63.3982V62.9431L-17.7928 62.4881L-17.6754 62.033L-17.5581 61.578L-17.4407 61.1229L-17.3233 60.6679L-17.206 60.2128L-17.0886 59.7578L-16.9712 59.3028L-16.7512 58.8477L-16.5311 58.3927L-16.3111 57.9376L-16.091 57.4826L-15.8709 57.145L-15.6509 56.8073L-15.4308 56.4697L-15.2108 56.1321L-14.9907 55.7945L-14.7706 55.4569L-14.4332 55.1193L-14.0958 54.7817L-13.7584 54.444L-13.4209 54.1064L-13.0835 53.7688L-12.7461 53.4312L-12.4087 53.0936L-12.0712 52.756L-11.7338 52.5358L-11.3964 52.3156L-11.059 52.0954L-10.7216 51.8752L-10.3841 51.655L-10.0467 51.4349L-9.70928 51.2147L-9.25449 50.9945L-8.7997 50.7743L-8.34491 50.5541L-7.89012 50.3339L-7.43533 50.2165L-6.98054 50.0991L-6.52575 49.9817L-6.07096 49.8642L-5.61618 49.7468L-5.16139 49.6294L-4.7066 49.5119L-4.25181 49.3945L-3.91438 49.2771L-3.57696 49.1596L-3.23954 49.0422L-2.90211 48.9248L-2.56469 48.8073L-2.22726 48.6899L-1.88984 48.5725L-1.55241 48.455L-1.21499 48.3376L-0.877565 48.2202L-0.54014 48.1028L-0.202717 47.9853L0.134706 47.8679L0.472132 47.7505L0.809557 47.633L1.14698 47.5156L1.4844 47.3982L1.82183 47.2807L2.04189 47.1633L2.26195 47.0459L2.48201 46.9284L2.70207 46.811L2.92212 46.6936L3.14219 46.5761L3.36224 46.4587L3.5823 46.3413L3.80236 46.2239L4.02242 46.1064L4.24248 45.989L4.46254 45.8716L4.6826 45.7541L4.90266 45.6367L5.12272 45.5193L5.34278 45.4018L5.56284 45.2844L5.7829 45.0642L6.00296 44.844L6.22301 44.6239L6.44308 44.4037L6.66313 44.1835C6.66313 44.1835 6.86852 43.978 6.88319 43.9633C8.68768 42.1578 10.3161 40.7193 13.0008 40.5138C18.2823 40.1174 22.4194 43.9339 27.202 45.4165L27.5394 45.5339L27.8769 45.6514L28.2143 45.7688L28.5517 45.8862L28.8891 46.0037L29.2265 46.1211L29.564 46.2385L29.9014 46.356L30.2388 46.4734L30.5762 46.5908L30.9137 46.7083L31.2511 46.8257L31.5885 46.9431L31.9259 47.1633L32.2634 47.3835L32.6008 47.6037L32.9382 47.8239L31.8086 49.2771L32.146 49.4973L32.4834 49.7174L32.8209 49.9376L33.1583 50.1578L33.4957 50.378L33.8331 50.5982L34.1705 50.8184L34.508 51.0385L34.8454 51.2587L35.1828 51.4789L35.5202 51.6991L35.8577 51.9193L36.1951 52.1395L36.5325 52.4771L36.8699 52.8147L37.2074 53.1523L37.5448 53.4899L37.8822 53.8275L38.2196 54.1651L38.5571 54.5028L38.8945 54.8404L39.2319 55.178L39.5693 55.5156L39.9068 55.8532L40.2442 56.1908L40.5816 56.5284L40.919 56.8661L41.2565 57.2037L41.5939 57.6587L41.9313 58.1138L42.1514 58.5688L42.3714 59.0239L42.5915 59.4789L42.8115 59.9339L43.0316 60.389L43.2517 60.844L43.4717 61.2991L43.6918 61.7541L43.9705 62.6642Z" fill="#287F42"/>
</g>
<path d="M17.2106 63.8385H4.22712C3.39089 63.8385 2.6867 63.5596 2.12922 62.9872C1.57173 62.4294 1.27832 61.7248 1.27832 60.8881V3.05321C1.27832 2.18716 1.5864 1.37982 2.12922 0.851376C2.6867 0.278899 3.39089 0 4.22712 0H29.666C37.6174 0 43.9405 1.84954 48.459 5.50459C53.0216 9.08624 55.3396 14.4734 55.3396 21.4899C55.3396 28.5798 52.9776 33.9229 48.3417 37.3872C43.8378 40.822 37.5148 42.5688 29.5633 42.5688H26.8199V41.8202C26.8199 38.6202 26.7172 34.6569 26.7172 34.6128V34.5541V34.5101C26.8345 33.4679 27.2747 32.4844 28.0375 31.589C29.7393 29.7835 31.4705 27.9339 33.6417 26.5248C34.0085 26.2459 34.3899 25.9523 34.7713 25.5706C34.83 25.5119 34.8887 25.4679 34.9621 25.4092C34.9914 25.3798 35.0501 25.3505 35.0648 25.3211L35.0941 25.2771C35.0794 25.2771 35.0648 25.2771 35.0648 25.2771C34.0525 25.4532 33.0696 25.7761 32.0426 26.1284L31.5732 26.2899C30.7516 26.5248 30.1794 26.7303 29.5339 26.9945C29.1525 27.1853 28.5217 27.1706 28.1549 26.4367L28.0962 26.2605C27.48 23.4569 26.7465 20.6239 25.9103 17.8202L25.7196 17.1743C25.3675 16.0294 25.0154 14.8404 24.5753 13.8128C24.5166 13.6367 24.4139 13.4606 24.3112 13.2844C24.2525 13.3872 24.2378 13.4899 24.2378 13.5339C24.1351 14.6495 24.3405 15.7211 24.5459 16.8514C24.8687 18.4367 25.1768 20.1248 25.2941 21.8569V22.6349C25.2941 23.0165 25.1621 23.3101 24.9127 23.4862C24.5313 23.7651 24.0911 23.6183 23.8857 23.545L23.7097 23.4569C23.1816 23.1046 23.0202 22.6055 22.8881 22.2385C22.2573 20.1394 21.5091 18.011 20.7902 15.956C20.6876 15.7064 20.5995 15.4275 20.5115 15.1339C20.4382 14.8991 20.3648 14.6495 20.2768 14.4147C20.1741 14.0917 19.8807 13.9009 19.6313 13.9303C19.5139 13.9596 19.4699 13.9743 19.4552 13.989C19.4552 13.989 19.4405 14.0183 19.4259 14.1064C19.4405 14.2972 19.4992 14.5761 19.5873 14.8404C20.1007 16.7193 20.6582 18.4661 21.2597 20.3303L21.7145 21.7395C21.7438 21.9009 21.7878 22.0624 21.8319 22.2092C21.9346 22.5321 22.0372 22.9138 22.0372 23.3541C22.0372 23.5156 22.0372 23.8679 21.7145 24.2055L21.4944 24.4257H21.1864C20.7609 24.4257 20.3941 24.1321 20.2768 23.7505C19.8807 23.1193 19.4552 22.5028 19.0444 21.8862C18.6043 21.2404 18.1495 20.5651 17.7241 19.8752C16.9759 18.6569 16.0956 17.4532 14.966 16.0881C14.966 16.0881 14.9367 16.0587 14.8927 16.0147H14.878C14.8193 16 14.7753 15.9853 14.7753 15.9853C14.7753 15.9853 14.7459 16 14.7166 16.0294C14.9513 16.8807 15.3768 17.6587 15.6702 18.1872C16.081 18.9505 16.5798 19.6697 17.1226 20.4183C17.5187 20.9761 17.9148 21.5486 18.2816 22.1358C18.575 22.6349 18.8831 23.1339 19.1618 23.5156C19.5579 23.956 19.5873 24.5725 19.2205 24.9541C18.8537 25.3211 18.2376 25.2917 17.7974 24.8954C17.4307 24.6312 17.0786 24.3523 16.7118 24.0734C16.3597 23.7945 15.993 23.5156 15.6409 23.2514C15.0834 22.855 14.5112 22.444 13.9391 21.989C14.1004 22.1945 14.2618 22.3853 14.4085 22.5321C15.5528 23.6771 16.6531 25.0716 17.548 26.5394C17.7681 26.8771 18.0175 27.2294 18.2522 27.5816C18.8537 28.4624 19.4112 29.2844 19.9394 30.1798C20.4235 30.811 20.6142 31.589 20.4822 32.4404L20.1741 60.8881C20.1741 61.7101 19.8953 62.4147 19.3232 62.9872C18.751 63.545 18.0468 63.8385 17.2106 63.8385ZM4.22712 1.49725C3.80167 1.49725 3.46424 1.62936 3.1855 1.90826C2.9361 2.1578 2.77472 2.59817 2.77472 3.05321V60.8881C2.77472 61.3138 2.90676 61.6514 3.1855 61.9303C3.46424 62.2092 3.80167 62.3413 4.22712 62.3413H17.2106C17.6361 62.3413 17.9735 62.2092 18.2522 61.9303C18.531 61.6514 18.663 61.3138 18.663 60.8881L18.9858 32.2642C19.0591 31.7945 18.9711 31.3982 18.7217 31.0752L18.663 30.9872C18.1495 30.1211 17.5921 29.2991 17.0052 28.433C16.7705 28.0807 16.5211 27.7284 16.2717 27.3615C15.4061 25.967 14.3939 24.6752 13.3229 23.6037C12.9708 23.2514 12.6334 22.811 12.3106 22.3706L12.2373 22.2532C12.2226 22.2092 12.1786 22.1651 12.1493 22.1211C12.0319 21.9596 11.8705 21.7101 11.8412 21.3872C11.7385 20.8881 11.8998 20.5505 12.0466 20.3596C12.2079 20.1541 12.5307 19.9046 13.1028 19.9046C13.6016 19.9046 13.9977 20.0807 14.3645 20.433C14.9807 20.9615 15.6115 21.4165 16.2864 21.9009C16.1397 21.6954 15.993 21.4899 15.8609 21.2844C15.3328 20.5211 14.7753 19.7431 14.3352 18.9064C13.763 17.9229 13.4109 17.0862 13.2202 16.3229C13.1175 16.0147 13.0295 15.3248 13.851 14.7817C14.4085 14.4147 14.878 14.444 15.2448 14.5615C15.6702 14.6202 15.9196 14.9138 16.0223 15.0605L16.0956 15.1339C17.2693 16.5578 18.1935 17.8055 18.9858 19.0972C19.1765 19.4055 19.3819 19.7138 19.5726 20.022C19.0591 18.4367 18.5897 16.8954 18.1495 15.2954C18.0762 15.0605 17.9148 14.5174 17.9148 14.0477L17.9295 13.9009C18.0909 13.0789 18.531 12.6385 19.3525 12.4771C20.3501 12.3009 21.3477 12.9321 21.6705 13.9156C21.7732 14.1505 21.8612 14.444 21.9346 14.7229C22.0079 14.9578 22.0813 15.2073 22.1693 15.4422C22.5801 16.6165 23.0055 17.8055 23.4016 19.0092C23.2989 18.378 23.1669 17.7468 23.0495 17.1303C22.8295 15.9413 22.6094 14.7083 22.7268 13.4605C22.7268 12.7853 23.1229 12.1394 23.7684 11.8165L23.8711 11.7725C24.81 11.4642 25.2208 11.9339 25.3822 12.1982C25.6169 12.5358 25.8369 12.8881 25.969 13.2844C26.4091 14.3266 26.7759 15.5596 27.1426 16.7339L27.3333 17.3798C28.1256 20.0514 28.8297 22.7376 29.4312 25.4092C29.9594 25.2037 30.4875 25.0275 31.1184 24.8514L31.5438 24.7046C32.6588 24.3376 33.7004 23.9706 34.8594 23.7798L34.9767 23.7651C35.4609 23.7651 36.1064 23.7651 36.5465 24.411C36.6785 24.6165 37.0453 25.3211 36.3118 26.1138C36.1651 26.3486 35.9743 26.4807 35.857 26.5835C35.3582 27.0679 34.9034 27.4055 34.4779 27.7284C32.424 29.0642 30.8249 30.767 29.1378 32.5578C28.6097 33.1743 28.2723 33.8789 28.1842 34.5982C28.1989 35.0532 28.2723 38.1945 28.2869 41.0422H29.5339C37.148 41.0422 43.1629 39.3982 47.4028 36.1688C51.6572 32.9982 53.8138 28.0514 53.8138 21.4752C53.8138 14.9431 51.6866 9.95229 47.5054 6.66422C43.251 3.22936 37.2507 1.48257 29.6513 1.48257H4.22712V1.49725ZM28.9471 25.6294C28.9324 25.6294 28.9178 25.644 28.9178 25.644C28.9324 25.644 28.9471 25.6294 28.9471 25.6294Z" fill="#3B3B3B"/>
</svg>
