<svg width="110" height="44" viewBox="0 0 110 44" fill="none" xmlns="http://www.w3.org/2000/svg">
<g clip-path="url(#clip0)">
<path d="M98.2684 41.7038C97.1981 40.7054 96.6279 39.2078 96.5579 37.2109V36.502C96.6279 34.645 97.1981 33.2272 98.2684 32.1589C99.3387 31.0906 100.839 30.5914 102.7 30.5914C104.06 30.5914 105.201 30.881 106.131 31.3802C107.061 31.9493 107.771 32.6581 108.201 33.5867C108.632 34.5152 108.912 35.5835 108.912 36.7916V37.4306C108.912 37.5704 108.842 37.7201 108.772 37.8599C108.632 37.9997 108.482 37.9997 108.342 37.9997H100.919V38.1394C100.919 38.8483 101.059 39.4174 101.419 39.8467C101.709 40.2761 102.21 40.4857 102.78 40.4857C103.14 40.4857 103.42 40.4158 103.71 40.2761C103.92 40.1363 104.14 39.9166 104.35 39.707C104.49 39.5672 104.64 39.4174 104.71 39.4174C104.78 39.3475 104.92 39.3475 105.141 39.3475H108.211C108.352 39.3475 108.502 39.4174 108.572 39.4873C108.642 39.5572 108.712 39.697 108.712 39.7768C108.712 40.2062 108.502 40.6355 108.001 41.2046C107.501 41.7737 106.861 42.203 106.001 42.6323C105.141 42.9917 104.07 43.2014 102.86 43.2014C100.909 43.2713 99.4087 42.6922 98.2684 41.7038ZM104.69 35.6434C104.69 34.8547 104.55 34.2856 104.19 33.8662C103.83 33.4369 103.4 33.2272 102.83 33.2272C102.26 33.2272 101.759 33.4369 101.469 33.8662C101.179 34.2956 100.969 34.8646 100.969 35.5735V35.6434H104.69Z" fill="#3B3B3B"/>
<path d="M87.3451 38.5588V34.2157H85.4845C85.3444 34.2157 85.1944 34.1458 85.0543 34.0759C84.9143 33.9361 84.9143 33.7864 84.9143 33.6466V31.6498C84.9143 31.51 84.9843 31.3602 85.0543 31.2204C85.1944 31.0807 85.3444 31.0807 85.4845 31.0807H87.3451V27.2368C87.3451 27.097 87.4151 26.9472 87.4851 26.8074C87.6251 26.6677 87.7752 26.6677 87.9152 26.6677H90.7661C90.9062 26.6677 91.0562 26.7376 91.1962 26.8074C91.3363 26.8773 91.3363 27.097 91.3363 27.2368V31.0807H94.2672C94.4072 31.0807 94.5573 31.1505 94.6973 31.2204C94.8374 31.3602 94.8374 31.51 94.8374 31.6498V33.6466C94.8374 33.7864 94.7673 33.9361 94.6973 34.0759C94.5573 34.2157 94.4072 34.2157 94.2672 34.2157H91.3363V38.2093C91.3363 38.7784 91.4063 39.1379 91.6264 39.4873C91.8364 39.7768 92.1265 39.9166 92.6267 39.9166H94.4873C94.6273 39.9166 94.7773 39.9865 94.9174 40.0564C95.0574 40.1263 95.0574 40.3459 95.0574 40.4857V42.6223C95.0574 42.7621 94.9874 42.9119 94.9174 43.0516C94.7773 43.1914 94.6273 43.1914 94.4873 43.1914H92.2766C88.9856 43.2713 87.3451 41.7038 87.3451 38.5588Z" fill="#3B3B3B"/>
<path d="M71.06 43.0516C70.9199 42.9119 70.9199 42.7621 70.9199 42.6223V31.6497C70.9199 31.51 70.9899 31.3602 71.06 31.2204C71.2 31.0806 71.3501 31.0806 71.4901 31.0806H74.341C74.481 31.0806 74.6311 31.1505 74.7711 31.2204C74.9112 31.3602 74.9112 31.51 74.9112 31.6497V32.5783C75.3413 32.0791 75.8414 31.6497 76.5517 31.3003C77.1919 31.0108 77.9821 30.8011 78.8324 30.8011C79.7627 30.8011 80.5429 31.0108 81.1931 31.4401C81.9033 31.8694 82.4735 32.4385 82.8336 33.2173C83.2637 34.006 83.4038 34.9944 83.4038 36.0627V42.6223C83.4038 42.7621 83.3338 42.9119 83.2637 43.0516C83.1237 43.1914 82.9736 43.2613 82.8336 43.2613H79.6926C79.5526 43.2613 79.3325 43.1914 79.2625 43.1215C79.1225 42.9817 79.1225 42.832 79.1225 42.6922V36.2824C79.1225 35.5735 78.9824 35.0044 78.6223 34.645C78.2622 34.2856 77.762 34.0759 77.1218 34.0759C76.4816 34.0759 75.9815 34.2856 75.6214 34.645C75.2613 35.0044 75.0512 35.5735 75.0512 36.2125V42.6223C75.0512 42.7621 74.9812 42.9119 74.9112 43.0516C74.7711 43.1914 74.6211 43.1914 74.481 43.1914H71.3401C71.28 43.2713 71.13 43.1914 71.06 43.0516Z" fill="#3B3B3B"/>
<path d="M58.066 41.7038C56.9957 40.7054 56.4255 39.2078 56.3555 37.2109V36.502C56.4255 34.645 56.9957 33.2272 58.066 32.1589C59.1363 31.0906 60.6368 30.5914 62.4973 30.5914C63.8578 30.5914 64.9981 30.881 65.9284 31.3802C66.8587 31.9493 67.5689 32.6581 67.999 33.5867C68.4292 34.5152 68.7093 35.5835 68.7093 36.7916V37.4306C68.7093 37.5704 68.6392 37.7201 68.5692 37.8599C68.4292 37.9997 68.2791 37.9997 68.1391 37.9997H60.7168V38.1394C60.7168 38.8483 60.8568 39.4174 61.217 39.8467C61.507 40.2761 62.0072 40.4857 62.5774 40.4857C62.9375 40.4857 63.2176 40.4158 63.5077 40.2761C63.7177 40.1363 63.9378 39.9166 64.1479 39.707C64.2879 39.5672 64.4379 39.4174 64.508 39.4174C64.578 39.3475 64.718 39.3475 64.9381 39.3475H67.989C68.1291 39.3475 68.2791 39.4174 68.3491 39.4873C68.4192 39.5572 68.4892 39.697 68.4892 39.7768C68.4892 40.2062 68.2791 40.6355 67.779 41.2046C67.2788 41.7737 66.6386 42.203 65.7784 42.6323C64.9181 42.9917 63.8478 43.2014 62.6374 43.2014C60.6368 43.2713 59.1363 42.6922 58.066 41.7038ZM64.4179 35.6434C64.4179 34.8547 64.2779 34.2856 63.9178 33.8662C63.5577 33.4369 63.1275 33.2272 62.5574 33.2272C61.9872 33.2272 61.487 33.4369 61.1969 33.8662C60.9069 34.2956 60.6968 34.8646 60.6968 35.5735V35.6434H64.4179Z" fill="#3B3B3B"/>
<path d="M45.6422 42.6922C44.7819 42.3328 44.1417 41.9035 43.7116 41.4143C43.2815 40.915 43.0714 40.4857 43.0714 40.0564C43.0714 39.9166 43.1414 39.7669 43.2115 39.697C43.3515 39.6271 43.4215 39.5572 43.5716 39.5572H46.4224C46.4925 39.5572 46.5625 39.5572 46.6325 39.6271C46.9226 39.7669 47.0626 39.9166 47.0626 39.9166C47.3527 40.1263 47.6328 40.2761 47.9229 40.4158C48.213 40.5556 48.4931 40.5556 48.8532 40.5556C49.2833 40.5556 49.6434 40.4857 49.9235 40.3459C50.2136 40.2062 50.3536 39.9166 50.3536 39.6371C50.3536 39.3575 50.2836 39.2078 50.1436 38.9981C50.0035 38.8583 49.7134 38.7085 49.2833 38.5688C48.8532 38.429 48.213 38.2792 47.3527 38.1395C44.6419 37.5704 43.2815 36.3623 43.2815 34.3654C43.2815 33.7265 43.4915 33.0875 43.9217 32.5084C44.3518 31.9393 44.922 31.4401 45.7822 31.0807C46.5725 30.7212 47.5628 30.5116 48.7131 30.5116C49.8635 30.5116 50.8538 30.6513 51.7141 31.0108C52.5743 31.3702 53.2145 31.7995 53.6447 32.2887C54.0748 32.788 54.2849 33.2173 54.2849 33.6466C54.2849 33.7864 54.2148 33.9361 54.1448 34.006C54.0748 34.1458 53.9347 34.1458 53.7847 34.1458H51.2139C51.0739 34.1458 50.9238 34.1458 50.8538 34.0759C50.6437 34.006 50.4937 33.8662 50.2836 33.7165C49.9935 33.5068 49.7835 33.357 49.5734 33.2872C49.3633 33.2173 49.0733 33.1474 48.7832 33.1474C48.4231 33.1474 48.0729 33.2173 47.8529 33.4369C47.6428 33.5767 47.4928 33.7963 47.4928 34.0759C47.4928 34.2856 47.5628 34.5052 47.7028 34.645C47.8429 34.7848 48.133 34.9345 48.4931 35.0743C48.9232 35.2141 49.5634 35.3639 50.4237 35.5036C51.9941 35.7932 53.0645 36.2125 53.7747 36.9314C54.4849 37.6502 54.845 38.429 54.845 39.2876C54.845 40.4258 54.3449 41.4242 53.2745 42.0632C52.2042 42.7721 50.7738 43.1315 48.9232 43.1315C47.5728 43.2713 46.5025 43.0517 45.6422 42.6922Z" fill="#3B3B3B"/>
<path d="M30.9377 41.7038C29.8674 40.7054 29.2972 39.2078 29.2272 37.2109V36.502C29.2972 34.645 29.8674 33.2272 30.9377 32.1589C32.008 31.0906 33.5085 30.5914 35.3691 30.5914C36.7295 30.5914 37.8698 30.881 38.8001 31.3802C39.7304 31.9493 40.4406 32.6581 40.8707 33.5867C41.3009 34.5152 41.581 35.5835 41.581 36.7916V37.4306C41.581 37.5704 41.5109 37.7201 41.4409 37.8599C41.3009 37.9997 41.1508 37.9997 41.0108 37.9997H33.5785V38.1394C33.5785 38.8483 33.7186 39.4174 34.0787 39.8467C34.3688 40.2761 34.8689 40.4857 35.4391 40.4857C35.7992 40.4857 36.0793 40.4158 36.3694 40.2761C36.5794 40.1363 36.7995 39.9166 37.0096 39.707C37.1496 39.5672 37.2997 39.4174 37.3697 39.4174C37.4397 39.3475 37.5797 39.3475 37.7998 39.3475H40.8707C41.0108 39.3475 41.1608 39.4174 41.2309 39.4873C41.3009 39.5572 41.3709 39.697 41.3709 39.7768C41.3709 40.2062 41.1608 40.6355 40.6607 41.2046C40.1605 41.7737 39.5203 42.203 38.6601 42.6323C37.7998 42.9917 36.7295 43.2014 35.5191 43.2014C33.5085 43.2713 32.008 42.6922 30.9377 41.7038ZM37.2897 35.6434C37.2897 34.8547 37.1496 34.2856 36.7895 33.8662C36.4294 33.4369 35.9993 33.2272 35.4291 33.2272C34.8589 33.2272 34.3587 33.4369 34.0687 33.8662C33.7786 34.2956 33.5685 34.8646 33.5685 35.5735V35.6434H37.2897Z" fill="#3B3B3B"/>
<path d="M19.1541 43.0516C19.014 42.9118 19.014 42.7621 19.014 42.6223V31.6497C19.014 31.5099 19.0841 31.3602 19.1541 31.2204C19.2941 31.0806 19.4442 31.0806 19.5842 31.0806H22.4351C22.5751 31.0806 22.7252 31.1505 22.8652 31.2204C23.0053 31.3602 23.0053 31.5099 23.0053 31.6497V32.5782C23.4354 32.079 23.9356 31.7196 24.5757 31.4401C25.1459 31.1505 25.7861 31.0806 26.5063 31.0806H27.5767C27.7167 31.0806 27.8668 31.1505 28.0068 31.2204C28.1468 31.3602 28.1468 31.5099 28.1468 31.6497V34.2157C28.1468 34.3554 28.0768 34.5052 28.0068 34.645C27.8668 34.7847 27.7167 34.7847 27.5767 34.7847H25.2159C24.5757 34.7847 24.0756 34.9245 23.7855 35.284C23.4254 35.6434 23.2854 36.1426 23.2854 36.7117V42.6223C23.2854 42.7621 23.2153 42.9118 23.1453 43.0516C23.0053 43.1914 22.8552 43.1914 22.7152 43.1914H19.6442C19.4442 43.2713 19.3041 43.1914 19.1541 43.0516Z" fill="#3B3B3B"/>
<mask id="mask0" mask-type="alpha" maskUnits="userSpaceOnUse" x="1" y="0" width="37" height="43">
<path d="M1.71871 1.24801L2.71902 0.698883H24.1256L29.9274 2.34627L33.5785 4.79238L36.2793 8.63628L37.3297 13.6284L36.6795 19.2694L34.6789 23.2131L31.6279 25.7591L26.8765 27.8558L21.7249 28.2052H18.6739L19.024 22.065L24.4757 17.0729L24.1256 16.7234L21.0247 17.4722H19.7743L17.5236 9.68461L16.4733 8.53644L15.9231 9.03565L16.4733 15.0261L14.0225 9.38509L13.2723 9.03565L12.6221 9.38509L13.2723 11.2322L14.0225 15.3756L11.5717 11.7813L9.82121 10.3835L9.57113 11.2322L12.372 16.4239L9.27104 14.3772V15.0261L13.2723 21.3161V41.3843L12.472 42.9318H2.9691L1.81875 42.5325L1.11853 41.3843V4.04357L1.71871 1.24801Z" fill="black"/>
</mask>
<g mask="url(#mask0)">
<path fill-rule="evenodd" clip-rule="evenodd" d="M48.5831 8.32677L48.5031 8.63628L48.4231 8.94578L48.3431 9.25529L48.263 9.5648L48.183 9.87431L48.103 10.1838L48.023 10.4933L47.9429 10.8028L47.8629 11.1123L47.7829 11.4219L47.7029 11.7314L47.6228 12.0409L47.5428 12.3504L47.4628 12.6599L47.3828 12.9694L47.3027 13.2789L47.2227 13.5884L47.1427 13.8979L47.0627 14.2074L46.9826 14.5169L46.9026 14.8264L46.8226 15.136L46.7426 15.4455L46.5925 15.755L46.4425 16.0645L46.2924 16.374L46.1424 16.6835L45.9923 16.993L45.8423 17.3025L45.6922 17.612L45.5422 17.9215L45.3921 18.231L45.2421 18.5405L45.0921 18.8501L44.942 19.1596L44.792 19.4691L44.6419 19.7786L44.4919 20.0881L44.3418 20.3976L44.1918 20.6272L43.9617 20.8569L43.7316 21.0865L43.5016 21.3161L43.1214 21.8553L42.8914 22.0849L42.6613 22.3146L42.4312 22.5442L42.2012 22.7738L41.9711 23.0035L41.741 23.2331L41.5109 23.4627L41.2809 23.6924L41.0508 23.922L40.8207 24.1516L40.5907 24.3813L40.3606 24.6109L40.1305 24.7607L39.9005 24.9104L39.6704 25.0602L39.4403 25.21L39.1302 25.3597L38.8201 25.5095L38.51 25.6592L38.1999 25.809L37.8898 25.9588L37.5797 26.1085L37.2696 26.2583L36.9595 26.4081L36.6495 26.5578L36.3394 26.7076L36.0293 26.8573L35.7192 27.0071L35.4091 27.1569L35.099 27.3066L34.7889 27.4564L34.4788 27.6062L34.1687 27.7559L33.8586 27.9057L33.5485 28.0554L33.3184 28.2052L33.0884 28.355L32.8583 28.5047L32.6282 28.6545L32.3981 28.8042L32.1681 28.954L31.938 29.1038L31.7079 29.2535L31.4779 29.4033L31.2478 29.5531L31.0177 29.7028L30.7877 29.8526L30.5576 30.0023L30.3275 30.1521L30.0974 30.3019L29.8674 30.4516L29.6373 30.6014L29.4072 30.7512L29.1772 30.9009L28.9471 31.0507L28.717 31.2004L28.4869 31.3502L28.2569 31.5L28.0268 31.6497L27.7967 31.8794L27.5667 32.109L27.3366 32.3386L27.1065 32.5683L26.8764 32.7979L26.6464 33.0275L26.4163 33.2572L26.1862 33.4868L25.9562 33.7164L25.7261 33.9461L25.496 34.1757L25.266 34.4054L25.0359 34.635L24.8058 34.8646L24.5757 35.0943L24.3457 35.3239L24.1156 35.5535L23.8855 35.7832L23.6555 36.0128L23.4254 36.2424L23.1953 36.4721L22.9652 36.7017L22.7352 36.9313L22.5051 37.161L22.275 37.3906L22.045 37.6202L21.8149 37.8499L21.5048 38.0795L21.1947 38.3092L20.8846 38.5388L20.5745 38.7684L20.2644 38.9981L19.9543 39.2277L19.6442 39.4573L19.3341 39.687L19.024 39.9166L18.7139 40.0664L18.4038 40.2161L18.0937 40.3659L17.7837 40.5157L17.4736 40.6654L17.1635 40.8152L16.8534 40.9649L16.5433 41.1147L16.2332 41.2645L15.9231 41.3443L15.613 41.4242L15.2329 41.5041L14.8527 41.584L14.6727 41.6339L14.2926 41.7137L13.9125 41.7936L14.0625 41.564H13.6824H13.3023H12.9222H12.542H12.1619H11.7818H11.4017L11.0216 41.4841L10.6415 41.4042L10.2613 41.3244L9.95124 41.2445L9.64115 41.1646L9.33105 41.0847L9.02096 41.0049L8.71086 40.8551L8.40076 40.7054L8.09067 40.5556L7.78057 40.4058L7.47048 40.2561L7.16038 40.1063L6.85029 39.9565L6.54019 39.7269L6.2301 39.4973L5.92 39.2676L5.60991 39.038L5.29981 38.8084L4.98972 38.5787L4.75965 38.3491L4.52957 38.1195L4.2995 37.8898L4.06943 37.5803L3.83936 37.2708L3.60929 36.9613L3.37922 36.6518L3.14915 36.3423L2.91908 36.0328L2.68901 35.7233L2.45894 35.4138L2.22887 35.1042L2.07882 34.7947L1.92877 34.4852L1.77873 34.1757L1.62868 33.8662L1.47864 33.5567L1.32859 33.2472L1.17854 32.9377L1.0285 32.6282L0.878452 32.3187L0.728406 31.9393L0.578359 31.5599L0.428313 31.1805L0.348288 30.8011L0.268263 30.4217L0.188239 30.0423L0.108214 29.6629L0.0281902 29.2835L-0.0518347 28.9041L-0.13186 28.5247L-0.211885 28.2152L-0.291909 27.9057L-0.371933 27.5962L-0.451958 27.2867L-0.531983 26.9772L-0.612008 26.6676L-0.692032 26.3581L-0.772056 26.0486L-0.852081 25.7391V25.4296V25.1201V24.8106V24.5011V24.1916V23.8821V23.5726V23.263V23.0634V22.7638V22.4543V22.2247L-0.932106 21.9951L-1.01213 21.7654L-1.09216 21.5358L-1.17218 21.3062L-1.2522 21.0765L-1.33223 20.8469L-1.41225 20.6172L-1.49228 20.3876L-1.5723 20.158L-1.65233 19.9283L-1.73235 19.6987L-1.81238 19.4691L-1.8924 19.3193L-1.93241 19.1695L-2.08246 19.0198L-2.23251 18.87L-2.38255 18.7203L-2.5326 18.5705L-2.68264 18.4207L-2.83269 18.271L-2.98274 18.1212L-3.21281 17.9715L-3.44288 17.8217L-3.67295 17.6719L-3.90302 17.5222L-4.13309 17.3724L-4.36316 17.2226L-4.59323 17.0729L-4.8233 16.9231L-5.05337 16.7734L-5.36347 16.6236L-5.67356 16.4738L-5.98366 16.3241L-6.29375 16.1743L-6.60385 16.0245L-6.91395 15.8748L-7.22404 15.725L-7.53414 15.5753L-7.84423 15.4255L-8.15433 15.2757L-8.46442 15.126L-8.77452 14.8963L-9.08461 14.6667L-9.39471 14.4371L-9.7048 14.2074L-10.0149 13.9778L-10.325 13.7482L-10.6351 13.5185L-10.9452 13.2889L-11.2553 13.0593L-11.5654 12.8296L-11.8755 12.6L-12.1856 12.3703L-12.4957 12.1407L-12.7257 11.8312L-12.9558 11.5217L-13.1859 11.2122L-13.4159 10.9027L-13.646 10.5932L-13.8761 10.2837L-14.1062 9.97415L-14.3362 9.66464L-14.4863 9.35513L-14.6363 9.04563L-14.7864 8.73612L-14.9364 8.42661L-15.0865 8.1171L-15.2365 7.80759L-15.3866 7.49808L-15.4666 7.18857L-15.5466 6.87907L-15.6266 6.56956L-15.7066 6.26005L-15.7867 5.95054L-15.8667 5.64103V5.33152V5.02202V4.71251V4.403V4.09349V3.78398V3.47447L-15.7867 3.16496L-15.7066 2.85546L-15.6266 2.54595L-15.5466 2.23644L-15.4666 1.92693L-15.3866 1.61742L-15.3065 1.30791L-15.2265 0.998404L-15.1465 0.688896L-14.9964 0.379387L-14.8464 0.0698783L-14.6963 -0.23963L-14.5463 -0.549138L-14.3962 -0.858647L-14.2462 -1.16816L-14.0962 -1.47766L-13.9461 -1.78717L-13.7961 -2.09668L-13.646 -2.40619L-13.496 -2.7157L-13.2659 -3.02521L-13.0358 -3.33472L-12.8058 -3.64422L-12.5757 -3.87386L-12.3456 -4.10349L-12.1155 -4.33313L-11.8855 -4.56276L-11.6554 -4.7924L-11.4253 -5.02204L-11.1953 -5.25167L-10.9652 -5.48131L-10.7351 -5.71094L-10.505 -5.94058L-10.195 -6.17021L-9.88486 -6.39985L-9.57476 -6.62948L-9.26467 -6.77925L-8.95457 -6.92901L-8.64448 -7.07877L-8.33438 -7.22853L-8.02429 -7.37829L-7.71419 -7.52806L-7.4041 -7.67782L-7.094 -7.82758L-6.78391 -7.97734L-6.47381 -8.1271L-6.16372 -8.27687L-5.85362 -8.42663L-5.53352 -8.48653L-5.22343 -8.56641L-4.91333 -8.64628L-4.60323 -8.72615L-4.29314 -8.80603L-3.98304 -8.8859L-3.67295 -8.96577L-3.36285 -9.04565L-3.05276 -9.12552L-2.74266 -9.20539L-2.43257 -9.28527L-2.12247 -9.36514L-1.81238 -9.44501L-1.50228 -9.52489L-1.19219 -9.60476L-0.88209 -9.68463H-0.571994H-0.2619H0.0481961H0.358291H0.668387H0.978483H1.28858H1.59867H1.90877H2.21886H2.52896H2.83905H3.14915H3.45924H3.76934H4.07943H4.38953H4.56959H4.79966H5.02973H5.2598H5.48987H5.71994H5.95001H6.18008H6.41015H6.64022H6.87029H7.10037H7.33043H7.56051H7.79058H8.02065H8.25072H8.47079H8.70086H8.93093H9.161H9.39107H9.62114H9.85121H10.0813H10.3114H10.5414H10.7715H11.0016H11.2316H11.4617H11.6918H11.9218H12.1519H12.382H12.6121H12.8421H13.0722H13.3023H13.5323H13.7624H13.9925H14.2226H14.4526H14.6827H14.9128H15.1428H15.3729H15.603H15.8331H16.0631H16.2932H16.5233H16.7533H16.9834H17.2135H17.4435H17.6736H17.9037H18.1338H18.3638H18.5939H18.824H19.054H19.2841H19.5142H19.7443H19.9743H20.2044H20.4345H20.6645H20.8946H21.1247H21.3547H21.5848H21.8149H22.045H22.275H22.5051H22.7352H22.9652H23.1953H23.4254H23.6555H23.8855H24.1156H24.3457H24.5757H24.8058H25.0359H25.266H25.496H25.7261H25.9562H26.1862H26.4963H26.8064H27.1165H27.4266H27.7367H28.0468H28.3569H28.667H28.9771H29.2872H29.5973H29.9074H30.2175H30.5276H30.8377H31.1478H31.4579H31.768H32.078H32.3881H32.6982H33.0083H33.3184H33.6985H34.0787H34.4588H34.8389H35.219H35.5991L35.9792 -9.60476L36.3594 -9.52489L36.7395 -9.44501L37.1196 -9.36514L37.4997 -9.28527L37.8798 -9.20539L38.2599 -9.12552L38.6401 -9.04565L39.0202 -8.96577L39.4003 -8.8859L39.7804 -8.80603L40.1605 -8.72615L40.5407 -8.57639L40.9208 -8.42663L41.3009 -8.27687L41.681 -8.1271L41.9911 -7.97734L42.3012 -7.82758L42.6113 -7.67782L42.9214 -7.52806L43.2315 -7.37829L43.5416 -7.22853L43.8517 -7.07877L44.1618 -6.84913L44.4719 -6.6195L44.782 -6.38986L45.0921 -6.16023L45.4021 -5.93059L45.7122 -5.70096L46.0223 -5.47132L46.3324 -5.24169L46.5625 -5.01205L46.7926 -4.78242L47.0226 -4.55278L47.2527 -4.24327L47.4828 -3.93376L47.5828 -3.5943L47.8129 -3.28479L48.043 -2.97529L48.273 -2.66578L48.4231 -2.35627L48.5731 -2.04676L48.7232 -1.73725L48.8732 -1.42774L49.0233 -1.11823L49.1733 -0.808726L49.3234 -0.499218L49.4734 -0.189709L49.5534 0.119799L49.6334 0.429308L49.7135 0.738817L49.7935 1.11821L49.8735 1.49761L49.9535 1.87701L50.0336 2.25641L50.1136 2.6358L50.1936 3.0152V3.3946V3.774V4.15339V4.53279V4.91219V5.29159V5.67098V6.05038V6.42978V6.80918V7.18857V7.56797L50.1136 7.94737L50.0336 8.32677L49.9535 8.70616L49.8835 9.08556L49.8035 9.46496L49.7235 9.77447L49.6435 10.084L49.5634 10.3935L48.5831 8.32677Z" fill="#EB5C2C"/>
<path fill-rule="evenodd" clip-rule="evenodd" d="M23.5554 19.3193V19.3992V19.4791V19.5589V19.6388V19.7187V19.7986V19.8784V20.0282V20.178V20.3277V20.4775V20.6272V20.777V20.9268V21.0765V21.2263V21.376V21.5258L23.6354 21.6756H24.0156L24.0956 21.8253L24.1756 21.9751L24.2556 22.1249L24.3357 22.2746L24.4157 22.4244L24.4957 22.5741L24.5757 22.7239L24.6558 22.8737L24.7358 23.0234L24.8158 23.1732L24.8958 23.323L24.9759 23.4727L25.0559 23.6225L25.1359 23.7722L25.2159 23.922L25.296 24.0718L25.376 24.2215L25.456 24.3713L25.536 24.5211L25.6161 24.6708L25.6961 24.8206L25.7761 24.9703L25.8561 25.1201L25.9362 25.2699L26.0162 25.4196L26.0962 25.5694L26.1762 25.7192L26.2563 25.9488L26.3363 26.1784L26.4163 26.4081L26.4963 26.6377L26.5764 26.8673V27.097V27.3266V27.5562V27.7859V28.0155V28.2451V28.4748V28.7044V28.934V29.1637V29.3933V29.623V29.8526V30.0822V30.3119V30.5415V30.7711L26.4963 31.0008L26.4163 31.1505L26.3363 31.3003L26.2563 31.4501L26.1762 31.5998L26.0962 31.7496L26.0162 31.8993L25.9362 32.0491L25.8561 32.1989L25.7761 32.3486L25.6961 32.4984L25.6161 32.6482L25.466 32.7979L25.316 32.9477L25.1659 33.0974L25.0159 33.2472L24.8658 33.3271L24.7158 33.4069L24.5657 33.4868L24.4157 33.5667L24.2656 33.6466L24.1156 33.7264L23.9655 33.8063L23.8155 33.8862L23.6655 33.9661L23.5154 34.0459L23.3654 34.1258H23.1353H22.9052H22.6752H22.4451H22.215H21.9849H21.7549H21.5248H21.1747H20.9446H20.7145L20.4845 34.0459L20.2544 33.9661L20.0243 33.8862L19.7943 33.8063L19.5642 33.7264L19.3341 33.6466L19.1041 33.5667L18.874 33.4868L18.6439 33.4069L18.4138 33.3271L18.1838 33.2472L17.9537 33.1673L17.8037 33.0875L17.6536 33.0076L17.5036 32.9277L17.3535 32.8478L17.2035 32.768L17.0534 32.6881L16.9034 32.6082L16.7533 32.5283L16.6033 32.4485L16.4532 32.3686L16.3032 32.2887L16.1531 32.2089L16.0031 32.129L15.8531 32.0491L15.703 31.9692L15.553 31.8894L15.4029 31.8095L15.2529 31.7296L15.1028 31.6497L14.9528 31.5699L14.8027 31.49L14.6527 31.4101L14.5026 31.3302L14.3526 31.2504L14.2025 31.1705L14.0525 31.0906L13.9025 31.0108L13.7524 30.9309L13.6024 30.851L13.4523 30.7711H13.3023H13.1522H13.0022H12.9221H12.8421H12.7621H12.6821H12.6021H12.522H12.372H12.292H12.2119H12.1319H11.9819H11.8318H11.6818L11.5317 30.851L11.3817 30.9309L11.0016 30.6214L10.8515 30.7012L10.7015 30.7811L10.5514 30.861L10.4014 30.9409L10.2513 31.0207L10.1013 31.1006L9.95124 31.1805L9.80119 31.2604L9.65114 31.3402L9.5011 31.4201L9.35105 31.5L9.20101 31.5798L9.05096 31.6597L8.90091 31.7396L8.75087 31.8195L8.60082 31.8993L8.45077 31.9792L8.30073 32.0591L8.15068 32.139L8.00064 32.2188L7.85059 32.2987L7.70054 32.3786L7.5505 32.4585L7.40045 32.5383L7.2504 32.6182L7.10036 32.6981L6.95031 32.7779L6.72024 32.8578L6.49017 33.0076L6.2601 33.0875L6.03003 33.1673L5.79996 33.2472L5.56989 33.3271L5.33982 33.4069L5.10975 33.4868L4.87968 33.5667L4.6496 33.6466L4.41953 33.7264L4.18946 33.8063H3.95939H3.72932H3.49925H3.26918H3.03911H2.80904H2.57897H2.3489H2.11883H1.81873H1.58866H1.42861L1.27857 33.7264L1.12852 33.6466L0.968471 33.6865L0.818425 33.6066L0.668379 33.5268L0.518333 33.4469L0.368287 33.367L0.21824 33.2871L0.0681941 33.2073L-0.081852 33.1274L-0.231898 32.9776L-0.381944 32.8279L-0.531991 32.6781L-0.682037 32.5283L-0.762061 32.3786L-0.842086 32.2288L-0.922111 32.0791L-1.00214 31.9293L-1.08216 31.7795L-1.16218 31.6298L-1.24221 31.48L-1.32223 31.3302L-1.40226 31.1805L-1.48228 31.0307L-1.56231 30.881L-1.64233 30.6513V30.4217V30.1921V29.9624V29.7328V29.5031V29.2535V29.0239V28.7943V28.5646V28.335V28.1054V27.8757V27.6461V27.4165V27.1868V26.9572V26.7276L-1.56231 26.4979L-1.48228 26.2683L-1.40226 26.0386L-1.32223 25.809L-1.24221 25.5794L-1.16218 25.4296L-1.08216 25.2799L-1.00214 25.1301L-0.922111 24.9803L-0.842086 24.8306L-0.762061 24.6808L-0.682037 24.531L-0.602012 24.3813L-0.521987 24.2315L-0.441963 24.0818L-0.361938 23.932L-0.281914 23.7822L-0.201889 23.6325L-0.121864 23.4827L-0.0418398 23.3329L0.0381848 23.1832L0.11821 23.0334L0.198234 22.8837L0.278259 22.7339L0.358283 22.5841L0.438308 22.4344L0.518333 22.2846L0.598357 22.1348L0.678382 21.9851L0.668379 21.7654L0.748403 21.6157L0.828428 21.4659L0.908453 21.3161L0.988477 21.1664V21.0166V20.8669V20.7171V20.5673V20.4176V20.2678V20.118V19.9683V19.8185V19.6688V19.519V19.4391V19.3593V19.2794V19.1696V19.0897V19.0098V18.9299V18.8501V18.7702V18.6903V18.6104V18.5306V18.4507V18.3708V18.2211V18.0713V17.9215V17.7718V17.622V17.4722V17.3225V17.1727V17.023V16.8732V16.7234L0.89845 16.5737L0.818425 16.4239L0.7384 16.2742L0.658376 16.1244L0.578351 15.9746L0.498326 15.8249L0.418302 15.6751L0.338277 15.5253L0.258253 15.3756L0.178228 15.2258L0.0982035 15.0761L0.0181788 14.9263L-0.061846 14.7765L-0.141871 14.6268L-0.221895 14.477L-0.30192 14.3272L-0.381944 14.1775L-0.461969 14.0277L-0.541994 13.878L-0.622018 13.7282L-0.702043 13.5784L-0.782068 13.4287L-0.862092 13.2789L-0.942117 13.1291L-1.02214 12.9794L-1.10217 12.8296L-1.18219 12.6799L-1.26222 12.5301L-1.34224 12.3803L-1.42226 12.1507L-1.50229 11.9211L-1.58231 11.6914L-1.66234 11.4618L-1.74236 11.2322L-1.82239 11.0025V10.7729V10.5433V10.3136V10.084V9.85434V9.62471V9.39507V9.08557V8.85593V8.62629V8.39666V8.16702V7.93739V7.70775V7.47812V7.24848L-1.74236 7.01885L-1.66234 6.86908L-1.58231 6.71932L-1.50229 6.56956L-1.42226 6.4198L-1.34224 6.27004L-1.26222 6.12027L-1.18219 5.97051L-1.10217 5.82075L-1.02214 5.67099L-0.942117 5.52122L-0.862092 5.37146L-0.632021 5.19175L-0.481975 5.04199L-0.331929 4.89222L-0.181883 4.74246L-0.0318366 4.66259L0.11821 4.58271L0.268256 4.50284L0.418302 4.42297L0.568348 4.3431L0.718394 4.26322L0.89845 4.19333L1.0485 4.11346L1.19854 4.03359L1.34859 3.95371L1.50864 3.89381H1.73871H1.96878H2.19885H2.42892H2.65899H2.88906H3.11913H3.3492H3.57927H3.80935H4.03942L4.26949 3.97368L4.49956 4.05355L4.72963 4.13343L4.9597 4.2133L5.18977 4.29317L5.41984 4.37305L5.64991 4.45292L5.87998 4.53279L6.11005 4.61267L6.34012 4.69254L6.5702 4.77241L6.80027 4.85229L7.03034 4.93216L7.18038 5.01203L7.33043 5.09191L7.48048 5.17178L7.63052 5.25165L7.78057 5.33153L7.93061 5.4114L8.08066 5.49127L8.23071 5.57115L8.38075 5.65102L8.5308 5.73089L8.68084 5.81076L8.83089 5.89064L8.98094 5.97051L9.13098 6.05038L9.28103 6.13026L9.43108 6.21013L9.58112 6.29C10.2013 6.59951 10.8015 7.01885 11.4917 7.15862C11.8318 7.22851 12.1819 7.22851 12.532 7.22851C12.7221 7.22851 12.9121 7.22851 13.1022 7.17859C13.2523 7.13866 13.3923 7.06877 13.5323 6.99888C14.1525 6.68937 14.7727 6.37986 15.4029 6.06037L15.553 5.9805L15.703 5.90062L15.8531 5.82075L16.0031 5.74088L16.1531 5.661L16.3032 5.58113L16.4532 5.50126L16.6033 5.42138L16.7533 5.34151L16.9734 5.19175L17.1234 5.11187L17.2735 5.032L17.4235 4.95213L17.5736 4.87226L17.7236 4.79238L17.9537 4.71251L18.1838 4.63264L18.4138 4.55276L18.6439 4.47289L18.874 4.39302L19.1041 4.31314L19.3341 4.23327L19.5742 4.19333L19.8043 4.11346L20.0343 4.03359L20.2644 3.95371L20.4945 3.87384H20.7246H20.9546H21.1847H21.4148H21.6448H21.8749H22.105H22.335H22.5651H22.7952H23.0253H23.1753L23.3254 3.95371L23.4754 4.03359L23.6254 4.11346L23.7755 4.19333L23.9255 4.27321L24.0756 4.35308L24.2256 4.43295L24.3757 4.51283L24.5257 4.5927L24.6758 4.67257L24.8258 4.82233L24.9759 4.9721L25.1259 5.12186L25.276 5.27162L25.426 5.42138L25.506 5.57115L25.586 5.72091L25.6661 5.87067L25.7461 6.02043L25.8261 6.17019L25.9061 6.31996L25.9862 6.46972L26.0662 6.61948L26.1462 6.76924L26.2262 6.91901L26.3063 7.14864V7.37828V7.60791V7.83755V8.06718V8.29682V8.52645V8.75609V8.98572V9.21536V9.44499V9.67463V9.90426V10.1339V10.3635V10.5932V10.8228V11.0524L26.2262 11.2821L26.1462 11.5117L26.0662 11.7413L25.9862 11.971L25.9061 12.2006L25.8261 12.3504L25.7461 12.5001L25.6661 12.6499L25.586 12.7997L25.506 12.9494L25.426 13.0992L25.346 13.249L25.2659 13.3987L25.1859 13.5485L25.1059 13.6982L25.0259 13.848L24.9459 13.9978L24.8658 14.1475L24.7858 14.2973L24.7058 14.4471L24.6258 14.5968L24.5457 14.7466L24.4657 14.8963L24.3857 15.0461L24.3057 15.1959L24.2256 15.3456L24.1456 15.4954L24.0656 15.6451L23.9856 15.7949L23.9055 15.9447L23.8255 16.0944L23.7455 16.2442L23.6655 16.394L23.5854 16.5437V16.6935V16.8432V16.993V17.1428V17.2925V17.4423V17.5921V17.7418V17.8916V18.0413V18.1911V18.271V18.3509V18.4307V18.5106V18.5905V18.6703L23.5554 19.3193Z" fill="#F193B7"/>
<path fill-rule="evenodd" clip-rule="evenodd" d="M50.8738 27.2667L50.9539 27.4963L51.0339 27.726L51.1139 27.9556L51.1939 28.1852L51.2739 28.4149L51.424 28.6445L51.574 28.8741L51.7241 29.1038L51.8741 29.3334L52.0242 29.563L52.1742 29.7927L52.3243 30.0223L52.4743 30.252L52.6244 30.4816L52.7744 30.7112L52.9245 31.0207L53.0745 31.3302L53.2246 31.6398L53.3746 31.9493L53.5246 32.2588L53.8347 32.4085L53.9848 32.718L54.1348 33.0275L54.2849 33.3371L54.4349 33.6466L54.5149 33.9561L54.595 34.2656L54.675 34.5751L54.755 34.8846L54.835 35.1941V35.5036V35.8131V36.1226V36.4321L54.755 36.7416L54.675 37.0512L54.595 37.3607L54.5149 37.5903L54.3649 37.8199L54.2149 38.0496L54.0648 38.2792L53.9148 38.5088L53.6847 38.7385L53.4546 38.8882L53.2246 39.038L52.9945 39.1878L52.7644 39.3375L52.4543 39.4873L52.1442 39.6371L51.8341 39.7169L51.524 39.7968L51.2139 39.8767L50.9038 39.9565L50.5937 40.0364L50.2836 40.1163L49.9735 40.1962H49.6635H49.3534H49.0433H48.7332H48.4231H48.113H47.8029H47.5828H47.2827H46.9726H46.6625H46.3524H46.1224H45.8923H45.6622H45.4322L45.2021 40.276L44.972 40.3559L44.7419 40.4358L44.5119 40.5157L44.2818 40.5955L44.0517 40.6754L43.9017 40.7553L43.7516 40.8351L43.6016 40.915L43.4515 41.0648L43.3015 41.2145L43.1515 41.3643L43.0014 41.5141L42.8514 41.6638L42.7013 41.8136L42.5513 41.9634L42.4012 42.1131L42.2512 42.3428L42.1011 42.5724L41.9511 42.802L41.801 43.0317L41.651 43.2613L41.5009 43.4909L41.3509 43.7206L41.2009 43.9502L41.0508 44.1798L40.9008 44.4095L40.7507 44.6391L40.6007 44.8687L40.3706 45.0984L40.1405 45.328L39.9105 45.5576L39.6804 45.7873L39.4503 46.0169L39.2202 46.2466L38.9902 46.4762L38.7601 46.626L38.53 46.7757L38.3 46.9255L38.0699 47.0752L37.8398 47.225L37.6097 47.3748L37.3797 47.5245L37.1496 47.6743L36.9195 47.8241L36.6895 47.9039L36.3794 47.9838L36.0693 48.0637L35.7592 48.1435L35.4491 48.2234L35.139 48.3033L34.8289 48.3832L34.5188 48.463H34.2087H33.8986H33.5785H33.2684H32.9583H32.6482H32.3381H32.028L31.7179 48.3832L31.4078 48.3033L31.0977 48.2234L30.7877 48.1435L30.4776 48.0637L30.1675 47.9838L29.9374 47.9039L29.7073 47.8241L29.4772 47.7442L29.2472 47.6643L29.0171 47.5844L28.787 47.5046L28.557 47.4247L28.3269 47.2749L28.0968 47.1252L27.8668 46.9754L27.6367 46.8256L27.4066 46.6759L27.1765 46.5261L26.9465 46.3763L26.7164 46.2266L26.4863 46.0768L26.2563 45.9271L26.0262 45.7773L25.7961 45.6275L25.566 45.5477L25.336 45.4678L25.1059 45.3879L24.8758 45.308L24.6458 45.2282L24.4157 45.1483L24.1056 45.0684L23.7955 44.9886L23.4854 44.9087L23.1753 44.8288L22.8652 44.7489L22.5551 44.6691L22.245 44.5892L21.9349 44.5093L21.6248 44.4294L21.3147 44.3496L21.0046 44.2697L20.6945 44.1898L20.0844 43.8803L19.7743 43.7306L19.4642 43.5808L19.1541 43.431L18.844 43.2813L18.5339 43.1315L18.2238 42.9817L17.9137 42.832L17.6036 42.6822L17.2935 42.5325L16.9834 42.3827L16.6733 42.2329L16.3632 42.0832L16.0531 41.9334L15.9731 41.6339L15.743 41.4042L15.513 41.1746L15.2829 40.945L15.0528 40.7153L14.8227 40.4857L14.5927 40.2561L14.3626 40.0264L14.1325 39.7968L13.9025 39.5672L13.6724 39.3375L13.5223 39.028L13.3723 38.7185L13.2222 38.409L13.0722 38.0995L12.9222 37.79L12.7721 37.4805L12.6221 37.171L12.542 36.8615L12.462 36.552L12.382 36.2424L12.302 35.9329L12.2219 35.6234L12.1419 35.3139L12.0619 35.0044V34.6949V34.4453V34.1458V33.8363V33.5268V33.2172V32.9077V32.5982L12.1419 32.2887L12.2219 31.9792L12.302 31.6697L12.382 31.3602L12.462 31.0507L12.542 30.7412L12.6221 30.4317L12.7021 30.1222L12.7821 29.8127L12.8621 29.5031L13.0122 29.1936L13.1622 28.8841L13.3123 28.5746L13.4623 28.2651L13.6124 27.9556L13.7624 27.6461L13.9125 27.3366L14.0625 27.0271L14.2126 26.7176L14.3626 26.4081L14.5126 26.1784L14.6627 25.9488L14.8127 25.7192L15.0428 25.4895L15.2729 25.2599L15.5029 25.0302L15.733 24.8006L15.9631 24.571L16.1932 24.3413L16.4232 24.1117L16.6533 23.8821L16.8834 23.6524L17.1134 23.4228L17.3435 23.1932L17.5736 22.9635L17.8037 22.8138L18.0337 22.664L18.2638 22.5142L18.4939 22.3645L18.7239 22.2147L18.954 22.065L19.1841 21.9152L19.4142 21.7654L19.6442 21.6157L19.8743 21.4659L20.1044 21.3161L20.3344 21.1664L20.5645 21.0166L20.7146 20.8669L20.8646 20.7171L21.0146 20.5673L21.1647 20.4176L21.3147 20.2678L21.4648 20.118L21.6148 19.9683L21.7649 19.8185L21.9149 19.6688L21.9949 19.519L22.075 19.3692L22.155 19.2195L22.235 18.9898L22.315 18.7602L22.3951 18.5306L22.4751 18.3009L22.5551 18.0713V17.8716V17.642V17.4123V17.1827V16.8732V16.5737V16.2642V15.9547V15.6451V15.3356V15.0261V14.7166V14.4071V14.0976V13.7881V13.4786L22.6351 13.1691L22.7152 12.8596L22.7952 12.5501L22.8752 12.2406L22.9552 11.931L23.0353 11.6215L23.1153 11.312L23.2653 11.0025L23.4154 10.693L23.5654 10.4634L23.7155 10.2337L23.8655 10.0041L24.0156 9.77447L24.2456 9.54484L24.4757 9.39507L24.7058 9.24531L24.9359 9.09555L25.1659 8.94579L25.396 8.86591L25.7061 8.78604L26.0162 8.70617L26.3263 8.62629H26.6364H26.9465H27.2566H27.5667L27.8768 8.70617L28.1869 8.78604L28.4969 8.86591L28.807 8.94579L29.1171 9.02566L29.4272 9.17542L29.7373 9.32518L30.0474 9.47495L30.3575 9.62471L30.6676 9.77447L30.9777 9.92423L31.2878 10.074L31.5979 10.2238L31.908 10.3735L32.2181 10.5233L32.4482 10.673L32.6782 10.8228L32.9083 10.9726L33.1384 11.1223L33.3684 11.2721L33.5985 11.4219L33.8286 11.5017L34.0587 11.5816L34.2887 11.6615L34.5188 11.7413L34.7489 11.8212H34.9789H35.209H35.4391H35.6692H35.8992L36.1293 11.7413L36.3594 11.6615L36.5894 11.5816L36.8195 11.5017L37.0496 11.4219L37.2796 11.2721L37.5097 11.1223L37.7398 10.9726L37.9699 10.8228L38.1999 10.673L38.43 10.5233L38.6601 10.2936L38.9702 10.064L39.2803 9.83438L39.5904 9.60474L39.9005 9.37511L40.2105 9.14547L40.5206 8.91584L40.8307 8.6862L41.1408 8.45656L41.4509 8.22693L41.761 8.07717L42.0711 7.9274L42.4512 7.77764L42.8314 7.62788L43.2115 7.47812L43.5916 7.32836L43.9717 7.17859L44.3518 7.09872L44.7319 7.01885L45.1121 6.93897L45.4922 6.8591H45.8723H46.2524H46.5625H46.8726H47.1827L47.4928 6.93897L47.8029 7.01885L48.113 7.09872L48.4231 7.17859L48.7332 7.32836L49.0433 7.47812L49.3534 7.62788L49.5834 7.77764L49.8135 7.9274L50.0436 8.15704L50.2736 8.38667L50.5037 8.61631L50.7338 8.84595L50.9639 9.07558L51.1939 9.30522L51.344 9.53485L51.494 9.84436L51.6441 10.1539L51.7941 10.4634L51.9442 10.7729L52.0942 11.0824L52.2442 11.3919L52.3943 11.7014L52.5443 12.0109L52.6944 12.3204L52.7744 12.6299L52.8544 12.9394L52.9345 13.249L53.0145 13.5585L53.0945 13.868L53.1745 14.1775L53.2546 14.487L53.3346 14.7965L53.4146 15.106L53.4946 15.4155L53.5747 15.725V16.0345V16.344V16.6535V16.9631V17.2726V17.5821V17.8916V18.2011V18.5106L53.4946 18.8201L53.4146 19.1296L53.3346 19.4391L53.2546 19.7486L53.1745 20.0581L53.0945 20.3677L53.0145 20.6772L52.9345 20.9867L52.8544 21.2962L52.7744 21.6057L52.6944 21.9152L52.6144 22.2247L52.5343 22.5342L52.4543 22.8437L52.3743 23.0734L52.2943 23.303L52.2142 23.5326L52.1342 23.7623L52.0542 23.9919L51.9742 24.2215L51.8941 24.4512L51.8141 24.6808L51.7341 24.9104L51.6541 25.1401L51.574 25.3697L51.494 25.5993L51.414 25.829L51.334 26.0586V26.2882V26.5179V26.7475V26.9772V27.2068V27.4364V27.6661L50.8738 27.1269V27.2667Z" fill="#89C8A5"/>
<path fill-rule="evenodd" clip-rule="evenodd" d="M9.08099 25.8889C9.04098 27.9756 8.97096 29.9225 8.21072 31.8993C7.47049 33.8163 6.30013 35.5535 4.8997 37.0512C1.74873 40.4358 -2.6126 42.6922 -7.20402 43.2813C-11.7954 43.8703 -16.5969 42.7721 -20.4581 40.2161C-23.5991 38.1394 -26.1098 35.0943 -27.4002 31.5599C-28.7506 27.8458 -28.7106 23.7323 -27.8604 19.8784C-27.1301 16.5637 -25.7597 13.2889 -23.339 10.9127C-20.218 7.85751 -15.7466 6.62946 -11.4153 6.01045C-7.57413 5.4713 -3.55289 5.34151 0.0782226 6.67939C3.22919 7.84753 5.96003 10.1039 7.73058 12.9594C9.95126 16.5138 11.3217 22.035 9.08099 25.8889Z" fill="#66529D"/>
<path fill-rule="evenodd" clip-rule="evenodd" d="M29.9774 42.6223L30.1274 42.9318L30.2775 43.2413L30.4275 43.5508L30.5776 43.8603L30.7276 44.1698L30.8077 44.4794L30.8877 44.7889L30.9677 45.1683L31.0477 45.5477L31.1278 45.9271L31.2078 46.3065L31.2878 46.6859L31.3678 47.0652L31.4479 47.4446V47.824V48.2034V48.5828V48.9622V49.3416V49.721V50.1004L31.3678 50.4798L31.2878 50.8592L31.2078 51.2386L31.1278 51.618L31.0477 51.9974L30.9677 52.3768L30.8877 52.6863L30.7376 52.9958L30.5876 53.3053L30.4375 53.6149L30.2875 53.9244L30.1375 54.2339L29.9874 54.5434L29.8374 54.8529L29.6073 55.1624L29.3772 55.4719L29.1471 55.7814L28.9171 56.0909L28.687 56.4004L28.4569 56.6301L28.2269 56.8597L27.9968 57.0893L27.6867 57.319L27.3766 57.5486L27.0665 57.7782L26.7564 58.0079L26.4463 58.2375L26.1362 58.4671L25.8261 58.6169L25.516 58.7667L25.2059 58.9164L24.8958 59.0662L24.5857 59.216L24.2756 59.3657L23.8955 59.5155L23.5154 59.5954L23.1353 59.6752L22.7552 59.7551L22.3751 59.835L21.9949 59.9148L21.6148 59.9947L21.2347 60.0746L20.8546 60.1545H20.4745H20.0944H19.7142H19.3341H18.954H18.5739H18.1938H17.8137H17.4335H17.0534L16.7433 60.0746L16.4332 59.9947L16.1231 59.9148L15.813 59.835L15.5029 59.7551L15.1929 59.6752L14.8828 59.5954L14.5727 59.5155L14.2626 59.4356L13.9525 59.3557L13.6424 59.2759L13.3323 59.196L13.0222 59.1161L12.7121 59.0362L12.402 58.9564L12.0919 58.8765L11.7818 58.7966L11.4717 58.7167L11.2416 58.6369L11.0116 58.557L10.7815 58.4771L10.5514 58.3973L10.3214 58.3174L10.0913 58.2375L9.86121 58.1576L9.63114 58.0778L9.40107 57.9979V57.5386L9.171 57.4587L8.94093 57.3789L8.71086 57.299L8.48079 57.2191L8.25072 57.1393L8.02065 57.0594L7.8706 56.7499L7.64053 56.67L7.41046 56.5901L7.18039 56.5103L6.95032 56.4304L6.72025 56.3505L6.5702 56.2706L6.42016 56.1908L6.27011 56.1109L6.12006 56.031L5.97002 55.9511L5.81997 55.8713L5.66992 55.7914L5.51988 55.7115L5.36983 55.6317L5.21979 55.5518L5.06974 55.4719L4.91969 55.392L4.76965 55.3122L4.6196 55.2323L4.46956 55.1524L4.31951 55.0725L4.16946 54.9927L4.01942 54.9128L3.86937 54.8329H3.71932H3.56928H3.33921H3.10914H2.87907H2.649H2.41893H2.18885H1.96879H1.73872H1.50864H1.27857H1.0485H0.818433H0.588362H0.358291H0.12822H-0.10185H-0.331921H-0.561992L-0.792062 54.753L-1.02213 54.6732L-1.2522 54.5933L-1.48227 54.5134L-1.71235 54.4336L-1.94242 54.3537L-2.17249 54.2738L-2.40256 54.1939L-2.63263 54.1141L-2.8627 54.0342L-3.09277 53.9543L-3.32284 53.8744L-3.55291 53.7946L-3.78298 53.7147L-4.01305 53.6348L-4.24312 53.5549L-4.47319 53.4751L-4.70327 53.3952L-4.93334 53.3153L-5.16341 53.2355L-5.39348 53.1556L-5.62355 53.0058L-5.85362 52.8561L-6.08369 52.7063L-6.31376 52.5565L-6.54383 52.4068L-6.7739 52.257L-7.00397 52.1072L-7.23404 51.9575L-7.46411 51.8077L-7.69419 51.658L-7.92426 51.5082L-8.15433 51.3584L-8.3844 51.2087L-8.61447 51.0589L-8.84454 50.8293L-9.07461 50.5996L-9.30468 50.37L-9.53475 50.1404L-9.76482 49.9107L-9.99489 49.6811L-10.225 49.4515L-10.455 49.2218L-10.6051 48.9922L-10.7551 48.7626L-10.9052 48.5329L-11.0552 48.3033L-11.2053 48.0736L-11.3553 47.7641L-11.5054 47.4546L-11.6554 47.1451L-11.7354 46.8356L-11.8155 46.5261L-11.8955 46.2166L-11.9755 45.9071L-12.0555 45.5976L-12.1356 45.2881L-12.2156 44.9786V44.6691V44.3595V44.05V43.7405V43.431V43.1215V42.812L-12.1356 42.5025L-12.0555 42.193L-11.9755 41.8835L-11.8955 41.574L-11.8155 41.2645L-11.7354 40.955L-11.6554 40.6454L-11.5754 40.3359L-11.4253 40.0264L-11.2753 39.7169L-11.1252 39.4074L-10.9752 39.0979L-10.8251 38.8683L-10.6751 38.6386L-10.5251 38.409L-10.375 38.1794L-10.225 37.9497L-10.0749 37.7201L-9.84485 37.4905L-9.61478 37.2608L-9.38471 37.0312L-9.15463 36.8015L-8.92456 36.5719L-8.69449 36.3423L-8.46442 36.1126L-8.23435 35.883L-8.00428 35.7332L-7.77421 35.5835L-7.54414 35.4337L-7.31407 35.284L-7.084 35.1342L-6.85393 34.9844L-6.62386 34.8347L-6.31376 34.6849L-6.00367 34.5351L-5.69357 34.3854L-5.38347 34.2356L-5.07338 34.1557L-4.76328 34.0759L-4.45319 33.996L-4.14309 33.9161L-3.833 33.8363L-3.5229 33.7564L-3.21281 33.6765L-2.90271 33.5966L-2.67264 33.5168L-2.44257 33.4369L-2.2125 33.357L-1.98243 33.2771L-1.75236 33.1973L-1.52229 33.1174L-1.29222 33.0375L-1.06215 32.9576L-0.832075 32.8778L-0.602004 32.7979L-0.371933 32.718L-0.141862 32.6382L0.0882079 32.5583L0.318279 32.4784L0.54835 32.3985L0.778421 32.3187L1.00849 32.2388L1.23856 32.1589L1.38861 32.079L1.53865 31.9992L1.6887 31.9193L1.83875 31.8394L1.98879 31.7596L2.13884 31.6797L2.28888 31.5998L2.43893 31.5199L2.58898 31.4401L2.73902 31.3602L2.88907 31.2803L3.03912 31.2004L3.18916 31.1206L3.33921 31.0407L3.48925 30.9608L3.6393 30.8809L3.78935 30.8011L3.93939 30.6513L4.08944 30.5015L4.23948 30.3518L4.38953 30.202L4.53958 30.0523C4.53958 30.0523 4.67962 29.9125 4.68962 29.9025C5.92 28.6744 7.03034 27.696 8.86091 27.5562C12.462 27.2867 15.2829 29.8825 18.5439 30.8909L18.774 30.9708L19.004 31.0507L19.2341 31.1305L19.4642 31.2104L19.6942 31.2903L19.9243 31.3702L20.1544 31.45L20.3845 31.5299L20.6145 31.6098L20.8446 31.6897L21.0747 31.7695L21.3047 31.8494L21.5348 31.9293L21.7649 32.079L21.9949 32.2288L22.225 32.3786L22.4551 32.5283L21.6849 33.5168L21.9149 33.6665L22.145 33.8163L22.3751 33.966L22.6051 34.1158L22.8352 34.2656L23.0653 34.4153L23.2953 34.5651L23.5254 34.7149L23.7555 34.8646L23.9856 35.0144L24.2156 35.1641L24.4457 35.3139L24.6758 35.4637L24.9058 35.6933L25.1359 35.9229L25.366 36.1526L25.5961 36.3822L25.8261 36.6118L26.0562 36.8415L26.2863 37.0711L26.5163 37.3008L26.7464 37.5304L26.9765 37.76L27.2065 37.9897L27.4366 38.2193L27.6667 38.4489L27.8968 38.6786L28.1268 38.9082L28.3569 39.2177L28.587 39.5272L28.737 39.8367L28.8871 40.1462L29.0371 40.4557L29.1872 40.7653L29.3372 41.0748L29.4873 41.3843L29.6373 41.6938L29.7873 42.0033L29.9774 42.6223Z" fill="#287F42"/>
</g>
<path d="M11.7317 43.4211H2.87903C2.30885 43.4211 1.8287 43.2314 1.44859 42.842C1.06847 42.4626 0.868408 41.9833 0.868408 41.4142V2.0767C0.868408 1.48764 1.07847 0.93851 1.44859 0.57908C1.8287 0.189699 2.30885 0 2.87903 0H20.2244C25.646 0 29.9574 1.258 33.0383 3.74405C36.1493 6.18019 37.7297 9.84437 37.7297 14.6168C37.7297 19.4391 36.1192 23.0734 32.9583 25.4296C29.8873 27.7659 25.576 28.954 20.1543 28.954H18.2838V28.4448C18.2838 26.2683 18.2137 23.5726 18.2137 23.5426V23.5027V23.4727C18.2938 22.7639 18.5939 22.0949 19.114 21.4859C20.2744 20.2578 21.4547 18.9998 22.9352 18.0414C23.1853 17.8517 23.4454 17.652 23.7054 17.3924C23.7454 17.3524 23.7855 17.3225 23.8355 17.2826C23.8555 17.2626 23.8955 17.2426 23.9055 17.2227L23.9255 17.1927C23.9155 17.1927 23.9055 17.1927 23.9055 17.1927C23.2153 17.3125 22.5451 17.5322 21.8449 17.7718L21.5248 17.8816C20.9646 18.0414 20.5745 18.1811 20.1343 18.3608C19.8743 18.4906 19.4441 18.4807 19.194 17.9814L19.154 17.8616C18.7339 15.9547 18.2337 14.0277 17.6636 12.1208L17.5335 11.6815C17.2935 10.9027 17.0534 10.094 16.7533 9.39508C16.7133 9.27527 16.6433 9.15546 16.5732 9.03565C16.5332 9.10554 16.5232 9.17543 16.5232 9.20538C16.4532 9.96418 16.5932 10.693 16.7333 11.4618C16.9534 12.5401 17.1634 13.6883 17.2434 14.8664V15.3956C17.2434 15.6551 17.1534 15.8548 16.9834 15.9746C16.7233 16.1643 16.4232 16.0645 16.2831 16.0146L16.1631 15.9547C15.803 15.715 15.693 15.3756 15.6029 15.126C15.1728 13.6982 14.6627 12.2505 14.1725 10.8528C14.1025 10.683 14.0425 10.4933 13.9824 10.2937C13.9324 10.1339 13.8824 9.96418 13.8224 9.80443C13.7524 9.58478 13.5523 9.45499 13.3823 9.47495C13.3022 9.49492 13.2722 9.50491 13.2622 9.51489C13.2622 9.51489 13.2522 9.53486 13.2422 9.59476C13.2522 9.72456 13.2922 9.91426 13.3522 10.094C13.7024 11.3719 14.0825 12.5601 14.4926 13.828L14.8027 14.7865C14.8227 14.8963 14.8527 15.0062 14.8827 15.106C14.9527 15.3257 15.0228 15.5853 15.0228 15.8848C15.0228 15.9946 15.0228 16.2342 14.8027 16.4639L14.6526 16.6136H14.4426C14.1525 16.6136 13.9024 16.4139 13.8224 16.1543C13.5523 15.725 13.2622 15.3057 12.9821 14.8864C12.682 14.4471 12.3719 13.9878 12.0819 13.5185C11.5717 12.6898 10.9715 11.8711 10.2013 10.9426C10.2013 10.9426 10.1813 10.9227 10.1513 10.8927H10.1413C10.1012 10.8827 10.0712 10.8727 10.0712 10.8727C10.0712 10.8727 10.0512 10.8827 10.0312 10.9027C10.1913 11.4818 10.4814 12.0109 10.6814 12.3704C10.9615 12.8895 11.3016 13.3788 11.6717 13.8879C11.9418 14.2673 12.2119 14.6567 12.462 15.0561C12.662 15.3956 12.8721 15.735 13.0622 15.9946C13.3322 16.2941 13.3522 16.7135 13.1022 16.973C12.8521 17.2227 12.432 17.2027 12.1319 16.9331C11.8818 16.7534 11.6417 16.5637 11.3916 16.374C11.1516 16.1843 10.9015 15.9946 10.6614 15.8149C10.2813 15.5453 9.89118 15.2658 9.50106 14.9563C9.6111 15.096 9.72113 15.2258 9.82116 15.3257C10.6014 16.1044 11.3516 17.0529 11.9618 18.0513C12.1119 18.281 12.2819 18.5206 12.442 18.7602C12.8521 19.3593 13.2322 19.9184 13.5923 20.5274C13.9224 20.9567 14.0525 21.4859 13.9624 22.065L13.7524 41.4142C13.7524 41.9733 13.5623 42.4526 13.1722 42.842C12.7821 43.2214 12.3019 43.4211 11.7317 43.4211ZM2.87903 1.01838C2.58894 1.01838 2.35887 1.10824 2.16881 1.29794C1.99876 1.46767 1.88872 1.76719 1.88872 2.0767V41.4142C1.88872 41.7038 1.97875 41.9334 2.16881 42.1231C2.35887 42.3128 2.58894 42.4027 2.87903 42.4027H11.7317C12.0218 42.4027 12.2519 42.3128 12.442 42.1231C12.632 41.9334 12.7221 41.7038 12.7221 41.4142L12.9421 21.9452C12.9921 21.6257 12.9321 21.3561 12.7621 21.1364L12.7221 21.0765C12.3719 20.4875 11.9918 19.9284 11.5917 19.3393C11.4317 19.0997 11.2616 18.8601 11.0916 18.6104C10.5014 17.662 9.81116 16.7833 9.08093 16.0545C8.84086 15.8149 8.61079 15.5154 8.39072 15.2158L8.34071 15.136C8.3307 15.106 8.30069 15.0761 8.28069 15.0461C8.20066 14.9363 8.09063 14.7666 8.07062 14.5469C8.0006 14.2074 8.11064 13.9778 8.21067 13.848C8.3207 13.7082 8.54077 13.5385 8.93089 13.5385C9.27099 13.5385 9.54108 13.6583 9.79115 13.8979C10.2113 14.2574 10.6414 14.5669 11.1016 14.8963C11.0015 14.7566 10.9015 14.6168 10.8115 14.477C10.4514 13.9578 10.0712 13.4287 9.77115 12.8596C9.38103 12.1906 9.14095 11.6215 9.01091 11.1024C8.94089 10.8927 8.88087 10.4234 9.44104 10.054C9.82116 9.80443 10.1413 9.8244 10.3913 9.90427C10.6814 9.94421 10.8515 10.1439 10.9215 10.2437L10.9715 10.2937C11.7718 11.2621 12.402 12.1108 12.9421 12.9894C13.0722 13.199 13.2122 13.4087 13.3422 13.6184C12.9921 12.5401 12.672 11.4918 12.3719 10.4035C12.3219 10.2437 12.2119 9.87432 12.2119 9.55483L12.2219 9.45499C12.3319 8.89587 12.632 8.59635 13.1922 8.48652C13.8724 8.36671 14.5526 8.79603 14.7727 9.46497C14.8427 9.62472 14.9027 9.8244 14.9527 10.0141C15.0028 10.1738 15.0528 10.3436 15.1128 10.5033C15.3929 11.3021 15.683 12.1108 15.953 12.9295C15.883 12.5002 15.793 12.0708 15.713 11.6515C15.5629 10.8428 15.4129 10.0041 15.4929 9.15546C15.4929 8.69619 15.763 8.25689 16.2031 8.03724L16.2731 8.00728C16.9133 7.79762 17.1934 8.11711 17.3035 8.29683C17.4635 8.52646 17.6136 8.76608 17.7036 9.03565C18.0037 9.74453 18.2538 10.5832 18.5038 11.3819L18.6339 11.8212C19.174 13.6383 19.6542 15.4654 20.0643 17.2826C20.4244 17.1428 20.7845 17.023 21.2147 16.9032L21.5048 16.8033C22.265 16.5537 22.9752 16.3041 23.7654 16.1743L23.8455 16.1643C24.1756 16.1643 24.6157 16.1643 24.9158 16.6036C25.0058 16.7434 25.2559 17.2227 24.7558 17.7618C24.6557 17.9215 24.5257 18.0114 24.4457 18.0813C24.1056 18.4108 23.7955 18.6404 23.5054 18.8601C22.1049 19.7686 21.0146 20.9268 19.8642 22.1448C19.5041 22.5642 19.2741 23.0434 19.214 23.5326C19.2241 23.8421 19.2741 25.9787 19.2841 27.9157H20.1343C25.3259 27.9157 29.4272 26.7974 32.3181 24.6009C35.219 22.4444 36.6894 19.0797 36.6894 14.6068C36.6894 10.1639 35.239 6.76925 32.3881 4.5328C29.4872 2.19651 25.396 1.0084 20.2144 1.0084H2.87903V1.01838ZM19.7342 17.4323C19.7242 17.4323 19.7142 17.4423 19.7142 17.4423C19.7242 17.4423 19.7342 17.4323 19.7342 17.4323Z" fill="#3B3B3B"/>
</g>
<defs>
<clipPath id="clip0">
<rect width="110" height="43.4211" fill="white"/>
</clipPath>
</defs>
</svg>
