<svg width="132" height="150" viewBox="0 0 132 150" fill="none" xmlns="http://www.w3.org/2000/svg">
<mask id="mask0" mask-type="alpha" maskUnits="userSpaceOnUse" x="3" y="2" width="126" height="146">
<path d="M5.92674 4.30047L9.36991 2.40826H83.0537L103.024 8.08487L115.592 16.5138L124.888 29.7592L128.504 46.961L126.265 66.3991L119.379 79.9885L108.877 88.7615L92.5224 95.9862L74.7901 97.1904H64.2885L65.4936 76.0321L84.2588 58.8303L83.0537 57.6261L72.3799 60.2064H68.0759L60.3288 33.3716L56.7135 29.4151L54.8197 31.1353L56.7135 51.7775L48.2777 32.3395L45.6953 31.1353L43.4573 32.3395L45.6953 38.7041L48.2777 52.9817L39.842 40.5963L33.8164 35.7798L32.9556 38.7041L42.5965 56.594L31.9227 49.5413V51.7775L45.6953 73.4518V142.603L42.9408 147.936H10.2307L6.27106 146.56L3.86084 142.603V13.9335L5.92674 4.30047Z" fill="black"/>
</mask>
<g mask="url(#mask0)">
<path fill-rule="evenodd" clip-rule="evenodd" d="M167.239 28.6927L166.964 29.7592L166.688 30.8257L166.413 31.8922L166.137 32.9587L165.862 34.0252L165.587 35.0918L165.311 36.1583L165.036 37.2248L164.76 38.2913L164.485 39.3578L164.209 40.4243L163.934 41.4908L163.658 42.5574L163.383 43.6239L163.107 44.6904L162.832 45.7569L162.557 46.8234L162.281 47.8899L162.006 48.9564L161.73 50.0229L161.455 51.0895L161.179 52.156L160.904 53.2225L160.387 54.289L159.871 55.3555L159.354 56.422L158.838 57.4885L158.321 58.5551L157.805 59.6216L157.289 60.6881L156.772 61.7546L156.256 62.8211L155.739 63.8876L155.223 64.9541L154.706 66.0207L154.19 67.0872L153.673 68.1537L153.157 69.2202L152.64 70.2867L152.124 71.078L151.332 71.8693L150.54 72.6606L149.748 73.4519L148.44 75.3096L147.648 76.1009L146.856 76.8922L146.064 77.6835L145.272 78.4748L144.48 79.2661L143.688 80.0574L142.896 80.8486L142.104 81.6399L141.312 82.4312L140.52 83.2225L139.728 84.0138L138.936 84.8051L138.144 85.3211L137.353 85.8372L136.561 86.3532L135.769 86.8693L134.701 87.3853L133.634 87.9014L132.567 88.4174L131.499 88.9335L130.432 89.4496L129.364 89.9656L128.297 90.4817L127.23 90.9977L126.162 91.5138L125.095 92.0298L124.027 92.5459L122.96 93.0619L121.893 93.578L120.825 94.0941L119.758 94.6101L118.691 95.1262L117.623 95.6422L116.556 96.1583L115.488 96.6743L114.697 97.1904L113.905 97.7064L113.113 98.2225L112.321 98.7386L111.529 99.2546L110.737 99.7707L109.945 100.287L109.153 100.803L108.361 101.319L107.569 101.835L106.777 102.351L105.985 102.867L105.193 103.383L104.401 103.899L103.609 104.415L102.818 104.931L102.026 105.447L101.234 105.963L100.442 106.479L99.6499 106.995L98.8579 107.511L98.066 108.028L97.2741 108.544L96.4821 109.06L95.6902 109.851L94.8983 110.642L94.1064 111.434L93.3144 112.225L92.5225 113.016L91.7306 113.807L90.9386 114.599L90.1467 115.39L89.3548 116.181L88.5629 116.973L87.7709 117.764L86.979 118.555L86.1871 119.346L85.3951 120.138L84.6032 120.929L83.8113 121.72L83.0193 122.511L82.2274 123.303L81.4355 124.094L80.6436 124.885L79.8516 125.677L79.0597 126.468L78.2678 127.259L77.4758 128.05L76.6839 128.842L75.892 129.633L75.1001 130.424L74.0327 131.216L72.9653 132.007L71.8979 132.798L70.8305 133.589L69.7632 134.381L68.6958 135.172L67.6284 135.963L66.561 136.755L65.4936 137.546L64.4262 138.062L63.3589 138.578L62.2915 139.094L61.2241 139.61L60.1567 140.126L59.0893 140.642L58.0219 141.158L56.9546 141.674L55.8872 142.19L54.8198 142.466L53.7524 142.741L52.444 143.016L51.1356 143.291L50.5158 143.463L49.2074 143.739L47.899 144.014L48.4155 143.223H47.1071H45.7987H44.4903H43.1819H41.8735H40.5651H39.2567L37.9483 142.947L36.6399 142.672L35.3315 142.397L34.2641 142.122L33.1967 141.846L32.1293 141.571L31.0619 141.296L29.9945 140.78L28.9272 140.264L27.8598 139.748L26.7924 139.232L25.725 138.716L24.6576 138.2L23.5902 137.684L22.5229 136.892L21.4555 136.101L20.3881 135.31L19.3207 134.518L18.2533 133.727L17.186 132.936L16.394 132.145L15.6021 131.353L14.8102 130.562L14.0182 129.495L13.2263 128.429L12.4344 127.362L11.6425 126.296L10.8505 125.229L10.0586 124.163L9.26666 123.096L8.47474 122.03L7.68281 120.963L7.16634 119.897L6.64986 118.83L6.13338 117.764L5.61691 116.697L5.10043 115.631L4.58396 114.564L4.06748 113.498L3.55101 112.431L3.03453 111.365L2.51805 110.057L2.00158 108.75L1.4851 107.443L1.20965 106.135L0.934196 104.828L0.658741 103.521L0.383286 102.213L0.107838 100.906L-0.167618 99.5986L-0.443073 98.2913L-0.718525 97.2248L-0.99398 96.1583L-1.26943 95.0918L-1.54488 94.0252L-1.82034 92.9587L-2.09579 91.8922L-2.37125 90.8257L-2.6467 89.7592L-2.92215 88.6927V87.6262V86.5597V85.4931V84.4266V83.3601V82.2936V81.2271V80.1606V79.4725V78.4404V77.3739V76.5826L-3.19761 75.7913L-3.47306 75L-3.74852 74.2087L-4.02397 73.4174L-4.29942 72.6262L-4.57487 71.8349L-4.85033 71.0436L-5.12579 70.2523L-5.40123 69.461L-5.67669 68.6697L-5.95214 67.8785L-6.2276 67.0872L-6.50305 66.5711L-6.64078 66.0551L-7.15725 65.539L-7.67373 65.0229L-8.1902 64.5069L-8.70668 63.9908L-9.22315 63.4748L-9.73963 62.9587L-10.2561 62.4427L-11.048 61.9266L-11.84 61.4106L-12.6319 60.8945L-13.4238 60.3785L-14.2157 59.8624L-15.0077 59.3463L-15.7996 58.8303L-16.5915 58.3142L-17.3835 57.7982L-18.4508 57.2821L-19.5182 56.7661L-20.5856 56.25L-21.653 55.734L-22.7204 55.2179L-23.7878 54.7019L-24.8551 54.1858L-25.9225 53.6697L-26.9899 53.1537L-28.0573 52.6376L-29.1247 52.1216L-30.1921 51.3303L-31.2594 50.539L-32.3268 49.7477L-33.3942 48.9564L-34.4616 48.1652L-35.529 47.3739L-36.5963 46.5826L-37.6637 45.7913L-38.7311 45L-39.7985 44.2087L-40.8659 43.4174L-41.9333 42.6262L-43.0006 41.8349L-43.7926 40.7684L-44.5845 39.7019L-45.3764 38.6353L-46.1684 37.5688L-46.9603 36.5023L-47.7522 35.4358L-48.5441 34.3693L-49.3361 33.3028L-49.8526 32.2363L-50.369 31.1697L-50.8855 30.1032L-51.402 29.0367L-51.9185 27.9702L-52.4349 26.9037L-52.9514 25.8372L-53.2269 24.7707L-53.5023 23.7041L-53.7778 22.6376L-54.0532 21.5711L-54.3287 20.5046L-54.6041 19.4381V18.3716V17.3051V16.2385V15.172V14.1055V13.039V11.9725L-54.3287 10.906L-54.0532 9.83946L-53.7778 8.77295L-53.5023 7.70644L-53.2269 6.63992L-52.9514 5.57341L-52.6759 4.50689L-52.4005 3.44038L-52.125 2.37386L-51.6086 1.30735L-51.0921 0.240837L-50.5756 -0.825676L-50.0591 -1.89219L-49.5427 -2.9587L-49.0262 -4.02522L-48.5097 -5.09173L-47.9932 -6.15825L-47.4768 -7.22476L-46.9603 -8.29127L-46.4438 -9.35779L-45.6519 -10.4243L-44.86 -11.4908L-44.068 -12.5573L-43.2761 -13.3486L-42.4842 -14.1399L-41.6922 -14.9312L-40.9003 -15.7225L-40.1084 -16.5138L-39.3165 -17.305L-38.5245 -18.0963L-37.7326 -18.8876L-36.9407 -19.6789L-36.1487 -20.4702L-35.0814 -21.2615L-34.014 -22.0527L-32.9466 -22.844L-31.8792 -23.3601L-30.8118 -23.8761L-29.7444 -24.3922L-28.6771 -24.9082L-27.6097 -25.4243L-26.5423 -25.9404L-25.4749 -26.4564L-24.4075 -26.9725L-23.3401 -27.4885L-22.2728 -28.0046L-21.2054 -28.5206L-20.138 -29.0367L-19.0362 -29.2431L-17.9688 -29.5183L-16.9014 -29.7936L-15.834 -30.0688L-14.7667 -30.344L-13.6993 -30.6193L-12.6319 -30.8945L-11.5645 -31.1697L-10.4971 -31.4449L-9.42974 -31.7202L-8.36236 -31.9954L-7.29498 -32.2706L-6.2276 -32.5459L-5.16021 -32.8211L-4.09283 -33.0963L-3.02545 -33.3716H-1.95807H-0.890686H0.176701H1.24408H2.31146H3.37885H4.44623H5.51361H6.58099H7.64838H8.71576H9.78314H10.8505H11.9179H12.9853H14.0527H15.12H15.7398H16.5318H17.3237H18.1156H18.9075H19.6995H20.4914H21.2833H22.0753H22.8672H23.6591H24.451H25.243H26.0349H26.8268H27.6188H28.4107H29.1682H29.9601H30.752H31.544H32.3359H33.1278H33.9198H34.7117H35.5036H36.2955H37.0875H37.8794H38.6713H39.4633H40.2552H41.0471H41.8391H42.631H43.4229H44.2148H45.0068H45.7987H46.5906H47.3826H48.1745H48.9664H49.7583H50.5503H51.3422H52.1341H52.926H53.718H54.5099H55.3018H56.0938H56.8857H57.6776H58.4696H59.2615H60.0534H60.8453H61.6373H62.4292H63.2211H64.0131H64.805H65.5969H66.3889H67.1808H67.9727H68.7646H69.5566H70.3485H71.1404H71.9323H72.7243H73.5162H74.3081H75.1001H75.892H76.6839H77.4758H78.2678H79.0597H79.8516H80.6436H81.4355H82.2274H83.0193H83.8113H84.6032H85.3951H86.1871H86.979H87.7709H88.5629H89.3548H90.1467H91.2141H92.2815H93.3489H94.4162H95.4836H96.551H97.6184H98.6858H99.7531H100.821H101.888H102.955H104.023H105.09H106.157H107.225H108.292H109.36H110.427H111.494H112.562H113.629H114.697H116.005H117.313H118.622H119.93H121.239H122.547L123.855 -33.0963L125.164 -32.8211L126.472 -32.5459L127.781 -32.2706L129.089 -31.9954L130.397 -31.7202L131.706 -31.4449L133.014 -31.1697L134.323 -30.8945L135.631 -30.6193L136.939 -30.344L138.248 -30.0688L139.556 -29.5527L140.865 -29.0367L142.173 -28.5206L143.481 -28.0046L144.549 -27.4885L145.616 -26.9725L146.684 -26.4564L147.751 -25.9404L148.818 -25.4243L149.886 -24.9082L150.953 -24.3922L152.02 -23.6009L153.088 -22.8096L154.155 -22.0183L155.223 -21.2271L156.29 -20.4358L157.357 -19.6445L158.425 -18.8532L159.492 -18.0619L160.284 -17.2706L161.076 -16.4793L161.868 -15.6881L162.66 -14.6215L163.452 -13.555L163.796 -12.3853L164.588 -11.3188L165.38 -10.2523L166.172 -9.18577L166.688 -8.11926L167.205 -7.05274L167.721 -5.98623L168.238 -4.91972L168.754 -3.8532L169.271 -2.78669L169.787 -1.72017L170.304 -0.65366L170.579 0.412853L170.855 1.47937L171.13 2.54588L171.406 3.85322L171.681 5.16056L171.956 6.4679L172.232 7.77524L172.507 9.08258L172.783 10.3899V11.6973V13.0046V14.3119V15.6193V16.9266V18.234V19.5413V20.8486V22.156V23.4633V24.7707V26.078L172.507 27.3853L172.232 28.6927L171.956 30L171.715 31.3074L171.44 32.6147L171.164 33.6812L170.889 34.7477L170.614 35.8142L167.239 28.6927Z" fill="#EB5C2C"/>
<path fill-rule="evenodd" clip-rule="evenodd" d="M81.0913 66.5711V66.8463V67.1216V67.3968V67.672V67.9472V68.2225V68.4977V69.0138V69.5298V70.0459V70.5619V71.078V71.594V72.1101V72.6261V73.1422V73.6583V74.1743L81.3667 74.6904H82.6751L82.9506 75.2064L83.226 75.7225L83.5015 76.2385L83.7769 76.7546L84.0524 77.2706L84.3278 77.7867L84.6033 78.3027L84.8787 78.8188L85.1542 79.3349L85.4296 79.8509L85.7051 80.367L85.9806 80.883L86.256 81.3991L86.5315 81.9151L86.8069 82.4312L87.0824 82.9472L87.3578 83.4633L87.6333 83.9794L87.9087 84.4954L88.1842 85.0115L88.4596 85.5275L88.7351 86.0436L89.0106 86.5596L89.286 87.0757L89.5615 87.5917L89.8369 88.1078L90.1124 88.6238L90.3878 89.4151L90.6633 90.2064L90.9387 90.9977L91.2142 91.789L91.4896 92.5803V93.3716V94.1628V94.9541V95.7454V96.5367V97.328V98.1193V98.9105V99.7018V100.493V101.284V102.076V102.867V103.658V104.45V105.241V106.032L91.2142 106.823L90.9387 107.339L90.6633 107.855L90.3878 108.372L90.1124 108.888L89.8369 109.404L89.5615 109.92L89.286 110.436L89.0106 110.952L88.7351 111.468L88.4596 111.984L88.1842 112.5L87.6677 113.016L87.1512 113.532L86.6348 114.048L86.1183 114.564L85.6018 114.839L85.0853 115.115L84.5689 115.39L84.0524 115.665L83.5359 115.94L83.0194 116.216L82.503 116.491L81.9865 116.766L81.47 117.041L80.9535 117.317L80.437 117.592H79.6451H78.8532H78.0613H77.2693H76.4774H75.6855H74.8935H74.1016H72.8965H72.1046H71.3127L70.5207 117.317L69.7288 117.041L68.9369 116.766L68.1449 116.491L67.353 116.216L66.5611 115.94L65.7691 115.665L64.9772 115.39L64.1853 115.115L63.3934 114.839L62.6014 114.564L61.8095 114.289L61.293 114.014L60.7766 113.739L60.2601 113.463L59.7436 113.188L59.2271 112.913L58.7107 112.638L58.1942 112.362L57.6777 112.087L57.1612 111.812L56.6447 111.537L56.1283 111.261L55.6118 110.986L55.0953 110.711L54.5788 110.436L54.0624 110.161L53.5459 109.885L53.0294 109.61L52.5129 109.335L51.9965 109.06L51.48 108.784L50.9635 108.509L50.447 108.234L49.9306 107.959L49.4141 107.683L48.8976 107.408L48.3811 107.133L47.8647 106.858L47.3482 106.583L46.8317 106.307L46.3152 106.032H45.7988H45.2823H44.7658H44.4904H44.2149H43.9395H43.664H43.3885H43.1131H42.5966H42.3212H42.0457H41.7703H41.2538H40.7373H40.2208L39.7044 106.307L39.1879 106.583L37.8795 105.516L37.363 105.791L36.8465 106.067L36.3301 106.342L35.8136 106.617L35.2971 106.892L34.7806 107.167L34.2641 107.443L33.7477 107.718L33.2312 107.993L32.7147 108.268L32.1982 108.544L31.6818 108.819L31.1653 109.094L30.6488 109.369L30.1323 109.644L29.6159 109.92L29.0994 110.195L28.5829 110.47L28.0664 110.745L27.55 111.021L27.0335 111.296L26.517 111.571L26.0005 111.846L25.4841 112.122L24.9676 112.397L24.4511 112.672L23.9346 112.947L23.1427 113.222L22.3508 113.739L21.5589 114.014L20.7669 114.289L19.975 114.564L19.1831 114.839L18.3911 115.115L17.5992 115.39L16.8073 115.665L16.0153 115.94L15.2234 116.216L14.4315 116.491H13.6396H12.8476H12.0557H11.2638H10.4718H9.67991H8.88798H8.09606H7.30413H6.27118H5.47925H4.92834L4.41186 116.216L3.89539 115.94L3.34448 116.078L2.82801 115.803L2.31153 115.528L1.79505 115.252L1.27858 114.977L0.762104 114.702L0.245628 114.427L-0.270847 114.151L-0.787323 113.635L-1.3038 113.119L-1.82027 112.603L-2.33675 112.087L-2.6122 111.571L-2.88766 111.055L-3.16311 110.539L-3.43856 110.023L-3.71402 109.507L-3.98947 108.991L-4.26492 108.475L-4.54038 107.959L-4.81583 107.443L-5.09129 106.927L-5.36674 106.411L-5.64219 105.619V104.828V104.037V103.245V102.454V101.663V100.803V100.011V99.2202V98.4289V97.6376V96.8463V96.055V95.2638V94.4725V93.6812V92.8899V92.0986L-5.36674 91.3073L-5.09129 90.5161L-4.81583 89.7248L-4.54038 88.9335L-4.26492 88.1422L-3.98947 87.6261L-3.71402 87.1101L-3.43856 86.594L-3.16311 86.078L-2.88766 85.5619L-2.6122 85.0459L-2.33675 84.5298L-2.0613 84.0138L-1.78584 83.4977L-1.51039 82.9816L-1.23494 82.4656L-0.959481 81.9495L-0.684027 81.4335L-0.408574 80.9174L-0.133121 80.4014L0.142333 79.8853L0.417787 79.3693L0.693241 78.8532L0.968694 78.3372L1.24415 77.8211L1.5196 77.305L1.79505 76.789L2.07051 76.2729L2.34596 75.7569L2.31153 75L2.58698 74.4839L2.86244 73.9679L3.13789 73.4518L3.41334 72.9358V72.4197V71.9037V71.3876V70.8716V70.3555V69.8394V69.3234V68.8073V68.2913V67.7752V67.2592V66.9839V66.7087V66.4335V66.055V65.7798V65.5046V65.2294V64.9541V64.6789V64.4037V64.1284V63.8532V63.578V63.3028V62.7867V62.2706V61.7546V61.2385V60.7225V60.2064V59.6904V59.1743V58.6583V58.1422V57.6261L3.10346 57.1101L2.82801 56.594L2.55255 56.078L2.2771 55.5619L2.00165 55.0459L1.72619 54.5298L1.45074 54.0138L1.17528 53.4977L0.89983 52.9817L0.624377 52.4656L0.348924 51.9495L0.0734696 51.4335L-0.201984 50.9174L-0.477438 50.4014L-0.752891 49.8853L-1.02834 49.3693L-1.3038 48.8532L-1.57925 48.3372L-1.85471 47.8211L-2.13016 47.305L-2.40561 46.789L-2.68107 46.2729L-2.95652 45.7569L-3.23197 45.2408L-3.50743 44.7248L-3.78288 44.2087L-4.05833 43.6927L-4.33379 43.1766L-4.60924 42.6606L-4.88469 41.8693L-5.16015 41.078L-5.4356 40.2867L-5.71106 39.4954L-5.98651 38.7041L-6.26196 37.9128V37.1216V36.3303V35.539V34.7477V33.9564V33.1651V32.3739V31.3073V30.5161V29.7248V28.9335V28.1422V27.3509V26.5596V25.7684V24.9771L-5.98651 24.1858L-5.71106 23.6697L-5.4356 23.1537L-5.16015 22.6376L-4.88469 22.1216L-4.60924 21.6055L-4.33379 21.0895L-4.05833 20.5734L-3.78288 20.0573L-3.50743 19.5413L-3.23197 19.0252L-2.95652 18.5092L-2.16459 17.8899L-1.64812 17.3739L-1.13164 16.8578L-0.615164 16.3418L-0.0986891 16.0665L0.417787 15.7913L0.934262 15.5161L1.45074 15.2408L1.96721 14.9656L2.48369 14.6904L3.10346 14.4496L3.61993 14.1743L4.13641 13.8991L4.65289 13.6239L5.20379 13.4174H5.99572H6.78765H7.57958H8.37151H9.16344H9.95537H10.7473H11.5392H12.3312H13.1231H13.915L14.7069 13.6927L15.4989 13.9679L16.2908 14.2431L17.0827 14.5184L17.8747 14.7936L18.6666 15.0688L19.4585 15.344L20.2504 15.6193L21.0424 15.8945L21.8343 16.1697L22.6262 16.445L23.4182 16.7202L24.2101 16.9954L24.7266 17.2707L25.243 17.5459L25.7595 17.8211L26.276 18.0963L26.7925 18.3716L27.3089 18.6468L27.8254 18.922L28.3419 19.1973L28.8584 19.4725L29.3748 19.7477L29.8913 20.0229L30.4078 20.2982L30.9243 20.5734L31.4407 20.8486L31.9572 21.1239L32.4737 21.3991L32.9902 21.6743C35.1249 22.7408 37.1908 24.1858 39.5666 24.6674C40.7373 24.9083 41.9424 24.9083 43.1475 24.9083C43.8017 24.9083 44.4559 24.9083 45.1101 24.7362C45.6266 24.5986 46.1087 24.3578 46.5907 24.117C48.7255 23.0505 50.8602 21.984 53.0294 20.883L53.5459 20.6078L54.0624 20.3326L54.5788 20.0573L55.0953 19.7821L55.6118 19.5069L56.1283 19.2317L56.6447 18.9564L57.1612 18.6812L57.6777 18.406L58.4352 17.8899L58.9517 17.6147L59.4681 17.3395L59.9846 17.0642L60.5011 16.789L61.0176 16.5138L61.8095 16.2385L62.6014 15.9633L63.3934 15.6881L64.1853 15.4129L64.9772 15.1376L65.7691 14.8624L66.5611 14.5872L67.3874 14.4496L68.1794 14.1743L68.9713 13.8991L69.7632 13.6239L70.5552 13.3486H71.3471H72.139H72.9309H73.7229H74.5148H75.3067H76.0987H76.8906H77.6825H78.4744H79.2664H79.7829L80.2993 13.6239L80.8158 13.8991L81.3323 14.1743L81.8488 14.4496L82.3652 14.7248L82.8817 15L83.3982 15.2752L83.9147 15.5505L84.4311 15.8257L84.9476 16.1009L85.4641 16.617L85.9806 17.133L86.497 17.6491L87.0135 18.1651L87.53 18.6812L87.8054 19.1973L88.0809 19.7133L88.3563 20.2294L88.6318 20.7454L88.9072 21.2615L89.1827 21.7775L89.4582 22.2936L89.7336 22.8096L90.0091 23.3257L90.2845 23.8418L90.56 24.633V25.4243V26.2156V27.0069V27.7982V28.5895V29.3807V30.172V30.9633V31.7546V32.5459V33.3372V34.1284V34.9197V35.711V36.5023V37.2936V38.0849L90.2845 38.8762L90.0091 39.6674L89.7336 40.4587L89.4582 41.25L89.1827 42.0413L88.9072 42.5573L88.6318 43.0734L88.3563 43.5895L88.0809 44.1055L87.8054 44.6216L87.53 45.1376L87.2545 45.6537L86.9791 46.1697L86.7036 46.6858L86.4282 47.2018L86.1527 47.7179L85.8773 48.2339L85.6018 48.75L85.3264 49.2661L85.0509 49.7821L84.7754 50.2982L84.5 50.8142L84.2245 51.3303L83.9491 51.8463L83.6736 52.3624L83.3982 52.8784L83.1227 53.3945L82.8473 53.9105L82.5718 54.4266L82.2964 54.9427L82.0209 55.4587L81.7455 55.9748L81.47 56.4908L81.1945 57.0069V57.5229V58.039V58.555V59.0711V59.5872V60.1032V60.6193V61.1353V61.6514V62.1674V62.6835V62.9587V63.2339V63.5092V63.7844V64.0596V64.3349L81.0913 66.5711Z" fill="#F193B7"/>
<path fill-rule="evenodd" clip-rule="evenodd" d="M175.124 93.9564L175.4 94.7477L175.675 95.539L175.951 96.3303L176.226 97.1216L176.501 97.9129L177.018 98.7041L177.534 99.4954L178.051 100.287L178.567 101.078L179.084 101.869L179.6 102.661L180.117 103.452L180.633 104.243L181.15 105.034L181.666 105.826L182.183 106.892L182.699 107.959L183.216 109.025L183.732 110.092L184.249 111.158L185.316 111.674L185.832 112.741L186.349 113.807L186.865 114.874L187.382 115.94L187.657 117.007L187.933 118.073L188.208 119.14L188.484 120.206L188.759 121.273V122.339V123.406V124.472V125.539L188.484 126.606L188.208 127.672L187.933 128.739L187.657 129.53L187.141 130.321L186.624 131.112L186.108 131.904L185.591 132.695L184.799 133.486L184.008 134.002L183.216 134.518L182.424 135.034L181.632 135.55L180.564 136.067L179.497 136.583L178.43 136.858L177.362 137.133L176.295 137.408L175.227 137.683L174.16 137.959L173.093 138.234L172.025 138.509H170.958H169.891H168.823H167.756H166.688H165.621H164.554H163.796H162.763H161.696H160.628H159.561H158.769H157.977H157.185H156.393L155.601 138.784L154.809 139.06L154.018 139.335L153.226 139.61L152.434 139.885L151.642 140.161L151.125 140.436L150.609 140.711L150.092 140.986L149.576 141.502L149.059 142.018L148.543 142.534L148.026 143.05L147.51 143.567L146.993 144.083L146.477 144.599L145.961 145.115L145.444 145.906L144.928 146.697L144.411 147.489L143.895 148.28L143.378 149.071L142.862 149.862L142.345 150.654L141.829 151.445L141.312 152.236L140.796 153.028L140.279 153.819L139.763 154.61L138.971 155.401L138.179 156.193L137.387 156.984L136.595 157.775L135.803 158.567L135.011 159.358L134.219 160.149L133.427 160.665L132.635 161.181L131.844 161.697L131.052 162.213L130.26 162.729L129.468 163.245L128.676 163.761L127.884 164.278L127.092 164.794L126.3 165.069L125.233 165.344L124.165 165.619L123.098 165.895L122.03 166.17L120.963 166.445L119.896 166.72L118.828 166.995H117.761H116.694H115.592H114.524H113.457H112.39H111.322H110.255L109.187 166.72L108.12 166.445L107.053 166.17L105.985 165.895L104.918 165.619L103.851 165.344L103.059 165.069L102.267 164.794L101.475 164.518L100.683 164.243L99.8909 163.968L99.099 163.693L98.307 163.417L97.5151 162.901L96.7232 162.385L95.9313 161.869L95.1393 161.353L94.3474 160.837L93.5555 160.321L92.7635 159.805L91.9716 159.289L91.1797 158.773L90.3878 158.257L89.5958 157.741L88.8039 157.225L88.012 156.95L87.22 156.674L86.4281 156.399L85.6362 156.124L84.8442 155.849L84.0523 155.573L82.9849 155.298L81.9176 155.023L80.8502 154.748L79.7828 154.472L78.7154 154.197L77.648 153.922L76.5806 153.647L75.5133 153.372L74.4459 153.096L73.3785 152.821L72.3111 152.546L71.2437 152.271L69.1434 151.204L68.076 150.688L67.0086 150.172L65.9412 149.656L64.8739 149.14L63.8065 148.624L62.7391 148.108L61.6717 147.592L60.6043 147.076L59.537 146.56L58.4696 146.044L57.4022 145.528L56.3348 145.011L55.2674 144.495L54.992 143.463L54.2 142.672L53.4081 141.881L52.6162 141.089L51.8243 140.298L51.0323 139.507L50.2404 138.716L49.4485 137.924L48.6565 137.133L47.8646 136.342L47.0727 135.55L46.5562 134.484L46.0397 133.417L45.5233 132.351L45.0068 131.284L44.4903 130.218L43.9738 129.151L43.4573 128.085L43.1819 127.018L42.9064 125.952L42.631 124.885L42.3555 123.819L42.0801 122.752L41.8046 121.686L41.5292 120.619V119.553V118.693V117.661V116.594V115.528V114.461V113.395V112.328L41.8046 111.261L42.0801 110.195L42.3555 109.128L42.631 108.062L42.9064 106.995L43.1819 105.929L43.4573 104.862L43.7328 103.796L44.0083 102.729L44.2837 101.663L44.8002 100.596L45.3167 99.5298L45.8331 98.4633L46.3496 97.3968L46.8661 96.3303L47.3826 95.2638L47.899 94.1973L48.4155 93.1307L48.932 92.0642L49.4485 90.9977L49.9649 90.2064L50.4814 89.4151L50.9979 88.6239L51.7898 87.8326L52.5817 87.0413L53.3737 86.25L54.1656 85.4587L54.9575 84.6674L55.7495 83.8762L56.5414 83.0849L57.3333 82.2936L58.1253 81.5023L58.9172 80.711L59.7091 79.9197L60.501 79.1285L61.293 78.6124L62.0849 78.0963L62.8768 77.5803L63.6688 77.0642L64.4607 76.5482L65.2526 76.0321L66.0445 75.5161L66.8365 75L67.6284 74.484L68.4203 73.9679L69.2123 73.4518L70.0042 72.9358L70.7961 72.4197L71.3126 71.9037L71.8291 71.3876L72.3455 70.8716L72.862 70.3555L73.3785 69.8395L73.895 69.3234L74.4114 68.8074L74.9279 68.2913L75.4444 67.7752L75.7198 67.2592L75.9953 66.7431L76.2708 66.2271L76.5462 65.4358L76.8217 64.6445L77.0971 63.8532L77.3726 63.0619L77.648 62.2707V61.5826V60.7913V60V59.2087V58.1422V57.1101V56.0436V54.9771V53.9106V52.844V51.7775V50.711V49.6445V48.578V47.5115V46.445L77.9235 45.3784L78.1989 44.3119L78.4744 43.2454L78.7498 42.1789L79.0253 41.1124L79.3008 40.0459L79.5762 38.9794L80.0927 37.9129L80.6091 36.8463L81.1256 36.0551L81.6421 35.2638L82.1586 34.4725L82.6751 33.6812L83.467 32.8899L84.2589 32.3739L85.0508 31.8578L85.8428 31.3418L86.6347 30.8257L87.4266 30.5505L88.494 30.2752L89.5614 30L90.6288 29.7248H91.6962H92.7635H93.8309H94.8983L95.9657 30L97.0331 30.2752L98.1005 30.5505L99.1678 30.8257L100.235 31.1009L101.303 31.617L102.37 32.133L103.437 32.6491L104.505 33.1651L105.572 33.6812L106.64 34.1973L107.707 34.7133L108.774 35.2294L109.842 35.7454L110.909 36.2615L111.701 36.7775L112.493 37.2936L113.285 37.8096L114.077 38.3257L114.869 38.8418L115.661 39.3578L116.453 39.633L117.244 39.9083L118.036 40.1835L118.828 40.4587L119.62 40.734H120.412H121.204H121.996H122.788H123.58L124.372 40.4587L125.164 40.1835L125.956 39.9083L126.748 39.633L127.54 39.3578L128.331 38.8418L129.123 38.3257L129.915 37.8096L130.707 37.2936L131.499 36.7775L132.291 36.2615L133.083 35.4702L134.15 34.6789L135.218 33.8876L136.285 33.0963L137.353 32.3051L138.42 31.5138L139.487 30.7225L140.555 29.9312L141.622 29.1399L142.69 28.3486L143.757 27.8326L144.824 27.3165L146.133 26.8005L147.441 26.2844L148.749 25.7684L150.058 25.2523L151.366 24.7362L152.675 24.461L153.983 24.1858L155.292 23.9106L156.6 23.6353H157.908H159.217H160.284H161.351H162.419L163.486 23.9106L164.554 24.1858L165.621 24.461L166.688 24.7362L167.756 25.2523L168.823 25.7684L169.891 26.2844L170.682 26.8005L171.474 27.3165L172.266 28.1078L173.058 28.8991L173.85 29.6904L174.642 30.4817L175.434 31.2729L176.226 32.0642L176.742 32.8555L177.259 33.922L177.775 34.9885L178.292 36.0551L178.808 37.1216L179.325 38.1881L179.841 39.2546L180.358 40.3211L180.874 41.3876L181.391 42.4541L181.666 43.5207L181.942 44.5872L182.217 45.6537L182.493 46.7202L182.768 47.7867L183.043 48.8532L183.319 49.9197L183.594 50.9862L183.87 52.0528L184.145 53.1193L184.421 54.1858V55.2523V56.3188V57.3853V58.4518V59.5184V60.5849V61.6514V62.7179V63.7844L184.145 64.8509L183.87 65.9174L183.594 66.984L183.319 68.0505L183.043 69.117L182.768 70.1835L182.493 71.25L182.217 72.3165L181.942 73.383L181.666 74.4496L181.391 75.5161L181.115 76.5826L180.84 77.6491L180.564 78.7156L180.289 79.5069L180.013 80.2982L179.738 81.0895L179.463 81.8807L179.187 82.672L178.912 83.4633L178.636 84.2546L178.361 85.0459L178.085 85.8372L177.81 86.6285L177.534 87.4197L177.259 88.211L176.983 89.0023L176.708 89.7936V90.5849V91.3762V92.1674V92.9587V93.75V94.5413V95.3326L175.124 93.4748V93.9564Z" fill="#89C8A5"/>
<path fill-rule="evenodd" clip-rule="evenodd" d="M31.2685 89.2087C31.1308 96.3991 30.8898 103.108 28.2729 109.92C25.725 116.525 21.6965 122.511 16.8761 127.672C6.03007 139.335 -8.98214 147.11 -24.7863 149.14C-40.5904 151.17 -57.1176 147.385 -70.4083 138.578C-81.2198 131.422 -89.8622 120.929 -94.3039 108.75C-98.9522 95.9518 -98.8144 81.7775 -95.8877 68.4977C-93.3742 57.0757 -88.6571 45.7913 -80.3246 37.6032C-69.5819 27.0757 -54.191 22.844 -39.282 20.711C-26.0603 18.8532 -12.2187 18.406 0.279984 23.0161C11.126 27.0413 20.5258 34.8165 26.6202 44.656C34.2641 56.9037 38.9812 75.9289 31.2685 89.2087Z" fill="#66529D"/>
<path fill-rule="evenodd" clip-rule="evenodd" d="M103.196 146.869L103.713 147.936L104.229 149.002L104.746 150.069L105.262 151.135L105.779 152.202L106.054 153.268L106.33 154.335L106.605 155.642L106.881 156.95L107.156 158.257L107.431 159.564L107.707 160.872L107.982 162.179L108.258 163.486V164.794V166.101V167.408V168.716V170.023V171.33V172.638L107.982 173.945L107.707 175.252L107.431 176.56L107.156 177.867L106.881 179.174L106.605 180.482L106.33 181.548L105.813 182.615L105.297 183.681L104.78 184.748L104.264 185.814L103.747 186.881L103.231 187.947L102.714 189.014L101.922 190.08L101.13 191.147L100.339 192.213L99.5466 193.28L98.7547 194.346L97.9628 195.138L97.1708 195.929L96.3789 196.72L95.3115 197.511L94.2441 198.303L93.1768 199.094L92.1094 199.885L91.042 200.677L89.9746 201.468L88.9072 201.984L87.8398 202.5L86.7725 203.016L85.7051 203.532L84.6377 204.048L83.5703 204.564L82.2619 205.08L80.9535 205.356L79.6451 205.631L78.3367 205.906L77.0283 206.181L75.7199 206.456L74.4115 206.732L73.1031 207.007L71.7947 207.282H70.4863H69.1779H67.8695H66.5611H65.2527H63.9442H62.6358H61.3274H60.0191H58.7106L57.6432 207.007L56.5759 206.732L55.5085 206.456L54.4411 206.181L53.3737 205.906L52.3063 205.631L51.239 205.356L50.1716 205.08L49.1042 204.805L48.0368 204.53L46.9694 204.255L45.902 203.979L44.8347 203.704L43.7673 203.429L42.6999 203.154L41.6325 202.878L40.5651 202.603L39.4977 202.328L38.7058 202.053L37.9139 201.778L37.122 201.502L36.33 201.227L35.5381 200.952L34.7462 200.677L33.9543 200.401L33.1623 200.126L32.3704 199.851V198.268L31.5785 197.993L30.7865 197.718L29.9946 197.443L29.2027 197.167L28.4107 196.892L27.6188 196.617L27.1023 195.55L26.3104 195.275L25.5185 195L24.7266 194.725L23.9346 194.45L23.1427 194.174L22.6262 193.899L22.1097 193.624L21.5933 193.349L21.0768 193.073L20.5603 192.798L20.0438 192.523L19.5274 192.248L19.0109 191.972L18.4944 191.697L17.9779 191.422L17.4615 191.147L16.945 190.872L16.4285 190.596L15.912 190.321L15.3956 190.046L14.8791 189.771L14.3626 189.495L13.8461 189.22L13.3297 188.945H12.8132H12.2967H11.5048H10.7129H9.92093H9.129H8.33707H7.54514H6.78764H5.99571H5.20378H4.41186H3.61993H2.828H2.03607H1.24414H0.452209H-0.339718H-1.13165H-1.92358L-2.7155 188.67L-3.50743 188.395L-4.29936 188.119L-5.09129 187.844L-5.88322 187.569L-6.67515 187.294L-7.46708 187.018L-8.25901 186.743L-9.05094 186.468L-9.84286 186.193L-10.6348 185.917L-11.4267 185.642L-12.2187 185.367L-13.0106 185.092L-13.8025 184.817L-14.5944 184.541L-15.3864 184.266L-16.1783 183.991L-16.9702 183.716L-17.7622 183.44L-18.5541 183.165L-19.346 182.649L-20.1379 182.133L-20.9299 181.617L-21.7218 181.101L-22.5137 180.585L-23.3057 180.069L-24.0976 179.553L-24.8895 179.037L-25.6814 178.521L-26.4734 178.005L-27.2653 177.489L-28.0572 176.972L-28.8492 176.456L-29.6411 175.94L-30.433 175.149L-31.2249 174.358L-32.0169 173.567L-32.8088 172.775L-33.6007 171.984L-34.3927 171.193L-35.1846 170.401L-35.9765 169.61L-36.493 168.819L-37.0095 168.028L-37.5259 167.236L-38.0424 166.445L-38.5589 165.654L-39.0754 164.587L-39.5918 163.521L-40.1083 162.454L-40.3838 161.388L-40.6592 160.321L-40.9347 159.255L-41.2101 158.188L-41.4856 157.122L-41.761 156.055L-42.0365 154.989V153.922V152.856V151.789V150.722V149.656V148.589V147.523L-41.761 146.456L-41.4856 145.39L-41.2101 144.323L-40.9347 143.257L-40.6592 142.19L-40.3838 141.124L-40.1083 140.057L-39.8329 138.991L-39.3164 137.924L-38.7999 136.858L-38.2834 135.791L-37.767 134.725L-37.2505 133.933L-36.734 133.142L-36.2175 132.351L-35.7011 131.56L-35.1846 130.768L-34.6681 129.977L-33.8762 129.186L-33.0843 128.395L-32.2923 127.603L-31.5004 126.812L-30.7085 126.021L-29.9165 125.229L-29.1246 124.438L-28.3327 123.647L-27.5408 123.131L-26.7488 122.615L-25.9569 122.099L-25.165 121.583L-24.373 121.067L-23.5811 120.55L-22.7892 120.034L-21.7218 119.518L-20.6544 119.002L-19.587 118.486L-18.5197 117.97L-17.4523 117.695L-16.3849 117.42L-15.3175 117.145L-14.2501 116.869L-13.1827 116.594L-12.1154 116.319L-11.048 116.044L-9.98059 115.768L-9.18866 115.493L-8.39673 115.218L-7.6048 114.943L-6.81288 114.667L-6.02095 114.392L-5.22902 114.117L-4.43709 113.842L-3.64516 113.567L-2.85323 113.291L-2.0613 113.016L-1.26937 112.741L-0.477444 112.466L0.314484 112.19L1.10641 111.915L1.89834 111.64L2.69027 111.365L3.4822 111.089L4.27413 110.814L4.7906 110.539L5.30708 110.264L5.82355 109.989L6.34003 109.713L6.85651 109.438L7.37298 109.163L7.88945 108.888L8.40593 108.612L8.92241 108.337L9.43888 108.062L9.95536 107.787L10.4718 107.511L10.9883 107.236L11.5048 106.961L12.0213 106.686L12.5377 106.411L13.0542 106.135L13.5707 105.619L14.0872 105.103L14.6036 104.587L15.1201 104.071L15.6366 103.555C15.6366 103.555 16.1186 103.073 16.1531 103.039C20.3882 98.8073 24.2101 95.4358 30.5111 94.9541C42.9065 94.0252 52.6162 102.97 63.841 106.445L64.6329 106.72L65.4248 106.995L66.2168 107.271L67.0087 107.546L67.8006 107.821L68.5925 108.096L69.3845 108.372L70.1764 108.647L70.9683 108.922L71.7602 109.197L72.5522 109.472L73.3441 109.748L74.136 110.023L74.928 110.539L75.7199 111.055L76.5118 111.571L77.3037 112.087L74.6525 115.493L75.4444 116.009L76.2364 116.525L77.0283 117.041L77.8202 117.557L78.6122 118.073L79.4041 118.589L80.196 119.106L80.9879 119.622L81.7799 120.138L82.5718 120.654L83.3637 121.17L84.1557 121.686L84.9476 122.202L85.7395 122.993L86.5314 123.784L87.3234 124.576L88.1153 125.367L88.9072 126.158L89.6992 126.95L90.4911 127.741L91.283 128.532L92.075 129.323L92.8669 130.115L93.6588 130.906L94.4507 131.697L95.2427 132.489L96.0346 133.28L96.8265 134.071L97.6184 135.138L98.4104 136.204L98.9269 137.271L99.4433 138.337L99.9598 139.404L100.476 140.47L100.993 141.537L101.509 142.603L102.026 143.67L102.542 144.736L103.196 146.869Z" fill="#287F42"/>
</g>
<path d="M40.3928 149.622H9.92077C7.95816 149.622 6.30544 148.968 4.99704 147.626C3.68863 146.319 3 144.667 3 142.706V7.15596C3 5.12615 3.72307 3.23394 4.99704 1.99541C6.30544 0.65367 7.95816 0 9.92077 0H69.6253C88.2873 0 103.127 4.33486 113.732 12.9014C124.441 21.2959 129.881 33.922 129.881 50.367C129.881 66.9839 124.337 79.5069 113.457 87.6261C102.886 95.6766 88.0463 99.7706 69.3843 99.7706H62.9456V98.016C62.9456 90.516 62.7046 81.2271 62.7046 81.1238V80.9862V80.883C62.98 78.4404 64.013 76.1353 65.8034 74.0367C69.7975 69.805 73.8604 65.4702 78.9563 62.1674C79.8171 61.5138 80.7123 60.8257 81.6076 59.9312C81.7453 59.7936 81.883 59.6904 82.0552 59.5527C82.124 59.4839 82.2618 59.4151 82.2962 59.3463L82.3651 59.2431C82.3306 59.2431 82.2962 59.2431 82.2962 59.2431C79.9204 59.656 77.6135 60.4128 75.2033 61.2385L74.1014 61.617C72.1733 62.1674 70.8304 62.6491 69.3154 63.2683C68.4202 63.7156 66.9397 63.6812 66.0789 61.961L65.9411 61.5482C64.495 54.9771 62.7734 48.3372 60.8108 41.7661L60.3632 40.2523C59.5368 37.5688 58.7105 34.7821 57.6775 32.3739C57.5398 31.961 57.2988 31.5482 57.0578 31.1353C56.92 31.3761 56.8856 31.617 56.8856 31.7202C56.6446 34.3349 57.1266 36.8463 57.6087 39.4954C58.3662 43.211 59.0892 47.1674 59.3647 51.2271V53.0505C59.3647 53.945 59.0548 54.633 58.4695 55.0459C57.5742 55.6995 56.5413 55.3555 56.0592 55.1835L55.6461 54.9771C54.4065 54.1514 54.0278 52.9816 53.7179 52.1216C52.2373 47.2018 50.4813 42.2133 48.7942 37.3968C48.5531 36.8119 48.3465 36.1583 48.1399 35.4702C47.9678 34.9197 47.7956 34.3349 47.589 33.7844C47.348 33.0275 46.6594 32.5803 46.074 32.6491C45.7986 32.7179 45.6953 32.7523 45.6609 32.7867C45.6609 32.7867 45.6264 32.8555 45.592 33.0619C45.6264 33.5092 45.7642 34.1628 45.9708 34.7821C47.1759 39.1858 48.4843 43.2798 49.896 47.6491L50.9633 50.9518C51.0322 51.3303 51.1355 51.7087 51.2388 52.0527C51.4798 52.8096 51.7208 53.7041 51.7208 54.7362C51.7208 55.1147 51.7208 55.9404 50.9633 56.7316L50.4469 57.2477H49.7238C48.7253 57.2477 47.8645 56.5596 47.589 55.6651C46.6594 54.1858 45.6609 52.7408 44.6968 51.2959C43.6638 49.7821 42.5964 48.1995 41.5979 46.5826C39.8419 43.7271 37.776 40.906 35.1248 37.7064C35.1248 37.7064 35.0559 37.6376 34.9526 37.5344H34.9182C34.7805 37.5 34.6772 37.4656 34.6772 37.4656C34.6772 37.4656 34.6083 37.5 34.5394 37.5688C35.0903 39.5642 36.0889 41.3876 36.7775 42.6261C37.7416 44.4151 38.9123 46.1009 40.1862 47.8555C41.1159 49.1628 42.0455 50.5046 42.9063 51.8807C43.595 53.0505 44.318 54.2202 44.9722 55.1147C45.9019 56.1468 45.9708 57.5917 45.11 58.4862C44.2492 59.3463 42.803 59.2775 41.7701 58.3486C40.9093 57.7294 40.0829 57.0757 39.2221 56.422C38.3958 55.7683 37.535 55.1147 36.7086 54.4954C35.4002 53.5665 34.0574 52.6032 32.7146 51.5367C33.0933 52.0183 33.472 52.4656 33.8164 52.8096C36.502 55.4931 39.0844 58.7615 41.1847 62.2018C41.7012 62.9931 42.2866 63.8188 42.8375 64.6445C44.2492 66.7087 45.5576 68.6353 46.7971 70.7339C47.9334 72.2133 48.381 74.0367 48.0711 76.0321L47.348 142.706C47.348 144.633 46.6938 146.284 45.351 147.626C44.0081 148.933 42.3554 149.622 40.3928 149.622ZM9.92077 3.50917C8.92225 3.50917 8.13032 3.81881 7.47612 4.47248C6.89078 5.05734 6.51203 6.08945 6.51203 7.15596V142.706C6.51203 143.704 6.82192 144.495 7.47612 145.149C8.13032 145.803 8.92225 146.112 9.92077 146.112H40.3928C41.3913 146.112 42.1833 145.803 42.8375 145.149C43.4917 144.495 43.8016 143.704 43.8016 142.706L44.5591 75.6193C44.7312 74.5183 44.5246 73.5894 43.9393 72.8326L43.8016 72.6261C42.5964 70.5963 41.288 68.6697 39.9108 66.6399C39.3599 65.8142 38.7745 64.9885 38.1892 64.1284C36.1577 60.8601 33.7819 57.8326 31.2684 55.3211C30.4421 54.4954 29.6501 53.4633 28.8926 52.4312L28.7205 52.156C28.686 52.0527 28.5827 51.9495 28.5139 51.8463C28.2384 51.4679 27.8597 50.883 27.7908 50.1261C27.5498 48.9564 27.9285 48.1651 28.2729 47.7179C28.6516 47.2362 29.4091 46.6514 30.7519 46.6514C31.9226 46.6514 32.8523 47.0642 33.7131 47.8899C35.1592 49.1284 36.6398 50.195 38.2236 51.3303C37.8793 50.8486 37.535 50.367 37.2251 49.8853C35.9856 48.0963 34.6772 46.2729 33.6442 44.3119C32.3014 42.0069 31.475 40.0459 31.0274 38.2569C30.7864 37.5344 30.5798 35.9174 32.508 34.6445C33.8164 33.7844 34.9182 33.8532 35.779 34.1284C36.7775 34.2661 37.3628 34.9541 37.6039 35.2982L37.776 35.4702C40.5305 38.8073 42.6997 41.7317 44.5591 44.7592C45.0067 45.4817 45.4887 46.2041 45.9363 46.9266C44.7312 43.211 43.6294 39.5986 42.5964 35.8486C42.4243 35.2982 42.0455 34.0252 42.0455 32.9243L42.08 32.5803C42.4587 30.6537 43.4917 29.6216 45.4198 29.2431C47.7612 28.8303 50.1026 30.3096 50.8601 32.6147C51.1011 33.1651 51.3077 33.8532 51.4798 34.5069C51.652 35.0573 51.8241 35.6422 52.0307 36.1927C52.9948 38.945 53.9933 41.7316 54.923 44.5527C54.682 43.0734 54.3721 41.594 54.0966 40.1491C53.5802 37.3624 53.0637 34.4725 53.3391 31.5482C53.3391 29.9656 54.2688 28.4518 55.7838 27.695L56.0248 27.5917C58.2284 26.8693 59.1925 27.9702 59.5713 28.5894C60.1222 29.3807 60.6387 30.2064 60.9485 31.1353C61.9815 33.578 62.8423 36.4679 63.7031 39.2202L64.1507 40.7339C66.01 46.9954 67.6627 53.2913 69.0744 59.5527C70.314 59.0711 71.5535 58.6583 73.0341 58.2454L74.0326 57.9014C76.6494 57.0413 79.094 56.1812 81.8141 55.7339L82.0896 55.6995C83.2258 55.6995 84.7408 55.6995 85.7738 57.2133C86.0837 57.695 86.9445 59.3463 85.2229 61.2041C84.8786 61.7546 84.431 62.0642 84.1555 62.305C82.9848 63.4404 81.9174 64.2316 80.9189 64.9885C76.0985 68.1193 72.3454 72.1101 68.3858 76.3073C67.1462 77.7523 66.3543 79.4037 66.1477 81.0894C66.1822 82.156 66.3543 89.5183 66.3887 96.1927H69.3154C87.1855 96.1927 101.302 92.3394 111.253 84.7706C121.238 77.3394 126.3 65.7454 126.3 50.3326C126.3 35.0229 121.307 23.3257 111.494 15.6193C101.509 7.56881 87.4265 3.47477 69.5909 3.47477H9.92077V3.50917ZM67.9382 60.0688C67.9037 60.0688 67.8693 60.1032 67.8693 60.1032C67.9037 60.1032 67.9382 60.0688 67.9382 60.0688Z" fill="#3B3B3B"/>
</svg>
