<svg width="380" height="150" viewBox="0 0 380 150" fill="none" xmlns="http://www.w3.org/2000/svg">
<path d="M339.473 144.068C335.775 140.619 333.805 135.445 333.563 128.547V126.098C333.805 119.683 335.775 114.785 339.473 111.095C343.17 107.404 348.354 105.679 354.781 105.679C359.481 105.679 363.42 106.68 366.634 108.404C369.847 110.37 372.301 112.819 373.787 116.027C375.273 119.234 376.24 122.925 376.24 127.098V129.306C376.24 129.788 375.998 130.306 375.757 130.789C375.273 131.272 374.754 131.272 374.271 131.272H348.63V131.754C348.63 134.203 349.114 136.169 350.358 137.652C351.36 139.135 353.088 139.86 355.057 139.86C356.301 139.86 357.269 139.618 358.271 139.135C358.997 138.653 359.757 137.894 360.483 137.169C360.967 136.687 361.485 136.169 361.727 136.169C361.969 135.928 362.452 135.928 363.213 135.928H373.821C374.305 135.928 374.824 136.169 375.065 136.411C375.307 136.652 375.549 137.135 375.549 137.411C375.549 138.894 374.824 140.377 373.096 142.343C371.368 144.309 369.156 145.792 366.184 147.275C363.213 148.517 359.515 149.241 355.334 149.241C348.595 149.483 343.412 147.482 339.473 144.068ZM361.658 123.132C361.658 120.407 361.174 118.441 359.93 116.992C358.686 115.509 357.2 114.785 355.23 114.785C353.26 114.785 351.533 115.509 350.531 116.992C349.528 118.476 348.803 120.441 348.803 122.89V123.132H361.658Z" fill="#3B3B3B"/>
<path d="M301.737 133.203V118.2H295.31C294.826 118.2 294.308 117.958 293.824 117.717C293.34 117.234 293.34 116.716 293.34 116.234V109.335C293.34 108.853 293.582 108.335 293.824 107.852C294.308 107.37 294.826 107.37 295.31 107.37H301.737V94.0906C301.737 93.6077 301.979 93.0904 302.221 92.6075C302.705 92.1246 303.223 92.1246 303.707 92.1246H313.556C314.039 92.1246 314.558 92.3661 315.041 92.6075C315.525 92.8489 315.525 93.6077 315.525 94.0906V107.37H325.65C326.134 107.37 326.652 107.611 327.136 107.852C327.62 108.335 327.62 108.853 327.62 109.335V116.234C327.62 116.716 327.378 117.234 327.136 117.717C326.652 118.2 326.134 118.2 325.65 118.2H315.525V131.996C315.525 133.962 315.767 135.204 316.527 136.411C317.253 137.411 318.255 137.894 319.983 137.894H326.41C326.894 137.894 327.413 138.135 327.896 138.377C328.38 138.618 328.38 139.377 328.38 139.86V147.241C328.38 147.724 328.138 148.241 327.896 148.724C327.413 149.207 326.894 149.207 326.41 149.207H318.773C307.405 149.483 301.737 144.068 301.737 133.203Z" fill="#3B3B3B"/>
<path d="M245.48 148.724C244.996 148.241 244.996 147.724 244.996 147.241V109.335C244.996 108.853 245.238 108.335 245.48 107.852C245.964 107.37 246.482 107.37 246.966 107.37H256.815C257.298 107.37 257.817 107.611 258.3 107.852C258.784 108.335 258.784 108.853 258.784 109.335V112.543C260.27 110.819 261.998 109.335 264.451 108.128C266.663 107.128 269.393 106.404 272.33 106.404C275.544 106.404 278.239 107.128 280.485 108.611C282.939 110.094 284.909 112.06 286.153 114.751C287.639 117.475 288.122 120.89 288.122 124.58V147.241C288.122 147.724 287.88 148.241 287.639 148.724C287.155 149.207 286.636 149.448 286.153 149.448H275.302C274.818 149.448 274.058 149.207 273.816 148.965C273.332 148.482 273.332 147.965 273.332 147.482V125.339C273.332 122.89 272.849 120.924 271.605 119.683C270.36 118.441 268.633 117.717 266.421 117.717C264.21 117.717 262.482 118.441 261.238 119.683C259.994 120.924 259.268 122.89 259.268 125.098V147.241C259.268 147.724 259.026 148.241 258.784 148.724C258.3 149.207 257.782 149.207 257.298 149.207H246.448C246.24 149.483 245.722 149.207 245.48 148.724Z" fill="#3B3B3B"/>
<path d="M200.592 144.068C196.894 140.619 194.925 135.445 194.683 128.547V126.098C194.925 119.683 196.894 114.785 200.592 111.095C204.289 107.404 209.473 105.679 215.9 105.679C220.6 105.679 224.539 106.68 227.753 108.404C230.966 110.37 233.42 112.819 234.906 116.027C236.392 119.234 237.359 122.925 237.359 127.098V129.306C237.359 129.788 237.117 130.306 236.876 130.789C236.392 131.272 235.873 131.272 235.39 131.272H209.749V131.754C209.749 134.203 210.233 136.169 211.477 137.652C212.479 139.135 214.207 139.86 216.176 139.86C217.421 139.86 218.388 139.618 219.39 139.135C220.116 138.653 220.876 137.894 221.602 137.169C222.086 136.687 222.604 136.169 222.846 136.169C223.088 135.928 223.571 135.928 224.332 135.928H234.871C235.355 135.928 235.873 136.169 236.115 136.411C236.357 136.652 236.599 137.135 236.599 137.411C236.599 138.894 235.873 140.377 234.146 142.343C232.418 144.309 230.206 145.792 227.234 147.275C224.263 148.517 220.565 149.241 216.384 149.241C209.473 149.483 204.289 147.482 200.592 144.068ZM222.535 123.132C222.535 120.407 222.051 118.441 220.807 116.992C219.563 115.509 218.077 114.785 216.107 114.785C214.138 114.785 212.41 115.509 211.408 116.992C210.406 118.476 209.68 120.441 209.68 122.89V123.132H222.535Z" fill="#3B3B3B"/>
<path d="M157.673 147.482C154.701 146.241 152.49 144.757 151.004 143.067C149.518 141.343 148.792 139.86 148.792 138.377C148.792 137.894 149.034 137.376 149.276 137.135C149.76 136.894 150.002 136.652 150.52 136.652H160.369C160.61 136.652 160.852 136.652 161.094 136.894C162.096 137.376 162.58 137.894 162.58 137.894C163.582 138.618 164.55 139.135 165.552 139.618C166.554 140.101 167.522 140.101 168.766 140.101C170.252 140.101 171.496 139.86 172.463 139.377C173.465 138.894 173.949 137.894 173.949 136.928C173.949 135.962 173.707 135.445 173.223 134.721C172.74 134.238 171.737 133.72 170.252 133.238C168.766 132.755 166.554 132.237 163.582 131.754C154.218 129.788 149.518 125.615 149.518 118.717C149.518 116.51 150.244 114.302 151.73 112.302C153.215 110.336 155.185 108.611 158.157 107.37C160.887 106.128 164.308 105.404 168.282 105.404C172.256 105.404 175.677 105.886 178.649 107.128C181.62 108.37 183.832 109.853 185.318 111.543C186.804 113.267 187.53 114.751 187.53 116.234C187.53 116.716 187.288 117.234 187.046 117.475C186.804 117.958 186.32 117.958 185.802 117.958H176.921C176.437 117.958 175.919 117.958 175.677 117.717C174.951 117.475 174.433 116.992 173.707 116.475C172.705 115.751 171.979 115.233 171.254 114.992C170.528 114.751 169.526 114.509 168.524 114.509C167.28 114.509 166.07 114.751 165.31 115.509C164.584 115.992 164.066 116.751 164.066 117.717C164.066 118.441 164.308 119.2 164.792 119.683C165.275 120.166 166.278 120.683 167.522 121.166C169.008 121.649 171.219 122.166 174.191 122.649C179.616 123.649 183.314 125.098 185.767 127.581C188.221 130.064 189.465 132.755 189.465 135.721C189.465 139.653 187.737 143.102 184.039 145.309C180.342 147.758 175.4 149 169.008 149C164.342 149.483 160.645 148.724 157.673 147.482Z" fill="#3B3B3B"/>
<path d="M106.876 144.068C103.178 140.619 101.208 135.445 100.967 128.547V126.098C101.208 119.683 103.178 114.785 106.876 111.095C110.573 107.404 115.757 105.679 122.184 105.679C126.884 105.679 130.823 106.68 134.037 108.404C137.25 110.37 139.704 112.819 141.19 116.027C142.676 119.234 143.643 122.925 143.643 127.098V129.306C143.643 129.788 143.401 130.306 143.16 130.789C142.676 131.272 142.157 131.272 141.674 131.272H115.998V131.754C115.998 134.203 116.482 136.169 117.726 137.652C118.728 139.135 120.456 139.86 122.426 139.86C123.67 139.86 124.637 139.618 125.64 139.135C126.365 138.653 127.126 137.894 127.851 137.169C128.335 136.687 128.853 136.169 129.095 136.169C129.337 135.928 129.821 135.928 130.581 135.928H141.19C141.674 135.928 142.192 136.169 142.434 136.411C142.676 136.652 142.918 137.135 142.918 137.411C142.918 138.894 142.192 140.377 140.464 142.343C138.736 144.309 136.525 145.792 133.553 147.275C130.581 148.517 126.884 149.241 122.702 149.241C115.757 149.483 110.573 147.482 106.876 144.068ZM128.819 123.132C128.819 120.407 128.335 118.441 127.091 116.992C125.847 115.509 124.361 114.785 122.391 114.785C120.422 114.785 118.694 115.509 117.692 116.992C116.69 118.476 115.964 120.441 115.964 122.89V123.132H128.819Z" fill="#3B3B3B"/>
<path d="M66.1686 148.724C65.6848 148.241 65.6848 147.724 65.6848 147.241V109.335C65.6848 108.853 65.9267 108.335 66.1686 107.852C66.6524 107.369 67.1707 107.369 67.6545 107.369H77.503C77.9868 107.369 78.5051 107.611 78.9889 107.852C79.4727 108.335 79.4727 108.853 79.4727 109.335V112.543C80.9586 110.819 82.6864 109.577 84.898 108.611C86.8677 107.611 89.0793 107.369 91.5673 107.369H95.2648C95.7486 107.369 96.267 107.611 96.7507 107.852C97.2345 108.335 97.2345 108.853 97.2345 109.335V118.2C97.2345 118.682 96.9926 119.2 96.7507 119.683C96.267 120.166 95.7486 120.166 95.2648 120.166H87.1096C84.898 120.166 83.1702 120.648 82.1681 121.89C80.9241 123.132 80.4403 124.856 80.4403 126.822V147.241C80.4403 147.724 80.1984 148.241 79.9565 148.724C79.4727 149.207 78.9544 149.207 78.4706 149.207H67.8618C67.1707 149.483 66.6869 149.207 66.1686 148.724Z" fill="#3B3B3B"/>
<mask id="mask0" mask-type="alpha" maskUnits="userSpaceOnUse" x="3" y="2" width="126" height="147">
<path d="M5.93726 4.31132L9.39287 2.41434H83.3429L103.385 8.1053L115.998 16.5555L125.329 29.8344L128.957 47.0798L126.711 66.567L119.8 80.1908L109.26 88.986L92.8458 96.229L75.0494 97.4362H64.5098L65.7193 76.2244L84.5524 58.9791L83.3429 57.7719L72.6305 60.3587H68.311L60.5359 33.456L56.9075 29.4895L55.0069 31.2141L56.9075 51.9085L48.4412 32.4212L45.8495 31.2141L43.6034 32.4212L45.8495 38.802L48.4412 53.1156L39.975 40.699L33.9277 35.8703L33.0638 38.802L42.7395 56.7372L32.0271 49.6666V51.9085L45.8495 73.6376V142.964L43.0851 148.31H10.2568L6.28282 146.93L3.86389 142.964V13.9687L5.93726 4.31132Z" fill="black"/>
</mask>
<g mask="url(#mask0)">
<path fill-rule="evenodd" clip-rule="evenodd" d="M167.832 28.7652L167.556 29.8344L167.28 30.9036L167.003 31.9729L166.727 33.0421L166.45 34.1113L166.174 35.1805L165.897 36.2497L165.621 37.3189L165.344 38.3881L165.068 39.4573L164.792 40.5265L164.515 41.5958L164.239 42.665L163.962 43.7342L163.686 44.8034L163.409 45.8726L163.133 46.9418L162.856 48.011L162.58 49.0802L162.303 50.1494L162.027 51.2187L161.751 52.2879L161.474 53.3571L160.956 54.4263L160.437 55.4955L159.919 56.5647L159.401 57.6339L158.882 58.7031L158.364 59.7723L157.846 60.8416L157.327 61.9108L156.809 62.98L156.291 64.0492L155.772 65.1184L155.254 66.1876L154.736 67.2568L154.217 68.326L153.699 69.3953L153.181 70.4645L152.662 71.2578L151.868 72.051L151.073 72.8443L150.278 73.6376L148.965 75.5001L148.17 76.2934L147.375 77.0867L146.58 77.88L145.786 78.6732L144.991 79.4665L144.196 80.2598L143.401 81.0531L142.607 81.8464L141.812 82.6397L141.017 83.433L140.222 84.2262L139.427 85.0195L138.633 85.5369L137.838 86.0543L137.043 86.5716L136.248 87.089L135.177 87.6063L134.106 88.1237L133.034 88.6411L131.963 89.1584L130.892 89.6758L129.821 90.1931L128.75 90.7105L127.678 91.2279L126.607 91.7452L125.536 92.2626L124.465 92.7799L123.393 93.2973L122.322 93.8147L121.251 94.332L120.18 94.8494L119.108 95.3667L118.037 95.8841L116.966 96.4015L115.895 96.9188L115.1 97.4362L114.305 97.9535L113.51 98.4709L112.716 98.9883L111.921 99.5056L111.126 100.023L110.331 100.54L109.536 101.058L108.742 101.575L107.947 102.092L107.152 102.61L106.357 103.127L105.562 103.645L104.768 104.162L103.973 104.679L103.178 105.197L102.383 105.714L101.588 106.231L100.794 106.749L99.9989 107.266L99.2041 107.783L98.4093 108.301L97.6145 108.818L96.8197 109.335L96.0249 110.129L95.2301 110.922L94.4354 111.715L93.6405 112.509L92.8458 113.302L92.051 114.095L91.2562 114.888L90.4614 115.682L89.6666 116.475L88.8718 117.268L88.077 118.062L87.2822 118.855L86.4875 119.648L85.6927 120.441L84.8979 121.235L84.1031 122.028L83.3083 122.821L82.5135 123.615L81.7187 124.408L80.9239 125.201L80.1291 125.994L79.3344 126.788L78.5396 127.581L77.7448 128.374L76.95 129.168L76.1552 129.961L75.3604 130.754L74.2892 131.547L73.2179 132.341L72.1467 133.134L71.0754 133.927L70.0042 134.721L68.933 135.514L67.8617 136.307L66.7905 137.1L65.7192 137.894L64.648 138.411L63.5768 138.928L62.5055 139.446L61.4343 139.963L60.3631 140.481L59.2918 140.998L58.2206 141.515L57.1493 142.033L56.0781 142.55L55.0069 142.826L53.9356 143.102L52.6225 143.378L51.3094 143.654L50.6873 143.826L49.3742 144.102L48.0611 144.378L48.5794 143.585H47.2663H45.9532H44.64H43.3269H42.0138H40.7006H39.3875L38.0744 143.309L36.7612 143.033L35.4481 142.757L34.3769 142.481L33.3056 142.205L32.2344 141.929L31.1632 141.653L30.0919 141.136L29.0207 140.619L27.9494 140.101L26.8782 139.584L25.807 139.066L24.7357 138.549L23.6645 138.032L22.5933 137.238L21.522 136.445L20.4508 135.652L19.3795 134.859L18.3083 134.065L17.2371 133.272L16.4423 132.479L15.6475 131.685L14.8527 130.892L14.0579 129.823L13.2631 128.754L12.4683 127.685L11.6735 126.615L10.8787 125.546L10.084 124.477L9.28916 123.408L8.49437 122.338L7.69958 121.269L7.18124 120.2L6.6629 119.131L6.14456 118.062L5.62622 116.992L5.10788 115.923L4.58953 114.854L4.07119 113.785L3.55285 112.716L3.03451 111.646L2.51617 110.336L1.99783 109.025L1.47949 107.714L1.20304 106.404L0.926586 105.093L0.650139 103.782L0.373688 102.472L0.0972443 101.161L-0.179207 99.8505L-0.455654 98.5399L-0.732105 97.4707L-1.00856 96.4015L-1.285 95.3322L-1.56145 94.263L-1.8379 93.1938L-2.11435 92.1246L-2.3908 91.0554L-2.66724 89.9862L-2.94369 88.917V87.8478V86.7786V85.7093V84.6401V83.5709V82.5017V81.4325V80.3633V79.6735V78.6388V77.5695V76.7763L-3.22014 75.983L-3.49659 75.1897L-3.77304 74.3964L-4.04948 73.6031L-4.32594 72.8098L-4.60239 72.0165L-4.87883 71.2233L-5.15528 70.43L-5.43173 69.6367L-5.70818 68.8434L-5.98463 68.0501L-6.26108 67.2568L-6.53753 66.7395L-6.67575 66.2221L-7.19409 65.7047L-7.71243 65.1874L-8.23077 64.67L-8.74911 64.1527L-9.26746 63.6353L-9.7858 63.1179L-10.3041 62.6006L-11.0989 62.0832L-11.8937 61.5659L-12.6885 61.0485L-13.4833 60.5311L-14.2781 60.0138L-15.0729 59.4964L-15.8677 58.9791L-16.6625 58.4617L-17.4572 57.9443L-18.5285 57.427L-19.5997 56.9096L-20.671 56.3923L-21.7422 55.8749L-22.8134 55.3575L-23.8847 54.8402L-24.9559 54.3228L-26.0272 53.8055L-27.0984 53.2881L-28.1696 52.7707L-29.2409 52.2534L-30.3121 51.4601L-31.3834 50.6668L-32.4546 49.8735L-33.5258 49.0802L-34.5971 48.2869L-35.6683 47.4937L-36.7395 46.7004L-37.8108 45.9071L-38.882 45.1138L-39.9533 44.3205L-41.0245 43.5272L-42.0957 42.7339L-43.167 41.9407L-43.9618 40.8715L-44.7566 39.8022L-45.5513 38.733L-46.3461 37.6638L-47.1409 36.5946L-47.9357 35.5254L-48.7305 34.4562L-49.5253 33.387L-50.0436 32.3178L-50.562 31.2486L-51.0803 30.1793L-51.5987 29.1101L-52.117 28.0409L-52.6353 26.9717L-53.1537 25.9025L-53.4301 24.8333L-53.7066 23.7641L-53.983 22.6949L-54.2595 21.6256L-54.5359 20.5564L-54.8124 19.4872V18.418V17.3488V16.2796V15.2104V14.1412V13.072V12.0027L-54.5359 10.9335L-54.2595 9.86432L-53.983 8.79511L-53.7066 7.7259L-53.4301 6.65669L-53.1537 5.58748L-52.8772 4.51827L-52.6008 3.44905L-52.3243 2.37984L-51.806 1.31063L-51.2877 0.241421L-50.7693 -0.827789L-50.251 -1.897L-49.7326 -2.96621L-49.2143 -4.03542L-48.696 -5.10464L-48.1776 -6.17385L-47.6593 -7.24306L-47.1409 -8.31227L-46.6226 -9.38148L-45.8278 -10.4507L-45.033 -11.5199L-44.2382 -12.5891L-43.4434 -13.3824L-42.6486 -14.1757L-41.8538 -14.969L-41.0591 -15.7623L-40.2643 -16.5555L-39.4695 -17.3488L-38.6747 -18.1421L-37.8799 -18.9354L-37.0851 -19.7287L-36.2903 -20.522L-35.2191 -21.3153L-34.1478 -22.1085L-33.0766 -22.9018L-32.0054 -23.4192L-30.9341 -23.9365L-29.8629 -24.4539L-28.7916 -24.9713L-27.7204 -25.4886L-26.6492 -26.006L-25.5779 -26.5234L-24.5067 -27.0407L-23.4355 -27.5581L-22.3642 -28.0754L-21.293 -28.5928L-20.2217 -29.1102L-19.1159 -29.3171L-18.0447 -29.593L-16.9735 -29.8689L-15.9022 -30.1449L-14.831 -30.4208L-13.7597 -30.6967L-12.6885 -30.9727L-11.6173 -31.2486L-10.546 -31.5245L-9.47479 -31.8004L-8.40355 -32.0764L-7.33231 -32.3523L-6.26108 -32.6282L-5.18984 -32.9041L-4.1186 -33.1801L-3.04736 -33.456H-1.97612H-0.904884H0.166355H1.23759H2.30883H3.38007H4.45131H5.52255H6.59378H7.66502H8.73627H9.8075H10.8787H11.95H13.0212H14.0925H15.1637H15.7857H16.5805H17.3753H18.1701H18.9649H19.7597H20.5544H21.3492H22.144H22.9388H23.7336H24.5284H25.3232H26.118H26.9128H27.7076H28.5023H29.2626H30.0574H30.8522H31.6469H32.4417H33.2365H34.0313H34.8261H35.6209H36.4157H37.2105H38.0053H38.8001H39.5948H40.3896H41.1844H41.9792H42.774H43.5688H44.3636H45.1584H45.9532H46.748H47.5427H48.3375H49.1323H49.9271H50.7219H51.5167H52.3115H53.1063H53.9011H54.6959H55.4906H56.2854H57.0802H57.875H58.6698H59.4646H60.2594H61.0542H61.849H62.6438H63.4385H64.2333H65.0281H65.8229H66.6177H67.4125H68.2073H69.0021H69.7969H70.5917H71.3865H72.1812H72.976H73.7708H74.5656H75.3604H76.1552H76.95H77.7448H78.5396H79.3344H80.1291H80.9239H81.7187H82.5135H83.3083H84.1031H84.8979H85.6927H86.4875H87.2822H88.077H88.8718H89.6666H90.4614H91.5326H92.6039H93.6751H94.7464H95.8176H96.8888H97.9601H99.0313H100.103H101.174H102.245H103.316H104.388H105.459H106.53H107.601H108.672H109.744H110.815H111.886H112.957H114.029H115.1H116.413H117.726H119.039H120.352H121.666H122.979L124.292 -33.1801L125.605 -32.9041L126.918 -32.6282L128.231 -32.3523L129.544 -32.0764L130.857 -31.8004L132.171 -31.5245L133.484 -31.2486L134.797 -30.9727L136.11 -30.6967L137.423 -30.4208L138.736 -30.1449L140.049 -29.6275L141.363 -29.1102L142.676 -28.5928L143.989 -28.0754L145.06 -27.5581L146.131 -27.0407L147.202 -26.5234L148.274 -26.006L149.345 -25.4886L150.416 -24.9713L151.487 -24.4539L152.559 -23.6606L153.63 -22.8673L154.701 -22.0741L155.772 -21.2808L156.844 -20.4875L157.915 -19.6942L158.986 -18.9009L160.057 -18.1076L160.852 -17.3143L161.647 -16.5211L162.442 -15.7278L163.237 -14.6586L164.031 -13.5893L164.377 -12.4167L165.172 -11.3474L165.966 -10.2782L166.761 -9.20902L167.28 -8.13981L167.798 -7.0706L168.316 -6.00139L168.835 -4.93218L169.353 -3.86297L169.871 -2.79376L170.39 -1.72455L170.908 -0.655334L171.184 0.413876L171.461 1.48309L171.737 2.5523L172.014 3.86294L172.29 5.17359L172.567 6.48424L172.843 7.79488L173.12 9.10553L173.396 10.4162V11.7268V13.0375V14.3481V15.6588V16.9694V18.2801V19.5907V20.9013V22.212V23.5226V24.8333V26.1439L173.12 27.4546L172.843 28.7652L172.567 30.0759L172.325 31.3865L172.048 32.6972L171.772 33.7664L171.495 34.8356L171.219 35.9048L167.832 28.7652Z" fill="#EB5C2C"/>
<path fill-rule="evenodd" clip-rule="evenodd" d="M81.3731 66.7395V67.0154V67.2913V67.5672V67.8432V68.1191V68.395V68.6709V69.1883V69.7057V70.223V70.7404V71.2577V71.7751V72.2925V72.8098V73.3272V73.8445V74.3619L81.6496 74.8793H82.9627L83.2392 75.3966L83.5156 75.914L83.7921 76.4313L84.0685 76.9487L84.345 77.4661L84.6214 77.9834L84.8979 78.5008L85.1743 79.0181L85.4508 79.5355L85.7272 80.0529L86.0037 80.5702L86.2801 81.0876L86.5566 81.6049L86.833 82.1223L87.1095 82.6397L87.3859 83.157L87.6624 83.6744L87.9388 84.1917L88.2153 84.7091L88.4917 85.2265L88.7682 85.7438L89.0446 86.2612L89.3211 86.7785L89.5975 87.2959L89.8739 87.8133L90.1504 88.3306L90.4268 88.848L90.7033 89.6413L90.9797 90.4346L91.2562 91.2278L91.5326 92.0211L91.8091 92.8144V93.6077V94.401V95.1943V95.9875V96.7808V97.5741V98.3674V99.1607V99.954V100.747V101.541V102.334V103.127V103.92V104.714V105.507V106.3L91.5326 107.094L91.2562 107.611L90.9797 108.128L90.7033 108.646L90.4268 109.163L90.1504 109.68L89.8739 110.198L89.5975 110.715L89.3211 111.232L89.0446 111.75L88.7682 112.267L88.4917 112.785L87.9734 113.302L87.455 113.819L86.9367 114.337L86.4183 114.854L85.9 115.13L85.3817 115.406L84.8633 115.682L84.345 115.958L83.8266 116.234L83.3083 116.51L82.7899 116.785L82.2716 117.061L81.7533 117.337L81.2349 117.613L80.7166 117.889H79.9218H79.127H78.3322H77.5374H76.7426H75.9478H75.1531H74.3583H73.1488H72.354H71.5592L70.7644 117.613L69.9696 117.337L69.1748 117.061L68.3801 116.785L67.5853 116.51L66.7905 116.234L65.9957 115.958L65.2009 115.682L64.4061 115.406L63.6113 115.13L62.8165 114.854L62.0217 114.578L61.5034 114.302L60.9851 114.026L60.4667 113.75L59.9484 113.474L59.43 113.198L58.9117 112.922L58.3933 112.647L57.875 112.371L57.3567 112.095L56.8383 111.819L56.32 111.543L55.8016 111.267L55.2833 110.991L54.765 110.715L54.2466 110.439L53.7283 110.163L53.2099 109.887L52.6916 109.611L52.1733 109.335L51.6549 109.06L51.1366 108.784L50.6182 108.508L50.0999 108.232L49.5815 107.956L49.0632 107.68L48.5449 107.404L48.0265 107.128L47.5082 106.852L46.9898 106.576L46.4715 106.3H45.9532H45.4348H44.9165H44.64H44.3636H44.0871H43.8107H43.5342H43.2578H42.7394H42.463H42.1865H41.9101H41.3918H40.8734H40.3551L39.8367 106.576L39.3184 106.852L38.0053 105.783L37.4869 106.059L36.9686 106.335L36.4502 106.611L35.9319 106.887L35.4135 107.163L34.8952 107.438L34.3769 107.714L33.8585 107.99L33.3402 108.266L32.8218 108.542L32.3035 108.818L31.7852 109.094L31.2668 109.37L30.7485 109.646L30.2301 109.922L29.7118 110.198L29.1935 110.474L28.6751 110.75L28.1568 111.025L27.6384 111.301L27.1201 111.577L26.6017 111.853L26.0834 112.129L25.5651 112.405L25.0467 112.681L24.5284 112.957L24.01 113.233L23.2152 113.509L22.4205 114.026L21.6257 114.302L20.8309 114.578L20.0361 114.854L19.2413 115.13L18.4465 115.406L17.6517 115.682L16.8569 115.958L16.0621 116.234L15.2673 116.51L14.4726 116.785H13.6778H12.883H12.0882H11.2934H10.4986H9.70382H8.90903H8.11424H7.31945H6.28276H5.48797H4.93507L4.41673 116.51L3.89839 116.234L3.3455 116.372L2.82715 116.096L2.30881 115.82L1.79047 115.544L1.27213 115.268L0.753788 114.992L0.235447 114.716L-0.282895 114.44L-0.801236 113.923L-1.31958 113.405L-1.83792 112.888L-2.35626 112.371L-2.63271 111.853L-2.90916 111.336L-3.18561 110.819L-3.46206 110.301L-3.7385 109.784L-4.01495 109.266L-4.2914 108.749L-4.56785 108.232L-4.8443 107.714L-5.12075 107.197L-5.3972 106.68L-5.67364 105.886V105.093V104.3V103.507V102.713V101.92V101.058V100.264V99.4711V98.6778V97.8845V97.0913V96.298V95.5047V94.7114V93.9181V93.1248V92.3315L-5.3972 91.5383L-5.12075 90.745L-4.8443 89.9517L-4.56785 89.1584L-4.2914 88.3651L-4.01495 87.8477L-3.7385 87.3304L-3.46206 86.813L-3.18561 86.2957L-2.90916 85.7783L-2.63271 85.2609L-2.35626 84.7436L-2.07981 84.2262L-1.80336 83.7089L-1.52691 83.1915L-1.25047 82.6741L-0.974017 82.1568L-0.697567 81.6394L-0.421119 81.1221L-0.14467 80.6047L0.131778 80.0873L0.408227 79.57L0.684676 79.0526L0.961125 78.5353L1.23757 78.0179L1.51402 77.5005L1.79047 76.9832L2.06692 76.4658L2.34337 75.9485L2.30881 75.1897L2.58526 74.6723L2.86171 74.1549L3.13816 73.6376L3.41461 73.1202V72.6029V72.0855V71.5681V71.0508V70.5334V70.0161V69.4987V68.9813V68.464V67.9466V67.4293V67.1533V66.8774V66.6015V66.2221V65.9462V65.6702V65.3943V65.1184V64.8425V64.5665V64.2906V64.0147V63.7388V63.4628V62.9455V62.4281V61.9108V61.3934V60.876V60.3587V59.8413V59.324V58.8066V58.2892V57.7719L3.1036 57.2545L2.82715 56.7372L2.5507 56.2198L2.27426 55.7024L1.99781 55.1851L1.72136 54.6677L1.44491 54.1503L1.16846 53.633L0.892012 53.1156L0.615564 52.5983L0.339116 52.0809L0.0626664 51.5635L-0.213783 51.0462L-0.490232 50.5288L-0.76668 50.0115L-1.04313 49.4941L-1.31958 48.9767L-1.59603 48.4594L-1.87248 47.942L-2.14892 47.4247L-2.42537 46.9073L-2.70182 46.3899L-2.97827 45.8726L-3.25472 45.3552L-3.53117 44.8379L-3.80762 44.3205L-4.08406 43.8031L-4.36051 43.2858L-4.63696 42.7684L-4.91341 41.9751L-5.18986 41.1819L-5.46631 40.3886L-5.74276 39.5953L-6.01921 38.802L-6.29565 38.0087V37.2154V36.4221V35.6288V34.8356V34.0423V33.249V32.4557V31.3865V30.5932V29.7999V29.0066V28.2134V27.4201V26.6268V25.8335V25.0402L-6.01921 24.2469L-5.74276 23.7296L-5.46631 23.2122L-5.18986 22.6948L-4.91341 22.1775L-4.63696 21.6601L-4.36051 21.1428L-4.08406 20.6254L-3.80762 20.108L-3.53117 19.5907L-3.25472 19.0733L-2.97827 18.556L-2.18348 17.9351L-1.66514 17.4178L-1.1468 16.9004L-0.628456 16.383L-0.110114 16.1071L0.408227 15.8312L0.926569 15.5553L1.44491 15.2793L1.96325 15.0034L2.48159 14.7275L3.1036 14.4861L3.62194 14.2101L4.14028 13.9342L4.65863 13.6583L5.21152 13.4513H6.00631H6.8011H7.59589H8.39068H9.18547H9.98026H10.7751H11.5698H12.3646H13.1594H13.9542L14.749 13.7273L15.5438 14.0032L16.3386 14.2791L17.1334 14.555L17.9282 14.831L18.723 15.1069L19.5177 15.3828L20.3125 15.6587L21.1073 15.9347L21.9021 16.2106L22.6969 16.4865L23.4917 16.7624L24.2865 17.0384L24.8048 17.3143L25.3232 17.5902L25.8415 17.8661L26.3599 18.1421L26.8782 18.418L27.3965 18.6939L27.9149 18.9698L28.4332 19.2458L28.9516 19.5217L29.4699 19.7976L29.9882 20.0735L30.5066 20.3495L31.0249 20.6254L31.5433 20.9013L32.0616 21.1773L32.5799 21.4532L33.0983 21.7291C35.2408 22.7983 37.3141 24.2469 39.6985 24.7298C40.8734 24.9712 42.0829 24.9712 43.2923 24.9712C43.9489 24.9712 44.6055 24.9712 45.262 24.7988C45.7804 24.6608 46.2642 24.4194 46.7479 24.1779C48.8904 23.1087 51.0329 22.0395 53.2099 20.9358L53.7283 20.6599L54.2466 20.384L54.765 20.108L55.2833 19.8321L55.8016 19.5562L56.32 19.2803L56.8383 19.0043L57.3567 18.7284L57.875 18.4525L58.6352 17.9351L59.1536 17.6592L59.6719 17.3833L60.1903 17.1073L60.7086 16.8314L61.2269 16.5555L62.0217 16.2796L62.8165 16.0036L63.6113 15.7277L64.4061 15.4518L65.2009 15.1759L65.9957 14.8999L66.7905 14.624L67.6198 14.4861L68.4146 14.2101L69.2094 13.9342L70.0042 13.6583L70.799 13.3824H71.5938H72.3886H73.1834H73.9781H74.7729H75.5677H76.3625H77.1573H77.9521H78.7469H79.5417H80.06L80.5784 13.6583L81.0967 13.9342L81.615 14.2101L82.1334 14.4861L82.6517 14.762L83.1701 15.0379L83.6884 15.3138L84.2067 15.5898L84.7251 15.8657L85.2434 16.1416L85.7618 16.659L86.2801 17.1763L86.7985 17.6937L87.3168 18.2111L87.8351 18.7284L88.1116 19.2458L88.388 19.7631L88.6645 20.2805L88.9409 20.7979L89.2174 21.3152L89.4938 21.8326L89.7703 22.3499L90.0467 22.8673L90.3232 23.3847L90.5996 23.902L90.8761 24.6953V25.4886V26.2819V27.0752V27.8684V28.6617V29.455V30.2483V31.0416V31.8349V32.6282V33.4214V34.2147V35.008V35.8013V36.5946V37.3879V38.1812L90.5996 38.9744L90.3232 39.7677L90.0467 40.561L89.7703 41.3543L89.4938 42.1476L89.2174 42.6649L88.9409 43.1823L88.6645 43.6997L88.388 44.217L88.1116 44.7344L87.8351 45.2517L87.5587 45.7691L87.2822 46.2865L87.0058 46.8038L86.7293 47.3212L86.4529 47.8386L86.1764 48.3559L85.9 48.8733L85.6236 49.3906L85.3471 49.908L85.0706 50.4254L84.7942 50.9427L84.5177 51.4601L84.2413 51.9774L83.9649 52.4948L83.6884 53.0122L83.412 53.5295L83.1355 54.0469L82.8591 54.5642L82.5826 55.0816L82.3062 55.599L82.0297 56.1163L81.7533 56.6337L81.4768 57.151V57.6684V58.1858V58.7031V59.2205V59.7378V60.2552V60.7726V61.2899V61.8073V62.3246V62.842V63.1179V63.3939V63.6698V63.9457V64.2216V64.4976L81.3731 66.7395Z" fill="#F193B7"/>
<path fill-rule="evenodd" clip-rule="evenodd" d="M175.746 94.1941L176.022 94.9874L176.299 95.7806L176.575 96.5739L176.852 97.3672L177.128 98.1605L177.646 98.9538L178.165 99.7471L178.683 100.54L179.201 101.334L179.72 102.127L180.238 102.92L180.756 103.714L181.275 104.507L181.793 105.3L182.311 106.093L182.83 107.163L183.348 108.232L183.867 109.301L184.385 110.37L184.903 111.439L185.974 111.957L186.493 113.026L187.011 114.095L187.529 115.164L188.048 116.234L188.324 117.303L188.601 118.372L188.877 119.441L189.154 120.51L189.43 121.58V122.649V123.718V124.787V125.857L189.154 126.926L188.877 127.995L188.601 129.064L188.324 129.857L187.806 130.651L187.288 131.444L186.769 132.237L186.251 133.031L185.456 133.824L184.661 134.341L183.867 134.859L183.072 135.376L182.277 135.893L181.206 136.411L180.134 136.928L179.063 137.204L177.992 137.48L176.921 137.756L175.849 138.032L174.778 138.308L173.707 138.584L172.636 138.86H171.565H170.493H169.422H168.351H167.28H166.208H165.137H164.377H163.34H162.269H161.198H160.126H159.332H158.537H157.742H156.947L156.153 139.135L155.358 139.411L154.563 139.687L153.768 139.963L152.973 140.239L152.179 140.515L151.66 140.791L151.142 141.067L150.624 141.343L150.105 141.86L149.587 142.378L149.069 142.895L148.55 143.412L148.032 143.93L147.513 144.447L146.995 144.964L146.477 145.482L145.958 146.275L145.44 147.068L144.922 147.862L144.403 148.655L143.885 149.448L143.367 150.241L142.848 151.035L142.33 151.828L141.812 152.621L141.293 153.415L140.775 154.208L140.257 155.001L139.462 155.794L138.667 156.588L137.872 157.381L137.078 158.174L136.283 158.968L135.488 159.761L134.693 160.554L133.898 161.072L133.104 161.589L132.309 162.106L131.514 162.624L130.719 163.141L129.924 163.658L129.13 164.176L128.335 164.693L127.54 165.21L126.745 165.486L125.674 165.762L124.603 166.038L123.532 166.314L122.46 166.59L121.389 166.866L120.318 167.142L119.247 167.418H118.175H117.104H115.998H114.927H113.856H112.785H111.713H110.642L109.571 167.142L108.5 166.866L107.428 166.59L106.357 166.314L105.286 166.038L104.215 165.762L103.42 165.486L102.625 165.21L101.83 164.934L101.036 164.659L100.241 164.383L99.446 164.107L98.6512 163.831L97.8564 163.313L97.0616 162.796L96.2668 162.279L95.472 161.761L94.6772 161.244L93.8825 160.727L93.0877 160.209L92.2929 159.692L91.4981 159.175L90.7033 158.657L89.9085 158.14L89.1137 157.622L88.3189 157.347L87.5241 157.071L86.7293 156.795L85.9346 156.519L85.1398 156.243L84.345 155.967L83.2737 155.691L82.2025 155.415L81.1313 155.139L80.06 154.863L78.9888 154.587L77.9175 154.311L76.8463 154.035L75.7751 153.759L74.7038 153.484L73.6326 153.208L72.5613 152.932L71.4901 152.656L69.3822 151.587L68.311 151.069L67.2397 150.552L66.1685 150.034L65.0972 149.517L64.026 149L62.9548 148.482L61.8835 147.965L60.8123 147.448L59.741 146.93L58.6698 146.413L57.5986 145.896L56.5273 145.378L55.4561 144.861L55.1796 143.826L54.3848 143.033L53.5901 142.24L52.7953 141.446L52.0005 140.653L51.2057 139.86L50.4109 139.066L49.6161 138.273L48.8213 137.48L48.0265 136.687L47.2317 135.893L46.7134 134.824L46.1951 133.755L45.6767 132.686L45.1584 131.616L44.64 130.547L44.1217 129.478L43.6034 128.409L43.3269 127.34L43.0505 126.27L42.774 125.201L42.4976 124.132L42.2211 123.063L41.9447 121.994L41.6682 120.924V119.855V118.993V117.958V116.889V115.82V114.751V113.681V112.612L41.9447 111.543L42.2211 110.474L42.4976 109.404L42.774 108.335L43.0505 107.266L43.3269 106.197L43.6034 105.128L43.8798 104.058L44.1562 102.989L44.4327 101.92L44.951 100.851L45.4694 99.7816L45.9877 98.7124L46.5061 97.6431L47.0244 96.5739L47.5427 95.5047L48.0611 94.4355L48.5794 93.3663L49.0978 92.2971L49.6161 91.2279L50.1344 90.4346L50.6528 89.6413L51.1711 88.848L51.9659 88.0547L52.7607 87.2614L53.5555 86.4682L54.3503 85.6749L55.1451 84.8816L55.9399 84.0883L56.7347 83.295L57.5295 82.5017L58.3242 81.7084L59.119 80.9152L59.9138 80.1219L60.7086 79.3286L61.5034 78.8112L62.2982 78.2939L63.093 77.7765L63.8878 77.2591L64.6826 76.7418L65.4774 76.2244L66.2721 75.7071L67.0669 75.1897L67.8617 74.6723L68.6565 74.155L69.4513 73.6376L70.2461 73.1203L71.0409 72.6029L71.5592 72.0855L72.0776 71.5682L72.5959 71.0508L73.1142 70.5335L73.6326 70.0161L74.1509 69.4987L74.6693 68.9814L75.1876 68.464L75.706 67.9467L75.9824 67.4293L76.2589 66.9119L76.5353 66.3946L76.8117 65.6013L77.0882 64.808L77.3646 64.0147L77.6411 63.2214L77.9175 62.4281V61.7383V60.945V60.1518V59.3585V58.2893V57.2545V56.1853V55.1161V54.0469V52.9777V51.9085V50.8393V49.7701V48.7008V47.6316V46.5624L78.194 45.4932L78.4704 44.424L78.7469 43.3548L79.0233 42.2856L79.2998 41.2164L79.5762 40.1472L79.8527 39.0779L80.371 38.0087L80.8894 36.9395L81.4077 36.1462L81.926 35.353L82.4444 34.5597L82.9627 33.7664L83.7575 32.9731L84.5523 32.4557L85.3471 31.9384L86.1419 31.421L86.9367 30.9037L87.7315 30.6277L88.8027 30.3518L89.8739 30.0759L90.9452 29.8H92.0164H93.0877H94.1589H95.2301L96.3014 30.0759L97.3726 30.3518L98.4439 30.6277L99.5151 30.9037L100.586 31.1796L101.658 31.6969L102.729 32.2143L103.8 32.7317L104.871 33.249L105.943 33.7664L107.014 34.2837L108.085 34.8011L109.156 35.3185L110.227 35.8358L111.299 36.3532L112.094 36.8705L112.888 37.3879L113.683 37.9053L114.478 38.4226L115.273 38.94L116.067 39.4573L116.862 39.7333L117.657 40.0092L118.452 40.2851L119.247 40.561L120.041 40.837H120.836H121.631H122.426H123.221H124.015L124.81 40.561L125.605 40.2851L126.4 40.0092L127.195 39.7333L127.989 39.4573L128.784 38.94L129.579 38.4226L130.374 37.9053L131.168 37.3879L131.963 36.8705L132.758 36.3532L133.553 35.5599L134.624 34.7666L135.695 33.9733L136.767 33.18L137.838 32.3868L138.909 31.5935L139.98 30.8002L141.052 30.0069L142.123 29.2136L143.194 28.4203L144.265 27.903L145.336 27.3856L146.65 26.8682L147.963 26.3509L149.276 25.8335L150.589 25.3162L151.902 24.7988L153.215 24.5229L154.528 24.247L155.842 23.971L157.155 23.6951H158.468H159.781H160.852H161.923H162.995L164.066 23.971L165.137 24.247L166.208 24.5229L167.28 24.7988L168.351 25.3162L169.422 25.8335L170.493 26.3509L171.288 26.8682L172.083 27.3856L172.878 28.1789L173.672 28.9722L174.467 29.7655L175.262 30.5587L176.057 31.352L176.852 32.1453L177.37 32.9386L177.888 34.0078L178.407 35.077L178.925 36.1462L179.443 37.2155L179.962 38.2847L180.48 39.3539L180.998 40.4231L181.517 41.4923L182.035 42.5615L182.311 43.6307L182.588 44.6999L182.864 45.7691L183.141 46.8384L183.417 47.9076L183.694 48.9768L183.97 50.046L184.247 51.1152L184.523 52.1844L184.799 53.2536L185.076 54.3228V55.392V56.4613V57.5305V58.5997V59.6689V60.7381V61.8073V62.8765V63.9457L184.799 65.0149L184.523 66.0842L184.247 67.1534L183.97 68.2226L183.694 69.2918L183.417 70.361L183.141 71.4302L182.864 72.4994L182.588 73.5686L182.311 74.6378L182.035 75.7071L181.759 76.7763L181.482 77.8455L181.206 78.9147L180.929 79.708L180.653 80.5013L180.376 81.2946L180.1 82.0878L179.823 82.8811L179.547 83.6744L179.271 84.4677L178.994 85.261L178.718 86.0543L178.441 86.8476L178.165 87.6408L177.888 88.4341L177.612 89.2274L177.335 90.0207V90.814V91.6073V92.4006V93.1938V93.9871V94.7804V95.5737L175.746 93.7112V94.1941Z" fill="#89C8A5"/>
<path fill-rule="evenodd" clip-rule="evenodd" d="M31.3705 89.4343C31.2323 96.6429 30.9904 103.369 28.3641 110.198C25.807 116.82 21.7639 122.821 16.9261 127.995C6.04091 139.687 -9.02554 147.482 -24.8868 149.517C-40.748 151.552 -57.335 147.758 -70.6736 138.928C-81.5242 131.754 -90.1978 121.235 -94.6555 109.025C-99.3206 96.1945 -99.1824 81.9844 -96.2451 68.671C-93.7225 57.2201 -88.9883 45.9071 -80.6258 37.6983C-69.8443 27.1442 -54.3977 22.9018 -39.4349 20.7634C-26.1654 18.9009 -12.2738 18.4525 0.270042 23.0743C11.1552 27.1097 20.589 34.9046 26.7055 44.7689C34.3769 57.0476 39.1111 76.1209 31.3705 89.4343Z" fill="#66529D"/>
<path fill-rule="evenodd" clip-rule="evenodd" d="M103.558 147.241L104.077 148.31L104.595 149.379L105.113 150.448L105.632 151.518L106.15 152.587L106.426 153.656L106.703 154.725L106.979 156.036L107.256 157.347L107.532 158.657L107.809 159.968L108.085 161.278L108.362 162.589L108.638 163.9V165.21V166.521V167.832V169.142V170.453V171.764V173.074L108.362 174.385L108.085 175.696L107.809 177.006L107.532 178.317L107.256 179.627L106.979 180.938L106.703 182.007L106.185 183.077L105.666 184.146L105.148 185.215L104.629 186.284L104.111 187.353L103.593 188.423L103.074 189.492L102.28 190.561L101.485 191.63L100.69 192.699L99.8953 193.769L99.1005 194.838L98.3057 195.631L97.5109 196.424L96.7161 197.218L95.6449 198.011L94.5737 198.804L93.5024 199.598L92.4312 200.391L91.3599 201.184L90.2887 201.977L89.2175 202.495L88.1462 203.012L87.075 203.53L86.0037 204.047L84.9325 204.564L83.8613 205.082L82.5481 205.599L81.235 205.875L79.9219 206.151L78.6087 206.427L77.2956 206.703L75.9825 206.979L74.6693 207.255L73.3562 207.53L72.0431 207.806H70.7299H69.4168H68.1037H66.7906H65.4774H64.1643H62.8512H61.538H60.2249H58.9118L57.8405 207.53L56.7693 207.255L55.6981 206.979L54.6268 206.703L53.5556 206.427L52.4843 206.151L51.4131 205.875L50.3419 205.599L49.2706 205.323L48.1994 205.047L47.1281 204.771L46.0569 204.495L44.9857 204.219L43.9144 203.943L42.8432 203.668L41.7719 203.392L40.7007 203.116L39.6295 202.84L38.8347 202.564L38.0399 202.288L37.2451 202.012L36.4503 201.736L35.6555 201.46L34.8607 201.184L34.0659 200.908L33.2712 200.632L32.4764 200.356V198.77L31.6816 198.494L30.8868 198.218L30.092 197.942L29.2972 197.666L28.5024 197.39L27.7076 197.114L27.1893 196.045L26.3945 195.769L25.5997 195.493L24.8049 195.217L24.0101 194.941L23.2153 194.665L22.697 194.39L22.1786 194.114L21.6603 193.838L21.142 193.562L20.6236 193.286L20.1053 193.01L19.5869 192.734L19.0686 192.458L18.5503 192.182L18.0319 191.906L17.5136 191.63L16.9952 191.354L16.4769 191.078L15.9586 190.802L15.4402 190.527L14.9219 190.251L14.4035 189.975L13.8852 189.699L13.3668 189.423H12.8485H12.3302H11.5354H10.7406H9.9458H9.15101H8.35622H7.56142H6.80119H6.0064H5.21161H4.41682H3.62203H2.82724H2.03245H1.23766H0.442871H-0.351917H-1.14671H-1.9415L-2.73629 189.147L-3.53108 188.871L-4.32587 188.595L-5.12066 188.319L-5.91545 188.043L-6.71024 187.767L-7.50503 187.491L-8.29982 187.215L-9.09461 186.94L-9.8894 186.664L-10.6842 186.388L-11.479 186.112L-12.2738 185.836L-13.0686 185.56L-13.8633 185.284L-14.6581 185.008L-15.4529 184.732L-16.2477 184.456L-17.0425 184.18L-17.8373 183.904L-18.6321 183.628L-19.4269 183.111L-20.2217 182.594L-21.0165 182.076L-21.8112 181.559L-22.606 181.042L-23.4008 180.524L-24.1956 180.007L-24.9904 179.49L-25.7852 178.972L-26.58 178.455L-27.3748 177.937L-28.1696 177.42L-28.9644 176.903L-29.7591 176.385L-30.5539 175.592L-31.3487 174.799L-32.1435 174.006L-32.9383 173.212L-33.7331 172.419L-34.5279 171.626L-35.3227 170.832L-36.1175 170.039L-36.6358 169.246L-37.1542 168.453L-37.6725 167.659L-38.1908 166.866L-38.7092 166.073L-39.2275 165.003L-39.7459 163.934L-40.2642 162.865L-40.5406 161.796L-40.8171 160.727L-41.0935 159.657L-41.37 158.588L-41.6464 157.519L-41.9229 156.45L-42.1993 155.381V154.311V153.242V152.173V151.104V150.034V148.965V147.896L-41.9229 146.827L-41.6464 145.758L-41.37 144.688L-41.0935 143.619L-40.8171 142.55L-40.5406 141.481L-40.2642 140.412L-39.9878 139.342L-39.4694 138.273L-38.9511 137.204L-38.4327 136.135L-37.9144 135.066L-37.396 134.272L-36.8777 133.479L-36.3594 132.686L-35.841 131.892L-35.3227 131.099L-34.8043 130.306L-34.0095 129.513L-33.2148 128.719L-32.42 127.926L-31.6252 127.133L-30.8304 126.339L-30.0356 125.546L-29.2408 124.753L-28.446 123.96L-27.6512 123.442L-26.8564 122.925L-26.0616 122.407L-25.2669 121.89L-24.4721 121.373L-23.6773 120.855L-22.8825 120.338L-21.8112 119.821L-20.74 119.303L-19.6688 118.786L-18.5975 118.269L-17.5263 117.993L-16.4551 117.717L-15.3838 117.441L-14.3126 117.165L-13.2413 116.889L-12.1701 116.613L-11.0989 116.337L-10.0276 116.061L-9.23283 115.785L-8.43804 115.509L-7.64325 115.233L-6.84846 114.957L-6.05367 114.682L-5.25888 114.406L-4.46409 114.13L-3.6693 113.854L-2.87451 113.578L-2.07972 113.302L-1.28493 113.026L-0.490143 112.75L0.304646 112.474L1.09944 112.198L1.89423 111.922L2.68902 111.646L3.48381 111.37L4.2786 111.095L4.79694 110.819L5.31528 110.543L5.83362 110.267L6.35196 109.991L6.8703 109.715L7.38865 109.439L7.90699 109.163L8.42533 108.887L8.94367 108.611L9.46201 108.335L9.98035 108.059L10.4987 107.783L11.017 107.507L11.5354 107.232L12.0537 106.956L12.5721 106.68L13.0904 106.404L13.6087 105.886L14.1271 105.369L14.6454 104.852L15.1638 104.334L15.6821 103.817C15.6821 103.817 16.1659 103.334 16.2004 103.3C20.4508 99.0573 24.2866 95.6772 30.6103 95.1943C43.0505 94.263 52.7953 103.231 64.0606 106.714L64.8554 106.99L65.6502 107.266L66.445 107.542L67.2398 107.818L68.0346 108.094L68.8294 108.37L69.6242 108.646L70.419 108.922L71.2137 109.198L72.0085 109.473L72.8033 109.749L73.5981 110.025L74.3929 110.301L75.1877 110.819L75.9825 111.336L76.7773 111.853L77.5721 112.371L74.9112 115.785L75.706 116.303L76.5008 116.82L77.2956 117.337L78.0904 117.855L78.8852 118.372L79.68 118.889L80.4748 119.407L81.2696 119.924L82.0644 120.441L82.8591 120.959L83.6539 121.476L84.4487 121.994L85.2435 122.511L86.0383 123.304L86.8331 124.097L87.6279 124.891L88.4227 125.684L89.2175 126.477L90.0123 127.271L90.8071 128.064L91.6018 128.857L92.3966 129.65L93.1914 130.444L93.9862 131.237L94.781 132.03L95.5758 132.824L96.3706 133.617L97.1654 134.41L97.9601 135.479L98.7549 136.549L99.2733 137.618L99.7916 138.687L100.31 139.756L100.828 140.825L101.347 141.895L101.865 142.964L102.383 144.033L102.902 145.102L103.558 147.241Z" fill="#287F42"/>
</g>
<path d="M40.5279 150H9.94577C7.97608 150 6.31738 149.345 5.00425 148C3.69112 146.689 3 145.033 3 143.067V7.17406C3 5.13911 3.72568 3.24212 5.00425 2.00046C6.31738 0.655323 7.97608 0 9.94577 0H69.866C88.5954 0 103.489 4.34583 114.132 12.934C124.879 21.3497 130.339 34.0078 130.339 50.4944C130.339 67.1534 124.776 79.708 113.856 87.8478C103.247 95.9186 88.3535 100.023 69.6241 100.023H63.1622V98.264C63.1622 90.745 62.9203 81.4325 62.9203 81.329V81.1911V81.0876C63.1967 78.6388 64.2334 76.3279 66.0303 74.224C70.0388 69.9816 74.1164 65.6358 79.2307 62.3247C80.0946 61.6693 80.9931 60.9795 81.8915 60.0828C82.0298 59.9448 82.168 59.8413 82.3408 59.7034C82.4099 59.6344 82.5481 59.5654 82.5827 59.4964L82.6518 59.393C82.6172 59.393 82.5827 59.393 82.5827 59.393C80.1983 59.8069 77.883 60.5656 75.4641 61.3934L74.3583 61.7728C72.4232 62.3247 71.0755 62.8075 69.555 63.4284C68.6566 63.8768 67.1707 63.8423 66.3068 62.1177L66.1685 61.7038C64.7172 55.1161 62.9894 48.4594 61.0197 41.8717L60.5704 40.3541C59.7411 37.6638 58.9118 34.8701 57.8751 32.4557C57.7368 32.0418 57.4949 31.628 57.2531 31.2141C57.1148 31.4555 57.0803 31.6969 57.0803 31.8004C56.8384 34.4217 57.3222 36.9395 57.806 39.5953C58.5662 43.3203 59.2919 47.2867 59.5683 51.3566V53.1846C59.5683 54.0814 59.2573 54.7712 58.6699 55.1851C57.7714 55.8404 56.7347 55.4955 56.2509 55.3231L55.8363 55.1161C54.5922 54.2883 54.2121 53.1157 53.9011 52.2534C52.4152 47.3212 50.6528 42.3201 48.9596 37.4914C48.7177 36.905 48.5104 36.2497 48.303 35.5599C48.1303 35.008 47.9575 34.4217 47.7501 33.8699C47.5082 33.1111 46.8171 32.6627 46.2297 32.7317C45.9532 32.8006 45.8495 32.8351 45.815 32.8696C45.815 32.8696 45.7804 32.9386 45.7459 33.1455C45.7804 33.5939 45.9187 34.2493 46.126 34.8701C47.3355 39.2849 48.6486 43.3893 50.0654 47.7696L51.1366 51.0807C51.2057 51.4601 51.3094 51.8395 51.4131 52.1844C51.655 52.9432 51.8969 53.84 51.8969 54.8747C51.8969 55.2541 51.8969 56.0819 51.1366 56.8751L50.6183 57.3925H49.8926C48.8905 57.3925 48.0266 56.7027 47.7501 55.8059C46.8171 54.3228 45.815 52.8742 44.8474 51.4256C43.8107 49.908 42.7395 48.3214 41.7374 46.7004C39.975 43.8377 37.9016 41.0094 35.2408 37.8018C35.2408 37.8018 35.1717 37.7328 35.0681 37.6293H35.0335C34.8953 37.5948 34.7916 37.5604 34.7916 37.5604C34.7916 37.5604 34.7225 37.5948 34.6534 37.6638C35.2063 39.6643 36.2084 41.4923 36.8995 42.734C37.8671 44.5275 39.042 46.2175 40.3206 47.9765C41.2536 49.2872 42.1866 50.6323 43.0505 52.012C43.7416 53.1846 44.4673 54.3573 45.1239 55.2541C46.0569 56.2888 46.126 57.7374 45.2621 58.6342C44.3982 59.4964 42.9468 59.4275 41.9102 58.4962C41.0463 57.8754 40.2169 57.2201 39.353 56.5647C38.5237 55.9094 37.6598 55.2541 36.8304 54.6332C35.5173 53.702 34.1696 52.7363 32.8219 51.667C33.202 52.1499 33.5821 52.5983 33.9277 52.9432C36.6231 55.6335 39.2148 58.9101 41.3227 62.3592C41.841 63.1524 42.4285 63.9802 42.9814 64.808C44.3982 66.8774 45.7113 68.8089 46.9553 70.9129C48.0957 72.396 48.5449 74.224 48.2339 76.2244L47.5082 143.067C47.5082 144.999 46.8517 146.654 45.504 148C44.1563 149.31 42.4976 150 40.5279 150ZM9.94577 3.51805C8.94365 3.51805 8.14886 3.82847 7.49229 4.48379C6.90484 5.07013 6.52472 6.10485 6.52472 7.17406V143.067C6.52472 144.068 6.83573 144.861 7.49229 145.516C8.14886 146.172 8.94365 146.482 9.94577 146.482H40.5279C41.53 146.482 42.3248 146.172 42.9814 145.516C43.638 144.861 43.949 144.068 43.949 143.067L44.7092 75.8105C44.882 74.7068 44.6746 73.7756 44.0872 73.0168L43.949 72.8098C42.7395 70.7749 41.4264 68.8434 40.0441 66.8085C39.4912 65.9807 38.9038 65.1529 38.3163 64.2906C36.2775 61.014 33.8931 57.9788 31.3705 55.461C30.5412 54.6332 29.7464 53.5985 28.9862 52.5638L28.8134 52.2879C28.7788 52.1844 28.6752 52.0809 28.6061 51.9775C28.3296 51.5981 27.9495 51.0117 27.8804 50.2529C27.6385 49.0802 28.0186 48.287 28.3642 47.8386C28.7443 47.3557 29.5045 46.7694 30.8522 46.7694C32.0271 46.7694 32.9601 47.1833 33.824 48.011C35.2754 49.2527 36.7613 50.3219 38.3509 51.4601C38.0053 50.9772 37.6598 50.4944 37.3488 50.0115C36.1047 48.218 34.7916 46.39 33.7549 44.424C32.4072 42.1131 31.5779 40.1472 31.1287 38.3536C30.8868 37.6293 30.6794 36.0083 32.6146 34.7321C33.9277 33.8699 35.0335 33.9388 35.8974 34.2148C36.8995 34.3527 37.487 35.0425 37.7289 35.3874L37.9016 35.5599C40.6661 38.9055 42.8432 41.8372 44.7092 44.8724C45.1584 45.5967 45.6422 46.321 46.0914 47.0453C44.882 43.3203 43.7762 39.6988 42.7395 35.9393C42.5667 35.3874 42.1866 34.1113 42.1866 33.0076L42.2212 32.6627C42.6013 30.7312 43.638 29.6965 45.5731 29.3171C47.9229 28.9032 50.2727 30.3863 51.033 32.6972C51.2749 33.249 51.4822 33.9388 51.655 34.5942C51.8278 35.146 52.0005 35.7323 52.2079 36.2842C53.1754 39.0435 54.1776 41.8372 55.1106 44.6654C54.8687 43.1823 54.5577 41.6992 54.2812 40.2506C53.7629 37.4569 53.2445 34.5597 53.521 31.628C53.521 30.0414 54.454 28.5238 55.9745 27.765L56.2164 27.6615C58.428 26.9372 59.3955 28.0409 59.7757 28.6618C60.3286 29.455 60.8469 30.2828 61.1579 31.2141C62.1946 33.6629 63.0585 36.5601 63.9224 39.3194L64.3716 40.837C66.2376 47.1143 67.8963 53.4261 69.3131 59.7034C70.5572 59.2205 71.8012 58.8066 73.2871 58.3927L74.2892 58.0478C76.9155 57.1856 79.3689 56.3233 82.0989 55.8749L82.3753 55.8404C83.5157 55.8404 85.0361 55.8404 86.0728 57.358C86.3838 57.8409 87.2477 59.4964 85.5199 61.3589C85.1744 61.9108 84.7251 62.2212 84.4487 62.4626C83.2738 63.6008 82.2026 64.3941 81.2004 65.1529C76.3626 68.2916 72.596 72.2925 68.622 76.5003C67.378 77.949 66.5832 79.6045 66.3759 81.2945C66.4104 82.3638 66.5832 89.7448 66.6178 96.436H69.555C87.4896 96.436 101.658 92.573 111.644 84.985C121.666 77.5351 126.745 65.9117 126.745 50.4599C126.745 35.1115 121.735 23.3847 111.886 15.6588C101.865 7.58795 87.7315 3.48356 69.8315 3.48356H9.94577V3.51805ZM68.1728 60.2207C68.1382 60.2207 68.1037 60.2552 68.1037 60.2552C68.1382 60.2552 68.1728 60.2207 68.1728 60.2207Z" fill="#3B3B3B"/>
</svg>
