<svg width="1440" height="184" viewBox="0 0 1440 184" fill="none" xmlns="http://www.w3.org/2000/svg">
<path d="M1436.77 0.387575L1440 0.535074V184H1230.55L1232.63 181.923L1234.97 179.534L1237.24 177.137L1239.45 174.73L1241.6 172.309L1243.69 169.874L1245.73 167.422L1247.71 164.951L1249.64 162.46L1251.52 159.946L1253.35 157.409L1255.13 154.847L1256.87 152.258L1258.57 149.641L1260.23 146.996L1261.85 144.322L1263.44 141.618L1264.99 138.883L1266.52 136.117L1268.02 133.32L1269.5 130.491L1270.97 127.631L1272.41 124.74L1273.84 121.819L1275.27 118.868L1276.69 115.889L1278.11 112.884L1279.53 109.854L1282.4 103.727L1283.85 100.636L1285.32 97.53L1286.82 94.4118L1288.34 91.2848L1289.9 88.1525L1291.49 85.0186L1293.11 81.8866L1294.78 78.7605L1296.49 75.6443L1298.25 72.5424L1300.06 69.4586L1301.92 66.3975L1303.84 63.3631L1305.82 60.36L1307.85 57.3926L1309.95 54.465L1312.11 51.5817L1314.34 48.7469L1316.63 45.9649L1318.99 43.2397L1321.41 40.5754L1323.9 37.9759L1326.46 35.4449L1329.08 32.9861L1331.77 30.603L1334.52 28.2988L1337.34 26.0766L1340.23 23.9395L1343.17 21.8899L1346.18 19.9303L1349.24 18.0626L1352.36 16.2888L1355.53 14.61L1358.76 13.0275L1362.03 11.5418L1365.35 10.1532L1368.71 8.86199L1372.12 7.6676L1375.56 6.56941L1379.03 5.56632L1382.54 4.65698L1386.07 3.83957L1389.63 3.11218L1393.21 2.47232L1396.81 1.91742L1400.42 1.44434L1404.05 1.05001L1407.68 0.730814L1411.32 0.482958L1414.97 0.302483L1418.61 0.185221L1422.25 0.126768L1425.89 0.122559L1429.53 0.167848L1433.15 0.257828L1436.77 0.387575Z" fill="#614F91"/>
<path d="M1093.35 141.228L1090.41 141.423L1087.56 141.481L1084.78 141.394L1082.08 141.156L1079.44 140.765L1076.85 140.218L1074.31 139.513L1071.82 138.652L1069.36 137.634L1066.92 136.464L1064.5 135.146L1062.09 133.685L1059.68 132.089L1057.27 130.366L1054.83 128.524L1052.38 126.576L1049.9 124.531L1047.39 122.404L1044.83 120.206L1039.59 115.657L1036.89 113.335L1034.13 111.003L1031.32 108.675L1028.44 106.367L1025.51 104.096L1022.52 101.877L1019.47 99.7242L1016.37 97.6536L1013.21 95.6793L1010.01 93.8149L1006.76 92.0737L1003.46 90.4677L1000.13 89.0083L996.773 87.7059L993.388 86.5698L989.986 85.6082L986.573 84.8284L983.155 84.2363L979.74 83.8365L976.335 83.6327L972.947 83.6272L969.583 83.8212L966.25 84.2147L962.955 84.8062L959.704 85.5936L956.503 86.5731L953.359 87.7402L950.275 89.0889L947.257 90.6124L944.309 92.3027L941.434 94.1507L938.634 96.1464L935.911 98.2784L933.266 100.535L930.698 102.902L928.206 105.366L925.789 107.914L923.442 110.531L921.161 113.199L918.941 115.905L916.775 118.63L914.656 121.361L912.576 124.083L910.528 126.781L908.502 129.443L906.49 132.059L904.482 134.617L902.47 137.107L900.444 139.521L898.392 141.848L896.305 144.083L894.172 146.218L891.983 148.248L889.728 150.168L887.397 151.975L884.979 153.668L882.467 155.246L879.851 156.708L877.123 158.057L874.277 159.295L871.306 160.427L868.205 161.458L864.969 162.395L861.596 163.244L858.083 164.014L854.43 164.714L850.637 165.355L846.706 165.948L842.64 166.504L838.444 167.035L834.124 167.554L825.143 168.609L820.501 169.171L815.772 169.774L810.97 170.433L806.109 171.159L801.204 171.965L796.271 172.865L791.327 173.869L786.391 174.99L781.482 176.238L776.62 177.621L771.824 179.149L767.115 180.83L762.514 182.67L759.548 184H1305.2L1304.89 183.393L1302.85 179.695L1300.67 176.069L1298.37 172.523L1295.94 169.061L1293.37 165.69L1290.67 162.415L1287.84 159.242L1284.88 156.177L1281.78 153.224L1278.57 150.389L1275.22 147.677L1271.76 145.091L1268.17 142.637L1264.48 140.317L1260.67 138.136L1256.76 136.097L1252.74 134.201L1248.64 132.452L1244.44 130.851L1240.16 129.399L1235.81 128.097L1231.39 126.945L1226.91 125.943L1222.37 125.09L1217.78 124.384L1213.16 123.823L1208.5 123.404L1203.82 123.124L1199.13 122.98L1194.43 122.966L1189.73 123.078L1185.03 123.31L1180.35 123.655L1175.7 124.106L1171.07 124.658L1166.48 125.303L1161.94 126.032L1157.44 126.837L1153.01 127.71L1148.63 128.64L1144.32 129.616L1140.09 130.627L1135.93 131.661L1131.86 132.705L1127.88 133.747L1120.19 135.773L1116.49 136.73L1112.89 137.633L1109.39 138.469L1105.99 139.225L1102.69 139.889L1099.48 140.451L1096.37 140.901L1093.35 141.228Z" fill="#F193B7"/>
<path d="M900.936 184L900.272 183.27L899.307 182.244L898.328 181.234L897.335 180.24L896.329 179.261L895.311 178.298L894.282 177.349L893.242 176.415L892.194 175.494L891.137 174.586L890.074 173.691L889.004 172.809L887.929 171.937L886.849 171.076L885.766 170.225L884.68 169.383L883.592 168.549L882.502 167.723L881.412 166.904L880.322 166.091L879.233 165.283L878.144 164.479L872.729 160.499L871.654 159.705L870.581 158.911L869.511 158.115L868.444 157.317L867.379 156.517L866.318 155.713L865.258 154.906L864.201 154.096L863.146 153.28L862.092 152.461L861.039 151.636L859.988 150.806L858.936 149.971L857.885 149.131L856.833 148.285L855.78 147.434L854.725 146.577L853.669 145.715L852.609 144.848L846.166 139.551L845.072 138.656L843.972 137.758L842.863 136.858L841.747 135.956L840.621 135.054L839.487 134.152L838.342 133.251L837.188 132.352L836.023 131.454L834.846 130.561L833.658 129.671L832.458 128.787L831.246 127.909L830.021 127.037L828.783 126.175L827.532 125.321L826.268 124.477L824.99 123.644L823.698 122.824L822.393 122.016L821.075 121.223L819.742 120.444L818.396 119.682L817.037 118.936L815.664 118.208L814.278 117.499L812.878 116.809L811.466 116.14L810.041 115.492L808.604 114.866L807.154 114.263L805.694 113.684L804.221 113.129L802.738 112.6L801.245 112.097L799.741 111.621L798.228 111.173L796.706 110.754L795.175 110.363L793.637 110.002L792.091 109.671L790.539 109.37L788.981 109.099L787.417 108.858L785.848 108.648L784.275 108.468L782.699 108.318L781.12 108.197L779.538 108.105L777.954 108.042L776.368 108.007L774.782 108L773.195 108.019L771.607 108.063L770.02 108.132L768.433 108.226L766.847 108.342L765.262 108.479L763.677 108.638L762.094 108.816L760.512 109.013L758.931 109.227L757.351 109.457L755.771 109.701L754.193 109.96L752.615 110.231L751.037 110.514L749.459 110.807L747.88 111.109L746.301 111.419L744.72 111.737L743.138 112.06L741.553 112.389L739.966 112.723L738.375 113.06L708.518 119.333L706.764 119.699L704.998 120.071L703.221 120.449L701.432 120.835L699.633 121.229L697.823 121.633L696.003 122.047L694.173 122.474L692.334 122.914L690.487 123.368L688.632 123.838L686.77 124.325L684.902 124.83L683.028 125.354L681.15 125.899L679.269 126.465L677.385 127.053L675.501 127.666L673.616 128.304L671.733 128.967L669.853 129.658L667.976 130.377L666.105 131.125L664.241 131.903L662.385 132.711L660.539 133.552L658.704 134.425L656.883 135.331L655.076 136.27L653.285 137.245L651.512 138.253L649.759 139.298L648.026 140.377L646.317 141.493L644.632 142.645L642.973 143.833L641.341 145.057L639.739 146.318L638.168 147.615L636.629 148.948L635.124 150.317L633.655 151.721L632.222 153.16L630.828 154.635L629.473 156.143L628.159 157.684L626.886 159.258L625.657 160.865L624.471 162.502L623.33 164.169L622.234 165.865L621.184 167.589L620.181 169.339L619.224 171.115L618.314 172.916L617.451 174.739L616.635 176.584L615.867 178.449L615.144 180.333L614.468 182.235L613.888 184H900.936Z" fill="#89C8A5"/>
<path d="M361.501 184H631.663L631.236 182.485L630.583 179.869L629.975 177.139L629.405 174.298L628.866 171.349L628.35 168.296L627.85 165.145L627.357 161.901L626.355 155.169L625.828 151.7L625.27 148.18L624.672 144.621L624.022 141.039L623.31 137.45L622.527 133.874L621.661 130.33L620.703 126.839L619.643 123.423L618.473 120.106L617.185 116.91L615.772 113.859L614.229 110.976L612.552 108.284L610.737 105.802L608.784 103.552L606.694 101.55L604.469 99.8111L602.114 98.3466L599.634 97.1656L597.038 96.2732L594.334 95.6712L591.532 95.3577L588.644 95.3274L585.682 95.5717L582.658 96.0789L579.585 96.8345L576.477 97.8217L573.344 99.0217L570.201 100.414L567.057 101.977L563.923 103.689L560.81 105.528L557.726 107.469L554.678 109.493L551.673 111.577L548.717 113.7L545.813 115.844L542.966 117.989L540.176 120.119L534.777 124.272L532.167 126.266L529.617 128.191L527.124 130.034L524.687 131.787L522.302 133.44L519.968 134.988L517.68 136.423L515.435 137.74L513.229 138.934L511.059 140.001L508.919 140.937L506.807 141.741L504.716 142.408L502.642 142.939L500.582 143.33L498.53 143.582L496.481 143.693L494.431 143.664L492.376 143.494L490.309 143.183L488.228 142.733L486.126 142.145L484 141.42L481.846 140.56L479.658 139.568L477.433 138.447L475.166 137.2L472.854 135.832L470.494 134.348L468.081 132.754L465.613 131.057L463.088 129.263L460.503 127.383L457.857 125.425L455.149 123.402L452.379 121.325L449.548 119.207L446.656 117.065L443.706 114.914L440.702 112.772L437.648 110.658L434.549 108.591L431.413 106.593L428.246 104.685L425.057 102.89L421.858 101.23L418.657 99.7275L415.468 98.4046L412.302 97.2824L409.173 96.3807L406.094 95.7176L403.078 95.3092L400.139 95.1687L397.289 95.3068L394.541 95.7307L391.905 96.4445L389.391 97.4486L387.008 98.7398L384.762 100.312L382.658 102.154L380.7 104.254L378.888 106.595L377.223 109.161L375.701 111.929L374.319 114.88L373.072 117.989L371.951 121.235L370.95 124.592L370.059 128.039L369.269 131.553L368.568 135.111L367.946 138.693L367.393 142.281L366.896 145.855L366.446 149.4L366.031 152.9L365.64 156.343L365.264 159.718L364.892 163.013L364.515 166.22L364.125 169.333L363.712 172.344L363.268 175.25L362.787 178.046L362.261 180.73L361.683 183.299L361.501 184Z" fill="#287F42"/>
<path d="M496.861 184L493.74 179.146L488.3 172.021L482.255 165.278L475.626 158.931L468.439 152.988L460.721 147.457L452.505 142.345L443.823 137.651L434.711 133.375L425.208 129.514L415.351 126.059L405.181 123.002L394.739 120.331L384.066 118.03L373.202 116.085L362.186 114.476L351.055 113.186L339.846 112.195L328.593 111.481L317.325 111.028L306.069 110.814L294.85 110.825L283.687 111.042L272.601 111.45L261.612 112.029L250.737 112.761L239.994 113.628L229.399 114.609L218.97 115.682L208.721 116.827L198.666 118.021L188.818 119.241L169.795 121.664L160.642 122.819L151.74 123.902L143.098 124.888L134.722 125.753L126.618 126.471L118.79 127.018L111.24 127.369L103.969 127.5L96.9775 127.389L90.2627 127.013L83.8216 126.35L77.6488 125.382L71.7381 124.087L66.0813 122.451L60.6689 120.455L55.4901 118.087L50.5325 115.335L45.7824 112.188L41.2252 108.638L36.8447 104.679L32.6239 100.309L28.5449 95.527L24.5886 90.334L20.7357 84.7345L16.9658 78.7359L13.2586 72.3475L9.59298 65.582L5.94799 58.4545L2.30256 50.9827L0 46.0875V184H496.861Z" fill="#EB5C2C"/>
</svg>
