<svg width="110" height="44" viewBox="0 0 110 44" fill="none" xmlns="http://www.w3.org/2000/svg">
<g clip-path="url(#clip0)">
<path d="M98.2684 41.7038C97.1981 40.7054 96.6279 39.2078 96.5579 37.2109V36.502C96.6279 34.645 97.1981 33.2272 98.2684 32.1589C99.3387 31.0906 100.839 30.5914 102.7 30.5914C104.06 30.5914 105.201 30.881 106.131 31.3802C107.061 31.9493 107.771 32.6581 108.201 33.5867C108.632 34.5152 108.912 35.5835 108.912 36.7916V37.4306C108.912 37.5704 108.842 37.7201 108.772 37.8599C108.632 37.9997 108.482 37.9997 108.342 37.9997H100.919V38.1394C100.919 38.8483 101.059 39.4174 101.419 39.8467C101.709 40.2761 102.21 40.4857 102.78 40.4857C103.14 40.4857 103.42 40.4158 103.71 40.2761C103.92 40.1363 104.14 39.9166 104.35 39.707C104.49 39.5672 104.64 39.4174 104.71 39.4174C104.78 39.3475 104.92 39.3475 105.141 39.3475H108.211C108.352 39.3475 108.502 39.4174 108.572 39.4873C108.642 39.5572 108.712 39.697 108.712 39.7768C108.712 40.2062 108.502 40.6355 108.001 41.2046C107.501 41.7737 106.861 42.203 106.001 42.6323C105.141 42.9917 104.07 43.2014 102.86 43.2014C100.909 43.2713 99.4087 42.6922 98.2684 41.7038ZM104.69 35.6434C104.69 34.8547 104.55 34.2856 104.19 33.8662C103.83 33.4369 103.4 33.2272 102.83 33.2272C102.26 33.2272 101.759 33.4369 101.469 33.8662C101.179 34.2956 100.969 34.8646 100.969 35.5735V35.6434H104.69Z" fill="white"/>
<path d="M87.3451 38.5588V34.2157H85.4845C85.3444 34.2157 85.1944 34.1458 85.0543 34.0759C84.9143 33.9361 84.9143 33.7864 84.9143 33.6466V31.6498C84.9143 31.51 84.9843 31.3602 85.0543 31.2204C85.1944 31.0807 85.3444 31.0807 85.4845 31.0807H87.3451V27.2368C87.3451 27.097 87.4151 26.9472 87.4851 26.8074C87.6251 26.6677 87.7752 26.6677 87.9152 26.6677H90.7661C90.9062 26.6677 91.0562 26.7376 91.1962 26.8074C91.3363 26.8773 91.3363 27.097 91.3363 27.2368V31.0807H94.2672C94.4072 31.0807 94.5573 31.1505 94.6973 31.2204C94.8374 31.3602 94.8374 31.51 94.8374 31.6498V33.6466C94.8374 33.7864 94.7673 33.9361 94.6973 34.0759C94.5573 34.2157 94.4072 34.2157 94.2672 34.2157H91.3363V38.2093C91.3363 38.7784 91.4063 39.1379 91.6264 39.4873C91.8364 39.7768 92.1265 39.9166 92.6267 39.9166H94.4873C94.6273 39.9166 94.7773 39.9865 94.9174 40.0564C95.0574 40.1263 95.0574 40.3459 95.0574 40.4857V42.6223C95.0574 42.7621 94.9874 42.9119 94.9174 43.0516C94.7773 43.1914 94.6273 43.1914 94.4873 43.1914H92.2766C88.9856 43.2713 87.3451 41.7038 87.3451 38.5588Z" fill="white"/>
<path d="M71.06 43.0516C70.9199 42.9119 70.9199 42.7621 70.9199 42.6223V31.6497C70.9199 31.51 70.9899 31.3602 71.06 31.2204C71.2 31.0806 71.3501 31.0806 71.4901 31.0806H74.341C74.481 31.0806 74.6311 31.1505 74.7711 31.2204C74.9112 31.3602 74.9112 31.51 74.9112 31.6497V32.5783C75.3413 32.0791 75.8414 31.6497 76.5517 31.3003C77.1919 31.0108 77.9821 30.8011 78.8324 30.8011C79.7627 30.8011 80.5429 31.0108 81.1931 31.4401C81.9033 31.8694 82.4735 32.4385 82.8336 33.2172C83.2637 34.006 83.4038 34.9944 83.4038 36.0627V42.6223C83.4038 42.7621 83.3338 42.9119 83.2637 43.0516C83.1237 43.1914 82.9736 43.2613 82.8336 43.2613H79.6926C79.5526 43.2613 79.3325 43.1914 79.2625 43.1215C79.1225 42.9817 79.1225 42.832 79.1225 42.6922V36.2824C79.1225 35.5735 78.9824 35.0044 78.6223 34.645C78.2622 34.2856 77.762 34.0759 77.1218 34.0759C76.4816 34.0759 75.9815 34.2856 75.6214 34.645C75.2613 35.0044 75.0512 35.5735 75.0512 36.2125V42.6223C75.0512 42.7621 74.9812 42.9119 74.9112 43.0516C74.7711 43.1914 74.6211 43.1914 74.481 43.1914H71.3401C71.28 43.2713 71.13 43.1914 71.06 43.0516Z" fill="white"/>
<path d="M58.066 41.7038C56.9957 40.7054 56.4255 39.2078 56.3555 37.2109V36.502C56.4255 34.645 56.9957 33.2272 58.066 32.1589C59.1363 31.0906 60.6368 30.5914 62.4973 30.5914C63.8578 30.5914 64.9981 30.881 65.9284 31.3802C66.8587 31.9493 67.5689 32.6581 67.999 33.5867C68.4292 34.5152 68.7093 35.5835 68.7093 36.7916V37.4306C68.7093 37.5704 68.6392 37.7201 68.5692 37.8599C68.4292 37.9997 68.2791 37.9997 68.1391 37.9997H60.7168V38.1394C60.7168 38.8483 60.8568 39.4174 61.217 39.8467C61.507 40.2761 62.0072 40.4857 62.5774 40.4857C62.9375 40.4857 63.2176 40.4158 63.5077 40.2761C63.7177 40.1363 63.9378 39.9166 64.1479 39.707C64.2879 39.5672 64.4379 39.4174 64.508 39.4174C64.578 39.3475 64.718 39.3475 64.9381 39.3475H67.989C68.1291 39.3475 68.2791 39.4174 68.3491 39.4873C68.4192 39.5572 68.4892 39.697 68.4892 39.7768C68.4892 40.2062 68.2791 40.6355 67.779 41.2046C67.2788 41.7737 66.6386 42.203 65.7784 42.6323C64.9181 42.9917 63.8478 43.2014 62.6374 43.2014C60.6368 43.2713 59.1363 42.6922 58.066 41.7038ZM64.4179 35.6434C64.4179 34.8547 64.2779 34.2856 63.9178 33.8662C63.5577 33.4369 63.1275 33.2272 62.5574 33.2272C61.9872 33.2272 61.487 33.4369 61.1969 33.8662C60.9069 34.2956 60.6968 34.8646 60.6968 35.5735V35.6434H64.4179Z" fill="white"/>
<path d="M45.6422 42.6922C44.7819 42.3328 44.1417 41.9035 43.7116 41.4143C43.2815 40.915 43.0714 40.4857 43.0714 40.0564C43.0714 39.9166 43.1414 39.7669 43.2115 39.697C43.3515 39.6271 43.4215 39.5572 43.5716 39.5572H46.4224C46.4925 39.5572 46.5625 39.5572 46.6325 39.6271C46.9226 39.7669 47.0626 39.9166 47.0626 39.9166C47.3527 40.1263 47.6328 40.2761 47.9229 40.4158C48.213 40.5556 48.4931 40.5556 48.8532 40.5556C49.2833 40.5556 49.6434 40.4857 49.9235 40.346C50.2136 40.2062 50.3536 39.9166 50.3536 39.6371C50.3536 39.3575 50.2836 39.2078 50.1436 38.9981C50.0035 38.8583 49.7134 38.7086 49.2833 38.5688C48.8532 38.429 48.213 38.2792 47.3527 38.1395C44.6419 37.5704 43.2815 36.3623 43.2815 34.3654C43.2815 33.7265 43.4915 33.0875 43.9217 32.5084C44.3518 31.9393 44.922 31.4401 45.7822 31.0807C46.5725 30.7212 47.5628 30.5116 48.7131 30.5116C49.8635 30.5116 50.8538 30.6513 51.7141 31.0108C52.5743 31.3702 53.2145 31.7995 53.6447 32.2887C54.0748 32.788 54.2849 33.2173 54.2849 33.6466C54.2849 33.7864 54.2148 33.9361 54.1448 34.006C54.0748 34.1458 53.9347 34.1458 53.7847 34.1458H51.2139C51.0739 34.1458 50.9238 34.1458 50.8538 34.0759C50.6437 34.006 50.4937 33.8662 50.2836 33.7165C49.9935 33.5068 49.7835 33.357 49.5734 33.2872C49.3633 33.2173 49.0733 33.1474 48.7832 33.1474C48.4231 33.1474 48.0729 33.2173 47.8529 33.4369C47.6428 33.5767 47.4928 33.7963 47.4928 34.0759C47.4928 34.2856 47.5628 34.5052 47.7028 34.645C47.8429 34.7848 48.133 34.9345 48.4931 35.0743C48.9232 35.2141 49.5634 35.3639 50.4237 35.5036C51.9941 35.7932 53.0645 36.2125 53.7747 36.9314C54.4849 37.6502 54.845 38.429 54.845 39.2876C54.845 40.4258 54.3449 41.4242 53.2745 42.0632C52.2042 42.7721 50.7738 43.1315 48.9232 43.1315C47.5728 43.2713 46.5025 43.0517 45.6422 42.6922Z" fill="white"/>
<path d="M30.9377 41.7038C29.8674 40.7054 29.2972 39.2078 29.2272 37.2109V36.502C29.2972 34.645 29.8674 33.2272 30.9377 32.1589C32.008 31.0906 33.5085 30.5914 35.3691 30.5914C36.7295 30.5914 37.8698 30.881 38.8001 31.3802C39.7304 31.9493 40.4406 32.6581 40.8707 33.5867C41.3009 34.5152 41.581 35.5835 41.581 36.7916V37.4306C41.581 37.5704 41.5109 37.7201 41.4409 37.8599C41.3009 37.9997 41.1508 37.9997 41.0108 37.9997H33.5785V38.1394C33.5785 38.8483 33.7186 39.4174 34.0787 39.8467C34.3688 40.2761 34.8689 40.4857 35.4391 40.4857C35.7992 40.4857 36.0793 40.4158 36.3694 40.2761C36.5794 40.1363 36.7995 39.9166 37.0096 39.707C37.1496 39.5672 37.2997 39.4174 37.3697 39.4174C37.4397 39.3475 37.5797 39.3475 37.7998 39.3475H40.8707C41.0108 39.3475 41.1608 39.4174 41.2309 39.4873C41.3009 39.5572 41.3709 39.697 41.3709 39.7768C41.3709 40.2062 41.1608 40.6355 40.6607 41.2046C40.1605 41.7737 39.5203 42.203 38.6601 42.6323C37.7998 42.9917 36.7295 43.2014 35.5191 43.2014C33.5085 43.2713 32.008 42.6922 30.9377 41.7038ZM37.2897 35.6434C37.2897 34.8547 37.1496 34.2856 36.7895 33.8662C36.4294 33.4369 35.9993 33.2272 35.4291 33.2272C34.8589 33.2272 34.3587 33.4369 34.0687 33.8662C33.7786 34.2956 33.5685 34.8646 33.5685 35.5735V35.6434H37.2897Z" fill="white"/>
<path d="M19.1541 43.0516C19.014 42.9118 19.014 42.7621 19.014 42.6223V31.6497C19.014 31.5099 19.0841 31.3602 19.1541 31.2204C19.2941 31.0806 19.4442 31.0806 19.5842 31.0806H22.4351C22.5751 31.0806 22.7252 31.1505 22.8652 31.2204C23.0053 31.3602 23.0053 31.5099 23.0053 31.6497V32.5782C23.4354 32.079 23.9356 31.7196 24.5757 31.4401C25.1459 31.1505 25.7861 31.0806 26.5063 31.0806H27.5767C27.7167 31.0806 27.8668 31.1505 28.0068 31.2204C28.1468 31.3602 28.1468 31.5099 28.1468 31.6497V34.2157C28.1468 34.3554 28.0768 34.5052 28.0068 34.645C27.8668 34.7847 27.7167 34.7847 27.5767 34.7847H25.2159C24.5757 34.7847 24.0756 34.9245 23.7855 35.284C23.4254 35.6434 23.2854 36.1426 23.2854 36.7117V42.6223C23.2854 42.7621 23.2153 42.9118 23.1453 43.0516C23.0053 43.1914 22.8552 43.1914 22.7152 43.1914H19.6442C19.4442 43.2713 19.3041 43.1914 19.1541 43.0516Z" fill="white"/>
<path d="M11.7317 43.4211H2.87903C2.30885 43.4211 1.8287 43.2314 1.44859 42.842C1.06847 42.4626 0.868408 41.9833 0.868408 41.4142V2.0767C0.868408 1.48764 1.07847 0.93851 1.44859 0.57908C1.8287 0.189699 2.30885 0 2.87903 0H20.2244C25.646 0 29.9574 1.258 33.0383 3.74405C36.1493 6.18019 37.7297 9.84437 37.7297 14.6168C37.7297 19.4391 36.1192 23.0734 32.9583 25.4296C29.8873 27.7659 25.576 28.954 20.1543 28.954H18.2838V28.4448C18.2838 26.2683 18.2137 23.5726 18.2137 23.5426V23.5027V23.4727C18.2938 22.7639 18.5939 22.0949 19.114 21.4859C20.2744 20.2578 21.4547 18.9998 22.9352 18.0414C23.1853 17.8517 23.4454 17.652 23.7054 17.3924C23.7454 17.3524 23.7855 17.3225 23.8355 17.2826C23.8555 17.2626 23.8955 17.2426 23.9055 17.2227L23.9255 17.1927C23.9155 17.1927 23.9055 17.1927 23.9055 17.1927C23.2153 17.3125 22.5451 17.5322 21.8449 17.7718L21.5248 17.8816C20.9646 18.0414 20.5745 18.1811 20.1343 18.3608C19.8743 18.4906 19.4441 18.4807 19.194 17.9814L19.154 17.8616C18.7339 15.9547 18.2337 14.0277 17.6636 12.1208L17.5335 11.6815C17.2935 10.9027 17.0534 10.094 16.7533 9.39508C16.7133 9.27527 16.6433 9.15546 16.5732 9.03565C16.5332 9.10554 16.5232 9.17543 16.5232 9.20538C16.4532 9.96418 16.5932 10.693 16.7333 11.4618C16.9534 12.5401 17.1634 13.6883 17.2434 14.8664V15.3956C17.2434 15.6551 17.1534 15.8548 16.9834 15.9746C16.7233 16.1643 16.4232 16.0645 16.2831 16.0146L16.1631 15.9547C15.803 15.715 15.693 15.3756 15.6029 15.126C15.1728 13.6982 14.6627 12.2505 14.1725 10.8528C14.1025 10.683 14.0425 10.4933 13.9824 10.2937C13.9324 10.1339 13.8824 9.96418 13.8224 9.80443C13.7524 9.58478 13.5523 9.45499 13.3823 9.47495C13.3022 9.49492 13.2722 9.50491 13.2622 9.51489C13.2622 9.51489 13.2522 9.53486 13.2422 9.59476C13.2522 9.72456 13.2922 9.91426 13.3522 10.094C13.7024 11.3719 14.0825 12.5601 14.4926 13.828L14.8027 14.7865C14.8227 14.8963 14.8527 15.0062 14.8827 15.106C14.9527 15.3257 15.0228 15.5853 15.0228 15.8848C15.0228 15.9946 15.0228 16.2342 14.8027 16.4639L14.6526 16.6136H14.4426C14.1525 16.6136 13.9024 16.4139 13.8224 16.1543C13.5523 15.725 13.2622 15.3057 12.9821 14.8864C12.682 14.4471 12.3719 13.9878 12.0819 13.5185C11.5717 12.6898 10.9715 11.8711 10.2013 10.9426C10.2013 10.9426 10.1813 10.9227 10.1513 10.8927H10.1413C10.1012 10.8827 10.0712 10.8727 10.0712 10.8727C10.0712 10.8727 10.0512 10.8827 10.0312 10.9027C10.1913 11.4818 10.4814 12.0109 10.6814 12.3704C10.9615 12.8895 11.3016 13.3788 11.6717 13.8879C11.9418 14.2673 12.2119 14.6567 12.462 15.0561C12.662 15.3956 12.8721 15.735 13.0622 15.9946C13.3322 16.2941 13.3522 16.7135 13.1022 16.973C12.8521 17.2227 12.432 17.2027 12.1319 16.9331C11.8818 16.7534 11.6417 16.5637 11.3916 16.374C11.1516 16.1843 10.9015 15.9946 10.6614 15.8149C10.2813 15.5453 9.89118 15.2658 9.50106 14.9563C9.6111 15.096 9.72113 15.2258 9.82116 15.3257C10.6014 16.1044 11.3516 17.0529 11.9618 18.0513C12.1119 18.281 12.2819 18.5206 12.442 18.7602C12.8521 19.3593 13.2322 19.9184 13.5923 20.5274C13.9224 20.9567 14.0525 21.4859 13.9624 22.065L13.7524 41.4142C13.7524 41.9733 13.5623 42.4526 13.1722 42.842C12.7821 43.2214 12.3019 43.4211 11.7317 43.4211ZM2.87903 1.01838C2.58894 1.01838 2.35887 1.10824 2.16881 1.29794C1.99876 1.46767 1.88872 1.76719 1.88872 2.0767V41.4142C1.88872 41.7038 1.97875 41.9334 2.16881 42.1231C2.35887 42.3128 2.58894 42.4027 2.87903 42.4027H11.7317C12.0218 42.4027 12.2519 42.3128 12.442 42.1231C12.632 41.9334 12.7221 41.7038 12.7221 41.4142L12.9421 21.9452C12.9921 21.6257 12.9321 21.3561 12.7621 21.1364L12.7221 21.0765C12.3719 20.4875 11.9918 19.9284 11.5917 19.3393C11.4317 19.0997 11.2616 18.8601 11.0916 18.6104C10.5014 17.662 9.81116 16.7833 9.08093 16.0545C8.84086 15.8149 8.61079 15.5154 8.39072 15.2158L8.34071 15.136C8.3307 15.106 8.30069 15.0761 8.28069 15.0461C8.20066 14.9363 8.09063 14.7666 8.07062 14.5469C8.0006 14.2074 8.11064 13.9778 8.21067 13.848C8.3207 13.7082 8.54077 13.5385 8.93089 13.5385C9.27099 13.5385 9.54108 13.6583 9.79115 13.8979C10.2113 14.2574 10.6414 14.5669 11.1016 14.8963C11.0015 14.7566 10.9015 14.6168 10.8115 14.477C10.4514 13.9578 10.0712 13.4287 9.77115 12.8596C9.38103 12.1906 9.14095 11.6215 9.01091 11.1024C8.94089 10.8927 8.88087 10.4234 9.44104 10.054C9.82116 9.80443 10.1413 9.8244 10.3913 9.90427C10.6814 9.94421 10.8515 10.1439 10.9215 10.2437L10.9715 10.2937C11.7718 11.2621 12.402 12.1108 12.9421 12.9894C13.0722 13.199 13.2122 13.4087 13.3422 13.6184C12.9921 12.5401 12.672 11.4918 12.3719 10.4035C12.3219 10.2437 12.2119 9.87432 12.2119 9.55483L12.2219 9.45499C12.3319 8.89587 12.632 8.59635 13.1922 8.48652C13.8724 8.36671 14.5526 8.79603 14.7727 9.46497C14.8427 9.62472 14.9027 9.8244 14.9527 10.0141C15.0028 10.1738 15.0528 10.3436 15.1128 10.5033C15.3929 11.3021 15.683 12.1108 15.953 12.9295C15.883 12.5002 15.793 12.0708 15.713 11.6515C15.5629 10.8428 15.4129 10.0041 15.4929 9.15546C15.4929 8.69619 15.763 8.25689 16.2031 8.03724L16.2731 8.00728C16.9133 7.79762 17.1934 8.11711 17.3035 8.29683C17.4635 8.52646 17.6136 8.76608 17.7036 9.03565C18.0037 9.74453 18.2538 10.5832 18.5038 11.3819L18.6339 11.8212C19.174 13.6383 19.6542 15.4654 20.0643 17.2826C20.4244 17.1428 20.7845 17.023 21.2147 16.9032L21.5048 16.8033C22.265 16.5537 22.9752 16.3041 23.7654 16.1743L23.8455 16.1643C24.1756 16.1643 24.6157 16.1643 24.9158 16.6036C25.0058 16.7434 25.2559 17.2227 24.7558 17.7618C24.6557 17.9215 24.5257 18.0114 24.4457 18.0813C24.1056 18.4108 23.7955 18.6404 23.5054 18.8601C22.1049 19.7686 21.0146 20.9268 19.8642 22.1448C19.5041 22.5642 19.2741 23.0434 19.214 23.5326C19.2241 23.8421 19.2741 25.9787 19.2841 27.9157H20.1343C25.3259 27.9157 29.4272 26.7974 32.3181 24.6009C35.219 22.4444 36.6894 19.0797 36.6894 14.6068C36.6894 10.1639 35.239 6.76925 32.3881 4.5328C29.4872 2.19651 25.396 1.0084 20.2144 1.0084H2.87903V1.01838ZM19.7342 17.4323C19.7242 17.4323 19.7142 17.4423 19.7142 17.4423C19.7242 17.4423 19.7342 17.4323 19.7342 17.4323Z" fill="white"/>
</g>
<defs>
<clipPath id="clip0">
<rect width="110" height="43.4211" fill="white"/>
</clipPath>
</defs>
</svg>
