<svg width="40" height="50" viewBox="0 0 40 47" fill="none" xmlns="http://www.w3.org/2000/svg">
<g clip-path="url(#clip0)">
<path d="M12.4701 46.1538H3.06026C2.4542 46.1538 1.94383 45.9522 1.53979 45.5383C1.13575 45.135 0.923096 44.6256 0.923096 44.0207V2.2074C0.923096 1.58127 1.14638 0.997577 1.53979 0.615526C1.94383 0.201638 2.4542 0 3.06026 0H21.4973C27.2601 0 31.8428 1.33718 35.1177 3.97969C38.4244 6.56915 40.1044 10.4639 40.1044 15.5367C40.1044 20.6626 38.3925 24.5255 35.0326 27.0301C31.7684 29.5134 27.1857 30.7763 21.4228 30.7763H19.4345V30.2351C19.4345 27.9215 19.3601 25.0562 19.3601 25.0243V24.9819V24.95C19.4452 24.1965 19.7641 23.4855 20.317 22.8381C21.5504 21.5328 22.8051 20.1956 24.3787 19.1768C24.6445 18.9752 24.921 18.7629 25.1974 18.487C25.2399 18.4446 25.2825 18.4127 25.3356 18.3703C25.3569 18.349 25.3994 18.3278 25.4101 18.3066L25.4313 18.2748C25.4207 18.2748 25.4101 18.2748 25.4101 18.2748C24.6764 18.4021 23.964 18.6356 23.2197 18.8903L22.8795 19.007C22.2841 19.1768 21.8694 19.3254 21.4016 19.5164C21.1251 19.6544 20.6679 19.6438 20.4021 19.1131L20.3596 18.9858C19.913 16.9588 19.3814 14.9106 18.7753 12.8836L18.6371 12.4166C18.3819 11.5889 18.1267 10.7293 17.8077 9.98638C17.7652 9.85903 17.6908 9.73168 17.6163 9.60433C17.5738 9.67862 17.5632 9.75291 17.5632 9.78474C17.4888 10.5913 17.6376 11.366 17.7865 12.1832C18.0204 13.3293 18.2437 14.5498 18.3287 15.802V16.3645C18.3287 16.6404 18.233 16.8527 18.0523 16.98C17.7758 17.1817 17.4569 17.0755 17.308 17.0225L17.1804 16.9588C16.7976 16.7041 16.6807 16.3433 16.585 16.078C16.1278 14.5604 15.5855 13.0216 15.0645 11.5358C14.9901 11.3554 14.9263 11.1538 14.8625 10.9415C14.8093 10.7717 14.7562 10.5913 14.6924 10.4215C14.6179 10.188 14.4053 10.0501 14.2245 10.0713C14.1395 10.0925 14.1076 10.1031 14.0969 10.1137C14.0969 10.1137 14.0863 10.135 14.0757 10.1986C14.0863 10.3366 14.1288 10.5382 14.1926 10.7293C14.5648 12.0877 14.9688 13.3505 15.4048 14.6983L15.7344 15.7171C15.7556 15.8339 15.7875 15.9506 15.8194 16.0567C15.8939 16.2902 15.9683 16.5661 15.9683 16.8845C15.9683 17.0013 15.9683 17.256 15.7344 17.5L15.5749 17.6592H15.3516C15.0432 17.6592 14.7774 17.447 14.6924 17.1711C14.4053 16.7147 14.0969 16.269 13.7992 15.8233C13.4802 15.3563 13.1506 14.8681 12.8423 14.3694C12.3 13.4885 11.6621 12.6183 10.8433 11.6313C10.8433 11.6313 10.8221 11.6101 10.7902 11.5783H10.7796C10.737 11.5676 10.7051 11.557 10.7051 11.557C10.7051 11.557 10.6839 11.5676 10.6626 11.5889C10.8327 12.2044 11.1411 12.7669 11.3537 13.1489C11.6514 13.7008 12.0129 14.2208 12.4063 14.762C12.6934 15.1653 12.9805 15.5792 13.2463 16.0037C13.459 16.3645 13.6823 16.7253 13.8843 17.0013C14.1714 17.3196 14.1926 17.7654 13.9268 18.0413C13.661 18.3066 13.2144 18.2854 12.8954 17.9988C12.6296 17.8078 12.3744 17.6062 12.1086 17.4045C11.8535 17.2029 11.5876 17.0013 11.3325 16.8102C10.9284 16.5237 10.5137 16.2265 10.0991 15.8976C10.216 16.0461 10.333 16.1841 10.4393 16.2902C11.2687 17.118 12.0661 18.1262 12.7147 19.1874C12.8742 19.4315 13.0549 19.6862 13.2251 19.9409C13.661 20.5777 14.065 21.172 14.4478 21.8193C14.7987 22.2757 14.9369 22.8381 14.8412 23.4537L14.6179 44.0207C14.6179 44.615 14.4159 45.1244 14.0012 45.5383C13.5866 45.9416 13.0762 46.1538 12.4701 46.1538ZM3.06026 1.08248C2.75191 1.08248 2.50736 1.17799 2.30534 1.37963C2.12458 1.56004 2.00763 1.87842 2.00763 2.2074V44.0207C2.00763 44.3285 2.10332 44.5726 2.30534 44.7742C2.50736 44.9759 2.75191 45.0714 3.06026 45.0714H12.4701C12.7785 45.0714 13.023 44.9759 13.2251 44.7742C13.4271 44.5726 13.5228 44.3285 13.5228 44.0207L13.7567 23.3263C13.8099 22.9867 13.7461 22.7002 13.5653 22.4667L13.5228 22.403C13.1506 21.7769 12.7466 21.1826 12.3213 20.5565C12.1512 20.3018 11.9704 20.047 11.7897 19.7817C11.1623 18.7735 10.4287 17.8396 9.65249 17.0649C9.39731 16.8102 9.15276 16.4919 8.91884 16.1735L8.86568 16.0886C8.85505 16.0567 8.82315 16.0249 8.80188 15.9931C8.71682 15.8763 8.59986 15.6959 8.5786 15.4624C8.50417 15.1016 8.62113 14.8575 8.72745 14.7196C8.84441 14.571 9.07833 14.3906 9.493 14.3906C9.85451 14.3906 10.1416 14.5179 10.4074 14.7726C10.854 15.1547 11.3112 15.4837 11.8003 15.8339C11.694 15.6853 11.5876 15.5367 11.4919 15.3882C11.1092 14.8363 10.7051 14.2738 10.3861 13.6689C9.97147 12.9579 9.71629 12.353 9.57807 11.8011C9.50364 11.5783 9.43984 11.0795 10.0353 10.6868C10.4393 10.4215 10.7796 10.4427 11.0454 10.5276C11.3537 10.5701 11.5345 10.7823 11.6089 10.8884L11.6621 10.9415C12.5127 11.9709 13.1825 12.873 13.7567 13.8069C13.8949 14.0298 14.0438 14.2526 14.182 14.4755C13.8099 13.3293 13.4696 12.215 13.1506 11.0582C13.0975 10.8884 12.9805 10.4958 12.9805 10.1562L12.9911 10.0501C13.1081 9.45575 13.4271 9.13738 14.0225 9.02064C14.7455 8.89329 15.4685 9.34963 15.7025 10.0607C15.7769 10.2305 15.8407 10.4427 15.8939 10.6444C15.947 10.8142 16.0002 10.9946 16.064 11.1644C16.3617 12.0134 16.67 12.873 16.9571 13.7432C16.8827 13.2869 16.787 12.8305 16.7019 12.3848C16.5424 11.5252 16.383 10.6337 16.468 9.73168C16.468 9.2435 16.7551 8.77655 17.2229 8.54308L17.2974 8.51124C17.9779 8.28838 18.2756 8.62798 18.3925 8.819C18.5626 9.06309 18.7221 9.31779 18.8178 9.60433C19.1368 10.3578 19.4026 11.2493 19.6684 12.0983L19.8067 12.5652C20.3808 14.4967 20.8912 16.4388 21.3271 18.3703C21.7099 18.2217 22.0927 18.0943 22.5499 17.967L22.8582 17.8609C23.6663 17.5956 24.4212 17.3302 25.2612 17.1923L25.3463 17.1817C25.6971 17.1817 26.165 17.1817 26.484 17.6486C26.5797 17.7972 26.8455 18.3066 26.3138 18.8797C26.2075 19.0495 26.0693 19.145 25.9842 19.2193C25.6227 19.5695 25.2931 19.8136 24.9848 20.047C23.4962 21.0128 22.3372 22.2438 21.1145 23.5386C20.7317 23.9843 20.4872 24.4937 20.4234 25.0137C20.434 25.3427 20.4872 27.6138 20.4978 29.6726H21.4016C26.9199 29.6726 31.2793 28.484 34.3521 26.1492C37.4356 23.8569 38.9986 20.2805 38.9986 15.5261C38.9986 10.8035 37.4569 7.19529 34.4265 4.81808C31.3431 2.33475 26.9943 1.07186 21.4866 1.07186H3.06026V1.08248ZM20.9763 18.5295C20.9656 18.5295 20.955 18.5401 20.955 18.5401C20.9656 18.5401 20.9763 18.5295 20.9763 18.5295Z" fill="white"/>
</g>
<defs>
<clipPath id="clip0">
<rect width="40" height="46.1538" fill="white"/>
</clipPath>
</defs>
</svg>
