<svg width="36" height="50" viewBox="0 0 36 50" fill="none" xmlns="http://www.w3.org/2000/svg">
<g clip-path="url(#clip0)">
<path d="M17.7071 49.8737L3.27742 45.8679L0.0617676 9.80139H35.3956L32.1766 45.8623L17.7071 49.8737Z" fill="#264DE4"/>
<path d="M29.4206 43.566L32.1713 12.7502H17.7285V46.8074L29.4206 43.566Z" fill="#2965F1"/>
<path d="M7.43335 26.1269L7.82975 30.5503H17.7285V26.1269H7.43335Z" fill="#EBEBEB"/>
<path d="M6.63672 17.1738L7.0388 21.5972H17.7285V17.1738H6.63672Z" fill="#EBEBEB"/>
<path d="M17.7285 37.615L17.7091 37.6201L12.7827 36.2899L12.4678 32.7621H8.02734L8.64701 39.7075L17.7081 42.2227L17.7285 42.2172V37.615Z" fill="#EBEBEB"/>
<path d="M8.37744 0H13.7348V2.24044H10.6179V4.48089H13.7351V6.72119H8.37744V0Z" fill="black"/>
<path d="M14.8063 0H20.1638V1.9482H17.0467V2.33781H20.1638V6.8187H14.8064V4.77286H17.9235V4.38324H14.8062V0H14.8063Z" fill="black"/>
<path d="M21.2354 0H26.5928V1.9482H23.4758V2.33781H26.5928V6.8187H21.2354V4.77286H24.3524V4.38324H21.2355V0H21.2354Z" fill="black"/>
<path d="M27.9954 26.1269L28.7939 17.1738H17.7133V21.5972H23.9462L23.5437 26.1269H17.7133V30.5503H23.1602L22.6467 36.2871L17.7131 37.6187V42.2206L26.7814 39.7075L26.8479 38.9601L27.8875 27.3147L27.9954 26.1269Z" fill="white"/>
</g>
<defs>
<clipPath id="clip0">
<rect width="35.4571" height="50" fill="white"/>
</clipPath>
</defs>
</svg>
