<svg width="36" height="50" viewBox="0 0 36 50" fill="none" xmlns="http://www.w3.org/2000/svg">
<g clip-path="url(#clip0)">
<path d="M35.3956 9.80139L32.1766 45.8623L17.7071 49.8737L3.27742 45.8679L0.0617676 9.80139H35.3956Z" fill="#E44D26"/>
<path d="M17.7285 46.8074L29.4206 43.566L32.1713 12.7502H17.7285V46.8074Z" fill="#F16529"/>
<path d="M11.4709 21.5972H17.7285V17.1738H6.63672L6.74254 18.3605L7.82979 30.5503H17.7285V26.1269H11.8752L11.4709 21.5972Z" fill="#EBEBEB"/>
<path d="M12.4678 32.7621H8.02734L8.64701 39.7075L17.7081 42.2227L17.7285 42.2172V37.615L17.7091 37.6201L12.7827 36.2899L12.4678 32.7621Z" fill="#EBEBEB"/>
<path d="M3.34888 0H5.5968V2.22091H7.65317V0H9.90123V6.72548H7.65331V4.4734H5.59694V6.72548H3.34902V0H3.34888Z" fill="black"/>
<path d="M12.8573 2.23033H10.8787V0H17.0856V2.23033H15.1057V6.72548H12.8577V2.23033H12.8576H12.8573Z" fill="black"/>
<path d="M18.0706 0H20.4145L21.8563 2.36316L23.2967 0H25.6416V6.72548H23.4028V3.39197L21.8563 5.78324H21.8175L20.27 3.39197V6.72548H18.0706V0Z" fill="black"/>
<path d="M26.7604 0H29.009V4.50249H32.1702V6.72548H26.7603V0H26.7604Z" fill="black"/>
<path d="M17.7133 30.5503H23.1602L22.6467 36.2871L17.7131 37.6187V42.2207L26.7814 39.7075L26.8479 38.9601L27.8875 27.3147L27.9954 26.1269H17.7133V30.5503Z" fill="white"/>
<path d="M17.7131 21.5864V21.5972H28.3978L28.4864 20.603L28.6881 18.3605L28.7937 17.1738H17.7131V21.5866V21.5864Z" fill="white"/>
</g>
<defs>
<clipPath id="clip0">
<rect width="35.4571" height="50" fill="white"/>
</clipPath>
</defs>
</svg>
