<svg width="56" height="50" viewBox="0 0 56 50" fill="none" xmlns="http://www.w3.org/2000/svg">
<g clip-path="url(#clip0)">
<path d="M27.5862 0L12.0377 1.64397L0 17.8034L27.5862 49.9272L55.1724 17.8032L43.1349 1.64397L27.5862 0Z" fill="#FDB300"/>
<path d="M0 17.8034L27.5862 49.9271L11.1737 17.8034H0Z" fill="#EB6C00"/>
<path d="M43.9985 17.8034L27.5862 49.9271L55.1724 17.8034H43.9985Z" fill="#EB6C00"/>
<path d="M11.1738 17.8034L27.5863 49.9271L43.9988 17.8034H11.1738Z" fill="#FDAD00"/>
<path d="M12.0378 1.64397L11.1736 17.8034L27.5863 0L12.0378 1.64397Z" fill="#FDD231"/>
<path d="M43.9985 17.8034L43.1347 1.64397L27.5862 0L43.9985 17.8034Z" fill="#FDD231"/>
<path d="M43.9988 17.8035H55.1725L43.135 1.64398L43.9988 17.8035Z" fill="#FDAD00"/>
<path d="M0 17.8035H11.1737L12.0377 1.64398L0 17.8035Z" fill="#FDAD00"/>
<path d="M27.5863 0L11.1738 17.8032H43.9988L27.5863 0Z" fill="#FEEEB7"/>
</g>
<defs>
<clipPath id="clip0">
<rect width="55.1724" height="50" fill="white"/>
</clipPath>
</defs>
</svg>
