<svg width="51" height="50" viewBox="0 0 51 50" fill="none" xmlns="http://www.w3.org/2000/svg">
<g clip-path="url(#clip0)">
<path d="M48.4517 5.28994L38.1088 0.310022C37.5247 0.0287915 36.8676 -0.063928 36.2284 0.0446938C35.5893 0.153316 34.9997 0.457908 34.5413 0.916321L0.682235 31.7878C-0.228395 32.6183 -0.227214 34.052 0.684597 34.8811L3.45035 37.3953C3.81166 37.7238 4.27654 37.9155 4.7644 37.9372C5.25226 37.959 5.73233 37.8093 6.12141 37.5142L46.8954 6.58187C48.2633 5.54427 50.2281 6.51986 50.2281 8.23679V8.11672C50.2281 7.52611 50.0614 6.9475 49.7471 6.44743C49.4329 5.94736 48.9839 5.54615 48.4517 5.28994Z" fill="#0065A9"/>
<path d="M48.4517 44.6488L38.1088 49.6287C37.5247 49.9099 36.8676 50.0026 36.2285 49.8939C35.5893 49.7853 34.9998 49.4808 34.5413 49.0224L0.682235 18.1509C-0.228395 17.3206 -0.227214 15.8868 0.684597 15.0578L3.45035 12.5435C3.81168 12.215 4.27658 12.0233 4.76443 12.0016C5.25229 11.9799 5.73236 12.1296 6.12141 12.4248L46.8954 43.3568C48.2633 44.3944 50.2281 43.4188 50.2281 41.7017V41.822C50.2281 42.4126 50.0613 42.9912 49.7471 43.4913C49.4329 43.9913 48.9839 44.3925 48.4517 44.6488Z" fill="#007ACC"/>
<path d="M38.0765 49.6327C37.4922 49.9137 36.835 50.0063 36.1958 49.8976C35.5567 49.7889 34.967 49.4842 34.5085 49.0258C35.6662 50.1833 37.6459 49.3634 37.6459 47.726V2.21911C37.6459 0.581705 35.6662 -0.238177 34.5085 0.919501C34.967 0.461051 35.5566 0.156381 36.1958 0.0476238C36.835 -0.0611337 37.4922 0.0313949 38.0765 0.312414L48.4176 5.28545C48.9501 5.54151 49.3994 5.94274 49.7139 6.44294C50.0283 6.94313 50.1952 7.52197 50.1952 8.11281V41.8327C50.1952 43.0384 49.5042 44.1376 48.4176 44.6601L38.0765 49.6329V49.6327Z" fill="#1F9CF0"/>
<path d="M35.596 49.7255C35.9955 49.8812 36.4227 49.9531 36.8511 49.9366C37.2795 49.9202 37.6999 49.8157 38.0862 49.6298L48.4208 44.6568C48.9531 44.4006 49.4023 43.9993 49.7166 43.4991C50.031 42.9989 50.1977 42.4202 50.1976 41.8294V8.10974C50.1977 7.51902 50.031 6.94028 49.7167 6.4401C49.4024 5.93992 48.9533 5.53862 48.421 5.28238L38.086 0.309153C37.5021 0.0281947 36.8452 -0.0643031 36.2064 0.0444608C35.5676 0.153225 34.9783 0.457872 34.5203 0.916239L14.7356 18.9666L6.1175 12.4249C5.72875 12.1298 5.24897 11.9801 4.7614 12.0018C4.27382 12.0235 3.80922 12.2152 3.4482 12.5436L0.684228 15.058C-0.227189 15.8869 -0.228174 17.3208 0.681866 18.1511L8.15568 24.9696L0.681866 31.7879C-0.228174 32.6184 -0.227189 34.0521 0.684228 34.8812L3.4482 37.3954C3.8092 37.7238 4.27378 37.9156 4.76136 37.9373C5.24894 37.959 5.72873 37.8093 6.1175 37.5143L14.7356 30.9723L34.5203 49.0225C34.8262 49.3289 35.1926 49.5683 35.596 49.7255ZM37.6559 13.5739L22.6437 24.9696L37.6559 36.3649V13.5741V13.5739Z" fill="url(#paint0_linear)" fill-opacity="0.25"/>
</g>
<defs>
<linearGradient id="paint0_linear" x1="25.0988" y1="0.00012207" x2="25.0988" y2="49.9389" gradientUnits="userSpaceOnUse">
<stop stop-color="white"/>
<stop offset="1" stop-color="white" stop-opacity="0"/>
</linearGradient>
<clipPath id="clip0">
<rect width="50.3937" height="50" fill="white"/>
</clipPath>
</defs>
</svg>
